<svg width="1440" height="181" viewBox="0 0 1440 181" fill="none" xmlns="http://www.w3.org/2000/svg">
<g opacity="0.4" clip-path="url(#clip0)">
<path d="M61.3594 48.4475C7.33594 100.737 -0.375 188.299 51.7266 244.783C103.828 301.268 196.875 293.111 241.148 251.604C277.711 217.315 284.063 192.729 285.539 157.197C286.875 124.713 279.82 90.8928 252.188 61.2444C221.531 28.385 182.977 15.4241 148.172 15.6819C112.805 15.9397 82.9688 27.5412 61.3594 48.4475Z" fill="#6C6E70"/>
<path d="M97.9921 32.4866C97.9921 32.4866 89.2264 16.4085 85.3358 13.01C81.4452 9.61158 55.7343 2.41627 33.2343 23.721C15.2108 40.76 17.3905 66.5881 20.8124 70.01C24.2343 73.4319 39.0936 84.5882 39.0936 84.5882L49.3124 68.0413L37.6171 57.8225C37.6171 57.8225 39.0702 43.221 49.3124 34.9475C59.5546 26.6741 73.1718 28.1272 73.1718 28.1272L81.4452 38.8381L97.9921 32.4866Z" fill="#6C6E70"/>
<path d="M153.422 25.5256C124.477 22.8069 80.6953 35.2991 52.9922 71.4631C36.2812 93.2834 23.9062 123.213 26.5078 160.924C32.8593 252.588 108.867 277.455 154.992 276.213C210.164 274.737 279.727 228.635 276.047 148.151C272.344 67.0334 209.648 30.8225 153.422 25.5256Z" fill="#302F2F"/>
<path d="M56.6016 83.2756C19.8985 136.338 30.3985 201.916 75.6329 240.213C120.867 278.51 191.109 278.51 237.938 228.893C274.617 190.033 282.375 123.33 230.391 68.5803C197.133 33.5412 108.188 8.67406 56.6016 83.2756Z" fill="#D28333"/>
<path d="M96.164 65.1818C74.7656 79.2677 38.5781 118.924 49.9687 167.979C60.8671 214.971 91.7577 253.643 154.57 254.674C217.383 255.705 250.617 199.385 252.703 160.455C254.789 121.526 233.742 76.0802 191.437 58.9474C149.133 41.8146 115.125 52.7365 96.164 65.1818Z" fill="#F2AB47"/>
<path d="M132.258 107.44L125.109 110.393C125.109 110.393 119.812 124.948 124.289 126.846C128.789 128.721 134.133 125.393 137.18 123.237C140.227 121.08 154.266 108.612 157.594 105.283C160.922 101.955 167.156 98.6272 167.016 96.1663C166.875 93.7053 166.008 92.1116 162.375 90.5178C158.766 88.9006 132.258 107.44 132.258 107.44Z" fill="#A05C3C"/>
<path d="M141.094 82.8068C136.523 84.2365 131.672 94.8302 129.516 99.7521C127.336 104.674 121.992 114.236 126.914 116.111C131.836 117.986 138.656 112.643 144.141 107.276C149.648 101.908 155.719 94.6662 158.484 92.9318C161.227 91.1974 162.398 90.4709 162.398 90.4709C162.398 90.4709 154.008 85.1037 149.508 83.3693C145.008 81.6584 143.414 82.0802 141.094 82.8068Z" fill="#C67C5D"/>
<path d="M85.2421 83.9554C85.2421 83.9554 85.3359 82.9476 88.8046 83.6741C92.2734 84.4007 91.7109 87.5882 92.1327 91.057C92.578 94.5257 93.5859 107.862 91.8515 111.19C90.1171 114.518 88.7343 115.174 87.3749 115.784C85.6405 116.557 81.4218 116.416 80.6952 115.971C79.9687 115.526 78.0937 112.643 78.0937 111.33C78.0937 110.018 76.2187 96.9866 76.2187 96.9866L85.2421 83.9554Z" fill="#A05C3C"/>
<path d="M76.0782 89.7678C74.461 91.7835 74.6251 97.1506 75.9375 102.94C77.25 108.729 78.1172 111.33 78.1172 111.33C78.1172 111.33 84.3516 109.877 86.2266 105.823C88.1016 101.768 86.3672 83.3694 86.3672 83.3694C86.3672 83.3694 82.3125 84.3772 80.7422 86.4163C79.7344 87.7053 77.8125 87.5881 76.0782 89.7678Z" fill="#C67C5D"/>
<path d="M116.484 170.275C116.484 170.275 113.695 176.557 117 178.83C120.305 181.127 126.141 183.658 134.953 185.018C143.766 186.377 154.102 186.588 157.5 185.182C161.391 183.565 163.008 180.096 162.914 176.111C162.82 172.127 159.516 168.658 157.312 167.135C155.109 165.611 144.937 159.846 144.937 159.846L116.484 170.275Z" fill="#A05C3C"/>
<path d="M127.148 155.627C121.547 156.846 118.711 163.033 118.008 165.283C117.328 167.393 116.391 170.369 116.391 170.369C116.391 170.369 121.734 175.971 128.93 177.752C136.125 179.533 139.172 179.862 140.531 179.791C141.891 179.697 151.031 176.908 151.453 174.026C151.875 171.143 147.563 161.815 145.359 160.127C143.156 158.44 139.383 156.94 135.867 156.307C132.586 155.698 130.641 154.854 127.148 155.627Z" fill="#C67C5D"/>
<path d="M201.656 113.322C201.656 113.322 198.867 113.065 197.391 115.197C196.547 116.393 196.875 120.424 199.078 121.924C201.281 123.401 204.375 123.799 206.766 123.354C209.766 122.791 215.977 119.018 219.445 116.885C223.453 114.424 227.344 112.221 227.977 109.713C228.633 107.182 228.422 105.565 228.047 104.861C226.969 102.916 201.656 113.322 201.656 113.322Z" fill="#A05C3C"/>
<path d="M213.023 102.635C209.531 105.19 207.398 106.572 204.234 109.174C202.336 110.721 197.906 114.541 197.906 114.541C197.906 114.541 200.484 118.549 206.367 118.432C212.25 118.291 219.047 112.737 221.227 110.744C223.406 108.752 228.141 104.932 228.141 104.932C228.141 104.932 227.203 101.51 221.742 100.408C217.945 99.6115 215.227 101.041 213.023 102.635Z" fill="#C67C5D"/>
<path d="M207.188 165.448C207.188 165.448 215.109 167.065 219.68 171.19C222.023 173.299 227.203 183.19 226.5 186.87C225.797 190.549 224.344 193.784 219.234 194.581C212.344 195.635 208.195 191.838 208.195 191.838L207.188 165.448Z" fill="#A05C3C"/>
<path d="M204.539 166.127C200.906 167.908 200.508 173.651 202.875 182.932C205.242 192.213 210.328 192.916 211.898 193.362C213.469 193.807 220.664 190.901 220.734 187.057C220.828 183.213 213.82 171.471 211.617 168.94C209.438 166.385 208.289 164.276 204.539 166.127Z" fill="#C67C5D"/>
<path d="M220.5 149.651C217.031 150.049 214.805 154.596 216.187 159.869C217.57 165.143 221.133 169.244 224.601 169.127C228.07 169.033 230.508 167.44 228.914 161.135C227.344 154.83 226.078 149.041 220.5 149.651Z" fill="#97A63B"/>
<path d="M152.156 47.299C150.375 48.2834 146.672 54.8693 148.148 60.4709C149.625 66.0725 151.945 66.1662 155.109 65.7443C158.273 65.3225 160.476 60.1662 160.383 55.8537C160.289 51.5412 156.68 44.7677 152.156 47.299Z" fill="#97A63B"/>
<path d="M118.523 47.5804C117.211 50.6039 117.68 54.2132 122.109 57.471C126.539 60.7289 130.805 60.096 131.906 59.7914C133.805 59.2757 140.016 55.057 137.273 50.1117C134.531 45.1664 130.008 46.9476 127.687 46.5257C125.367 46.1039 120.516 42.9632 118.523 47.5804Z" fill="#97A63B"/>
<path d="M115.289 67.3149C112.242 68.1586 111.609 72.5883 112.242 74.0649C112.875 75.5414 115.195 78.7992 119.203 81.0258C123.211 83.2289 129 83.768 130.359 79.9711C131.719 76.1742 131.695 73.3383 129.211 70.7133C125.719 66.9867 120.234 65.9555 115.289 67.3149Z" fill="#97A63B"/>
<path d="M98.3437 88.0568C97.9453 90.0958 100.289 97.2677 103.828 100.057C107.93 103.315 112.242 101.838 112.664 95.7443C113.086 89.6505 109.5 83.7443 106.242 82.9943C102.961 82.2677 98.8594 85.3146 98.3437 88.0568Z" fill="#97A63B"/>
<path d="M238.383 105.237C233.648 107.182 233.508 113.088 234.797 115.83C236.226 118.854 239.719 121.033 244.172 119.416C247.57 118.174 249.75 113.088 247.664 109.01C245.578 104.932 241.594 103.924 238.383 105.237Z" fill="#684D42"/>
<path d="M159.305 76.338C156.281 80.2755 157.125 84.9396 161.109 86.9318C165.094 88.924 169.898 86.6506 171.234 83.2521C172.57 79.8537 172.078 76.6193 168.774 74.6505C165.164 72.4708 161.203 73.8771 159.305 76.338Z" fill="#684D42"/>
<path d="M90.9609 71.0413C87.3046 74.2991 87.2812 79.9241 89.8359 82.4788C92.8594 85.5023 98.8125 85.0335 101.766 82.2913C104.719 79.5491 104.883 75.6585 101.859 71.9788C98.9531 68.4866 94.4531 67.9241 90.9609 71.0413Z" fill="#684D42"/>
<path d="M124.734 134.627C122.789 137.674 122.648 142.666 127.477 145.315C130.969 147.237 135.703 146.252 137.789 142.76C139.875 139.268 138.914 134.627 135.609 132.635C132.305 130.643 127.383 130.455 124.734 134.627Z" fill="#684D42"/>
<path d="M93.9845 159.026C91.0079 162.002 90.586 169.432 96.3517 171.893C102.117 174.354 106.195 172.924 108.281 168.494C110.578 163.596 107.906 159.119 104.297 157.619C99.7267 155.674 96.0704 156.94 93.9845 159.026Z" fill="#684D42"/>
<path d="M182.906 151.08C182.344 154.573 188.766 162.705 194.437 160.268C200.109 157.83 199.453 146.37 196.336 144.471C193.219 142.573 188.484 144.94 186.68 145.807C184.898 146.627 183.305 148.596 182.906 151.08Z" fill="#EA4333"/>
<path d="M207.773 127.432C204.375 131.135 206.156 137.369 208.43 139.362C210.703 141.354 217.125 141.072 219.305 140.58C221.484 140.112 223.945 136.807 223.57 134.041C223.195 131.276 222.82 125.252 218.836 123.729C215.531 122.487 210.914 124.033 207.773 127.432Z" fill="#EA4333"/>
<path d="M166.922 106.619C165.891 108.659 164.836 117.776 168.82 119.862C172.805 121.948 182.062 117.307 182.531 115.127C183 112.948 182.156 108.987 181.312 106.994C180.469 105.002 179.226 101.51 176.859 101.041C174.492 100.573 168.422 103.596 166.922 106.619Z" fill="#EA4333"/>
<path d="M68.039 87.518C65.7421 86.7445 58.3827 90.5414 57.6327 92.1586C56.8827 93.7758 56.789 103.901 58.5702 105.307C60.3749 106.737 65.3906 106.01 67.0781 105.213C68.8827 104.37 72.2812 102.565 72.3749 99.4476C72.4921 96.307 72.0234 88.8305 68.039 87.518Z" fill="#EA4333"/>
<path d="M76.6641 165.354C72.6094 165.776 69.375 171.987 69.375 173.674C69.375 175.362 71.2734 179.721 73.1484 181.244C75.0469 182.768 76.8281 183.612 79.2891 182.955C81.75 182.299 86.4844 177.94 86.0156 174.541C85.5703 171.143 80.3672 164.979 76.6641 165.354Z" fill="#EA4333"/>
<path d="M168.586 178.947C168.891 182.44 169.43 186.94 172.922 186.682C176.414 186.424 176.672 181.244 176.578 178.455C176.414 173.697 174.633 170.299 171.656 170.651C168.68 170.955 168.258 175.033 168.586 178.947Z" fill="#D28333"/>
<path d="M70.1485 133.994C66.8907 134.065 65.3673 139.197 65.6016 143.604C65.8126 148.01 66.8204 152.205 70.3126 152.135C73.7814 152.065 74.3673 147.424 74.297 142.432C74.2032 137.463 73.4064 133.924 70.1485 133.994Z" fill="#D28333"/>
<path d="M84.0468 136.315C80.9296 136.385 79.4296 141.448 79.4999 146.581C79.5703 151.713 80.7187 153.377 83.414 153.588C86.1094 153.799 87.3984 149.252 87.75 145.198C88.1015 141.143 87.6562 136.221 84.0468 136.315Z" fill="#D28333"/>
<path d="M65.9765 111.869C64.5468 113.041 63.3046 118.737 65.3905 122.346C67.4765 125.955 71.3905 130.596 74.7186 128.862C78.0468 127.127 74.1327 119.463 72.6327 116.557C71.1093 113.674 68.9999 109.408 65.9765 111.869Z" fill="#D28333"/>
<path d="M108.844 104.768C105.82 105.237 104.953 108.119 105.961 113.088C106.899 117.799 108.492 120.237 111.164 120.166C113.836 120.096 114.563 114.166 114.281 110.979C114.024 108.143 113.039 104.112 108.844 104.768Z" fill="#D28333"/>
<path d="M122.742 88.2211C119.156 87.0492 116.672 89.0882 115.664 95.6039C114.633 102.19 115.945 104.791 117.914 105.518C119.859 106.245 123.047 103.784 125.156 97.1273C126.609 92.4164 126.492 89.4398 122.742 88.2211Z" fill="#D28333"/>
<path d="M135.539 75.1895C137.719 77.1348 140.813 74.3223 143.273 71.5098C145.734 68.6973 146.813 66.5177 144.797 64.9239C142.781 63.3302 139.523 64.5724 137.133 67.5255C134.742 70.4786 133.289 73.1739 135.539 75.1895Z" fill="#D28333"/>
<path d="M215.25 83.6506C212.484 83.8381 210.844 86.1818 210.984 91.2443C211.125 96.3069 212.297 97.76 214.664 97.8303C217.055 97.9006 218.578 95.0881 218.789 90.8928C219 86.6974 218.273 83.4396 215.25 83.6506Z" fill="#D28333"/>
<path d="M193.828 123.658C190.852 123.869 190.5 127.338 190.852 131.252C191.203 135.166 192.797 137.698 194.602 137.463C196.758 137.205 198.867 135.213 198.656 129.799C198.516 125.979 196.453 123.448 193.828 123.658Z" fill="#D28333"/>
<path d="M157.969 121.034C155.86 123.541 156.305 124.948 160.711 129.354C165.117 133.76 168.094 134.932 170.977 132.026C173.859 129.143 170.25 125.885 167.227 123.424C164.18 120.963 160.195 118.362 157.969 121.034Z" fill="#D28333"/>
<path d="M181.242 124.151C179.461 124.573 176.391 127.619 176.766 131.463C177.117 135.307 180.68 142.455 182.976 141.869C185.297 141.284 186.656 139.69 185.578 131.955C184.828 126.565 183.422 123.659 181.242 124.151Z" fill="#D28333"/>
<path d="M228.211 120.26C225.164 121.221 226.992 125.533 227.461 127.877C227.93 130.221 230.578 138.705 231.703 146.135C232.828 153.565 233.672 166.174 233.203 169.291C232.734 172.408 233.297 174.19 235.266 174.752C237.234 175.315 239.695 173.721 240.445 170.229C241.195 166.737 241.758 150.072 240.445 139.643C239.156 129.401 233.859 118.479 228.211 120.26Z" fill="#768040"/>
<path d="M146.133 134.955C145.477 138.19 148.852 138.354 152.25 141.822C155.649 145.315 160.43 148.315 164.766 153.025C169.102 157.736 172.383 161.205 173.438 162.26C174.469 163.291 178.336 166.69 178.336 166.69C178.336 166.69 181.055 170.744 183.141 174.119C185.227 177.494 186.539 179.768 188.602 179.111C190.664 178.455 190.102 172.994 189.164 169.783C188.227 166.572 184.734 157.924 174.961 147.565C165.188 137.205 158.109 131.088 153.867 131.182C149.602 131.275 146.695 132.213 146.133 134.955Z" fill="#768040"/>
<path d="M96.3281 112.268C93.7031 111.822 91.8985 113.58 90.961 114.518C90.0235 115.455 88.5235 120.26 88.8985 122.041C89.2735 123.822 93.3985 129.072 101.414 137.205C108.281 144.166 114.68 147.658 116.672 148.69C118.641 149.721 122.508 150.471 123.539 147.658C124.219 145.83 121.383 143.979 120.234 142.573C119.109 141.166 114.023 135.143 109.688 129.213C105.375 123.26 99.1641 112.737 96.3281 112.268Z" fill="#768040"/>
<path d="M57.1641 104.721C54.3281 104.112 51.6328 108.19 50.8594 113.487C49.8281 120.448 50.4844 132.776 51.9844 143.51C53.2266 152.276 56.0391 160.737 58.9453 165.448C60.8906 168.565 63.1875 171.002 64.6875 170.159C66.1875 169.315 67.125 167.534 65.9063 163.198C64.6875 158.862 61.1953 147.19 60.0703 135.518C58.9453 123.846 59.3203 115.479 59.4141 113.112C59.5313 110.745 61.5938 105.659 57.1641 104.721Z" fill="#768040"/>
<path d="M45.3984 159.893C44.1797 160.408 40.4063 164.697 40.875 166.197C41.3438 167.697 45.6797 175.151 52.0781 182.205C58.4766 189.26 65.7188 195.752 67.9922 195.471C70.2656 195.19 72.7969 194.065 72.8907 192.072C72.9844 190.104 72.9844 188.018 71.7657 186.893C70.5469 185.768 62.5313 181.994 57.0703 175.69C51.6094 169.385 48.0469 158.768 45.3984 159.893Z" fill="#768040"/>
<path d="M170.789 60.9632C168.984 62.135 167.109 65.2991 169.477 68.5803C171.82 71.885 174.75 76.1975 179.461 83.4631C184.172 90.7053 187.641 100.502 188.508 102.002C189.352 103.502 191.719 104.627 193.031 102.94C194.344 101.252 195.375 97.9475 194.438 93.6116C193.641 89.9084 188.789 79.01 186.164 74.6038C183.539 70.1975 177.891 62.2757 175.992 61.2444C174.094 60.2132 172.102 60.096 170.789 60.9632Z" fill="#768040"/>
<path d="M190.289 64.0568C188.438 65.5802 189.727 68.0177 191.32 70.2677C192.914 72.5177 195.938 76.7599 198 82.3146C200.063 87.8693 201.422 92.9084 201.773 94.174C202.336 96.2365 203.648 97.6662 205.172 97.2912C206.672 96.9162 207.586 96.2599 207.422 93.3302C207.328 91.4552 206.063 84.6818 204.398 79.9708C201.961 73.0099 195.844 66.5177 194.695 65.2755C193.57 64.0568 191.883 62.7443 190.289 64.0568Z" fill="#768040"/>
<g clip-path="url(#clip1)">
<path d="M183.586 280.15C203.669 300.234 226.111 310.375 247.653 288.834C262.944 273.542 259.053 244.859 238.961 224.759C218.869 204.675 190.194 200.784 174.894 216.075C153.353 237.617 163.494 260.05 183.586 280.15ZM238.194 225.534C253.261 240.6 256.178 262.117 244.711 273.592C228.561 289.742 211.728 282.134 196.653 267.067C181.578 252.009 173.978 235.184 190.136 219.017C201.603 207.55 223.119 210.467 238.194 225.534ZM442.128 21.5922C422.044 1.50057 399.611 -8.63276 378.061 12.9089C362.769 28.2006 366.661 56.8839 386.753 76.9755C406.844 97.0672 435.511 100.959 450.819 85.6589C472.361 64.1172 462.219 41.6755 442.128 21.5922ZM387.519 76.2005C372.453 61.1339 369.536 39.6255 381.003 28.1506C397.153 12.0006 413.986 19.6006 429.061 34.6672C444.136 49.7339 451.736 66.5589 435.578 82.7172C424.111 94.1838 402.594 91.2672 387.519 76.2005Z" fill="#292F33"/>
<path d="M312.857 292.536C391.098 292.536 454.524 229.11 454.524 150.869C454.524 72.6291 391.098 9.20276 312.857 9.20276C234.617 9.20276 171.19 72.6291 171.19 150.869C171.19 229.11 234.617 292.536 312.857 292.536Z" fill="#292F33"/>
<path d="M426.19 150.869C426.19 213.461 375.449 264.203 312.857 264.203C250.265 264.203 199.524 213.461 199.524 150.869C199.524 88.2777 250.265 37.536 312.857 37.536C375.449 37.536 426.19 88.2777 426.19 150.869Z" fill="#FFAC33"/>
<path d="M324.899 89.7444L303.74 68.5861C305.325 66.744 306.129 64.3572 305.983 61.932C305.836 59.5068 304.751 57.234 302.956 55.5959C301.162 53.9577 298.8 53.0831 296.372 53.1575C293.943 53.2319 291.639 54.2495 289.949 55.9944C287.699 58.2444 286.849 61.3527 287.357 64.2527C285.394 63.9037 283.371 64.1901 281.582 65.0703C279.793 65.9504 278.332 67.3785 277.41 69.1466C276.489 70.9148 276.156 72.9308 276.46 74.9013C276.763 76.8717 277.688 78.6939 279.099 80.1027C282.557 83.5611 288.015 83.711 291.69 80.636L312.849 101.786L324.899 89.7444Z" fill="#FFE8B6"/>
<path d="M393.432 170.336C399.457 164.311 414.691 138.453 393.607 117.369C378.915 102.678 367.074 103.519 345.049 98.0611C336.015 95.0444 324.232 84.1861 321.224 81.1777C318.207 84.1861 319.265 95.2027 319.265 95.2027C319.265 95.2027 306.14 96.2694 303.124 99.2777C306.132 102.286 320.132 115.528 322.582 121.736C329.165 142.636 328.415 153.269 343.115 167.953C367.207 192.044 387.415 176.361 393.432 170.336Z" fill="#C1694F"/>
<path d="M240.632 138.369C240.632 154.478 266.457 167.536 250.357 167.536C246.527 167.536 242.734 166.782 239.196 165.316C235.657 163.85 232.442 161.702 229.733 158.993C227.025 156.285 224.876 153.07 223.411 149.531C221.945 145.992 221.19 142.2 221.19 138.369C221.19 134.539 221.945 130.746 223.411 127.208C224.876 123.669 227.025 120.454 229.733 117.745C232.442 115.037 235.657 112.889 239.196 111.423C242.734 109.957 246.527 109.203 250.357 109.203C266.465 109.203 240.632 122.261 240.632 138.369ZM313.007 217.453C326.332 223.878 347.474 207.728 341.04 221.061C337.948 227.464 332.44 232.376 325.726 234.717C319.012 237.058 311.643 236.636 305.24 233.544C298.838 230.452 293.925 224.943 291.584 218.23C289.243 211.516 289.665 204.147 292.757 197.744C299.19 184.411 299.682 211.019 313.007 217.453Z" fill="#77B255"/>
<path d="M287.857 159.203C297.062 159.203 304.524 151.741 304.524 142.536C304.524 133.331 297.062 125.869 287.857 125.869C278.652 125.869 271.19 133.331 271.19 142.536C271.19 151.741 278.652 159.203 287.857 159.203Z" fill="#F4900C"/>
</g>
<path d="M605.94 181.139C601.29 181.038 597.762 183.009 595.02 186.082C589.534 234.155 566.854 282.705 477.765 282.705C389.969 282.705 364.164 232.01 357.207 185.951C354.482 182.953 350.989 181.039 346.407 181.139C322.809 181.655 321.937 141.767 345.536 141.252C357.76 141.252 371.862 110.574 399.949 99.4199L386.996 149.008L383.378 151.377H568.97L565.352 149.008L552.4 99.4199C580.486 110.574 594.588 141.252 606.812 141.252C630.41 141.767 629.538 181.655 605.94 181.139Z" fill="#2B3B47"/>
<path d="M596.679 151.376C596.679 188.474 542.542 218.548 475.761 218.548C408.98 218.548 354.844 188.474 354.844 151.376C354.844 114.279 408.981 84.205 475.762 84.205C542.543 84.205 596.679 114.279 596.679 151.376Z" fill="#597B91"/>
<path d="M581.889 160.095C581.889 189.849 534.374 213.97 475.762 213.97C417.15 213.97 369.634 189.85 369.634 160.095C369.634 130.341 417.149 106.22 475.761 106.22C534.373 106.22 581.889 130.341 581.889 160.095Z" fill="#F9E7C0"/>
<path d="M480.395 102.968C484.903 89.3425 475.97 90.6879 468.56 105.139C468.465 105.126 468.371 105.114 468.276 105.103C472.478 91.5509 462.638 93.897 455.179 110.096C459.658 97.7519 452.072 98.0795 444.424 107.411C446.044 97.8228 437.597 100.825 430.859 114.957C427.769 114.417 426.474 116.252 428.328 120.194C427.808 120.388 427.291 120.594 426.78 120.812C417.003 112.959 410.62 115.255 418.3 125.552L418.161 125.648C406.675 114.113 397.607 115.107 404.998 125.799C404.864 125.839 404.729 125.885 404.589 125.935C393.718 115.567 385.445 116.649 392.168 126.688C390.319 126.823 388.131 127.14 385.538 127.692C366.48 131.748 373.465 140.027 392.342 136.791C383.651 148.212 392.536 149.842 404.24 138.584C404.327 138.627 404.412 138.669 404.497 138.71C396.12 150.162 406.188 151.14 418.505 138.243C410.259 148.462 417.539 150.617 427.804 144.277C422.642 153.765 434.274 152.599 446.785 137.426C450.381 137.38 454.931 136.707 460.159 135.098C460.159 135.098 461.383 132.859 460.656 130.955C466.785 131.15 467.458 127.017 458.192 121.179C473.666 129.313 482.792 125.43 471.997 117.477C472.11 117.395 472.224 117.308 472.339 117.215C485.989 123.488 493.462 119.777 483.842 112.468C485.547 111.739 487.513 110.728 489.786 109.364C506.492 99.3345 497.196 93.7746 480.395 102.968ZM410.133 132.022L410.166 131.98L410.311 132.128L410.258 132.18L410.133 132.022ZM423.722 132.058C423.772 131.991 423.822 131.927 423.872 131.86L423.871 131.852C424.016 131.993 424.159 132.128 424.302 132.262C424.216 132.334 424.131 132.408 424.045 132.482C423.938 132.34 423.831 132.199 423.722 132.058ZM451.812 117.344C451.96 117.444 452.107 117.542 452.254 117.64C452.229 117.719 452.202 117.796 452.177 117.875L452.181 117.883C451.997 117.797 451.819 117.716 451.64 117.635C451.697 117.539 451.755 117.442 451.812 117.344ZM464.949 113.15L465.118 113.258L465.101 113.309C465.038 113.276 464.978 113.247 464.915 113.216L464.949 113.15ZM449.957 128.742C449.052 128.016 447.971 127.251 446.709 126.456C448.169 127.227 449.665 127.929 451.19 128.562C450.796 128.613 450.382 128.674 449.957 128.742Z" fill="#2ABA34"/>
<path d="M522.809 118.469C547.418 118.469 547.418 143.457 522.809 143.457C498.2 143.457 498.2 118.469 522.809 118.469ZM541.266 172.589C565.875 172.589 565.875 147.602 541.266 147.602C516.657 147.602 516.657 172.589 541.266 172.589ZM528.668 196.993C553.278 196.993 553.278 172.006 528.668 172.006C504.059 172.006 504.059 196.993 528.668 196.993Z" fill="#F9F9F7"/>
<path d="M513.613 165.811C513.154 166.423 512.487 166.847 511.738 167.004C510.989 167.16 510.208 167.039 509.542 166.661L509.289 166.517L507.858 165.706C507.39 165.464 506.797 165.197 506.137 164.875C505.448 164.596 504.677 164.267 503.812 163.966C502.935 163.688 502.002 163.359 500.974 163.133C499.966 162.844 498.866 162.691 497.753 162.48L496.037 162.292C495.461 162.21 494.873 162.199 494.283 162.183L493.398 162.154L492.954 162.138L492.51 162.16L490.737 162.239C490.149 162.284 489.568 162.386 488.989 162.451L488.126 162.56L487.283 162.748C486.726 162.877 486.17 162.979 485.631 163.116L484.067 163.614C483.811 163.696 483.556 163.767 483.308 163.855L482.59 164.164L481.206 164.748C480.33 165.18 479.536 165.653 478.788 166.04C478.135 166.48 477.578 166.881 477.06 167.215L476.687 167.46L476.254 167.813L475.491 168.435L474.043 169.617C471.531 171.666 467.832 171.291 465.783 168.779C463.733 166.266 464.108 162.568 466.621 160.518C466.803 160.369 466.992 160.233 467.186 160.11L467.22 160.089L468.803 159.097C469.239 158.825 469.675 158.552 470.111 158.278L470.775 157.922C471.694 157.44 472.738 156.883 473.866 156.345C474.98 155.914 476.168 155.414 477.453 154.98L479.466 154.412L480.503 154.126C480.857 154.049 481.219 153.99 481.581 153.921L483.784 153.527C484.532 153.433 485.293 153.381 486.056 153.31L487.202 153.213L488.357 153.207C489.126 153.213 489.899 153.189 490.665 153.227L492.953 153.412L493.521 153.46L494.082 153.547L495.195 153.724C495.934 153.84 496.665 153.953 497.371 154.14C498.081 154.31 498.782 154.467 499.464 154.645C499.622 154.695 499.777 154.743 499.933 154.791C499.254 154.12 498.473 153.496 497.7 152.826L496.31 151.801C495.854 151.441 495.35 151.136 494.848 150.826L494.098 150.355L493.722 150.119L493.327 149.915L491.754 149.093C491.223 148.836 490.669 148.632 490.136 148.398L489.334 148.058L488.512 147.797C487.966 147.628 487.434 147.438 486.899 147.285L485.296 146.93C485.034 146.873 484.777 146.806 484.519 146.757L483.742 146.664L482.252 146.473C481.278 146.408 480.353 146.418 479.513 146.376C478.727 146.429 478.044 146.496 477.428 146.525L476.982 146.548L476.43 146.636L475.458 146.791L473.613 147.084C470.411 147.594 467.402 145.412 466.892 142.21C466.382 139.008 468.564 135.998 471.766 135.489C471.999 135.452 472.23 135.429 472.46 135.42L472.5 135.419L474.367 135.357L475.35 135.324L475.909 135.305L476.662 135.332C477.699 135.376 478.881 135.419 480.128 135.52C481.307 135.708 482.586 135.872 483.915 136.143L485.94 136.663L486.981 136.937C487.326 137.048 487.668 137.179 488.015 137.301L490.118 138.067C490.812 138.362 491.497 138.7 492.191 139.021L493.232 139.514L494.233 140.088C494.896 140.48 495.575 140.847 496.219 141.265L498.105 142.575L498.571 142.902L499.012 143.259L499.886 143.971C500.467 144.442 501.041 144.908 501.559 145.424C502.087 145.927 502.614 146.416 503.114 146.912C504.066 147.956 505.01 148.932 505.786 149.963C506.611 150.947 507.289 151.963 507.926 152.882C508.544 153.817 509.057 154.715 509.516 155.501C509.934 156.322 510.308 157.024 510.589 157.622L511.406 159.548C511.523 159.824 511.595 160.109 511.63 160.393L512.98 161.405C513.311 161.652 513.59 161.963 513.801 162.318C514.012 162.674 514.151 163.068 514.209 163.477C514.268 163.886 514.246 164.303 514.143 164.703C514.041 165.104 513.861 165.48 513.613 165.811Z" fill="#FF473E"/>
<path d="M462.692 201.556C444.143 196.448 455.954 156.663 476.515 158.845C497.075 161.028 533.468 221.047 462.692 201.556ZM446.203 163.701C454.862 144.925 408.587 129.86 397.802 145.793C356.652 206.586 437.546 182.478 446.203 163.701Z" fill="#E2AF8D"/>
<path d="M429.671 203.954C411.122 198.846 422.933 159.061 443.494 161.243C464.055 163.426 500.447 223.445 429.671 203.954Z" fill="#D19878"/>
<path d="M463.083 8.18899L464.089 8.29036C464.755 8.40051 465.66 8.33899 467.02 8.89739C467.676 9.13762 468.479 9.35266 469.152 9.81672C469.852 10.2544 470.699 10.6552 471.371 11.363L472.484 12.396C472.862 12.7593 473.14 13.2169 473.485 13.6505C474.214 14.5077 474.671 15.5712 475.203 16.6728C476.071 18.9193 476.703 21.5712 476.396 24.4013C476.124 27.2027 475.181 30.222 473.172 32.7948C471.235 35.4093 468.139 37.3716 464.881 38.1187L463.652 38.421C463.502 38.4796 463.029 38.557 462.732 38.6249L461.716 38.8347L460.969 39.0773C459.988 39.3532 458.886 39.8982 457.933 40.4302C456.017 41.5769 454.344 43.1413 453.181 45.0726C452.031 46.9956 451.163 49.139 450.859 51.3556C450.534 53.5564 450.546 55.7736 450.968 57.8044C451.391 59.8312 452.105 61.6898 453.042 63.2554C453.916 64.6916 455.007 65.984 456.276 67.0868C457.425 68.0982 458.621 68.7638 459.619 69.3099C460.65 69.7804 461.489 70.1677 462.091 70.3376L463.006 70.6611L463.087 70.6898C463.275 70.757 463.432 70.8895 463.53 71.063C463.628 71.2365 463.66 71.4395 463.621 71.6349C463.581 71.8302 463.473 72.0049 463.315 72.1269C463.158 72.2489 462.962 72.3101 462.763 72.2993L461.712 72.2378C461.02 72.2097 460.009 72.079 458.726 71.7849C457.469 71.4281 455.884 70.9786 454.269 69.9919C452.639 69.0532 450.902 67.7109 449.413 65.8646C446.387 62.2406 444.348 56.6437 444.929 50.6501C445.196 47.6712 446.041 44.5675 447.708 41.7773C449.325 38.9712 451.761 36.522 454.606 34.7823C456.097 33.9825 457.523 33.3087 459.224 32.8476L460.474 32.5072L461.494 32.3185C461.873 32.2435 462.085 32.2206 462.6 32.1023L463.374 31.9148C465.43 31.4525 467.297 30.5583 468.568 29.0085C469.854 27.5073 470.739 25.6447 471.139 23.7175C471.543 21.7769 471.355 19.8532 470.993 18.1364C470.723 17.3068 470.505 16.4718 470.089 15.7845C469.897 15.4341 469.767 15.0386 469.54 14.7339L468.866 13.8386C468.479 13.1917 467.881 12.8361 467.436 12.3603C466.983 11.8534 466.482 11.6349 466.046 11.3361C465.249 10.7085 464.215 10.412 463.626 10.1712L462.686 9.79739C462.584 9.75678 462.491 9.69646 462.412 9.61988C462.333 9.5433 462.271 9.45197 462.227 9.35109C462.184 9.25021 462.161 9.14176 462.159 9.03194C462.158 8.92212 462.178 8.81309 462.218 8.71106C462.286 8.54214 462.407 8.39989 462.563 8.30573C462.719 8.21157 462.901 8.1706 463.083 8.18899ZM414.756 39.1376C414.575 38.8527 414.287 38.6515 413.957 38.5783C413.627 38.5051 413.282 38.566 412.997 38.7474L412.323 39.1763C411.881 39.5068 411.249 39.7464 410.414 40.5198L409.054 41.7433L407.671 43.306C406.761 44.4919 405.856 45.9363 405.057 47.6372C404.356 49.3652 403.722 51.3281 403.468 53.4913C403.118 55.6511 403.291 57.9825 403.681 60.3591C404.088 62.7491 405.05 65.1169 406.331 67.3575C407.034 68.4415 407.739 69.5466 408.636 70.5146C409.06 71.0179 409.486 71.5241 409.988 71.9536L411.292 73.1156C412.046 73.8152 413.124 74.6566 413.438 75.1722C413.932 75.6749 414.413 76.4232 414.899 77.1263C415.739 78.6105 416.465 80.138 416.889 81.74C417.278 83.3361 417.582 84.9392 417.562 86.4896C417.619 88.0411 417.454 89.5236 417.177 90.8882C416.976 91.5439 416.891 92.2323 416.675 92.837C416.448 93.4341 416.263 94.0318 416.034 94.5702L415.347 96.0872C415.084 96.5267 414.839 96.9398 414.627 97.3306C414.221 98.131 413.734 98.6325 413.482 99.0661L413.055 99.703L412.945 99.8677C412.787 100.102 412.712 100.383 412.732 100.665C412.752 100.947 412.865 101.214 413.054 101.425C413.242 101.635 413.495 101.777 413.774 101.828C414.052 101.878 414.339 101.835 414.589 101.704C414.589 101.704 414.855 101.565 415.354 101.307C415.833 101.019 416.639 100.689 417.453 99.9949C417.879 99.6685 418.363 99.3058 418.853 98.8675L420.326 97.323C421.302 96.1441 422.266 94.6816 423.106 92.9454C423.822 91.1783 424.541 89.1732 424.765 86.949C425.096 84.7359 424.932 82.3388 424.453 79.9259C423.958 77.5054 422.928 75.1113 421.541 72.9017C420.787 71.8359 420.06 70.7665 419.004 69.713C417.941 68.5177 417.221 68.0642 416.354 67.2872L415.173 66.2911C414.81 66.0398 414.515 65.7193 414.213 65.4052C413.561 64.8175 413.058 64.1044 412.52 63.42C411.575 61.9663 410.779 60.4118 410.269 58.7794C409.792 57.1476 409.495 55.4794 409.497 53.8757C409.41 52.262 409.659 50.738 409.951 49.3347C410.286 47.9402 410.743 46.6839 411.259 45.6058L412.036 44.1075L412.797 42.9603C413.182 42.2402 413.842 41.6484 414.132 41.257L414.65 40.6505C414.827 40.443 414.933 40.184 414.952 39.9116C414.972 39.6393 414.903 39.368 414.756 39.1376ZM529.316 39.1376C529.134 38.8527 528.847 38.6515 528.517 38.5783C528.187 38.5051 527.841 38.566 527.556 38.7474L526.883 39.1763C526.441 39.5068 525.808 39.7464 524.973 40.5198L523.614 41.7433L522.231 43.306C521.321 44.4919 520.415 45.9363 519.616 47.6372C518.915 49.3652 518.281 51.3281 518.027 53.4913C517.677 55.6511 517.85 57.9825 518.24 60.3591C518.648 62.7491 519.609 65.1169 520.891 67.3575C521.593 68.4415 522.299 69.5466 523.195 70.5146C523.62 71.0179 524.045 71.5241 524.547 71.9536L525.851 73.1156C526.605 73.8152 527.683 74.6566 527.998 75.1722C528.492 75.6749 528.972 76.4232 529.459 77.1263C530.299 78.6105 531.025 80.138 531.449 81.74C531.837 83.3361 532.142 84.9392 532.122 86.4896C532.178 88.0411 532.013 89.5236 531.737 90.8882C531.536 91.5439 531.45 92.2323 531.235 92.837C531.007 93.4341 530.823 94.0318 530.594 94.5702L529.907 96.0872C529.644 96.5267 529.399 96.9398 529.187 97.3306C528.781 98.131 528.293 98.6325 528.041 99.0661L527.615 99.703L527.504 99.8677C527.347 100.102 527.272 100.383 527.292 100.665C527.311 100.947 527.425 101.214 527.613 101.425C527.802 101.635 528.055 101.777 528.333 101.828C528.611 101.878 528.898 101.835 529.149 101.704C529.149 101.704 529.415 101.565 529.913 101.307C530.393 101.019 531.198 100.689 532.012 99.9949C532.439 99.6685 532.923 99.3058 533.412 98.8675L534.886 97.323C535.861 96.1441 536.826 94.6816 537.665 92.9454C538.382 91.1783 539.101 89.1732 539.324 86.949C539.655 84.7359 539.491 82.3388 539.012 79.9259C538.518 77.5054 537.487 75.1113 536.1 72.9017C535.346 71.8359 534.619 70.7665 533.564 69.713C532.5 68.5177 531.78 68.0642 530.914 67.2872L529.733 66.2911C529.37 66.0398 529.075 65.7193 528.773 65.4052C528.12 64.8175 527.618 64.1044 527.08 63.42C526.134 61.9663 525.338 60.4118 524.828 58.7794C524.351 57.1476 524.054 55.4794 524.056 53.8757C523.969 52.262 524.219 50.738 524.511 49.3347C524.846 47.9402 525.302 46.6839 525.818 45.6058L526.596 44.1075L527.356 42.9603C527.742 42.2402 528.402 41.6484 528.691 41.257L529.209 40.6505C529.386 40.4429 529.492 40.1839 529.512 39.9116C529.531 39.6393 529.462 39.368 529.316 39.1376ZM487.234 97.1308C487.405 97.0076 487.521 96.8213 487.555 96.6129C487.59 96.4044 487.54 96.1909 487.417 96.0193L487.126 95.6144C486.96 95.3548 486.601 94.9511 486.377 94.4829C486.091 94.0417 485.811 93.4458 485.511 92.7603C485.259 92.0654 485.001 91.2861 484.933 90.4282C484.792 89.5845 484.885 88.6699 485.092 87.7681C485.298 86.8616 485.717 85.9605 486.309 85.1255C486.932 84.2457 487.692 83.4704 488.558 82.8286C488.777 82.6534 488.999 82.4806 489.253 82.3365L490.134 81.7716C490.721 81.3509 491.203 81.1224 491.938 80.3847C493.344 79.1062 494.155 77.8089 494.925 76.3693C495.671 74.9536 496.07 73.449 496.352 72.0017C496.636 70.5491 496.627 69.1159 496.532 67.7818C496.423 66.4435 496.124 65.2013 495.748 64.0939C495.397 63.0868 494.926 62.1251 494.348 61.2292C493.814 60.437 493.289 59.8019 492.777 59.3448C492.331 58.8456 491.832 58.5855 491.554 58.3722L491.106 58.0669C490.96 57.9669 490.785 57.9187 490.608 57.93C490.432 57.9413 490.265 58.0114 490.133 58.1291C490.001 58.2468 489.912 58.4054 489.881 58.5793C489.85 58.7533 489.878 58.9327 489.961 59.0888L490.029 59.2177L490.25 59.6366C490.369 59.9284 490.639 60.256 490.825 60.7857C491.042 61.2884 491.296 61.882 491.477 62.6079C491.675 63.3193 491.862 64.1261 491.941 65.0267C492.084 65.9097 492.06 66.8935 492.038 67.9089C492.017 68.932 491.816 69.9907 491.605 71.0624C491.367 72.1318 490.982 73.1882 490.517 74.1908C490.06 75.1429 489.365 76.197 488.74 76.7759C488.554 77.0677 487.84 77.5458 487.347 77.9572L487.321 77.9771C487.286 78.0017 487.588 77.7978 487.453 77.8892L487.438 77.9003L487.377 77.9437L487.258 78.0304L487.018 78.2044L486.544 78.5536C486.222 78.7745 485.923 79.0359 485.631 79.3031C484.436 80.3226 483.403 81.5624 482.685 82.9406C481.96 84.3034 481.447 85.7677 481.36 87.2074C481.267 88.6324 481.386 89.9923 481.777 91.1425C482.131 92.3056 482.678 93.2501 483.179 94.0447C483.74 94.7952 484.265 95.4128 484.768 95.8816C485.252 96.3878 485.63 96.5906 485.889 96.8126L486.285 97.115C486.421 97.2189 486.586 97.2766 486.757 97.2794C486.928 97.2823 487.095 97.2302 487.234 97.1308Z" fill="#D7F4F7"/>
<path d="M640.915 208.526C579.04 208.526 527.478 189.307 515.759 163.994C537.321 230.088 524.196 291.494 640.915 291.494C757.634 291.494 744.509 230.088 766.071 163.994C754.353 189.307 702.79 208.526 640.915 208.526Z" fill="#3E4347"/>
<path d="M583.259 96.9632C649.353 78.6819 801.228 106.338 767.946 169.151C786.228 189.776 792.79 211.807 705.603 210.401C571.54 241.807 460.915 176.651 509.665 127.432C497.946 103.526 523.728 91.3382 583.259 96.9632Z" fill="#6F7980"/>
<path d="M640.915 205.713C699.509 205.713 748.259 187.432 759.509 163.526C760.446 161.182 760.915 158.838 761.853 156.494C761.853 155.088 762.321 154.151 762.321 152.744C762.321 123.682 707.946 100.244 641.384 100.244C574.821 100.244 520.446 123.682 520.446 152.744C520.446 154.151 520.446 155.088 520.915 156.494C521.384 158.838 522.321 161.182 523.259 163.526C533.571 187.432 582.321 205.713 640.915 205.713Z" fill="#3E4347"/>
<path d="M640.915 205.713C699.509 205.713 748.259 187.432 759.509 163.526C759.509 162.588 759.978 162.119 759.978 161.182C750.134 136.338 700.446 117.588 640.446 117.588C580.446 117.588 530.759 136.338 520.915 161.182C521.384 162.119 521.384 162.588 521.384 163.526C533.571 187.432 582.321 205.713 640.915 205.713Z" fill="#FBBF67"/>
<path d="M657.321 143.369C633.884 142.901 605.29 161.651 586.071 160.244C554.196 157.901 587.009 173.369 609.509 173.369C624.509 173.369 634.821 159.776 642.79 154.151C654.04 147.119 681.696 143.838 657.321 143.369Z" fill="#D33B23"/>
<path d="M587.946 127.901C581.853 111.026 546.696 138.682 576.696 144.776C581.384 145.713 593.103 142.901 587.946 127.901Z" fill="#FF8736"/>
<path d="M655.915 180.869C648.415 160.244 604.822 194.463 642.322 201.494C647.947 202.432 662.478 199.151 655.915 180.869Z" fill="#FF8736"/>
<path d="M663.884 121.807C656.853 104.932 613.259 132.588 650.29 138.682C655.446 139.151 669.978 136.338 663.884 121.807Z" fill="#FF8736"/>
<path d="M735.603 140.088C732.79 121.807 677.009 132.119 715.446 151.338C721.071 154.151 737.946 156.494 735.603 140.088Z" fill="#FF8736"/>
<path d="M559.353 156.494C554.196 149.463 546.696 140.088 543.884 144.776C539.665 151.338 538.259 164.463 541.54 164.932C564.978 169.619 563.103 162.119 559.353 156.494Z" fill="#89664C"/>
<path d="M688.259 143.369C679.821 147.119 674.665 144.307 670.915 149.932C662.009 162.588 692.478 166.807 698.103 159.307C702.322 154.151 693.884 141.026 688.259 143.369Z" fill="#89664C"/>
<path d="M695.29 174.776C689.196 171.963 690.603 181.338 681.228 173.838C674.665 168.682 660.603 181.807 669.978 190.713C680.29 200.557 683.103 191.182 687.321 192.119C696.228 193.526 711.696 181.807 695.29 174.776Z" fill="#89664C"/>
<path d="M592.165 177.588C586.54 171.963 577.634 187.901 580.915 192.119C587.946 201.494 613.259 199.619 619.821 192.588C628.259 184.151 605.759 190.713 592.165 177.588Z" fill="#89664C"/>
<path d="M570.603 172.901C570.603 172.901 571.071 178.526 572.009 180.869C565.915 178.526 565.915 167.744 565.915 167.744C565.915 167.744 561.696 170.088 562.165 174.307C555.603 168.682 549.978 171.494 549.978 171.494C549.978 171.494 558.415 176.182 559.821 179.463C555.134 179.932 552.321 181.338 550.446 185.088C550.446 185.088 559.821 180.401 566.853 183.682C564.04 186.026 565.446 191.651 565.446 191.651C576.696 179.932 583.728 190.244 588.884 187.432C584.665 181.807 578.571 180.869 578.571 180.869C576.228 176.182 570.603 172.901 570.603 172.901Z" fill="#699635"/>
<path d="M621.228 126.963C615.603 126.026 609.978 128.838 609.978 128.838C609.978 128.838 615.134 131.182 617.478 132.119C612.321 136.338 602.946 130.713 602.946 130.713C602.946 130.713 602.946 135.401 606.696 137.276C598.728 140.088 597.79 146.651 597.79 146.651C597.79 146.651 606.228 141.963 609.509 142.432C607.165 146.651 607.165 149.932 609.978 153.213C609.978 153.213 610.915 142.901 617.478 138.682C617.946 142.432 623.571 143.838 623.571 143.838C619.353 128.369 632.009 127.432 632.009 121.807C625.446 121.807 621.228 126.963 621.228 126.963Z" fill="#699635"/>
<path d="M730.446 169.151C732.79 166.807 742.634 165.401 742.634 165.401C742.634 165.401 738.415 160.713 729.978 163.057C731.853 159.307 729.04 155.557 729.04 155.557C729.04 155.557 724.821 165.401 718.259 165.401C720.134 163.057 722.478 158.369 722.478 158.369C722.478 158.369 715.915 159.776 712.165 163.994C712.165 163.994 706.071 162.119 700.446 165.869C703.728 170.557 714.509 163.526 720.134 178.526C720.134 178.526 723.415 173.838 722.009 170.557C729.509 170.088 736.54 178.057 736.54 178.057C736.54 173.838 734.665 171.494 730.446 169.151Z" fill="#699635"/>
<g opacity="0.6">
<path opacity="0.6" d="M644.665 54.3069C627.322 36.4944 639.04 10.2444 639.04 10.2444C639.04 10.2444 602.478 44.9319 625.447 68.8381C652.165 96.4944 639.04 113.369 639.04 113.369C639.04 113.369 671.853 82.4319 644.665 54.3069Z" fill="#A6AEB0"/>
<path opacity="0.6" d="M593.103 70.2444C579.978 57.5881 588.884 38.3694 588.884 38.3694C588.884 38.3694 561.696 63.6819 579.04 81.0256C599.196 101.182 588.884 113.369 588.884 113.369C588.884 113.369 613.259 90.8694 593.103 70.2444Z" fill="#A6AEB0"/>
<path opacity="0.6" d="M696.228 70.2444C683.103 57.5881 692.009 38.3694 692.009 38.3694C692.009 38.3694 664.821 63.6819 682.165 81.0256C702.321 101.182 692.009 113.369 692.009 113.369C692.009 113.369 716.384 90.8694 696.228 70.2444Z" fill="#A6AEB0"/>
</g>
<path d="M930.85 223.807C928.179 229.338 916.999 228.987 910.835 227.041C895.085 222.072 885.288 208.526 885.288 208.526L804.1 174.072L779.233 161.018C779.233 161.018 774.405 152.815 784.061 146.557C793.718 140.299 800.491 139.83 800.491 139.83L828.475 157.643C828.475 157.643 846.546 143.58 864.897 141.448C882.429 139.432 904.249 153.682 909.991 180.588C914.655 202.408 922.038 210.096 924.264 212.932C926.491 215.791 933.147 219.072 930.85 223.807Z" fill="#FF8E00"/>
<path d="M833.585 76.2209C826.389 52.4084 817.296 24.5412 803.561 15.0021C791.397 6.56463 779.561 8.08807 773.936 11.7678C773.936 11.7678 763.788 15.9162 761.116 26.3928C756.71 43.5959 762.499 64.2443 766.272 85.5725C770.046 106.901 772.014 121.572 773.725 138.705C773.889 140.252 802.225 190.69 802.225 190.69L824.843 202.807C824.843 202.807 842.116 165.448 841.858 160.174C841.624 154.877 838.835 93.6115 833.585 76.2209Z" fill="#FFE4B4"/>
<path d="M774.593 157.76C774.288 163.455 788.022 208.854 788.022 208.854L824.866 202.76C824.866 202.76 850.999 187.291 851.725 159.237C852.85 116.932 845.608 97.01 840.358 79.6194C833.14 55.8538 817.061 24.5413 803.444 14.8382C795.452 9.14284 786.593 8.29909 782.96 9.00222C782.96 9.00222 807.147 27.9397 819.382 60.3303C831.616 92.7209 834.499 130.151 834.499 130.151C834.499 130.151 825.499 136.783 804.265 139.83C787.858 142.197 773.702 138.19 773.702 138.19C773.702 138.19 774.991 150.541 774.593 157.76Z" fill="#FFE265"/>
<path d="M851.421 197.158L836.679 166.362L837.475 155.393C837.475 155.393 840.616 146.182 820.999 161.065C811.905 167.955 806.421 180.658 806.421 180.658C806.421 180.658 803.655 173.815 793.952 164.768C785.327 156.752 773.725 152.862 773.725 152.862C773.725 152.862 749.632 148.174 747.007 150.213C730.015 163.479 717.593 179.627 717.593 179.627L705.1 226.854L684.335 239.58C684.335 239.58 690.007 247.877 698.21 244.783C704.608 242.369 712.53 235.127 716.796 226.01C722.655 213.471 734.96 189.752 741.218 182.252C753.311 167.815 765.171 162.541 774.007 166.737C784.061 171.494 776.022 218.979 776.022 218.979L711.382 273.377L710.28 280.783C710.28 280.783 719.679 289.807 745.577 288.963C771.475 288.119 806.116 278.533 828.03 248.651C847.366 222.307 851.421 197.158 851.421 197.158Z" fill="#FFA726"/>
<path d="M800.444 199.994C801.007 213.002 792.897 232.713 774.147 249.143C755.421 265.572 735.64 271.01 723.358 271.947C714.452 272.627 711.804 267.541 711.804 267.541C711.804 267.541 729.757 251.018 743.093 237.776C755.749 225.19 769.53 198.752 772.53 186.588C775.53 174.424 772.811 166.244 772.811 166.244C772.811 166.244 778.624 167.862 787.179 176.44C795.475 184.76 800.14 192.776 800.444 199.994Z" fill="#FFB803"/>
<path d="M707.116 230.182C699.429 240.846 691.718 242.463 688.53 242.815C685.741 243.143 682.694 239.58 683.046 236.299C683.397 233.018 688.788 228.401 689.444 218.323C690.1 208.244 689.304 171.283 709.811 150.049C724.272 135.096 741.991 140.252 753.429 144.213C766.319 148.666 773.749 152.885 773.749 152.885C773.749 152.885 763.202 152.158 745.014 166.502C734.444 174.846 728.233 186.307 722.374 199.455C718.155 208.971 712.53 222.682 707.116 230.182Z" fill="#FEE4B4"/>
<path d="M911.585 257.698C909.429 262.01 904.155 264.682 899.491 264.471C889.624 264.049 880.624 258.963 870.663 246.119C856.577 227.932 844.319 184.291 835.132 172.666C828.921 164.815 821.186 160.924 821.186 160.924C821.186 160.924 825.452 157.315 829.718 155.088C833.983 152.862 844.296 153.916 844.296 153.916L888.311 224.651L911.585 257.698Z" fill="#FEB804"/>
<path d="M886.718 161.323C896.374 175.127 897.64 187.244 899.093 199.619C900.405 210.799 903.101 234.307 907.155 241.971C911.233 249.635 915.194 254.627 910.811 259.291C906.429 263.955 893.538 262.291 884.28 252.213C876.827 244.08 872.702 235.221 867.1 222.213C861.499 209.205 853.249 178.502 842.538 164.627C835.694 155.768 828.874 155.51 828.874 155.51C828.874 155.51 837.897 148.151 855.124 147.963C870.569 147.799 878.679 149.838 886.718 161.323Z" fill="#FFE4B4"/>
<path d="M998.739 124.737L955.426 87.1896L971.505 75.2365C971.505 75.2365 1018.17 49.1037 1062.68 80.6037C1106.41 111.541 1102.29 203.533 1068.44 245.604C1034.6 287.674 1011.09 290.158 998.317 289.736C985.52 289.315 983.458 283.127 971.083 284.369C958.708 285.611 954.583 292.619 931.895 290.979C911.317 289.479 894.348 281.486 886.098 272.416C878.294 263.791 998.739 124.737 998.739 124.737Z" fill="#6EA517"/>
<path d="M1049.15 81.4944C1049.15 81.4944 1030.57 89.51 1012 90.9631C993.419 92.4162 960.278 89.8615 960.278 89.8615C960.278 89.8615 956.645 70.549 955.544 70.549C954.442 70.549 905.669 53.5803 869.95 80.3928C832.309 108.635 828.606 163.479 834.606 189.658C848.411 249.822 892.684 278.158 892.684 278.158C892.684 278.158 932.223 282.541 981.77 260.697C1031.32 238.854 1074.21 200.604 1073.2 149.252C1072.1 94.5959 1049.15 81.4944 1049.15 81.4944Z" fill="#87C244"/>
<path d="M902.645 92.0411C896.294 84.7052 878.856 86.3458 865.309 105.729C851.2 125.885 850.567 162.822 862.192 163.83C871.731 164.65 874.169 148.502 880.028 137.065C891.044 115.596 917.176 108.846 902.645 92.0411Z" fill="#E5DD9F"/>
<path d="M917.997 83.7444C915.208 89.5569 924.395 103.854 958.708 104.908C994.801 106.01 1006.64 85.9006 1002.51 81.2131C998.387 76.5256 984.887 84.2366 959.27 83.9788C933.653 83.721 922.755 73.8772 917.997 83.7444Z" fill="#59702C"/>
<path d="M935.833 44.5569C933.067 43.9944 921.794 42.0725 920.669 37.6663C920.153 35.5803 922.872 28.8538 930.044 23.885C937.216 18.9163 944.364 17.5569 946.028 21.4007C947.692 25.2678 947.13 27.7288 947.13 28.5725C947.13 29.3928 952.802 36.0257 956.762 44.5569C962.27 56.3928 965.294 67.971 964.755 79.8303C964.356 88.4085 964.192 100.502 959.247 99.6585C954.091 98.7913 955.169 86.6975 952.637 78.1663C946.591 57.7991 937.497 44.9085 935.833 44.5569Z" fill="#513532"/>
<path d="M1007.86 57.9631C1008.42 57.1428 1065.44 21.3303 1065.7 19.1272C1065.96 16.9241 1036.24 11.6741 1017.51 18.5647C998.786 25.4553 979.38 36.5413 970.122 55.76C962.692 71.1819 962.692 81.6584 964.614 84.1428C965.528 85.3147 1007.86 57.9631 1007.86 57.9631Z" fill="#2F7C31"/>
<path d="M1001.53 55.76C1026.7 39.6819 1065.72 19.1272 1065.72 19.1272C1065.72 19.1272 1066.9 22.1975 1059.4 35.1116C1049.48 52.1975 1026.32 74.2287 1002.91 81.1194C977.505 88.5959 964.614 84.1428 964.614 84.1428C964.614 84.1428 981.7 68.4397 1001.53 55.76Z" fill="#4C8C19"/>
<path d="M1056.36 53.3694C1079.33 76.3381 1083.08 91.8069 1075.58 99.3069C1068.08 106.807 1052.61 103.057 1029.64 80.0881C1006.67 57.1194 992.612 16.3381 992.612 16.3381C992.612 16.3381 1033.39 30.4006 1056.36 53.3694Z" fill="#64892F"/>
<path d="M1088.24 66.9631C1101.83 96.4944 1099.96 112.432 1090.58 116.651C1081.21 120.869 1067.61 112.432 1054.02 82.9006C1040.42 53.3694 1040.89 10.2444 1040.89 10.2444C1040.89 10.2444 1074.64 37.4319 1088.24 66.9631Z" fill="#64892F"/>
<path d="M1115.89 100.244C1102.3 129.776 1089.17 138.682 1079.8 133.994C1070.42 129.776 1068.08 113.838 1081.67 84.3069C1095.27 54.7756 1128.55 27.1194 1128.55 27.1194C1128.55 27.1194 1129.49 71.1819 1115.89 100.244Z" fill="#64892F"/>
<path d="M1103.24 85.2444C1101.36 117.588 1091.99 130.713 1081.67 130.244C1071.36 129.776 1063.39 115.713 1065.27 83.3694C1067.14 51.0256 1088.24 13.0569 1088.24 13.0569C1088.24 13.0569 1105.11 52.4319 1103.24 85.2444Z" fill="#64892F"/>
<path d="M1132.77 113.369C1112.14 138.213 1096.67 143.369 1088.71 136.338C1080.74 129.776 1083.08 113.838 1103.71 88.9944C1124.33 64.1506 1164.17 46.3381 1164.17 46.3381C1164.17 46.3381 1153.86 88.5256 1132.77 113.369Z" fill="#64892F"/>
<path d="M1043.24 111.963C1072.77 125.557 1088.71 123.682 1092.92 114.307C1097.14 104.932 1088.71 91.3381 1059.17 77.7444C1029.64 64.1506 986.518 64.6194 986.518 64.6194C986.518 64.6194 1013.71 98.3694 1043.24 111.963Z" fill="#64892F"/>
<path d="M1076.52 139.619C1106.05 126.026 1114.96 112.901 1110.27 103.526C1106.05 94.1507 1090.11 91.8069 1060.58 105.401C1031.05 118.994 1003.39 152.276 1003.39 152.276C1003.39 152.276 1047.46 153.213 1076.52 139.619Z" fill="#64892F"/>
<path d="M1061.52 126.963C1093.86 125.088 1106.99 115.713 1106.52 105.401C1106.05 95.0881 1091.99 87.1193 1059.64 88.9943C1027.3 90.8693 989.33 111.963 989.33 111.963C989.33 111.963 1028.71 128.838 1061.52 126.963Z" fill="#64892F"/>
<path d="M1089.64 156.494C1114.49 135.869 1119.64 120.401 1112.61 112.432C1106.05 104.463 1090.11 106.807 1065.27 127.432C1040.42 148.057 1022.61 187.901 1022.61 187.901C1022.61 187.901 1064.8 177.588 1089.64 156.494Z" fill="#64892F"/>
<path d="M1239.17 147.119C1276.67 184.619 1266.36 225.869 1234.02 257.744C1202.14 289.619 1160.42 300.401 1123.39 262.901C1085.89 225.401 1054.49 141.963 1086.36 110.088C1118.24 78.2133 1201.67 109.619 1239.17 147.119Z" fill="#B46137"/>
<path d="M1140.27 163.994C1135.58 168.682 1130.42 184.151 1134.64 188.369C1138.86 192.588 1154.8 187.432 1159.02 182.744C1163.71 178.057 1168.86 162.588 1164.64 158.369C1160.42 154.151 1144.96 159.776 1140.27 163.994Z" fill="#E7A74F"/>
<path d="M1113.08 136.807C1108.39 141.494 1103.24 156.963 1107.46 161.182C1111.67 165.401 1127.14 160.244 1131.83 155.557C1136.52 150.869 1141.67 135.401 1137.46 131.182C1133.24 126.963 1117.3 132.119 1113.08 136.807Z" fill="#E7A74F"/>
<path d="M1073.71 147.588C1069.02 152.276 1067.14 164.932 1071.36 169.151C1075.58 173.369 1088.24 171.494 1092.92 166.807C1097.61 162.119 1102.77 146.651 1098.55 142.432C1094.33 138.213 1077.92 142.901 1073.71 147.588Z" fill="#E7A74F"/>
<path d="M1073.71 179.463C1069.49 183.682 1077.46 209.932 1081.21 205.713C1085.42 201.495 1092.46 183.682 1088.24 179.463C1084.02 175.245 1077.92 175.245 1073.71 179.463Z" fill="#E7A74F"/>
<path d="M1099.96 174.776C1095.27 179.463 1091.52 196.807 1095.74 201.026C1099.96 205.244 1118.24 201.963 1122.46 197.276C1127.14 192.588 1129.96 175.244 1125.74 171.026C1121.52 166.807 1104.64 170.088 1099.96 174.776Z" fill="#E7A74F"/>
<path d="M1220.89 137.276C1227.46 130.713 1248.08 132.588 1253.71 154.151C1255.11 159.776 1219.02 170.557 1214.33 166.338C1206.36 158.369 1216.67 141.494 1220.89 137.276Z" fill="#E7A74F"/>
<path d="M1247.61 171.494C1264.02 155.088 1274.33 182.276 1263.55 193.526C1259.33 197.744 1247.61 199.151 1243.39 194.932C1238.71 190.713 1243.39 175.713 1247.61 171.494Z" fill="#E7A74F"/>
<path d="M1206.83 179.463C1211.52 174.775 1230.74 169.619 1234.96 173.838C1239.17 178.057 1234.96 198.213 1230.27 202.9C1225.58 207.588 1207.77 209.932 1203.55 205.713C1199.33 201.963 1202.14 184.15 1206.83 179.463Z" fill="#E7A74F"/>
<path d="M1179.17 151.807C1183.86 147.119 1201.67 140.557 1205.89 144.776C1210.11 148.994 1205.42 168.682 1200.74 173.369C1196.05 178.057 1178.71 181.807 1174.49 177.588C1170.27 173.369 1174.49 156.494 1179.17 151.807Z" fill="#E7A74F"/>
<path d="M1123.86 97.4319C1128.55 92.7444 1141.21 90.8694 1145.42 95.0881C1149.64 99.3069 1147.77 111.963 1143.08 116.651C1138.39 121.338 1122.92 126.494 1118.71 122.276C1114.02 117.588 1119.17 101.651 1123.86 97.4319Z" fill="#E7A74F"/>
<path d="M1155.74 97.4319C1159.96 93.2131 1186.21 101.182 1181.99 105.401C1177.77 109.619 1159.96 116.651 1155.74 112.432C1151.52 108.213 1151.52 101.651 1155.74 97.4319Z" fill="#E7A74F"/>
<path d="M1189.49 114.776C1195.11 109.151 1218.55 108.213 1220.89 123.213C1221.83 128.838 1190.89 142.901 1186.67 138.213C1182.46 134.463 1185.74 118.994 1189.49 114.776Z" fill="#E7A74F"/>
<path d="M1151.05 123.682C1155.74 118.994 1173.08 115.244 1177.3 119.463C1181.52 123.682 1178.24 141.963 1173.55 146.182C1168.86 150.869 1151.52 153.682 1147.3 149.463C1143.08 145.713 1146.36 128.369 1151.05 123.682Z" fill="#E7A74F"/>
<path d="M1079.8 87.1194C1097.14 104.463 1100.89 115.713 1096.67 119.932C1091.99 124.619 1081.21 120.869 1063.86 103.057C1046.52 85.2444 1033.39 56.1819 1033.39 56.1819C1033.39 56.1819 1062.46 69.7756 1079.8 87.1194Z" fill="#84B234"/>
<path d="M1097.61 148.526C1113.08 135.87 1115.42 126.026 1110.27 119.932C1105.11 113.838 1094.33 114.307 1078.86 126.495C1063.39 139.151 1054.02 164.932 1054.02 164.932C1054.02 164.932 1082.14 161.182 1097.61 148.526Z" fill="#84B234"/>
<path d="M1077.46 114.307C1099.49 114.307 1109.8 119.932 1111.21 126.963C1113.08 133.994 1105.11 140.088 1083.08 140.088C1061.52 140.557 1032.46 127.432 1032.46 127.432C1032.46 127.432 1055.42 114.307 1077.46 114.307Z" fill="#84B234"/>
<path d="M1075.11 96.4944C1097.61 102.588 1106.52 110.557 1106.05 117.588C1105.58 124.619 1096.21 127.432 1073.71 121.338C1051.21 115.244 1024.96 95.5569 1024.96 95.5569C1024.96 95.5569 1052.61 90.4006 1075.11 96.4944Z" fill="#84B234"/>
<path d="M1124.8 121.338C1112.14 136.807 1102.3 139.151 1096.21 133.994C1090.11 128.838 1090.58 118.057 1102.77 102.588C1115.42 87.1194 1141.21 77.7444 1141.21 77.7444C1141.21 77.7444 1137.46 105.869 1124.8 121.338Z" fill="#84B234"/>
<path d="M1090.58 101.182C1090.58 123.213 1096.21 133.526 1103.24 134.932C1110.27 136.807 1116.36 128.838 1116.36 106.807C1116.36 84.7756 1103.71 55.7131 1103.71 55.7131C1103.71 55.7131 1090.58 79.1506 1090.58 101.182Z" fill="#84B234"/>
<path d="M1072.77 98.8381C1078.86 121.338 1086.83 130.244 1093.86 129.776C1100.89 129.307 1103.71 119.932 1097.61 97.4319C1091.52 74.9319 1071.83 48.6819 1071.83 48.6819C1071.83 48.6819 1066.67 76.3381 1072.77 98.8381Z" fill="#84B234"/>
<path d="M1116.83 106.338C1111.67 96.0256 1101.36 88.5256 1101.36 88.5256C1101.36 88.5256 1097.61 96.4944 1095.74 105.401C1085.89 101.182 1069.49 92.7444 1069.49 92.7444C1069.49 92.7444 1077.92 109.151 1082.14 118.994C1072.77 120.869 1065.27 124.619 1065.27 124.619C1065.27 124.619 1073.24 134.932 1083.08 140.088C1075.58 150.869 1071.36 165.869 1071.36 165.869C1071.36 165.869 1100.42 157.432 1117.3 140.557C1134.17 123.682 1142.61 94.6194 1142.61 94.6194C1142.61 94.6194 1127.61 98.8381 1116.83 106.338Z" fill="#8CC63E"/>
<path d="M1301.91 25.6898C1271.74 20.3695 1253.46 38.2289 1250.88 67.2211C1250.32 73.5023 1245.3 79.0336 1241.48 83.9789C1228.66 100.643 1215.52 118.08 1202.06 134.346C1190.39 148.432 1180.38 163.713 1170.12 178.807C1148.77 210.354 1140.33 234.776 1152.23 272.252C1154.84 280.502 1160.79 293.979 1171.5 293.463C1182.21 292.971 1183.9 279.354 1185.84 271.596C1186.83 267.612 1188 262.877 1191.28 260.018C1193.04 258.495 1194.52 258.987 1196.48 258.448C1198.48 257.909 1198.64 257.51 1200.21 256.362C1204.59 253.151 1205.79 254.698 1209.16 258.002C1214.02 262.76 1222.05 262.385 1228.2 261.166C1231.78 260.463 1232.95 259.69 1235.09 257.018C1237.38 254.112 1240.9 252.213 1242.94 249.12C1245.05 245.932 1245.12 244.807 1249.01 243.518C1257.3 240.776 1259.58 246.541 1265.51 250.596C1271.32 254.581 1279.22 256.127 1286.09 254.534C1289.41 253.76 1290.38 252.846 1292.02 250.127C1293.96 246.87 1296.49 244.666 1298.84 241.713C1301.41 238.432 1303.48 236.44 1307.02 234.213C1310.23 232.198 1313.11 231.307 1316.74 230.159C1323.4 228.049 1329.82 225.12 1336.43 222.916C1345.03 220.034 1353.63 217.151 1362.23 214.245C1379.16 208.479 1396.03 202.596 1412.77 196.385C1422.33 192.846 1433.04 190.034 1435.52 178.877C1436.37 175.104 1437 171.284 1437.4 167.44C1441.78 125.627 1417.01 88.5258 1385.04 63.5883C1368.87 50.9789 1350.63 40.8539 1331.37 33.7289C1323.98 31.0336 1313.25 27.7054 1301.91 25.6898Z" fill="#FFE082"/>
<path d="M1262.79 191.979C1261.8 191.979 1260.87 191.932 1259.91 191.862C1250.67 190.971 1243.5 182.768 1243.2 172.737C1243.03 166.854 1245.73 161.393 1250.6 157.783C1251.82 156.869 1253.84 155.533 1256.09 154.69C1255.64 153.635 1255.24 152.44 1254.91 151.127C1254.02 147.518 1254.3 144.002 1255.76 140.932C1258.17 135.799 1263.38 132.307 1270.41 130.994C1271.88 130.737 1273.5 130.596 1275.16 130.596C1278.26 130.596 1285.97 131.158 1290.63 136.338C1292.23 138.096 1293.26 140.182 1293.7 142.502C1301.37 140.698 1309.9 144.19 1313.93 150.916C1318.78 159.026 1318.05 171.26 1309.22 176.58C1305.28 178.948 1301.02 180.026 1295.74 180.026C1294.88 180.026 1294.29 180.073 1293.66 180.119C1291.27 180.213 1288.92 180.213 1287.07 179.791C1286.4 179.632 1285.74 179.396 1285.13 179.088C1285.08 179.182 1285.03 179.252 1284.98 179.346C1282.85 182.744 1280.09 186.518 1274.58 188.651C1274.11 188.838 1273.66 189.096 1273.24 189.354C1272.19 189.94 1271.11 190.526 1269.94 190.901C1267.8 191.627 1265.41 191.979 1262.79 191.979ZM1260.02 164.721C1259.93 164.791 1258.52 165.471 1257.09 166.526C1255.08 168.002 1254.02 170.112 1254.07 172.455C1254.16 176.393 1256.79 180.635 1260.94 181.057C1262.91 181.221 1264.99 181.127 1266.47 180.635C1266.98 180.471 1267.43 180.166 1267.9 179.908C1268.79 179.393 1269.68 178.924 1270.64 178.549C1272.66 177.776 1273.88 176.604 1275.8 173.533C1275.87 173.393 1275.94 173.205 1276.03 172.994C1276.55 171.823 1277.41 169.83 1279.48 168.471C1280.88 167.533 1282.38 167.041 1283.98 167.041C1286.44 167.041 1288.24 168.237 1289.3 168.916C1289.48 169.033 1289.67 169.198 1289.88 169.268C1289.95 169.268 1290.45 169.315 1291.05 169.315C1291.71 169.315 1292.41 169.268 1293.09 169.221C1293.91 169.174 1294.73 169.127 1295.48 169.127C1299.02 169.127 1301.39 168.565 1303.62 167.229C1306.64 165.401 1306.64 159.869 1304.63 156.494C1302.75 153.354 1298.34 151.994 1294.92 153.471L1294.73 153.658C1293.4 154.596 1291.08 156.119 1288.34 155.768C1287.48 155.652 1286.65 155.364 1285.91 154.921C1285.16 154.478 1284.51 153.889 1284 153.19C1282.2 150.729 1282.69 147.916 1282.97 146.229L1283.04 145.643C1283.18 144.283 1282.76 143.791 1282.55 143.58C1281.4 142.315 1278.42 141.448 1275.14 141.448C1274.13 141.448 1273.17 141.541 1272.35 141.682C1268.95 142.291 1266.42 143.744 1265.58 145.549C1265.11 146.533 1265.25 147.705 1265.46 148.526C1265.88 150.283 1266.28 150.823 1266.3 150.846C1267.24 151.408 1269 152.58 1269.96 155.018C1271.32 158.416 1270.5 160.783 1269.56 162.166C1268.81 163.268 1267.05 165.096 1263.56 165.096C1262.7 165.096 1261.66 164.979 1260.73 164.815C1260.47 164.791 1260.23 164.744 1260.02 164.721Z" fill="#757F3F"/>
<path d="M1179.26 163.643C1179.84 158.018 1183.41 152.252 1191.3 147.166C1197 143.51 1202.88 142.198 1209.61 143.135C1224.94 145.244 1239.16 153.471 1234.76 171.565C1232.93 179.088 1223.3 184.994 1216.52 187.408C1208.27 190.361 1199.09 190.01 1191.19 186.19C1187.63 184.479 1182.94 181.244 1180.85 177.822C1178.67 174.237 1178.81 167.721 1179.26 163.643Z" fill="#ED6C30"/>
<path d="M1221.56 157.573L1218.16 162.987L1226.32 163.666L1229.04 157.573L1224.96 153.494L1221.56 157.573Z" fill="white"/>
<path d="M1197.49 164.346L1191.09 164.721L1195.27 171.752L1201.83 170.416L1202.79 164.744L1197.49 164.346Z" fill="white"/>
<path d="M1209.8 176.158L1203.28 176.135L1208.02 183.94L1214.65 182.955L1215.23 176.932L1209.8 176.158Z" fill="white"/>
<path d="M1227.96 166.338L1226.95 169.901L1231.2 170.065L1231.36 166.666L1227.96 166.338Z" fill="white"/>
<path d="M1212.4 166.198C1212.4 166.198 1209.35 169.08 1209.84 169.244C1210.36 169.408 1214.6 169.924 1214.6 169.924L1216.29 167.205L1212.4 166.198Z" fill="white"/>
<path d="M1191.05 173.979C1191.05 173.979 1187.16 178.057 1188.16 178.057C1189.17 178.057 1192.08 177.541 1192.08 177.541L1193.77 174.823L1191.05 173.979Z" fill="white"/>
<path d="M1209.61 148.127C1209.61 148.127 1202.53 155.51 1204.38 155.51C1206.23 155.51 1211.46 154.596 1211.46 154.596L1214.53 149.674L1209.61 148.127Z" fill="white"/>
<path d="M1236.21 97.6663C1235.86 91.9945 1238.44 85.7366 1245.4 79.4085C1250.41 74.8616 1256.02 72.6116 1262.79 72.4241C1278.23 72.0023 1293.63 77.7679 1292.27 96.3538C1291.73 104.088 1283.18 111.494 1276.9 114.987C1269.26 119.229 1260.14 120.424 1251.7 117.963C1247.91 116.838 1242.75 114.448 1240.15 111.401C1237.41 108.213 1236.49 101.744 1236.21 97.6663Z" fill="#ED6C30"/>
<path d="M1265.53 86.0648L1262.13 91.5023L1270.29 92.182L1273.01 86.0648L1268.93 81.9867L1265.53 86.0648Z" fill="white"/>
<path d="M1254.35 96.3772L1247.95 96.7756L1252.13 103.783L1258.66 102.471L1259.65 96.7756L1254.35 96.3772Z" fill="white"/>
<path d="M1275.98 100.643L1269.45 100.62L1274.2 108.448L1280.81 107.463L1281.42 101.44L1275.98 100.643Z" fill="white"/>
<path d="M1253.11 112.174L1256.51 109.971L1258.71 112.01L1257.52 113.862L1254.96 114.377L1253.11 112.174Z" fill="white"/>
<path d="M1279.92 93.4945L1278.91 97.057L1283.16 97.2211L1283.32 93.8461L1279.92 93.4945Z" fill="white"/>
<path d="M1282.13 80.932C1282.13 80.932 1279.08 83.8148 1279.57 83.9789C1280.09 84.1429 1284.33 84.6586 1284.33 84.6586L1286.02 81.9398L1282.13 80.932Z" fill="white"/>
<path d="M1256.32 81.6117C1256.32 81.6117 1252.41 85.6898 1253.44 85.6898C1254.45 85.6898 1257.35 85.1742 1257.35 85.1742L1259.04 82.4554L1256.32 81.6117Z" fill="white"/>
<path d="M1240.55 101.815L1239.02 104.534L1241.39 107.088C1241.39 107.088 1242.91 105.213 1242.91 104.534C1242.91 103.854 1242.23 101.815 1242.23 101.815H1240.55Z" fill="white"/>
<path d="M1317.8 138.283C1318.38 132.658 1321.95 126.893 1329.84 121.807C1335.54 118.151 1341.42 116.838 1348.13 117.776C1363.45 119.885 1377.68 128.112 1373.3 146.205C1371.47 153.729 1361.84 159.635 1355.06 162.026C1346.81 164.979 1337.63 164.627 1329.73 160.807C1326.16 159.096 1321.48 155.862 1319.39 152.44C1317.21 148.877 1317.35 142.362 1317.8 138.283Z" fill="#ED6C30"/>
<path d="M1338.4 129.049L1339.38 135.377L1345.99 130.549L1344.07 124.151L1338.3 123.729L1338.4 129.049Z" fill="white"/>
<path d="M1336.69 144.166L1332.09 148.619L1339.85 151.221L1343.95 145.924L1340.95 141.002L1336.69 144.166Z" fill="white"/>
<path d="M1355.84 133.244L1350.89 137.51L1359.59 140.323L1363.95 135.237L1360.48 130.291L1355.84 133.244Z" fill="white"/>
<path d="M1355.25 150.377L1358.65 148.151L1360.85 150.213L1359.68 152.065L1357.13 152.58L1355.25 150.377Z" fill="white"/>
<path d="M1338.09 154.666C1338.09 154.666 1335.05 157.549 1335.54 157.713C1336.05 157.877 1340.3 158.393 1340.3 158.393L1341.98 155.674L1338.09 154.666Z" fill="white"/>
<path d="M1326.7 133.338L1325.18 136.057L1327.55 138.612C1327.55 138.612 1329.07 136.737 1329.07 136.057C1329.07 135.377 1328.39 133.338 1328.39 133.338H1326.7Z" fill="white"/>
<path d="M1266.8 60.2835C1273.59 57.6585 1279.45 60.8929 1286.18 63.3304C1290.98 65.0882 1295.63 67.2679 1300.24 69.4241C1314.47 76.1038 1328.7 82.7601 1342.9 89.4397C1349.84 92.6976 1356.8 95.9788 1362.94 100.573C1370.18 105.987 1376.46 112.198 1382.18 119.205C1386.77 124.807 1391.37 134.768 1390.15 141.94C1389.47 144.33 1387.59 142.924 1387.2 142.08C1381.19 130.07 1372.36 119.696 1361.46 111.846C1347.96 102.166 1331.91 96.7757 1315.99 91.9476C1312.03 90.7288 1307.98 89.5335 1304.48 87.3069C1300.57 84.8226 1297.55 81.2132 1294.03 78.1897C1285.73 71.0179 1274.63 67.1741 1263.66 67.6897C1261.34 67.9007 1262.6 62.0882 1266.8 60.2835Z" fill="#DDA450"/>
<path d="M1434.91 140.322C1430.84 133.572 1423.83 130.104 1416.14 131.862C1408.92 133.526 1400.23 141.565 1396.83 148.174C1393.43 154.76 1391.53 166.244 1385.18 170.065C1377.84 174.518 1368.26 173.158 1360.48 176.768C1355.37 179.158 1349.46 182.51 1344.59 185.369C1337.46 189.565 1330.85 191.252 1322.7 192.658C1314.54 194.065 1304.16 196.737 1299.16 203.346C1297.36 205.76 1296.14 208.572 1294.27 210.94C1286.95 220.268 1278.28 214.619 1266.59 212.651C1262.86 212.018 1258.13 211.619 1254.49 212.651C1250.65 213.729 1243.17 219.307 1239.63 221.182C1230.77 225.916 1220.7 221.557 1211.48 225.565C1199.32 230.862 1193.02 244.479 1182.02 251.932C1175.77 256.174 1167.84 258.237 1160.48 256.526C1154.93 255.237 1149.84 251.604 1147.01 246.705C1147.59 254.627 1149.26 263.041 1152.19 272.252C1154.79 280.502 1160.74 293.979 1171.45 293.463C1182.16 292.971 1183.85 279.354 1185.8 271.596C1186.78 267.612 1187.95 262.877 1191.23 260.018C1192.99 258.494 1194.47 258.987 1196.44 258.447C1198.43 257.908 1198.59 257.51 1200.16 256.362C1204.55 253.151 1205.74 254.697 1209.12 258.002C1213.97 262.76 1222.01 262.385 1228.15 261.166C1231.73 260.463 1232.91 259.69 1235.04 257.018C1237.34 254.112 1240.85 252.213 1242.89 249.119C1245 245.932 1245.07 244.807 1248.96 243.518C1257.26 240.776 1259.53 246.541 1265.46 250.596C1271.27 254.58 1279.17 256.127 1286.04 254.533C1289.37 253.76 1290.33 252.846 1291.97 250.127C1293.91 246.869 1296.45 244.666 1298.79 241.713C1301.37 238.432 1303.43 236.44 1306.97 234.213C1310.18 232.197 1313.06 231.307 1316.7 230.158C1323.35 228.049 1329.77 225.119 1336.38 222.916C1344.98 220.033 1353.59 217.151 1362.19 214.244C1379.11 208.479 1395.98 202.596 1412.72 196.385C1422.28 192.846 1432.99 190.033 1435.48 178.877C1436.32 175.104 1436.95 171.283 1437.35 167.44C1437.63 164.744 1437.8 162.049 1437.84 159.401C1437.87 153.658 1438.03 145.455 1434.91 140.322Z" fill="#DDA450"/>
</g>
<defs>
<clipPath id="clip0">
<rect width="1440" height="180" fill="white" transform="translate(0 0.869385)"/>
</clipPath>
<clipPath id="clip1">
<rect width="300" height="300" fill="white" transform="translate(162.857 0.869385)"/>
</clipPath>
</defs>
</svg>
