<svg width="24" height="24" viewBox="0 0 24 24" fill="none" xmlns="http://www.w3.org/2000/svg">
<path d="M1.93942 1.9395C2.22072 1.65829 2.60218 1.50032 2.99992 1.50032C3.39767 1.50032 3.77913 1.65829 4.06042 1.9395L11.9999 9.879L19.9394 1.9395C20.0778 1.79623 20.2433 1.68196 20.4263 1.60335C20.6093 1.52473 20.8062 1.48335 21.0053 1.48162C21.2045 1.47989 21.402 1.51785 21.5864 1.59327C21.7707 1.66869 21.9382 1.78007 22.079 1.92091C22.2199 2.06175 22.3312 2.22922 22.4067 2.41357C22.4821 2.59791 22.52 2.79543 22.5183 2.9946C22.5166 3.19377 22.4752 3.3906 22.3966 3.57361C22.318 3.75661 22.2037 3.92213 22.0604 4.0605L14.1209 12L22.0604 19.9395C22.3337 20.2224 22.4849 20.6013 22.4814 20.9946C22.478 21.3879 22.3203 21.7641 22.0421 22.0422C21.764 22.3203 21.3878 22.4781 20.9945 22.4815C20.6012 22.4849 20.2223 22.3337 19.9394 22.0605L11.9999 14.121L4.06042 22.0605C3.77752 22.3337 3.39862 22.4849 3.00532 22.4815C2.61203 22.4781 2.23581 22.3203 1.9577 22.0422C1.67958 21.7641 1.52183 21.3879 1.51841 20.9946C1.515 20.6013 1.66619 20.2224 1.93942 19.9395L9.87892 12L1.93942 4.0605C1.65822 3.77921 1.50024 3.39775 1.50024 3C1.50024 2.60225 1.65822 2.22079 1.93942 1.9395V1.9395Z" fill="#1F1F1F"/>
</svg>
