<svg width="223" height="230" viewBox="0 0 223 230" fill="none" xmlns="http://www.w3.org/2000/svg">
<g clip-path="url(#clip0)">
<path d="M111.406 3.59361C49.863 3.59361 -0.000244141 53.4569 -0.000244141 115C-0.000244141 176.543 49.863 226.406 111.406 226.406C172.949 226.406 222.812 176.543 222.812 115C222.812 53.4569 172.949 3.59361 111.406 3.59361ZM50.3122 100.355C51.7947 81.4432 64.7771 68.2811 75.4685 68.2811C86.1599 68.2811 99.1423 81.4432 100.625 100.355C100.939 104.219 95.7732 105.701 93.9314 102.377L89.6638 94.7401C86.2048 88.5858 81.0388 85.037 75.5134 85.037C69.988 85.037 64.822 88.5858 61.363 94.7401L57.0955 102.377C55.1638 105.701 49.9978 104.174 50.3122 100.355ZM162.976 155.519C150.174 170.883 131.396 179.687 111.406 179.687C91.4158 179.687 72.6384 170.883 59.8357 155.519C53.7712 148.197 64.7771 139.033 70.8865 146.31C80.949 158.394 95.6833 165.267 111.406 165.267C127.129 165.267 141.863 158.349 151.926 146.31C158.035 139.033 169.041 148.242 162.976 155.519ZM165.761 102.377L161.494 94.7401C158.035 88.5858 152.869 85.037 147.343 85.037C141.818 85.037 136.652 88.5858 133.193 94.7401L128.926 102.377C127.084 105.656 121.918 104.174 122.232 100.355C123.715 81.4432 136.697 68.2811 147.388 68.2811C158.08 68.2811 171.062 81.4432 172.545 100.355C172.814 104.219 167.603 105.701 165.761 102.377Z" fill="#00993D"/>
</g>
<defs>
<clipPath id="clip0">
<rect width="222.812" height="230" fill="white"/>
</clipPath>
</defs>
</svg>
