<svg width="130" height="134" viewBox="0 0 130 134" fill="none" xmlns="http://www.w3.org/2000/svg">
<g filter="url(#filter0_d)">
<path d="M121.543 12.0001C121.545 12.3085 121.451 12.6098 121.275 12.8624C121.098 13.115 120.846 13.3063 120.556 13.4098L114.573 15.5854L112.398 21.5681C112.292 21.8575 112.101 22.1074 111.848 22.284C111.596 22.4606 111.296 22.5554 110.988 22.5554C110.68 22.5554 110.38 22.4606 110.127 22.284C109.875 22.1074 109.683 21.8575 109.578 21.5681L107.403 15.5854L101.42 13.4098C101.131 13.3045 100.881 13.1128 100.704 12.8606C100.527 12.6084 100.433 12.308 100.433 12.0001C100.433 11.6922 100.527 11.3917 100.704 11.1396C100.881 10.8874 101.131 10.6956 101.42 10.5904L107.403 8.4148L109.578 2.43205C109.683 2.1427 109.875 1.89275 110.127 1.71613C110.38 1.53951 110.68 1.44477 110.988 1.44477C111.296 1.44477 111.596 1.53951 111.848 1.71613C112.101 1.89275 112.292 2.1427 112.398 2.43205L114.573 8.4148L120.556 10.5904C120.846 10.6938 121.098 10.8851 121.274 11.1377C121.451 11.3903 121.545 11.6917 121.543 12.0001Z" fill="#FFE602"/>
<path d="M26.5552 50.6988C26.5573 51.0072 26.4634 51.3086 26.2865 51.5612C26.1096 51.8138 25.8584 52.0051 25.5679 52.1085L19.5852 54.2841L17.4096 60.2668C17.3044 60.5562 17.1126 60.8061 16.8604 60.9828C16.6082 61.1594 16.3078 61.2541 15.9999 61.2541C15.692 61.2541 15.3916 61.1594 15.1394 60.9828C14.8872 60.8061 14.6954 60.5562 14.5902 60.2668L12.4146 54.2841L6.43186 52.1085C6.14252 52.0033 5.89257 51.8115 5.71595 51.5593C5.53932 51.3071 5.44458 51.0067 5.44458 50.6988C5.44458 50.3909 5.53932 50.0905 5.71595 49.8383C5.89257 49.5861 6.14252 49.3944 6.43186 49.2891L12.4146 47.1135L14.5902 41.1308C14.6954 40.8414 14.8872 40.5915 15.1394 40.4149C15.3916 40.2382 15.692 40.1435 15.9999 40.1435C16.3078 40.1435 16.6082 40.2382 16.8604 40.4149C17.1126 40.5915 17.3044 40.8414 17.4096 41.1308L19.5852 47.1135L25.5679 49.2891C25.8584 49.3926 26.1095 49.5839 26.2864 49.8365C26.4633 50.0891 26.5573 50.3904 26.5552 50.6988Z" fill="#FFE602"/>
<path d="M122.99 101.398C122.994 102.014 122.806 102.617 122.452 103.122C122.098 103.627 121.596 104.01 121.015 104.217L109.049 108.568L104.698 120.534C104.488 121.112 104.104 121.612 103.6 121.965C103.096 122.319 102.495 122.508 101.879 122.508C101.263 122.508 100.662 122.319 100.158 121.965C99.6535 121.612 99.27 121.112 99.0595 120.534L94.7084 108.568L82.7429 104.217C82.1642 104.006 81.6643 103.623 81.311 103.119C80.9578 102.614 80.7683 102.013 80.7683 101.398C80.7683 100.782 80.9578 100.181 81.311 99.6765C81.6643 99.1721 82.1642 98.7886 82.7429 98.5781L94.7084 94.227L99.0595 82.2615C99.27 81.6828 99.6535 81.1829 100.158 80.8297C100.662 80.4764 101.263 80.2869 101.879 80.2869C102.495 80.2869 103.096 80.4764 103.6 80.8297C104.104 81.1829 104.488 81.6828 104.698 82.2615L109.049 94.227L121.015 98.5781C121.596 98.7851 122.098 99.1677 122.452 99.6729C122.806 100.178 122.994 100.781 122.99 101.398Z" fill="#FFE602"/>
</g>
<defs>
<filter id="filter0_d" x="0" y="0" width="131.132" height="133.398" filterUnits="userSpaceOnUse" color-interpolation-filters="sRGB">
<feFlood flood-opacity="0" result="BackgroundImageFix"/>
<feColorMatrix in="SourceAlpha" type="matrix" values="0 0 0 0 0 0 0 0 0 0 0 0 0 0 0 0 0 0 127 0" result="hardAlpha"/>
<feOffset dy="4"/>
<feGaussianBlur stdDeviation="2"/>
<feComposite in2="hardAlpha" operator="out"/>
<feColorMatrix type="matrix" values="0 0 0 0 0 0 0 0 0 0 0 0 0 0 0 0 0 0 0.25 0"/>
<feBlend mode="normal" in2="BackgroundImageFix" result="effect1_dropShadow"/>
<feBlend mode="normal" in="SourceGraphic" in2="effect1_dropShadow" result="shape"/>
</filter>
</defs>
</svg>
