<svg width="301" height="317" viewBox="0 0 301 317" fill="none" xmlns="http://www.w3.org/2000/svg">
<path d="M178.707 181.68C178.762 181.729 178.814 181.782 178.864 181.836L179.31 182.298L181.032 184.122L187.529 191.081L210.551 215.904H210.285L236.399 185.993L236.579 185.79L236.728 186.017L238.63 188.882L258.388 218.628L258.114 218.581L277.105 203.41L277.214 203.324L277.308 203.426L291.806 219.865L295.72 224.35L296.737 225.524C296.964 225.791 297.074 225.932 297.074 225.932C297.074 225.932 296.941 225.806 296.706 225.556L295.673 224.35L291.681 219.92L277.089 203.598H277.293L258.349 218.871L258.192 218.996L258.075 218.824L238.294 189.124L236.384 186.251H236.705C227.201 197.132 218.262 207.348 210.559 216.162L210.426 216.311L210.293 216.162C200.837 205.876 192.923 197.281 187.373 191.238L180.954 184.193L179.271 182.33C179.091 182.118 178.95 181.962 178.84 181.844C178.73 181.727 178.699 181.688 178.707 181.68Z" fill="#E6E6E6"/>
<path d="M207.851 216.107C207.846 216.651 208.003 217.184 208.303 217.638C208.602 218.093 209.03 218.447 209.531 218.658C210.033 218.868 210.586 218.924 211.119 218.819C211.653 218.714 212.143 218.453 212.528 218.068C212.912 217.684 213.174 217.193 213.279 216.66C213.384 216.126 213.328 215.573 213.117 215.072C212.907 214.57 212.552 214.142 212.098 213.843C211.644 213.544 211.111 213.387 210.567 213.391C209.848 213.395 209.159 213.683 208.651 214.191C208.142 214.7 207.855 215.388 207.851 216.107Z" fill="#E0E0E0"/>
<path d="M255.813 219.372C255.816 219.914 255.98 220.443 256.284 220.892C256.588 221.341 257.018 221.69 257.52 221.894C258.023 222.098 258.574 222.149 259.105 222.039C259.636 221.93 260.123 221.665 260.504 221.279C260.884 220.893 261.142 220.403 261.244 219.87C261.345 219.338 261.287 218.787 261.075 218.288C260.864 217.788 260.509 217.363 260.056 217.065C259.603 216.768 259.071 216.612 258.529 216.616C257.804 216.622 257.111 216.916 256.601 217.433C256.092 217.949 255.809 218.646 255.813 219.372Z" fill="#E0E0E0"/>
<path d="M274.467 204.287C274.471 204.827 274.636 205.354 274.94 205.801C275.244 206.248 275.674 206.594 276.175 206.797C276.676 206.999 277.226 207.048 277.755 206.938C278.284 206.828 278.768 206.564 279.147 206.179C279.526 205.793 279.782 205.304 279.883 204.774C279.983 204.243 279.925 203.694 279.714 203.197C279.503 202.699 279.149 202.275 278.697 201.979C278.245 201.683 277.716 201.527 277.175 201.532C276.451 201.54 275.76 201.834 275.253 202.351C274.745 202.867 274.463 203.563 274.467 204.287Z" fill="#E0E0E0"/>
<path d="M233.816 186.361C233.819 186.903 233.983 187.432 234.287 187.881C234.591 188.33 235.021 188.679 235.524 188.883C236.026 189.088 236.578 189.138 237.109 189.029C237.64 188.919 238.126 188.655 238.507 188.269C238.888 187.883 239.145 187.392 239.247 186.86C239.349 186.327 239.29 185.776 239.079 185.277C238.867 184.778 238.513 184.352 238.059 184.055C237.606 183.757 237.075 183.601 236.532 183.606C235.807 183.612 235.114 183.905 234.605 184.422C234.096 184.938 233.812 185.636 233.816 186.361Z" fill="#E0E0E0"/>
<path d="M294.914 226.01C294.917 226.552 295.081 227.081 295.385 227.53C295.689 227.979 296.119 228.328 296.622 228.532C297.124 228.736 297.675 228.787 298.207 228.678C298.738 228.568 299.224 228.304 299.605 227.917C299.986 227.531 300.243 227.041 300.345 226.508C300.447 225.976 300.388 225.425 300.177 224.926C299.965 224.426 299.61 224.001 299.157 223.704C298.704 223.406 298.172 223.25 297.63 223.254C296.905 223.261 296.212 223.554 295.703 224.071C295.193 224.587 294.91 225.285 294.914 226.01Z" fill="#E0E0E0"/>
<path d="M54.9543 18.7089H37.3647V88.6677H54.9543V18.7089Z" fill="#E6E6E6"/>
<path d="M80.826 33.9657H63.2365V88.6599H80.826V33.9657Z" fill="#E6E6E6"/>
<path d="M107.097 46.4592H89.5074V88.6599H107.097V46.4592Z" fill="#E6E6E6"/>
<path d="M131.418 63.6024H113.829V88.6677H131.418V63.6024Z" fill="#E6E6E6"/>
<path d="M117.336 1.25244C117.336 1.25244 117.171 1.4638 116.85 1.83954L115.387 3.52256L109.821 9.86323L89.7499 32.5644L89.6403 32.6818L89.515 32.5879L76.4188 22.5524H76.685L58.3674 45.7702L58.1483 46.0521L58.0152 46.2243L57.8508 46.0755L33.1848 24.2902H33.4588C23.7755 37.0029 15.5718 47.8603 9.7008 55.5396L2.86695 64.4713L1.04304 66.8197L0.565527 67.4225C0.512231 67.4937 0.454722 67.5616 0.393311 67.626C0.437777 67.5496 0.487475 67.4764 0.542044 67.4068L0.996064 66.7806L2.77302 64.3774L9.51293 55.383L33.1535 24.0241L33.2787 23.8597L33.4274 23.9928L58.1248 45.7233H57.8273L58.0465 45.4415L76.3875 22.2393L76.5049 22.0906L76.6536 22.208L89.7264 32.2356H89.4915L109.664 9.7145C112.099 7.01385 114.009 4.89246 115.316 3.45211L116.811 1.80823C117.156 1.41683 117.336 1.25244 117.336 1.25244Z" fill="#E6E6E6"/>
<path d="M114.432 17.4799C114.425 17.3611 114.438 17.2421 114.471 17.1276L114.666 16.1257C114.87 15.1941 115.144 13.9573 115.449 12.4465C116.146 9.31531 117.132 5.04123 118.267 0.250496L118.518 0.485335L117.633 0.759313C112.725 2.27012 108.279 3.6087 105.054 4.56372L101.226 5.66747L100.177 5.94927C100.056 5.99413 99.9294 6.01796 99.801 6.01973C99.9133 5.95872 100.031 5.90891 100.153 5.871L101.179 5.51873L104.967 4.28974C108.169 3.26427 112.608 1.87872 117.492 0.375743L118.377 0.109591L118.721 0L118.635 0.352257C117.547 5.16647 116.553 9.4249 115.77 12.517C115.387 14.0121 115.073 15.2411 114.846 16.1648C114.737 16.5484 114.643 16.8772 114.572 17.1433C114.542 17.2618 114.495 17.3752 114.432 17.4799Z" fill="#E6E6E6"/>
<path d="M253.191 119.541C256.686 119.485 260.119 120.465 263.057 122.36C265.995 124.254 268.305 126.978 269.695 130.185C271.086 133.392 271.494 136.94 270.868 140.379C270.242 143.818 268.611 146.995 266.18 149.507C263.749 152.019 260.627 153.753 257.21 154.492C253.793 155.23 250.234 154.938 246.983 153.654C243.732 152.369 240.935 150.15 238.945 147.276C236.955 144.401 235.862 141.002 235.805 137.507C235.733 132.82 237.524 128.297 240.783 124.929C244.043 121.561 248.505 119.624 253.191 119.541ZM253.613 145.671C255.284 145.64 256.909 145.114 258.281 144.16C259.653 143.206 260.712 141.867 261.324 140.312C261.935 138.756 262.072 137.054 261.717 135.421C261.361 133.788 260.53 132.297 259.328 131.136C258.125 129.975 256.606 129.197 254.961 128.899C253.317 128.602 251.621 128.798 250.088 129.464C248.555 130.13 247.254 131.235 246.348 132.64C245.443 134.045 244.975 135.687 245.003 137.358C245.022 138.469 245.26 139.566 245.703 140.585C246.147 141.604 246.786 142.526 247.586 143.298C248.385 144.07 249.329 144.677 250.364 145.084C251.398 145.491 252.502 145.691 253.613 145.671Z" fill="#E0E0E0"/>
<path d="M253.159 117.342C258.43 117.266 263.516 119.284 267.302 122.952C271.088 126.621 273.265 131.641 273.356 136.912L261.3 137.225C261.222 131.988 257.676 129.859 253.472 129.592C252.439 129.531 251.405 129.683 250.434 130.041C249.463 130.398 248.576 130.953 247.83 131.67C247.083 132.387 246.494 133.251 246.097 134.207C245.701 135.162 245.507 136.19 245.527 137.225L233.597 137.546C233.516 132.273 235.53 127.184 239.198 123.396C242.866 119.608 247.887 117.43 253.159 117.342Z" fill="#F0F0F0"/>
<path d="M110.064 197.43C116.149 191.044 124.498 187.303 133.314 187.01C142.13 186.717 150.708 189.897 157.204 195.864C160.395 198.805 162.97 202.35 164.781 206.294C166.592 210.237 167.602 214.501 167.752 218.838C167.903 223.174 167.192 227.498 165.659 231.558C164.126 235.617 161.803 239.332 158.824 242.488C152.739 248.873 144.39 252.615 135.574 252.908C126.758 253.201 118.18 250.021 111.684 244.053C108.493 241.113 105.918 237.568 104.107 233.624C102.297 229.68 101.287 225.417 101.136 221.08C100.985 216.743 101.697 212.42 103.229 208.36C104.762 204.3 107.085 200.585 110.064 197.43ZM146.073 230.73C147.501 229.222 148.615 227.445 149.349 225.503C150.084 223.56 150.425 221.491 150.352 219.415C150.279 217.34 149.794 215.299 148.925 213.413C148.056 211.527 146.82 209.832 145.29 208.428C142.181 205.578 138.077 204.063 133.861 204.21C129.646 204.356 125.657 206.152 122.753 209.211C121.325 210.719 120.211 212.496 119.476 214.438C118.742 216.381 118.401 218.45 118.474 220.526C118.547 222.601 119.032 224.642 119.901 226.528C120.77 228.414 122.005 230.109 123.536 231.513C126.645 234.37 130.753 235.889 134.972 235.742C139.192 235.596 143.185 233.796 146.088 230.73H146.073Z" fill="#F5F5F5"/>
<path d="M110.064 197.43C116.149 191.044 124.498 187.303 133.314 187.01C142.13 186.717 150.708 189.897 157.204 195.864L145.321 208.452C142.212 205.602 138.108 204.087 133.892 204.233C129.677 204.379 125.688 206.176 122.784 209.234C121.356 210.742 120.242 212.519 119.507 214.462C118.773 216.404 118.432 218.474 118.505 220.549C118.578 222.625 119.063 224.665 119.932 226.552C120.801 228.438 122.037 230.132 123.567 231.536L111.668 244.077C108.475 241.135 105.898 237.587 104.087 233.641C102.275 229.695 101.265 225.428 101.116 221.089C100.967 216.749 101.681 212.423 103.217 208.362C104.753 204.3 107.08 200.585 110.064 197.43Z" fill="#E0E0E0"/>
<path d="M155.841 190.455C172.28 205.665 174.276 230.378 158.894 246.691L142.197 232.296C149.548 224.507 151.144 214.103 143.277 206.831L155.841 190.455Z" fill="#EBEBEB"/>
<path d="M140.459 233.329L150.378 252.946C154.479 251.443 158.174 249.007 161.172 245.83L143.356 231.443L140.459 233.329Z" fill="#E0E0E0"/>
<path d="M177.877 52.2519C177.733 43.4588 180.199 34.8204 184.965 27.4296C189.731 20.0387 196.582 14.2274 204.651 10.7309C212.721 7.23442 221.646 6.20979 230.297 7.78667C238.949 9.36355 246.939 13.4711 253.256 19.5896C259.572 25.7082 263.933 33.5628 265.785 42.1598C267.637 50.7569 266.897 59.7101 263.66 67.8867C260.422 76.0634 254.832 83.0962 247.597 88.0953C240.362 93.0944 231.807 95.8353 223.013 95.9712C211.236 96.1388 199.873 91.6315 191.413 83.4369C182.952 75.2422 178.085 64.0283 177.877 52.2519ZM243.577 51.1951C243.509 46.9925 242.196 42.9045 239.804 39.4482C237.412 35.9919 234.049 33.3224 230.14 31.7773C226.231 30.2322 221.952 29.8809 217.843 30.7677C213.735 31.6546 209.981 33.7397 207.058 36.7596C204.134 39.7795 202.172 43.5985 201.418 47.7337C200.665 51.8688 201.155 56.1345 202.826 59.9913C204.497 63.8481 207.274 67.1228 210.806 69.4014C214.338 71.68 218.466 72.8601 222.669 72.7925C228.304 72.6957 233.67 70.3673 237.59 66.3182C241.51 62.2691 243.663 56.8302 243.577 51.1951Z" fill="#FAFAFA"/>
<path d="M177.878 52.2519C177.7 40.4669 182.205 29.0927 190.405 20.6261C198.604 12.1594 209.828 7.29196 221.613 7.09216L221.989 30.2865C216.352 30.3768 210.982 32.7026 207.06 36.7521C203.138 40.8017 200.986 46.2434 201.076 51.88C201.166 57.5167 203.492 62.8866 207.542 66.8084C211.591 70.7303 217.033 72.8828 222.67 72.7925L223.014 95.9712C211.236 96.1429 199.87 91.637 191.409 83.4415C182.948 75.2459 178.082 64.0296 177.878 52.2519Z" fill="#E0E0E0"/>
<path d="M217.62 3.52259C246.294 3.06074 269.175 25.214 269.629 53.8879L242.489 54.3263C242.27 40.6116 231.789 31.9774 218.082 32.2044L217.62 3.52259Z" fill="#F0F0F0"/>
<path d="M269.981 316.666C269.981 316.775 211.451 316.869 139.254 316.869C67.0562 316.869 8.52625 316.775 8.52625 316.666C8.52625 316.556 67.0405 316.455 139.254 316.455C211.467 316.455 269.981 316.548 269.981 316.666Z" fill="#263238"/>
<path d="M88.7402 208.123L233.793 207.082V209.117L88.7402 210.417V208.123Z" fill="#263238"/>
<path d="M85.5777 60.6513L88.8811 209.336L233.793 208.209V58.1542L85.5777 60.6513Z" fill="white"/>
<path d="M85.578 60.6513L233.793 57.982H233.973V58.162C233.973 101.114 233.973 151.8 233.973 205.876V208.42H233.77L88.8579 209.524H88.6857V209.352C86.8148 120.238 85.5936 62.1856 85.5545 60.6592C85.5545 62.1621 86.9479 120.238 89.0301 209.336L88.8579 209.164L233.77 208.013L233.566 208.217V205.868C233.566 151.793 233.566 101.106 233.566 58.1542L233.746 58.3343L85.578 60.6513Z" fill="#263238"/>
<path d="M84.998 61.6454L234.427 60.7922L234.615 54.522L84.998 55.4535V61.6454Z" fill="#263238"/>
<path d="M156.53 213.391C156.28 213.391 156.014 212.225 155.943 210.769C155.873 209.313 156.029 208.123 156.28 208.107C156.53 208.092 156.797 209.266 156.867 210.722C156.938 212.178 156.789 213.391 156.53 213.391Z" fill="#263238"/>
<path d="M156.476 212.319C156.476 212.264 156.727 212.248 157.118 212.405C157.354 212.504 157.576 212.636 157.776 212.796C158.045 213.013 158.271 213.278 158.441 213.579C158.673 213.995 158.79 214.466 158.779 214.942C158.768 215.418 158.63 215.883 158.378 216.288C158.228 216.532 158.037 216.748 157.815 216.929C157.582 217.116 157.317 217.257 157.032 217.344C156.427 217.511 155.782 217.464 155.208 217.211C154.917 217.082 154.652 216.902 154.425 216.679C154.199 216.456 154.021 216.19 153.901 215.896C153.684 215.362 153.637 214.774 153.768 214.213C153.864 213.745 154.09 213.314 154.419 212.968C154.748 212.622 155.168 212.375 155.631 212.256C156.223 212.094 156.853 212.15 157.408 212.413C157.783 212.601 157.924 212.796 157.893 212.843C157.862 212.89 157.65 212.843 157.29 212.749C156.8 212.658 156.294 212.701 155.826 212.874C155.525 212.992 155.257 213.18 155.044 213.422C154.799 213.709 154.64 214.058 154.583 214.43C154.526 214.802 154.575 215.182 154.723 215.528C154.893 215.9 155.198 216.194 155.576 216.35C155.952 216.518 156.374 216.554 156.774 216.452C157.141 216.357 157.459 216.128 157.666 215.81C157.87 215.51 157.991 215.162 158.018 214.8C158.042 214.637 158.042 214.471 158.018 214.307C157.993 214.153 157.948 214.003 157.885 213.861C157.684 213.4 157.369 212.999 156.969 212.694C156.68 212.491 156.476 212.381 156.476 212.319Z" fill="#263238"/>
<path d="M178.034 142.015C178.034 142.015 178.034 142.015 177.94 142.015H177.674L176.641 142.062L172.656 142.235L158.002 142.783C145.626 143.237 128.522 143.839 109.641 144.489L103.143 144.708H102.995V144.56C101.68 127.283 100.49 111.799 99.6678 100.668C99.2608 95.1101 98.9398 90.6403 98.7128 87.5639C98.611 85.9983 98.5249 84.832 98.4701 84.0257C98.4701 83.6186 98.4232 83.3134 98.4153 83.102C98.4075 82.8906 98.4153 82.9219 98.4153 82.8672C98.4153 82.8124 98.4153 82.7889 98.4153 82.7889C98.419 82.8148 98.419 82.8412 98.4153 82.8672C98.4153 82.9219 98.4153 83.0002 98.4153 83.102C98.4153 83.2038 98.4623 83.6186 98.5015 84.0179C98.5641 84.8007 98.6658 86.014 98.7989 87.5561C99.0416 90.6325 99.4017 95.1023 99.8479 100.645C100.725 111.745 101.93 127.189 103.261 144.536L103.104 144.395L109.602 144.168C128.483 143.526 145.61 142.955 157.963 142.563L172.625 142.109L176.609 142H177.642H178.003L178.034 142.015Z" fill="#455A64"/>
<path d="M125.563 77.9746V79.9708L146.213 78.9845V77.3093L125.563 77.9746Z" fill="#263238"/>
<path d="M109.931 140.309H117.109L115.982 120.825H108.945L109.931 140.309Z" fill="#D93D00"/>
<path d="M122.941 140.317H130.111L128.992 113.083H121.954L122.941 140.317Z" fill="#D93D00"/>
<path d="M135.121 139.448H142.299L141.172 103.791H134.142L135.121 139.448Z" fill="#D93D00"/>
<path d="M163.068 138.062H170.238L169.119 89.4661H162.081L163.068 138.062Z" fill="#D93D00"/>
<path d="M149.47 138.227H156.64L155.513 96.4096H148.484L149.47 138.227Z" fill="#D93D00"/>
<path d="M105.422 115.776C105.234 115.486 118.056 106.938 134.049 96.6836C150.042 86.4289 163.177 78.3504 163.365 78.6792C163.553 79.008 150.73 87.517 134.73 97.7717C118.73 108.026 105.594 116.066 105.422 115.776Z" fill="#D93D00"/>
<path d="M156.264 78.6478C156.202 78.3034 160.844 77.1449 166.652 76.0489L168.124 75.775L167.286 77.0196L167.239 77.0901C163.92 82.0217 160.977 85.8653 160.703 85.7009C160.429 85.5365 162.879 81.3563 166.182 76.4169L166.229 76.3464L166.871 77.3171C161.071 78.3739 156.327 78.9844 156.264 78.6478Z" fill="#D93D00"/>
<path d="M108.945 146.892H116.444L116.679 148.223H108.945V146.892Z" fill="#263238"/>
<path d="M122.22 146.344H129.72L129.954 147.675H122.22V146.344Z" fill="#263238"/>
<path d="M135.888 145.953H143.388L143.623 147.284H135.888V145.953Z" fill="#263238"/>
<path d="M148.695 145.632H156.194L156.429 146.971H148.695V145.632Z" fill="#263238"/>
<path d="M164.562 145.162H172.061L172.296 146.501H164.562V145.162Z" fill="#263238"/>
<path d="M198.199 198.22C211.42 198.22 222.137 187.503 222.137 174.282C222.137 161.062 211.42 150.344 198.199 150.344C184.978 150.344 174.261 161.062 174.261 174.282C174.261 187.503 184.978 198.22 198.199 198.22Z" fill="#D93D00"/>
<path opacity="0.3" d="M198.199 198.22C211.42 198.22 222.137 187.503 222.137 174.282C222.137 161.062 211.42 150.344 198.199 150.344C184.978 150.344 174.261 161.062 174.261 174.282C174.261 187.503 184.978 198.22 198.199 198.22Z" fill="black"/>
<path d="M198.199 174.251L174.848 179.504C171.091 162.282 184.977 150.313 198.199 150.313" fill="#D93D00"/>
<path d="M198.231 174.251L198.074 150.313C215.703 150.313 224.439 166.431 221.621 179.347L198.231 174.251Z" fill="#D93D00"/>
<path d="M198.231 174.251L198.074 150.313C215.703 150.313 224.439 166.431 221.621 179.347L198.231 174.251Z" fill="#D93D00"/>
<path opacity="0.1" d="M198.231 174.251L198.074 150.313C215.703 150.313 224.439 166.431 221.621 179.347L198.231 174.251Z" fill="black"/>
<path d="M222.756 117.6C222.291 117.289 221.795 117.027 221.276 116.817C219.83 116.375 218.28 116.419 216.861 116.942C215.029 117.514 213.213 118.97 211.452 120.794C209.691 122.618 207.804 124.825 205.049 126.117C203.719 126.777 202.223 127.025 200.751 126.829C199.424 126.554 198.141 126.095 196.939 125.467C195.881 124.916 194.75 124.518 193.581 124.285C192.563 124.125 191.522 124.256 190.575 124.661C189.181 125.252 188.042 126.317 187.357 127.667C187.137 128.174 186.957 128.697 186.817 129.232C186.842 128.666 186.977 128.11 187.217 127.596C187.872 126.171 189.024 125.033 190.457 124.395C191.439 123.957 192.524 123.803 193.589 123.948C194.797 124.173 195.967 124.568 197.064 125.123C198.234 125.73 199.483 126.172 200.775 126.438C202.167 126.611 203.58 126.371 204.837 125.749C207.483 124.512 209.338 122.32 211.147 120.528C212.955 118.735 214.826 117.224 216.728 116.668C218.206 116.153 219.814 116.153 221.292 116.668C221.686 116.82 222.057 117.026 222.396 117.279C222.528 117.371 222.649 117.478 222.756 117.6Z" fill="#263238"/>
<path d="M224.783 133.068C224.783 133.186 216.282 133.272 205.8 133.272C195.319 133.272 186.817 133.186 186.817 133.068C186.817 132.951 195.319 132.865 205.8 132.865C216.282 132.865 224.783 132.958 224.783 133.068Z" fill="#263238"/>
<path d="M222.669 133.068C222.56 133.068 222.466 128.23 222.466 122.258C222.466 116.285 222.56 111.455 222.669 111.455C222.779 111.455 222.873 116.293 222.873 122.258C222.873 128.223 222.787 133.068 222.669 133.068Z" fill="#263238"/>
<path d="M190.645 123.964C190.645 123.964 190.59 123.886 190.645 123.745C190.681 123.646 190.738 123.556 190.813 123.482C190.887 123.408 190.977 123.35 191.076 123.314C191.225 123.249 191.389 123.225 191.55 123.245C191.712 123.266 191.864 123.331 191.992 123.432C192.13 123.587 192.211 123.783 192.223 123.99C192.234 124.197 192.175 124.402 192.055 124.571C191.935 124.74 191.761 124.864 191.562 124.921C191.363 124.979 191.15 124.967 190.958 124.888C190.824 124.807 190.713 124.692 190.637 124.555C190.561 124.417 190.524 124.262 190.528 124.105C190.526 124.001 190.545 123.897 190.584 123.8C190.623 123.703 190.681 123.615 190.755 123.541C190.872 123.447 190.958 123.447 190.966 123.463C190.974 123.479 190.755 123.69 190.81 124.089C190.821 124.192 190.855 124.291 190.911 124.378C190.967 124.465 191.042 124.537 191.131 124.59C191.24 124.618 191.356 124.612 191.462 124.573C191.569 124.534 191.661 124.464 191.727 124.372C191.793 124.28 191.829 124.17 191.832 124.057C191.834 123.943 191.803 123.832 191.741 123.737C191.663 123.673 191.57 123.628 191.47 123.608C191.37 123.587 191.267 123.591 191.17 123.62C190.771 123.682 190.7 123.98 190.645 123.964Z" fill="#263238"/>
<path d="M216.243 116.113C216.243 116.113 216.243 116.019 216.384 115.94C216.566 115.849 216.777 115.832 216.971 115.893C217.125 115.935 217.265 116.019 217.376 116.135C217.486 116.251 217.563 116.395 217.597 116.551C217.609 116.753 217.553 116.953 217.437 117.119C217.322 117.285 217.154 117.407 216.96 117.466C216.767 117.525 216.559 117.517 216.371 117.443C216.182 117.369 216.024 117.234 215.922 117.06C215.866 116.909 215.851 116.746 215.88 116.587C215.909 116.429 215.98 116.281 216.086 116.16C216.219 116.003 216.407 115.905 216.611 115.886C216.752 115.886 216.822 115.933 216.814 115.956C216.807 115.98 216.517 115.995 216.321 116.332C216.267 116.416 216.233 116.511 216.222 116.61C216.211 116.709 216.224 116.81 216.259 116.903C216.327 116.988 216.42 117.05 216.524 117.082C216.628 117.113 216.74 117.113 216.844 117.081C216.948 117.049 217.041 116.987 217.109 116.902C217.178 116.818 217.22 116.714 217.229 116.606C217.208 116.508 217.165 116.417 217.103 116.34C217.04 116.262 216.96 116.2 216.869 116.16C216.525 115.987 216.282 116.167 216.243 116.113Z" fill="#263238"/>
<path d="M221.997 90.4916C221.997 90.6012 213.761 90.6951 203.609 90.6951C193.456 90.6951 185.221 90.6012 185.221 90.4916C185.221 90.382 193.448 90.2881 203.609 90.2881C213.769 90.2881 221.997 90.3977 221.997 90.4916Z" fill="#263238"/>
<path d="M221.997 95.6189C221.997 95.7364 213.761 95.8225 203.609 95.8225C193.456 95.8225 185.221 95.7364 185.221 95.6189C185.221 95.5015 193.448 95.4154 203.609 95.4154C213.769 95.4154 221.997 95.5093 221.997 95.6189Z" fill="#263238"/>
<path d="M221.997 100.731C221.997 100.84 213.761 100.934 203.609 100.934C193.456 100.934 185.221 100.84 185.221 100.731C185.221 100.621 193.448 100.527 203.609 100.527C213.769 100.527 221.997 100.613 221.997 100.731Z" fill="#263238"/>
<path d="M221.997 105.834C221.997 105.952 213.761 106.038 203.609 106.038C193.456 106.038 185.221 105.952 185.221 105.834C185.221 105.717 193.448 105.631 203.609 105.631C213.769 105.631 221.997 105.725 221.997 105.834Z" fill="#263238"/>
<path d="M204.791 81.1685H185.221V82.8202H204.791V81.1685Z" fill="#263238"/>
<path d="M124.005 163.175H104.435V164.826H124.005V163.175Z" fill="#263238"/>
<path d="M157.987 172.748C157.987 172.866 146.112 172.952 131.466 172.952C116.819 172.952 104.936 172.866 104.936 172.748C104.936 172.631 116.812 172.545 131.466 172.545C146.12 172.545 157.987 172.639 157.987 172.748Z" fill="#263238"/>
<path d="M158.3 177.382C158.3 177.492 146.214 177.586 131.309 177.586C116.405 177.586 104.318 177.492 104.318 177.382C104.318 177.273 116.397 177.179 131.309 177.179C146.222 177.179 158.3 177.288 158.3 177.382Z" fill="#263238"/>
<path d="M158.918 181.75C158.918 181.86 146.761 181.954 131.771 181.954C116.78 181.954 104.623 181.86 104.623 181.75C104.623 181.641 116.78 181.547 131.771 181.547C146.761 181.547 158.918 181.633 158.918 181.75Z" fill="#263238"/>
<path d="M132.859 186.4C132.859 186.51 126.597 186.604 118.894 186.604C111.191 186.604 104.936 186.51 104.936 186.4C104.936 186.291 111.199 186.197 118.894 186.197C126.589 186.197 132.859 186.291 132.859 186.4Z" fill="#263238"/>
<path d="M47.6119 313.12V306.075L34.3591 305.957L34.2495 316.314L35.0323 316.368C38.688 316.595 53.6316 317.261 56.0818 316.541C58.8529 315.727 47.6119 313.12 47.6119 313.12Z" fill="#D93D00"/>
<path d="M56.4336 315.891C56.4336 316.016 51.4785 316.118 45.3648 316.118C39.2512 316.118 34.2882 316.016 34.2882 315.891C34.2882 315.766 39.2512 315.664 45.3648 315.664C51.4785 315.664 56.4336 315.766 56.4336 315.891Z" fill="#263238"/>
<path d="M47.8468 314.568C47.7372 314.505 47.8468 314.122 48.1129 313.785C48.3791 313.449 48.747 313.229 48.8253 313.316C48.9035 313.402 48.7313 313.723 48.473 314.098C48.2147 314.474 47.9563 314.631 47.8468 314.568Z" fill="#263238"/>
<path d="M48.6924 315.03C48.575 314.983 48.6376 314.56 48.8959 314.122C49.1543 313.683 49.4987 313.417 49.5926 313.496C49.6866 313.574 49.53 313.942 49.2873 314.349C49.0447 314.756 48.8098 315.077 48.6924 315.03Z" fill="#263238"/>
<path d="M38.2731 315.844C38.2183 315.883 38.0147 315.695 37.7251 315.382C37.3726 314.973 36.982 314.598 36.5587 314.263C36.1366 313.952 35.6446 313.751 35.1262 313.676C34.727 313.621 34.4687 313.676 34.4452 313.613C34.4217 313.55 34.6722 313.386 35.134 313.355C35.7427 313.337 36.3391 313.528 36.8249 313.895C37.2879 314.25 37.6808 314.688 37.9834 315.186C38.2261 315.554 38.3357 315.805 38.2731 315.844Z" fill="#263238"/>
<path d="M47.8861 313.237C47.9487 313.339 47.7139 313.589 47.3381 313.723C46.9624 313.856 46.6258 313.809 46.6101 313.683C46.5945 313.558 46.8528 313.417 47.1894 313.3C47.526 313.182 47.8156 313.128 47.8861 313.237Z" fill="#263238"/>
<path d="M47.6667 312.548C47.6667 312.674 47.3223 312.783 46.8839 312.791C46.4456 312.799 46.1011 312.697 46.1011 312.572C46.1011 312.447 46.4612 312.345 46.8839 312.337C47.3066 312.329 47.6667 312.423 47.6667 312.548Z" fill="#D93D00"/>
<path d="M56.4336 315.891C56.4336 316.016 51.4785 316.118 45.3648 316.118C39.2512 316.118 34.2882 316.016 34.2882 315.891C34.2882 315.766 39.2512 315.664 45.3648 315.664C51.4785 315.664 56.4336 315.766 56.4336 315.891Z" fill="#263238"/>
<path d="M47.8468 314.568C47.7372 314.505 47.8468 314.122 48.1129 313.785C48.3791 313.449 48.747 313.229 48.8253 313.316C48.9035 313.402 48.7313 313.723 48.473 314.098C48.2147 314.474 47.9563 314.631 47.8468 314.568Z" fill="#263238"/>
<path d="M48.6924 315.03C48.575 314.983 48.6376 314.56 48.8959 314.122C49.1543 313.683 49.4987 313.417 49.5926 313.496C49.6866 313.574 49.53 313.942 49.2873 314.349C49.0447 314.756 48.8098 315.077 48.6924 315.03Z" fill="#263238"/>
<path d="M38.2731 315.844C38.2183 315.883 38.0147 315.695 37.7251 315.382C37.3726 314.973 36.982 314.598 36.5587 314.263C36.1366 313.952 35.6446 313.751 35.1262 313.676C34.727 313.621 34.4687 313.676 34.4452 313.613C34.4217 313.55 34.6722 313.386 35.134 313.355C35.7427 313.337 36.3391 313.528 36.8249 313.895C37.2879 314.25 37.6808 314.688 37.9834 315.186C38.2261 315.554 38.3357 315.805 38.2731 315.844Z" fill="#263238"/>
<path d="M47.8861 313.237C47.9487 313.339 47.7139 313.589 47.3381 313.723C46.9624 313.856 46.6258 313.809 46.6101 313.683C46.5945 313.558 46.8528 313.417 47.1894 313.3C47.526 313.182 47.8156 313.128 47.8861 313.237Z" fill="#263238"/>
<path d="M47.6667 312.548C47.6667 312.674 47.3223 312.783 46.8839 312.791C46.4456 312.799 46.1011 312.697 46.1011 312.572C46.1011 312.447 46.4612 312.345 46.8839 312.337C47.3066 312.329 47.6667 312.423 47.6667 312.548Z" fill="#263238"/>
<path d="M61.5923 310.615L63.6824 303.859L51.048 299.851L47.9168 309.707L48.6996 310.004C52.1204 311.304 66.203 316.361 68.7549 316.4C71.5574 316.431 61.5923 310.615 61.5923 310.615Z" fill="#D93D00"/>
<path d="M69.2013 315.867C69.2013 315.993 64.395 314.623 58.5553 312.807C52.7156 310.991 48.011 309.433 48.0501 309.315C48.0892 309.198 52.8487 310.568 58.6962 312.376C64.5437 314.184 69.2405 315.75 69.2013 315.867Z" fill="#263238"/>
<path d="M61.3894 312.063C61.3033 311.969 61.5068 311.64 61.8826 311.366C62.2583 311.092 62.6654 311.022 62.7045 311.131C62.7437 311.241 62.4932 311.492 62.1487 311.742C61.8043 311.993 61.4755 312.149 61.3894 312.063Z" fill="#263238"/>
<path d="M62.0542 312.76C61.9603 312.681 62.1403 312.29 62.5239 311.977C62.9075 311.664 63.3067 311.484 63.3772 311.586C63.4476 311.687 63.1815 311.993 62.8292 312.314C62.477 312.634 62.156 312.807 62.0542 312.76Z" fill="#263238"/>
<path d="M51.8779 310.458C51.8153 310.458 51.6822 310.247 51.5022 309.855C51.2871 309.362 51.025 308.89 50.7194 308.446C50.4085 308.026 50.0002 307.688 49.5295 307.46C49.1616 307.296 48.8954 307.264 48.8954 307.202C48.8954 307.139 49.1772 307.045 49.6313 307.155C50.2151 307.321 50.7256 307.679 51.0795 308.172C51.4146 308.646 51.6613 309.177 51.8074 309.738C51.9092 310.161 51.9327 310.458 51.8779 310.458Z" fill="#455A64"/>
<path d="M61.8194 310.803C61.8194 310.92 61.5533 311.092 61.154 311.108C60.7548 311.124 60.4417 310.975 60.4652 310.85C60.4887 310.724 60.7861 310.67 61.1384 310.654C61.4906 310.638 61.7568 310.677 61.8194 310.803Z" fill="#263238"/>
<path d="M61.8196 310.09C61.8196 310.208 61.4282 310.208 60.9977 310.09C60.5671 309.973 60.2618 309.762 60.301 309.644C60.3401 309.527 60.7159 309.535 61.1229 309.644C61.53 309.754 61.8509 309.965 61.8196 310.09Z" fill="#263238"/>
<path d="M70.5874 173.179L53.1936 171.84L26.8445 169.703L29.7879 311.241L52.6691 310.944C52.6691 310.944 52.6691 309.378 52.6143 306.607L66.0315 310.278C66.0315 310.278 79.1042 266.113 83.5584 247.991C87.2767 232.891 70.5874 173.179 70.5874 173.179ZM52.3638 284.626C52.0194 251.952 51.6201 196.389 52.0977 189.594C52.0977 189.594 64.8416 238.511 64.959 242.37C65.0373 244.703 57.9373 267.279 52.3638 284.626Z" fill="#455A64"/>
<path d="M52.7937 305.581C52.7937 305.707 47.6742 305.808 41.3649 305.808C35.0555 305.808 29.9282 305.707 29.9282 305.581C29.9282 305.456 35.0477 305.354 41.3649 305.354C47.6821 305.354 52.7937 305.456 52.7937 305.581Z" fill="#455A64"/>
<path d="M52.5901 300.493C53.3059 300.663 54.0073 300.888 54.6881 301.166L59.925 302.99L65.1619 304.822C65.9025 305.034 66.6209 305.317 67.3068 305.667C66.5421 305.561 65.7896 305.38 65.0602 305.127C63.6981 304.728 61.8272 304.133 59.7763 303.421C57.7253 302.709 55.8623 302.004 54.5785 301.464C53.8739 301.234 53.2048 300.907 52.5901 300.493Z" fill="#455A64"/>
<path d="M73.5537 241.932C72.1385 242.262 70.6932 242.445 69.2405 242.48C67.7997 242.664 66.3437 242.698 64.8959 242.582C66.3103 242.246 67.7559 242.06 69.2092 242.026C70.65 241.842 72.1062 241.811 73.5537 241.932Z" fill="#455A64"/>
<path d="M72.059 244.5C70.9337 244.404 69.8257 244.162 68.7634 243.779C67.6578 243.538 66.5891 243.151 65.5852 242.629C66.7137 242.714 67.8252 242.954 68.8886 243.341C70.6734 243.858 72.0981 244.374 72.059 244.5Z" fill="#455A64"/>
<path d="M54.2031 172.02C54.3082 172.914 54.3475 173.814 54.3205 174.713C54.3205 176.38 54.3205 178.682 54.3205 181.226C54.3205 182.486 54.3205 183.692 54.2735 184.803C54.3022 185.805 54.1153 186.8 53.7255 187.723C53.4479 188.352 53.0041 188.893 52.4418 189.289C52.25 189.448 52.0211 189.555 51.7764 189.602C51.7764 189.602 51.9955 189.461 52.3478 189.164C52.8421 188.74 53.2262 188.203 53.4672 187.598C53.7936 186.701 53.9399 185.749 53.8978 184.795C53.8978 183.676 53.8978 182.447 53.8978 181.21C53.8978 178.666 53.9604 176.365 54.0074 174.705C54.0048 173.807 54.0703 172.909 54.2031 172.02Z" fill="#455A64"/>
<path d="M41.1069 171.222C41.1153 171.336 41.1153 171.452 41.1069 171.566C41.1069 171.817 41.1069 172.153 41.1069 172.584C41.1069 173.492 41.0364 174.807 40.9816 176.498C40.872 179.903 40.7155 184.795 40.5198 190.831C40.1518 202.933 39.7761 219.661 39.6822 238.128C39.5882 256.594 39.7996 273.354 40.0422 285.448C40.1753 291.483 40.2771 296.407 40.3554 299.781C40.3554 301.464 40.418 302.771 40.4415 303.695C40.4415 304.125 40.4415 304.478 40.4415 304.713C40.4499 304.827 40.4499 304.942 40.4415 305.057C40.433 304.942 40.433 304.827 40.4415 304.713C40.4415 304.47 40.4415 304.133 40.3867 303.703C40.3867 302.787 40.3006 301.48 40.2301 299.789C40.097 296.407 39.9405 291.507 39.7839 285.456C39.463 273.346 39.2125 256.617 39.3064 238.128C39.4003 219.638 39.8231 202.902 40.2614 190.823C40.4806 184.772 40.6841 179.864 40.8564 176.49C40.9425 174.815 41.0129 173.507 41.0599 172.576C41.0599 172.145 41.1068 171.793 41.1225 171.558C41.1092 171.447 41.104 171.334 41.1069 171.222Z" fill="#455A64"/>
<path d="M64.8879 174.783C64.9355 174.887 64.9747 174.994 65.0054 175.104C65.0758 175.339 65.1776 175.652 65.3028 176.059C65.5533 176.897 65.9526 178.134 66.3909 179.746C67.2911 182.964 68.5045 187.637 69.8587 193.453C71.213 199.269 72.7159 206.205 74.2815 213.939C75.8471 221.673 77.4988 230.19 78.9783 239.177C79.1662 240.304 79.3384 241.423 79.4872 242.543C79.4872 242.84 79.542 243.145 79.542 243.435L79.401 244.265C79.2993 244.821 79.221 245.376 79.0958 245.916C78.6496 248.093 78.1486 250.222 77.6084 252.304C76.5438 256.469 75.4166 260.453 74.305 264.242C72.0975 271.819 69.9683 278.598 68.16 284.289C66.3518 289.98 64.841 294.56 63.7764 297.722L62.5395 301.362L62.2029 302.309C62.1737 302.418 62.1317 302.523 62.0777 302.622C62.0981 302.511 62.1269 302.401 62.1638 302.294C62.2421 302.059 62.336 301.746 62.4613 301.339L63.6276 297.675L67.8861 284.203C69.6552 278.504 71.7531 271.717 73.9449 264.14C75.0409 260.351 76.1603 256.359 77.2249 252.202C77.7572 250.128 78.2582 248.007 78.7044 245.838C78.8296 245.298 78.9001 244.75 78.994 244.202L79.1349 243.38C79.1349 243.114 79.0958 242.856 79.0801 242.597C78.9314 241.494 78.767 240.374 78.5791 239.255C77.0918 230.276 75.4479 221.759 73.8823 214.025C72.3167 206.291 70.8998 199.301 69.5847 193.516C68.2696 187.731 67.0876 183.011 66.2344 179.786C65.8273 178.173 65.4516 176.928 65.2245 176.083L64.9662 175.12C64.9278 175.011 64.9015 174.898 64.8879 174.783Z" fill="#455A64"/>
<path d="M52.2931 281.753C52.3561 282.117 52.3798 282.487 52.3636 282.857C52.3636 283.64 52.3636 284.665 52.4027 285.878C52.4027 288.501 52.4966 291.984 52.5514 295.828C52.6062 299.671 52.755 303.155 52.8254 305.777C52.8254 306.99 52.888 308.008 52.9115 308.799C52.9469 309.166 52.9469 309.535 52.9115 309.902C52.8252 309.543 52.7779 309.176 52.7706 308.807C52.708 308.094 52.6375 307.069 52.5593 305.793C52.4027 303.249 52.254 299.726 52.1679 295.836C52.0818 291.945 52.0974 288.422 52.1679 285.878C52.1679 284.602 52.2227 283.53 52.254 282.857C52.2381 282.488 52.2512 282.119 52.2931 281.753Z" fill="#455A64"/>
<path d="M70.5874 173.179L53.1936 171.84L26.8445 169.703L29.7879 311.241L52.6691 310.944C52.6691 310.944 52.6691 309.378 52.6143 306.607L66.0315 310.278C66.0315 310.278 79.1042 266.113 83.5584 247.991C87.2767 232.891 70.5874 173.179 70.5874 173.179ZM52.3638 284.626C52.0194 251.952 51.6201 196.389 52.0977 189.594C52.0977 189.594 64.8416 238.511 64.959 242.37C65.0373 244.703 57.9373 267.279 52.3638 284.626Z" fill="#263238"/>
<path d="M52.7937 305.581C52.7937 305.707 47.6742 305.808 41.3649 305.808C35.0555 305.808 29.9282 305.707 29.9282 305.581C29.9282 305.456 35.0477 305.354 41.3649 305.354C47.6821 305.354 52.7937 305.456 52.7937 305.581Z" fill="#455A64"/>
<path d="M52.5901 300.493C53.3059 300.663 54.0073 300.888 54.6881 301.166L59.925 302.99L65.1619 304.822C65.9025 305.034 66.6209 305.317 67.3068 305.667C66.5421 305.561 65.7896 305.38 65.0602 305.127C63.6981 304.728 61.8272 304.133 59.7763 303.421C57.7253 302.709 55.8623 302.004 54.5785 301.464C53.8739 301.234 53.2048 300.907 52.5901 300.493Z" fill="#455A64"/>
<path d="M73.5537 241.932C72.1385 242.262 70.6932 242.445 69.2405 242.48C67.7997 242.664 66.3437 242.698 64.8959 242.582C66.3103 242.246 67.7559 242.06 69.2092 242.026C70.65 241.842 72.1062 241.811 73.5537 241.932Z" fill="#455A64"/>
<path d="M72.059 244.5C70.9337 244.404 69.8257 244.162 68.7634 243.779C67.6578 243.538 66.5891 243.151 65.5852 242.629C66.7137 242.714 67.8252 242.954 68.8886 243.341C70.6734 243.858 72.0981 244.374 72.059 244.5Z" fill="#455A64"/>
<path d="M54.2031 172.02C54.3082 172.914 54.3475 173.814 54.3205 174.713C54.3205 176.38 54.3205 178.682 54.3205 181.226C54.3205 182.486 54.3205 183.692 54.2735 184.803C54.3022 185.805 54.1153 186.8 53.7255 187.723C53.4479 188.352 53.0041 188.893 52.4418 189.289C52.25 189.448 52.0211 189.555 51.7764 189.602C51.7764 189.602 51.9955 189.461 52.3478 189.164C52.8421 188.74 53.2262 188.203 53.4672 187.598C53.7936 186.701 53.9399 185.749 53.8978 184.795C53.8978 183.676 53.8978 182.447 53.8978 181.21C53.8978 178.666 53.9604 176.365 54.0074 174.705C54.0048 173.807 54.0703 172.909 54.2031 172.02Z" fill="#455A64"/>
<path d="M41.1069 171.222C41.1153 171.336 41.1153 171.452 41.1069 171.566C41.1069 171.817 41.1069 172.153 41.1069 172.584C41.1069 173.492 41.0364 174.807 40.9816 176.498C40.872 179.903 40.7155 184.795 40.5198 190.831C40.1518 202.933 39.7761 219.661 39.6822 238.128C39.5882 256.594 39.7996 273.354 40.0422 285.448C40.1753 291.483 40.2771 296.407 40.3554 299.781C40.3554 301.464 40.418 302.771 40.4415 303.695C40.4415 304.125 40.4415 304.478 40.4415 304.713C40.4499 304.827 40.4499 304.942 40.4415 305.057C40.433 304.942 40.433 304.827 40.4415 304.713C40.4415 304.47 40.4415 304.133 40.3867 303.703C40.3867 302.787 40.3006 301.48 40.2301 299.789C40.097 296.407 39.9405 291.507 39.7839 285.456C39.463 273.346 39.2125 256.617 39.3064 238.128C39.4003 219.638 39.8231 202.902 40.2614 190.823C40.4806 184.772 40.6841 179.864 40.8564 176.49C40.9425 174.815 41.0129 173.507 41.0599 172.576C41.0599 172.145 41.1068 171.793 41.1225 171.558C41.1092 171.447 41.104 171.334 41.1069 171.222Z" fill="#455A64"/>
<path d="M64.8879 174.783C64.9355 174.887 64.9747 174.994 65.0054 175.104C65.0758 175.339 65.1776 175.652 65.3028 176.059C65.5533 176.897 65.9526 178.134 66.3909 179.746C67.2911 182.964 68.5045 187.637 69.8587 193.453C71.213 199.269 72.7159 206.205 74.2815 213.939C75.8471 221.673 77.4988 230.19 78.9783 239.177C79.1662 240.304 79.3384 241.423 79.4872 242.543C79.4872 242.84 79.542 243.145 79.542 243.435L79.401 244.265C79.2993 244.821 79.221 245.376 79.0958 245.916C78.6496 248.093 78.1486 250.222 77.6084 252.304C76.5438 256.469 75.4166 260.453 74.305 264.242C72.0975 271.819 69.9683 278.598 68.16 284.289C66.3518 289.98 64.841 294.56 63.7764 297.722L62.5395 301.362L62.2029 302.309C62.1737 302.418 62.1317 302.523 62.0777 302.622C62.0981 302.511 62.1269 302.401 62.1638 302.294C62.2421 302.059 62.336 301.746 62.4613 301.339L63.6276 297.675L67.8861 284.203C69.6552 278.504 71.7531 271.717 73.9449 264.14C75.0409 260.351 76.1603 256.359 77.2249 252.202C77.7572 250.128 78.2582 248.007 78.7044 245.838C78.8296 245.298 78.9001 244.75 78.994 244.202L79.1349 243.38C79.1349 243.114 79.0958 242.856 79.0801 242.597C78.9314 241.494 78.767 240.374 78.5791 239.255C77.0918 230.276 75.4479 221.759 73.8823 214.025C72.3167 206.291 70.8998 199.301 69.5847 193.516C68.2696 187.731 67.0876 183.011 66.2344 179.786C65.8273 178.173 65.4516 176.928 65.2245 176.083L64.9662 175.12C64.9278 175.011 64.9015 174.898 64.8879 174.783Z" fill="#455A64"/>
<path d="M52.2931 281.753C52.3561 282.117 52.3798 282.487 52.3636 282.857C52.3636 283.64 52.3636 284.665 52.4027 285.878C52.4027 288.501 52.4966 291.984 52.5514 295.828C52.6062 299.671 52.755 303.155 52.8254 305.777C52.8254 306.99 52.888 308.008 52.9115 308.799C52.9469 309.166 52.9469 309.535 52.9115 309.902C52.8252 309.543 52.7779 309.176 52.7706 308.807C52.708 308.094 52.6375 307.069 52.5593 305.793C52.4027 303.249 52.254 299.726 52.1679 295.836C52.0818 291.945 52.0974 288.422 52.1679 285.878C52.1679 284.602 52.2227 283.53 52.254 282.857C52.2381 282.488 52.2512 282.119 52.2931 281.753Z" fill="#455A64"/>
<path d="M40.6217 105.247L53.9293 106.234C54.1094 104.668 54.3677 98.711 54.3677 98.711C54.3677 98.711 59.9177 98.2022 60.3248 92.707C60.7319 87.2117 60.5596 74.5225 60.5596 74.5225C57.5172 72.9848 54.1191 72.2879 50.717 72.504C47.3149 72.7201 44.0323 73.8412 41.2088 75.7515L40.3556 76.3308L40.6217 105.247Z" fill="#E5BAAB"/>
<path d="M58.6647 83.8926C58.5593 83.7816 58.4887 83.6421 58.4617 83.4914C58.4347 83.3407 58.4525 83.1854 58.5129 83.0447C58.5733 82.904 58.6737 82.7841 58.8015 82.6998C58.9294 82.6156 59.0791 82.5707 59.2323 82.5707C59.3854 82.5707 59.5351 82.6156 59.663 82.6998C59.7908 82.7841 59.8912 82.904 59.9516 83.0447C60.012 83.1854 60.0298 83.3407 60.0028 83.4914C59.9758 83.6421 59.9052 83.7816 59.7998 83.8926C59.7267 83.9696 59.6386 84.0309 59.5411 84.0728C59.4435 84.1147 59.3384 84.1363 59.2323 84.1363C59.1261 84.1363 59.021 84.1147 58.9235 84.0728C58.8259 84.0309 58.7379 83.9696 58.6647 83.8926Z" fill="#263238"/>
<path d="M60.074 82.7184C59.9801 82.8124 59.4713 82.3662 58.7119 82.3114C57.9526 82.2566 57.3812 82.6167 57.3029 82.5149C57.2246 82.4131 57.3577 82.3035 57.616 82.1392C57.9491 81.9204 58.3464 81.8211 58.7433 81.8574C59.1431 81.8812 59.5234 82.0383 59.8235 82.3035C60.0505 82.4992 60.121 82.6636 60.074 82.7184Z" fill="#263238"/>
<path d="M51.3065 82.8437C51.4305 82.9343 51.5251 83.0593 51.5786 83.2032C51.6321 83.3471 51.642 83.5035 51.6073 83.653C51.5725 83.8025 51.4946 83.9386 51.3832 84.0441C51.2717 84.1497 51.1317 84.2202 50.9805 84.2468C50.8294 84.2734 50.6737 84.255 50.5329 84.1938C50.3921 84.1326 50.2724 84.0314 50.1887 83.9028C50.1049 83.7741 50.0609 83.6237 50.062 83.4702C50.0632 83.3167 50.1094 83.1669 50.195 83.0394C50.2537 82.9519 50.3295 82.8772 50.4179 82.8197C50.5062 82.7622 50.6053 82.7232 50.7091 82.7049C50.8129 82.6866 50.9193 82.6895 51.022 82.7134C51.1246 82.7372 51.2214 82.7816 51.3065 82.8437Z" fill="#263238"/>
<path d="M51.8073 82.8828C51.7133 82.9689 51.2045 82.5227 50.4452 82.4679C49.6859 82.4131 49.1145 82.781 49.0362 82.6793C48.9579 82.5775 49.091 82.4601 49.3415 82.2957C49.6808 82.0849 50.078 81.9863 50.4765 82.0139C50.8752 82.0429 51.2539 82.1993 51.5568 82.4601C51.7838 82.6636 51.8542 82.8436 51.8073 82.8828Z" fill="#263238"/>
<path d="M54.4612 89.3174C54.8616 89.1936 55.2789 89.1328 55.698 89.1374C55.9015 89.1374 56.0659 89.0982 56.0894 88.9886C56.1092 88.7865 56.0712 88.5829 55.9798 88.4015L55.4788 86.8359C54.9968 85.4974 54.6429 84.116 54.4221 82.7106C55.0286 83.9958 55.5135 85.335 55.8702 86.7107L56.3399 88.2763C56.4529 88.5353 56.475 88.825 56.4025 89.0982C56.3696 89.1715 56.3199 89.2359 56.2573 89.2863C56.1947 89.3366 56.1211 89.3714 56.0424 89.3878C55.9307 89.4024 55.8176 89.4024 55.7058 89.3878C55.2899 89.431 54.8696 89.4072 54.4612 89.3174Z" fill="#263238"/>
<path d="M51.9489 89.9985C51.1661 89.4818 54.0468 91.2901 55.5968 91.3136C55.3152 91.695 54.9124 91.9695 54.4544 92.0918C53.9964 92.2141 53.5104 92.1771 53.0761 91.9868C51.4636 91.2745 51.9489 89.9985 51.9489 89.9985Z" fill="white"/>
<path d="M54.3361 98.6328C51.7944 98.5254 49.342 97.6643 47.291 96.1591C47.291 96.1591 48.7391 100.222 54.2579 100.073L54.3361 98.6328Z" fill="#993300"/>
<path d="M41.4044 81.2076C41.2792 81.1606 37.3182 80.644 37.6939 85.3251C38.0697 90.0063 42.6726 88.0728 42.6647 87.9397C42.6569 87.8066 41.4044 81.2076 41.4044 81.2076Z" fill="#E5BAAB"/>
<path d="M41.0598 86.4132C41.0598 86.4132 40.9894 86.4759 40.8563 86.5541C40.6678 86.6508 40.4499 86.6731 40.2457 86.6168C39.9288 86.4476 39.662 86.1979 39.4723 85.8928C39.2827 85.5877 39.1768 85.238 39.1654 84.8789C39.1223 84.4794 39.1705 84.0752 39.3063 83.6969C39.3377 83.5472 39.4045 83.4072 39.5012 83.2887C39.5979 83.1701 39.7217 83.0766 39.8621 83.0159C39.9546 82.9861 40.0544 82.9884 40.1454 83.0225C40.2363 83.0567 40.3131 83.1205 40.3631 83.2038C40.4336 83.329 40.4179 83.4229 40.4414 83.4308C40.4649 83.4386 40.5353 83.3447 40.4414 83.1568C40.4087 83.0419 40.3367 82.9421 40.2379 82.875C40.099 82.7924 39.9344 82.7645 39.776 82.7967C39.5896 82.8495 39.4197 82.9492 39.2827 83.0862C39.1457 83.2232 39.046 83.393 38.9932 83.5795C38.8244 83.9987 38.7625 84.4533 38.8132 84.9024C38.8219 85.3206 38.9544 85.7268 39.1941 86.0696C39.4338 86.4124 39.7698 86.6764 40.1596 86.8281C40.2879 86.855 40.4206 86.8528 40.548 86.8217C40.6753 86.7905 40.794 86.7312 40.8954 86.6481C41.0598 86.5307 41.0833 86.4211 41.0598 86.4132Z" fill="#993300"/>
<path d="M60.9113 72.5421C61.2281 72.5336 61.5388 72.4524 61.8192 72.3047C62.0996 72.157 62.3423 71.9467 62.5285 71.6902C62.7147 71.4337 62.8394 71.1379 62.8929 70.8255C62.9465 70.5131 62.9275 70.1926 62.8374 69.8887C62.7473 69.5849 62.5885 69.3058 62.3733 69.0731C62.1581 68.8404 61.8923 68.6603 61.5964 68.5468C61.3005 68.4332 60.9824 68.3893 60.6668 68.4183C60.3512 68.4473 60.0465 68.5486 59.7762 68.7142C60.4309 68.1708 60.9642 67.4961 61.3418 66.7337C61.5245 66.3492 61.5849 65.9179 61.5149 65.498C61.4449 65.0782 61.2479 64.6898 60.9504 64.3853C60.606 64.1574 60.2075 64.0243 59.7952 63.9996C59.3829 63.9748 58.9713 64.0593 58.602 64.2444C57.4357 64.7454 56.512 65.7317 55.3143 66.1466C54.1166 66.5615 52.778 66.358 51.4942 66.4128C50.0537 66.4385 48.6585 66.9209 47.5098 67.7905C46.5309 68.5596 45.8974 69.6858 45.7485 70.9217C45.5946 70.7104 45.4245 70.5115 45.2397 70.3268C44.6308 69.6001 43.8095 69.0827 42.8913 68.8473C42.8365 68.949 43.9089 69.544 44.9344 70.6086C45.2135 70.8757 45.475 71.1607 45.7172 71.4618C43.9324 71.2426 41.9676 71.227 40.5585 72.3385C39.9877 72.8474 39.5365 73.4762 39.2374 74.18C38.9383 74.8838 38.7987 75.645 38.8285 76.4091C38.8285 77.9277 39.4548 79.3759 39.901 80.8319C40.0089 81.2444 40.1949 81.6324 40.4489 81.9748L41.1221 85.8888L43.5723 85.8418L43.4157 77.6303C43.4157 77.6303 43.1652 74.1703 46.1399 74.4991C49.1145 74.8279 53.1851 78.1548 58.9621 77.3093C59.91 77.2565 60.8336 76.9888 61.6628 76.5265C62.0642 76.2723 62.3904 75.9155 62.6078 75.493C62.8253 75.0706 62.926 74.5977 62.8996 74.1233C62.8426 73.6513 62.602 73.2207 62.2299 72.9247C61.8578 72.6288 61.3841 72.4913 60.9113 72.5421Z" fill="#263238"/>
<path d="M110.697 113.068L111.057 110.578C111.425 109.217 111.656 107.821 111.746 106.414C111.805 105.714 111.742 105.009 111.558 104.332C111.374 103.478 111.068 102.656 110.65 101.889C110.196 101.224 110.791 100.324 111.433 100.598C112.075 100.872 113.414 102.641 113.844 105.193C114.275 107.745 116.286 104.206 117.038 102.93C117.789 101.654 120.318 97.8108 120.897 97.7325C121.743 97.6151 122.024 98.5153 121.234 99.76C120.443 101.005 118.361 104.958 119.058 105.318C119.579 105.235 120.112 105.261 120.623 105.396C120.706 105.42 120.778 105.469 120.832 105.537C120.885 105.604 120.916 105.686 120.921 105.772C120.918 106.167 120.96 106.561 121.046 106.946C121.046 106.946 122.071 106.711 122.283 107.157C122.426 107.616 122.492 108.094 122.478 108.574C122.478 108.574 123.261 108.308 123.637 108.574C124.42 109.208 123.418 110.296 123.418 110.296C121.113 113.046 118.637 115.647 116.005 118.085L110.611 112.888" fill="#E5BAAB"/>
<path d="M120.733 107.118C120.503 107.602 120.193 108.044 119.817 108.426C119.504 108.801 119.113 109.208 118.651 109.702C118.41 109.958 118.148 110.193 117.868 110.406C117.696 110.543 117.487 110.628 117.268 110.65C117.049 110.672 116.828 110.631 116.631 110.531C116.524 110.469 116.433 110.381 116.367 110.276C116.3 110.171 116.259 110.052 116.248 109.929C116.232 109.708 116.281 109.488 116.389 109.295C116.582 109.004 116.791 108.724 117.015 108.457C117.414 107.956 117.743 107.486 118.017 107.079C118.28 106.619 118.581 106.182 118.917 105.772C118.787 106.293 118.564 106.786 118.26 107.228C117.975 107.731 117.662 108.217 117.32 108.684C117.112 108.934 116.919 109.195 116.741 109.467C116.6 109.725 116.608 110.046 116.835 110.163C116.963 110.217 117.102 110.236 117.24 110.218C117.378 110.201 117.508 110.146 117.618 110.062C117.878 109.865 118.123 109.65 118.354 109.42C118.823 108.981 119.23 108.567 119.567 108.214C119.917 107.81 120.308 107.443 120.733 107.118Z" fill="#993300"/>
<path d="M122.103 108.723C121.872 109.141 121.576 109.519 121.226 109.842C120.872 110.221 120.488 110.57 120.075 110.884C119.828 111.071 119.566 111.238 119.292 111.385C119.13 111.466 118.956 111.521 118.776 111.549C118.667 111.567 118.556 111.561 118.449 111.533C118.342 111.504 118.243 111.454 118.157 111.385C118.013 111.235 117.922 111.042 117.897 110.836C117.873 110.629 117.918 110.42 118.024 110.242C118.183 109.963 118.369 109.7 118.58 109.459C118.925 109.06 119.246 108.676 119.566 108.292C120.138 107.635 120.514 107.251 120.561 107.283C120.354 107.712 120.091 108.113 119.778 108.473L118.901 109.717C118.716 109.939 118.549 110.174 118.4 110.422C118.34 110.522 118.312 110.638 118.32 110.754C118.329 110.87 118.373 110.981 118.447 111.071C118.588 111.204 118.885 111.15 119.144 111.024C119.401 110.891 119.649 110.742 119.887 110.578C120.294 110.288 120.684 109.974 121.054 109.639C121.365 109.292 121.717 108.985 122.103 108.723Z" fill="#993300"/>
<path d="M122.424 110.962C122.463 110.962 122.424 111.314 122.056 111.745C121.945 111.878 121.807 111.987 121.653 112.067C121.498 112.146 121.329 112.194 121.156 112.207C120.932 112.208 120.714 112.134 120.537 111.995C120.44 111.914 120.363 111.812 120.31 111.697C120.257 111.582 120.23 111.456 120.232 111.33C120.294 110.931 120.456 110.554 120.702 110.234C120.867 109.975 121.047 109.727 121.242 109.49C121.579 109.083 121.821 108.872 121.868 108.911C121.915 108.95 121.743 109.216 121.477 109.694C121.32 109.968 121.164 110.218 121.023 110.477C120.834 110.753 120.704 111.064 120.639 111.392C120.645 111.525 120.702 111.651 120.799 111.743C120.895 111.835 121.023 111.886 121.156 111.886C121.416 111.877 121.663 111.774 121.853 111.596C122.205 111.22 122.369 110.931 122.424 110.962Z" fill="#993300"/>
<path d="M110.111 109.835C110.111 109.835 89.5779 130.039 86.6972 130.187C83.4094 130.344 73.2956 116.003 73.2956 116.003C66.8219 106.015 58.2815 104.402 55.166 104.151V102.915L39.8623 101.662C39.8623 101.662 39.8623 102.977 39.8623 104.128H33.1067C33.1067 104.128 20.9733 103.572 19.1572 119.87L27.8776 126.767L31.455 140.074C32.6997 144.708 28.2534 152.09 26.132 164.043C25.8048 166.036 26.1374 168.081 27.0792 169.867L71.2682 174.948L68.9198 141.162L68.2074 133.334C71.8475 138.305 78.3838 145.335 86.3919 145.178C100.052 144.92 119.027 116.214 119.027 116.214L110.111 109.835Z" fill="#E0E0E0"/>
<path d="M50.0155 102.695C50.0914 103.39 50.0914 104.091 50.0155 104.786C49.9014 106.525 49.6659 108.254 49.311 109.96L49.2562 110.218L49.0213 110.093C48.489 109.811 47.9333 109.514 47.3696 109.185C45.1778 107.893 43.3069 106.562 41.8901 105.639C41.1252 105.173 40.3881 104.664 39.6826 104.112C39.9168 104.181 40.1407 104.281 40.3479 104.41C40.755 104.637 41.3421 104.966 42.0466 105.396C43.4713 106.257 45.3657 107.557 47.5262 108.833C48.0742 109.154 48.6221 109.459 49.1544 109.741L48.8648 109.874C49.3188 107.854 49.538 106.046 49.7024 104.762C49.7648 104.067 49.8694 103.377 50.0155 102.695Z" fill="#FAFAFA"/>
<path d="M55.2128 104.238C55.1145 104.91 54.968 105.574 54.7745 106.226C54.6257 106.844 54.4692 107.58 54.203 108.379C54.0645 108.801 53.8998 109.214 53.7099 109.615C53.6551 109.759 53.5566 109.883 53.4281 109.968C53.3389 110.022 53.2338 110.045 53.13 110.032C53.0262 110.02 52.9298 109.972 52.8566 109.897C52.7099 109.681 52.5915 109.447 52.5043 109.2C51.7215 107.424 51.1031 105.811 50.6491 104.629C50.3636 104.01 50.1457 103.361 49.9994 102.695C50.365 103.271 50.6719 103.882 50.9153 104.519C51.4397 105.67 52.1364 107.267 52.8801 109.044C52.9523 109.242 53.0413 109.433 53.1462 109.615C53.1854 109.615 53.1462 109.615 53.2167 109.615C53.2756 109.568 53.3214 109.506 53.3498 109.435C53.5371 109.05 53.7043 108.656 53.8508 108.253C54.1247 107.471 54.3126 106.75 54.4927 106.148C54.6483 105.482 54.8904 104.84 55.2128 104.238Z" fill="#FAFAFA"/>
<path d="M52.3633 158.908C52.3259 158.725 52.3049 158.539 52.3007 158.353C52.3007 157.945 52.2693 157.424 52.2067 156.787C52.1441 155.347 52.0502 153.35 51.9406 150.9C51.7527 145.89 51.4865 139.041 51.2047 131.479C50.9229 123.917 50.7429 117.068 50.5863 112.058C50.5315 109.6 50.4846 107.604 50.4454 106.163C50.4454 105.506 50.4454 104.973 50.4454 104.598C50.4252 104.41 50.4252 104.221 50.4454 104.034C50.4815 104.217 50.4998 104.403 50.5002 104.59C50.5002 104.997 50.5628 105.529 50.602 106.155C50.6646 107.588 50.7585 109.584 50.8681 112.034C51.056 117.044 51.3143 123.894 51.604 131.456C51.8936 139.017 52.058 145.867 52.2224 150.885C52.2772 153.335 52.3241 155.331 52.3633 156.771C52.3633 157.437 52.3633 157.969 52.3633 158.376C52.3817 158.553 52.3817 158.731 52.3633 158.908Z" fill="#F5F5F5"/>
<path d="M49.577 107.643L50.8608 111.181L51.9645 107.384L50.2502 103.58L49.577 107.643Z" fill="#D93D00"/>
<path d="M51.0954 110.124L50.25 149.953L56.2619 162.525L58.6338 148.38L51.0954 110.124Z" fill="#D93D00"/>
<path d="M86.9165 135.111C86.9165 135.111 86.9165 135.229 86.9165 135.424L86.8695 135.722L86.7365 135.424C86.4335 134.632 86.2591 133.797 86.2198 132.951C86.0903 132.006 86.2035 131.045 86.5486 130.156C86.666 130.156 86.5486 131.408 86.6269 132.927C86.6895 134.007 86.8617 134.931 86.9165 135.377H86.7365C86.8069 135.166 86.8852 135.111 86.9165 135.111Z" fill="#FAFAFA"/>
<path d="M88.6777 134.978C88.0938 134.366 87.6598 133.626 87.4096 132.818C87.0329 132.071 86.827 131.25 86.8068 130.414C87.2053 131.142 87.5305 131.908 87.7775 132.7C88.1508 133.428 88.4523 134.191 88.6777 134.978Z" fill="#FAFAFA"/>
<path d="M117.743 118.117C116.05 117.221 114.423 116.206 112.874 115.079C111.251 114.066 109.702 112.939 108.24 111.706C109.932 112.608 111.559 113.628 113.109 114.758C114.731 115.766 116.28 116.889 117.743 118.117Z" fill="#FAFAFA"/>
<path d="M32.394 124.512C32.394 124.512 29.1376 147.213 30.6797 148.481C39.1966 155.644 51.0325 159.401 55.2596 160.584C55.878 160.435 56.5982 160.239 57.428 159.973C58.1473 159.744 58.8223 159.395 59.4241 158.94C60.1926 158.401 60.8828 157.758 61.475 157.03C61.5645 156.873 61.7003 156.749 61.8636 156.673C62.0269 156.597 62.2097 156.574 62.3868 156.607C62.5638 156.639 62.7263 156.726 62.8519 156.855C62.9774 156.984 63.0598 157.149 63.0876 157.327C63.1268 158.11 61.8743 160.122 59.518 161.593C59.518 161.593 64.9428 170.322 66.6728 171.112C68.4028 171.903 73.3501 174.126 72.5125 174.549C71.6749 174.971 65.6552 173.226 65.6552 173.226L53.4435 169.961C53.4435 169.961 13.0511 163.629 15.7361 145.1C17.3878 133.741 19.1882 123.51 19.8379 120.919L32.394 124.512Z" fill="#E5BAAB"/>
<path d="M19.1571 119.862L15.5719 144.607C14.7343 152.223 19.8382 158.274 26.7033 161.679C37.1537 166.854 52.6688 170.549 52.5357 170.525C52.4026 170.502 53.5846 159.48 53.5846 159.48C53.5846 159.48 31.8306 150.086 31.1496 146.016C30.4686 141.945 33.9129 125.037 33.9129 125.037L19.1571 119.862Z" fill="#E0E0E0"/>
<path d="M52.5047 170.525C52.4965 170.46 52.4965 170.394 52.5047 170.329C52.5047 170.173 52.5047 169.985 52.5438 169.758C52.583 169.218 52.6378 168.49 52.716 167.558C52.8804 165.617 53.1231 162.861 53.4127 159.472L53.4988 159.613L42.5396 154.313L39.4085 152.748C38.3517 152.184 37.2871 151.566 36.2303 150.885C35.1581 150.193 34.1282 149.437 33.1461 148.622C32.6529 148.207 32.1597 147.769 31.69 147.307C31.4252 147.075 31.2119 146.789 31.0638 146.47C30.9808 146.314 30.9202 146.148 30.8838 145.976C30.8324 145.813 30.7957 145.645 30.7742 145.475C30.4219 142.767 31.1421 140.215 31.557 137.78C31.9719 135.346 32.3867 132.974 32.7781 130.735C33.5609 126.242 34.2733 122.203 34.8682 118.79C35.1894 117.278 35.3728 115.74 35.4162 114.195C35.4313 113.032 35.1908 111.88 34.7117 110.821C34.4043 110.152 33.9681 109.551 33.4279 109.052C33.0521 108.715 32.8251 108.582 32.8329 108.559C33.0658 108.676 33.2839 108.82 33.4827 108.989C34.0574 109.474 34.5241 110.074 34.8526 110.75C35.3663 111.826 35.6338 113.003 35.6354 114.195C35.6179 115.754 35.4528 117.308 35.1422 118.837C34.5708 122.258 33.8897 126.305 33.1382 130.806C32.7547 133.052 32.3554 135.416 31.9406 137.851C31.8388 138.462 31.7292 139.08 31.6196 139.706C31.51 140.332 31.3926 140.943 31.3065 141.569C31.1006 142.835 31.0664 144.122 31.2047 145.397C31.2295 145.553 31.2635 145.707 31.3065 145.859C31.3373 146.009 31.39 146.154 31.463 146.29C31.592 146.566 31.7789 146.812 32.011 147.01C32.4729 147.464 32.9504 147.894 33.4357 148.301C34.4047 149.108 35.4216 149.856 36.4808 150.54C37.5219 151.221 38.5709 151.832 39.612 152.395L42.7432 153.961L53.6163 159.378L53.7024 159.425V159.519C53.3501 162.908 53.0683 165.656 52.8726 167.597C52.763 168.521 52.6847 169.257 52.6221 169.789C52.5908 170.019 52.5673 170.207 52.5517 170.353C52.5416 170.412 52.5259 170.469 52.5047 170.525Z" fill="#FAFAFA"/>
<path d="M50.4847 157.969C50.5079 158.536 50.4632 159.103 50.3516 159.66C50.2185 160.693 49.9994 162.118 49.7097 163.683C49.4201 165.249 49.0913 166.658 48.8252 167.668C48.7178 168.224 48.5361 168.764 48.285 169.273C48.3123 168.707 48.3989 168.145 48.5434 167.597C48.773 166.418 49.0339 165.087 49.3262 163.605C49.6001 161.705 49.987 159.823 50.4847 157.969Z" fill="#FAFAFA"/>
<path d="M52.5045 170.525C52.3741 170.524 52.2447 170.503 52.1209 170.462L51.0485 170.204L47.1345 169.171C43.8232 168.278 39.2204 167.104 34.2887 165.296C31.968 164.447 29.7082 163.44 27.5253 162.282C25.742 161.334 24.0402 160.239 22.4371 159.01C21.3555 158.182 20.3352 157.277 19.3842 156.302C19.0476 155.957 18.8049 155.683 18.6014 155.519C18.5082 155.427 18.4291 155.321 18.3666 155.206C18.3666 155.206 18.758 155.574 19.4625 156.223C20.455 157.147 21.5005 158.012 22.5937 158.814C24.2125 159.979 25.9129 161.025 27.6819 161.946C29.8593 163.077 32.1081 164.065 34.414 164.905C39.3143 166.705 43.9093 167.918 47.1971 168.889L51.1111 170.04L52.1679 170.376C52.286 170.411 52.3991 170.461 52.5045 170.525Z" fill="#FAFAFA"/>
<path d="M52.7703 160.615C52.775 160.755 52.7379 160.893 52.6637 161.012C52.5895 161.13 52.4816 161.224 52.3538 161.281C52.2261 161.339 52.0841 161.356 51.9462 161.332C51.8083 161.309 51.6805 161.244 51.5794 161.147C51.4782 161.051 51.4081 160.926 51.3781 160.789C51.3481 160.653 51.3595 160.51 51.4108 160.38C51.4622 160.25 51.5512 160.138 51.6664 160.058C51.7817 159.979 51.918 159.935 52.058 159.934C52.2422 159.932 52.4199 160.002 52.5531 160.129C52.6862 160.256 52.7642 160.431 52.7703 160.615Z" fill="#FAFAFA"/>
</svg>
