<svg width="407" height="300" viewBox="0 0 407 300" fill="none" xmlns="http://www.w3.org/2000/svg">
<path d="M366.06 279.48H339.112V279.683H366.06V279.48Z" fill="#EBEBEB"/>
<path d="M269.497 281.693H262.426V281.896H269.497V281.693Z" fill="#EBEBEB"/>
<path d="M338.298 271.929H322.685V272.133H338.298V271.929Z" fill="#EBEBEB"/>
<path d="M77.8255 273.296H42.6841V273.499H77.8255V273.296Z" fill="#EBEBEB"/>
<path d="M90.2256 273.296H85.0752V273.499H90.2256V273.296Z" fill="#EBEBEB"/>
<path d="M183.193 276.73H106.97V276.933H183.193V276.73Z" fill="#EBEBEB"/>
<path d="M192.835 230.1H35.7358C34.5036 230.1 33.3219 229.61 32.4506 228.739C31.5793 227.868 31.0898 226.686 31.0898 225.454V4.60525C31.1006 3.38013 31.5948 2.20885 32.4649 1.34635C33.335 0.483846 34.5106 -4.69686e-05 35.7358 3.41939e-09H192.835C194.067 3.4194e-09 195.249 0.48948 196.12 1.36076C196.991 2.23204 197.481 3.41375 197.481 4.64593V225.454C197.481 226.686 196.991 227.868 196.12 228.739C195.249 229.61 194.067 230.1 192.835 230.1ZM35.7358 0.16273C34.5582 0.164881 33.4295 0.63362 32.5968 1.46629C31.7641 2.29896 31.2954 3.42768 31.2933 4.60525V225.454C31.2954 226.631 31.7641 227.76 32.5968 228.593C33.4295 229.425 34.5582 229.894 35.7358 229.896H192.835C194.012 229.894 195.141 229.425 195.974 228.593C196.806 227.76 197.275 226.631 197.277 225.454V4.60525C197.275 3.42768 196.806 2.29896 195.974 1.46629C195.141 0.63362 194.012 0.164881 192.835 0.16273H35.7358Z" fill="#EBEBEB"/>
<path d="M368.835 230.1H211.719C210.488 230.097 209.307 229.607 208.436 228.736C207.566 227.866 207.075 226.685 207.073 225.454V4.60525C207.086 3.3808 207.581 2.21074 208.451 1.3487C209.32 0.48665 210.495 0.00207341 211.719 0H368.835C370.057 0.00423463 371.228 0.490019 372.095 1.35206C372.962 2.2141 373.453 3.38294 373.464 4.60525V225.454C373.464 226.683 372.977 227.862 372.109 228.733C371.241 229.604 370.064 230.095 368.835 230.1ZM211.719 0.16273C210.542 0.164881 209.413 0.63362 208.58 1.46629C207.748 2.29896 207.279 3.42768 207.277 4.60525V225.454C207.279 226.631 207.748 227.76 208.58 228.593C209.413 229.425 210.542 229.894 211.719 229.896H368.835C370.012 229.894 371.141 229.425 371.973 228.593C372.806 227.76 373.275 226.631 373.277 225.454V4.60525C373.275 3.42768 372.806 2.29896 371.973 1.46629C371.141 0.63362 370.012 0.164881 368.835 0.16273H211.719Z" fill="#EBEBEB"/>
<path d="M406.824 266.388H0V266.592H406.824V266.388Z" fill="#EBEBEB"/>
<path d="M332.896 37.6149H265.925V124.626H332.896V37.6149Z" fill="#F5F5F5"/>
<path d="M327.746 44.3112H271.075V117.93H327.746V44.3112Z" fill="#EBEBEB"/>
<path d="M324.198 48.9164H274.622V113.325H324.198V48.9164Z" fill="#FAFAFA"/>
<path d="M292.1 85.3191C285.916 85.3191 274.598 102.829 274.598 102.829V113.325H320.114C320.114 113.325 302.026 85.3191 292.1 85.3191Z" fill="#F5F5F5"/>
<path d="M317.379 72.195C317.379 73.5419 316.98 74.8586 316.232 75.9786C315.483 77.0985 314.42 77.9714 313.175 78.4868C311.931 79.0023 310.561 79.1372 309.24 78.8744C307.919 78.6116 306.706 77.963 305.753 77.0106C304.801 76.0581 304.152 74.8447 303.89 73.5236C303.627 72.2025 303.762 70.8333 304.277 69.5888C304.793 68.3444 305.666 67.2808 306.785 66.5325C307.905 65.7842 309.222 65.3848 310.569 65.3848C311.464 65.3837 312.35 65.5591 313.176 65.901C314.003 66.2429 314.754 66.7444 315.387 67.3771C316.02 68.0097 316.521 68.7608 316.863 69.5876C317.205 70.4143 317.38 71.3004 317.379 72.195Z" fill="white"/>
<path d="M78.4519 38.8436V180.63H156.798V38.8436C156.798 38.8436 141.339 22.652 117.629 22.652C93.9194 22.652 78.4519 38.8436 78.4519 38.8436Z" fill="#F5F5F5"/>
<path d="M136.978 26.3133L89.2978 178.465H82.7886L131.07 24.4094C129.102 23.8885 127.105 23.481 125.09 23.1889L78.4519 172.086V180.63H121.233V178.457H109.761L154.243 36.4758C149.081 32.1687 143.249 28.7359 136.978 26.3133Z" fill="#FAFAFA"/>
<path d="M156.798 180.63H78.4519V38.8435L79.2656 38.0705C89.5662 28.1295 103.33 22.5854 117.645 22.6112C131.958 22.5876 145.718 28.1315 156.017 38.0705L156.831 38.8435L156.798 180.63ZM83.6511 175.431H151.599V41.0729C142.328 32.5689 130.205 27.851 117.625 27.851C105.045 27.851 92.9218 32.5689 83.6511 41.0729V175.431Z" fill="#EBEBEB"/>
<path d="M159.402 183.258H75.8562V37.7777L76.6129 37.021C87.497 26.1572 102.247 20.0557 117.625 20.0557C133.003 20.0557 147.753 26.1572 158.637 37.021L159.402 37.7777V183.258ZM81.0473 178.059H154.202V39.9501C144.358 30.5236 131.255 25.2616 117.625 25.2616C103.995 25.2616 90.8916 30.5236 81.0473 39.9501V178.059Z" fill="#F5F5F5"/>
<path d="M61.5609 257.389H198.221V212.492H61.5609V257.389Z" fill="#EBEBEB"/>
<path d="M187.261 266.933H195.853V260.44H187.261V266.933Z" fill="#E6E6E6"/>
<path d="M51.1296 266.933H59.7217L59.7217 207.016H51.1296L51.1296 266.933Z" fill="#E6E6E6"/>
<path d="M59.6162 207.016V266.933H64.1971V261.994H195.853V266.958H200.434V207.016H59.6162ZM195.853 253.956H132.316V215.031H195.853V253.956ZM127.735 253.956H64.1971V215.031H127.743L127.735 253.956Z" fill="#F5F5F5"/>
<path d="M121.217 237.699C122.741 237.699 123.976 236.464 123.976 234.941C123.976 233.417 122.741 232.182 121.217 232.182C119.694 232.182 118.459 233.417 118.459 234.941C118.459 236.464 119.694 237.699 121.217 237.699Z" fill="#E0E0E0"/>
<path d="M122.682 237.699C124.205 237.699 125.44 236.464 125.44 234.941C125.44 233.417 124.205 232.182 122.682 232.182C121.159 232.182 119.924 233.417 119.924 234.941C119.924 236.464 121.159 237.699 122.682 237.699Z" fill="#FAFAFA"/>
<path d="M137.075 237.699C138.598 237.699 139.833 236.464 139.833 234.941C139.833 233.417 138.598 232.182 137.075 232.182C135.552 232.182 134.317 233.417 134.317 234.941C134.317 236.464 135.552 237.699 137.075 237.699Z" fill="#E0E0E0"/>
<path d="M138.532 237.699C140.055 237.699 141.29 236.464 141.29 234.941C141.29 233.417 140.055 232.182 138.532 232.182C137.008 232.182 135.773 233.417 135.773 234.941C135.773 236.464 137.008 237.699 138.532 237.699Z" fill="#FAFAFA"/>
<path d="M338.771 253.37L333.75 252.695L335.793 237.463C338.745 215.215 336.852 192.591 330.244 171.143L321.171 141.851L326.013 140.354L335.085 169.646C341.895 191.802 343.838 215.169 340.78 238.146L338.771 253.37Z" fill="#E6E6E6"/>
<path d="M258.264 171.371L253.417 172.855L269.569 225.62L274.416 224.136L258.264 171.371Z" fill="#E6E6E6"/>
<path d="M341.512 252.532L342.944 242.467C343.071 241.578 342.9 240.673 342.459 239.892C342.017 239.11 341.33 238.497 340.503 238.147L335.687 236.039C334.954 235.716 334.143 235.617 333.354 235.753C332.565 235.889 331.834 236.254 331.252 236.804L321.741 245.754L253.598 225.38C252.143 224.942 250.612 224.821 249.106 225.025C247.601 225.229 246.157 225.752 244.871 226.561C243.585 227.37 242.487 228.445 241.651 229.713C240.816 230.982 240.261 232.415 240.026 233.916L235.876 260.766H345.442C345.437 259.188 345.082 257.631 344.403 256.207C343.723 254.783 342.736 253.528 341.512 252.532Z" fill="#F0F0F0"/>
<path d="M280.847 260.782C294.66 260.782 305.858 249.584 305.858 235.771C305.858 221.957 294.66 210.759 280.847 210.759C267.033 210.759 255.835 221.957 255.835 235.771C255.835 249.584 267.033 260.782 280.847 260.782Z" fill="#EBEBEB"/>
<path d="M280.847 253.028C290.378 253.028 298.104 245.302 298.104 235.771C298.104 226.24 290.378 218.513 280.847 218.513C271.316 218.513 263.589 226.24 263.589 235.771C263.589 245.302 271.316 253.028 280.847 253.028Z" fill="#FAFAFA"/>
<path d="M338.868 118.28C335.28 124.13 331.651 133.861 325.166 136.774C318.291 139.858 310.708 141.835 303.588 144.325C301.294 145.138 302.278 148.8 304.597 147.986C312.042 145.383 319.804 143.21 327.054 140.126C334.304 137.043 338.25 126.547 342.147 120.2C343.433 118.109 340.146 116.197 338.893 118.28H338.868Z" fill="#F0F0F0"/>
<path d="M265.64 170.703L245.722 174.405C245.141 174.507 244.545 174.481 243.975 174.329C243.405 174.177 242.875 173.904 242.421 173.527C241.968 173.15 241.602 172.679 241.348 172.146C241.095 171.614 240.96 171.033 240.954 170.443V168.563C240.954 167.484 241.382 166.45 242.145 165.687C242.908 164.924 243.943 164.495 245.022 164.495H265.111C265.929 164.506 266.711 164.839 267.285 165.423C267.86 166.006 268.18 166.793 268.178 167.611C268.185 168.343 267.935 169.053 267.471 169.618C267.006 170.184 266.358 170.568 265.64 170.703Z" fill="#F0F0F0"/>
<path d="M279.838 236.771L301.863 258.838C302.13 259.105 302.492 259.256 302.869 259.257C303.247 259.257 303.61 259.108 303.877 258.842C304.145 258.575 304.296 258.213 304.296 257.836C304.297 257.458 304.148 257.095 303.881 256.828L281.823 234.77C281.557 234.502 281.195 234.352 280.817 234.351C280.44 234.35 280.077 234.499 279.809 234.766C279.542 235.032 279.391 235.394 279.39 235.772C279.39 236.149 279.539 236.512 279.805 236.78L279.838 236.771Z" fill="#E0E0E0"/>
<path d="M298.104 259.733H311.456C313.897 259.733 313.897 255.933 311.456 255.933H298.104C295.663 255.933 295.663 259.733 298.104 259.733Z" fill="#E0E0E0"/>
<path d="M232.044 260.79H238.667C239.383 260.79 240.071 261.075 240.577 261.582C241.084 262.088 241.368 262.775 241.368 263.492V267.438H229.334V263.492C229.334 263.136 229.405 262.784 229.541 262.456C229.677 262.128 229.877 261.83 230.129 261.579C230.38 261.328 230.679 261.129 231.008 260.994C231.336 260.858 231.689 260.789 232.044 260.79Z" fill="#E6E6E6"/>
<path d="M342.131 260.79H348.754C349.47 260.79 350.157 261.075 350.664 261.582C351.17 262.088 351.455 262.775 351.455 263.492V267.438H339.421V263.492C339.421 263.136 339.491 262.784 339.628 262.456C339.764 262.128 339.963 261.83 340.215 261.579C340.467 261.328 340.766 261.129 341.094 260.994C341.423 260.858 341.775 260.789 342.131 260.79Z" fill="#E6E6E6"/>
<path d="M199.49 300C286.617 300 357.248 295.876 357.248 290.79C357.248 285.703 286.617 281.579 199.49 281.579C112.363 281.579 41.7319 285.703 41.7319 290.79C41.7319 295.876 112.363 300 199.49 300Z" fill="#F5F5F5"/>
<path d="M289.276 232.809C289.276 232.809 288.706 225.079 294.02 225.258C299.333 225.437 292.913 226.251 289.276 232.809Z" fill="#263238"/>
<g opacity="0.3">
<path opacity="0.3" d="M289.276 232.809C289.276 232.809 288.706 225.079 294.02 225.258C299.333 225.437 292.913 226.251 289.276 232.809Z" fill="white"/>
</g>
<path d="M283.874 233.517C283.874 233.517 277.364 231.198 279.146 229.074C280.66 227.284 281.937 231.174 283.987 231.287C283.987 231.287 283.231 226.739 285.55 226.064C285.55 226.064 285.639 230.254 288.031 231.418C288.031 231.418 290.806 228.277 295.907 230.034C295.907 230.034 290.212 231.662 291.961 232.809C293.711 233.956 298.389 229.742 299.61 231.67C300.83 233.598 295.85 234.485 295.85 234.485C297.507 235.63 299.417 236.356 301.416 236.601C301.416 236.601 298.869 239.277 293.41 236.234C287.95 233.191 283.874 233.517 283.874 233.517Z" fill="#D93D00"/>
<path d="M302.124 248.406C300.326 253.614 287.096 266.421 278.935 263.605C270.774 260.79 270.75 243.419 272.54 238.211C274.33 233.004 282.409 231.076 290.578 233.891C298.747 236.706 303.914 243.207 302.124 248.406Z" fill="#D93D00"/>
<path opacity="0.4" d="M302.124 248.406C300.326 253.614 287.096 266.421 278.935 263.605C270.774 260.79 270.75 243.419 272.54 238.211C274.33 233.004 282.409 231.076 290.578 233.891C298.747 236.706 303.914 243.207 302.124 248.406Z" fill="white"/>
<path opacity="0.2" d="M273.712 249.627C273.712 249.627 271.897 238.236 276.014 236.487C280.131 234.737 273.891 241.588 273.712 249.627Z" fill="white"/>
<path opacity="0.1" d="M279.724 260.717C274.135 259.488 272.402 253.777 272.336 253.646C273.305 258.268 275.323 262.361 278.935 263.606C287.072 266.421 300.326 253.614 302.124 248.407C302.644 246.812 302.592 245.086 301.978 243.525C302.954 248.35 285.387 261.994 279.724 260.717Z" fill="black"/>
<g opacity="0.8">
<path opacity="0.8" d="M274.484 238.399C274.256 239.066 273.792 239.505 273.442 239.383C273.093 239.261 273.003 238.635 273.231 237.967C273.459 237.3 273.923 236.861 274.272 236.983C274.622 237.105 274.712 237.748 274.484 238.399Z" fill="white"/>
<path opacity="0.8" d="M280.595 240.522C280.367 241.19 279.903 241.629 279.553 241.507C279.203 241.385 279.114 240.75 279.342 240.091C279.569 239.432 280.033 238.985 280.383 239.098C280.733 239.212 280.822 239.855 280.595 240.522Z" fill="white"/>
<path opacity="0.8" d="M286.705 242.63C286.477 243.289 286.014 243.736 285.664 243.614C285.314 243.492 285.224 242.858 285.452 242.198C285.68 241.539 286.144 241.092 286.494 241.206C286.843 241.32 286.933 241.963 286.705 242.63Z" fill="white"/>
<path opacity="0.8" d="M292.816 244.737C292.588 245.396 292.116 245.844 291.774 245.722C291.433 245.6 291.327 244.965 291.563 244.298C291.799 243.63 292.254 243.191 292.604 243.313C292.954 243.435 293.044 244.094 292.816 244.737Z" fill="white"/>
<path opacity="0.8" d="M298.926 246.836C298.698 247.503 298.226 247.951 297.884 247.829C297.542 247.707 297.437 247.072 297.673 246.405C297.909 245.738 298.364 245.298 298.714 245.421C299.064 245.543 299.153 246.177 298.926 246.836Z" fill="white"/>
<path opacity="0.8" d="M275.013 244.696C274.785 245.364 274.313 245.803 273.971 245.681C273.63 245.559 273.524 244.924 273.76 244.265C273.996 243.606 274.451 243.159 274.801 243.272C275.151 243.386 275.265 244.029 275.013 244.696Z" fill="white"/>
<path opacity="0.8" d="M281.147 246.804C280.92 247.471 280.448 247.91 280.106 247.788C279.764 247.666 279.658 247.032 279.886 246.372C280.114 245.713 280.586 245.266 280.936 245.38C281.286 245.494 281.375 246.137 281.147 246.804Z" fill="white"/>
<path opacity="0.8" d="M287.258 248.911C287.03 249.57 286.558 250.018 286.217 249.896C285.875 249.773 285.769 249.139 285.997 248.472C286.225 247.804 286.697 247.365 287.046 247.487C287.396 247.609 287.486 248.244 287.258 248.911Z" fill="white"/>
<path opacity="0.8" d="M293.369 251.01C293.133 251.677 292.669 252.125 292.319 252.003C291.969 251.881 291.88 251.246 292.108 250.579C292.335 249.912 292.807 249.472 293.149 249.595C293.491 249.717 293.597 250.351 293.369 251.01Z" fill="white"/>
<path opacity="0.8" d="M298.308 252.719C298.072 253.378 297.608 253.825 297.258 253.703C296.908 253.581 296.819 252.947 297.046 252.288C297.274 251.629 297.746 251.173 298.088 251.295C298.43 251.417 298.535 252.052 298.308 252.719Z" fill="white"/>
<path opacity="0.8" d="M275.403 250.603C275.175 251.262 274.712 251.71 274.362 251.588C274.012 251.466 273.922 250.831 274.15 250.164C274.378 249.497 274.842 249.057 275.192 249.179C275.541 249.302 275.631 249.928 275.403 250.603Z" fill="white"/>
<path opacity="0.8" d="M281.522 252.694C281.294 253.362 280.83 253.801 280.48 253.687C280.13 253.573 280.041 252.93 280.269 252.263C280.497 251.596 280.96 251.157 281.31 251.279C281.66 251.401 281.741 252.035 281.522 252.694Z" fill="white"/>
<path opacity="0.8" d="M278.17 260.204C277.934 260.872 277.47 261.311 277.12 261.197C276.77 261.083 276.681 260.44 276.908 259.773C277.136 259.106 277.608 258.667 277.95 258.789C278.292 258.911 278.397 259.554 278.17 260.204Z" fill="white"/>
<path opacity="0.8" d="M283.597 261.555C283.369 262.214 282.905 262.662 282.555 262.54C282.205 262.418 282.116 261.783 282.344 261.116C282.572 260.449 283.043 260.009 283.385 260.131C283.727 260.253 283.833 260.888 283.597 261.555Z" fill="white"/>
<path opacity="0.8" d="M287.624 254.802C287.397 255.469 286.925 255.908 286.583 255.794C286.241 255.681 286.135 255.038 286.371 254.371C286.607 253.703 287.063 253.264 287.413 253.386C287.763 253.508 287.852 254.135 287.624 254.802Z" fill="white"/>
<path opacity="0.8" d="M292.474 256.478C292.246 257.145 291.782 257.585 291.432 257.462C291.082 257.34 290.993 256.706 291.221 256.047C291.448 255.388 291.92 254.94 292.262 255.054C292.604 255.168 292.71 255.811 292.474 256.478Z" fill="white"/>
<path opacity="0.8" d="M275.729 255.591C275.501 256.258 275.029 256.698 274.688 256.576C274.346 256.454 274.24 255.827 274.468 255.16C274.696 254.493 275.168 254.053 275.517 254.175C275.867 254.297 275.957 254.924 275.729 255.591Z" fill="white"/>
<path opacity="0.8" d="M281.839 257.698C281.603 258.366 281.139 258.805 280.789 258.683C280.44 258.561 280.35 257.926 280.578 257.267C280.806 256.608 281.278 256.161 281.619 256.275C281.961 256.388 282.067 257.031 281.839 257.698Z" fill="white"/>
<path opacity="0.8" d="M287.95 259.806C287.714 260.473 287.25 260.912 286.9 260.79C286.55 260.668 286.461 260.034 286.688 259.375C286.916 258.715 287.388 258.268 287.73 258.382C288.072 258.496 288.177 259.139 287.95 259.806Z" fill="white"/>
<path opacity="0.8" d="M280.082 235.071C279.854 235.738 279.39 236.186 279.04 236.064C278.69 235.942 278.601 235.307 278.829 234.64C279.057 233.972 279.52 233.533 279.87 233.655C280.22 233.777 280.31 234.412 280.082 235.071Z" fill="white"/>
<path opacity="0.8" d="M286.192 237.178C285.965 237.845 285.501 238.285 285.151 238.171C284.801 238.057 284.712 237.414 284.939 236.747C285.167 236.08 285.631 235.64 285.981 235.763C286.331 235.885 286.404 236.519 286.192 237.178Z" fill="white"/>
<path opacity="0.8" d="M292.303 239.286C292.075 239.953 291.603 240.392 291.262 240.27C290.92 240.148 290.814 239.522 291.05 238.854C291.286 238.187 291.742 237.748 292.091 237.87C292.441 237.992 292.531 238.618 292.303 239.286Z" fill="white"/>
<path opacity="0.8" d="M298.414 241.393C298.186 242.06 297.714 242.5 297.372 242.377C297.03 242.255 296.925 241.621 297.161 240.962C297.397 240.303 297.852 239.855 298.202 239.969C298.552 240.083 298.609 240.726 298.414 241.393Z" fill="white"/>
</g>
<path d="M328.559 184.128C329.015 183.895 329.42 183.574 329.752 183.184C330.084 182.794 330.336 182.342 330.493 181.855C330.65 181.368 330.71 180.854 330.668 180.344C330.627 179.833 330.485 179.336 330.252 178.88C330.07 178.525 329.834 178.201 329.552 177.92L329.723 177.847C330.802 177.295 331.668 176.401 332.187 175.306C332.706 174.21 332.849 172.974 332.593 171.789C332.337 170.604 331.696 169.537 330.771 168.753C329.846 167.97 328.688 167.514 327.477 167.457C327.521 166.496 327.316 165.541 326.883 164.682C326.214 163.385 325.058 162.406 323.669 161.959C322.28 161.513 320.77 161.634 319.471 162.298C318.85 162.624 318.297 163.066 317.843 163.6C317.259 163.02 316.506 162.64 315.692 162.513C314.878 162.385 314.045 162.518 313.311 162.892C312.784 163.162 312.325 163.55 311.971 164.026C311.617 164.501 311.377 165.051 311.269 165.634C310.595 165.321 309.845 165.206 309.108 165.305C308.371 165.403 307.678 165.711 307.11 166.191C306.542 166.671 306.123 167.303 305.903 168.013C305.682 168.723 305.67 169.482 305.866 170.199C305.387 171.086 305.152 172.084 305.185 173.092C305.218 174.1 305.518 175.081 306.054 175.935C306.59 176.789 307.343 177.485 308.237 177.952C309.13 178.42 310.132 178.642 311.139 178.596C310.982 179.247 310.996 179.929 311.18 180.573C311.364 181.218 311.712 181.804 312.189 182.275C312.666 182.746 313.257 183.085 313.904 183.26C314.552 183.435 315.233 183.44 315.882 183.274C315.965 183.777 316.127 184.263 316.363 184.714C316.799 185.567 317.471 186.276 318.299 186.758C319.127 187.239 320.077 187.472 321.033 187.429C321.99 187.386 322.915 187.069 323.697 186.516C324.478 185.962 325.084 185.196 325.443 184.307C325.947 184.494 326.483 184.574 327.02 184.544C327.556 184.513 328.08 184.371 328.559 184.128Z" fill="#D93D00"/>
<path opacity="0.1" d="M322.001 187.277C327.266 183.673 323.051 178.701 323.051 178.701C324.678 172.404 319.544 172.493 319.544 172.493C317.852 167.416 313.767 171.224 313.767 171.224H309.113L305.558 174.967C305.631 175.146 305.704 175.325 305.794 175.504C306.291 176.475 307.057 177.282 308.001 177.83C308.944 178.378 310.025 178.644 311.115 178.596C310.958 179.247 310.972 179.929 311.156 180.573C311.34 181.218 311.688 181.804 312.165 182.275C312.642 182.746 313.233 183.085 313.88 183.26C314.527 183.435 315.209 183.44 315.858 183.274C315.94 183.777 316.103 184.263 316.338 184.714C316.855 185.717 317.696 186.516 318.724 186.982C319.752 187.447 320.907 187.551 322.001 187.277Z" fill="black"/>
<path d="M320.211 178.734C320.897 178.173 321.417 177.437 321.716 176.603C322.015 175.769 322.081 174.87 321.908 174.001C321.735 173.133 321.329 172.327 320.733 171.672C320.138 171.016 319.375 170.535 318.527 170.28C318.982 168.624 318.798 166.857 318.013 165.33C317.229 163.802 315.899 162.625 314.288 162.03C314.798 160.617 314.831 159.076 314.382 157.643C313.933 156.21 313.027 154.964 311.802 154.095C310.576 153.226 309.1 152.783 307.599 152.833C306.098 152.884 304.655 153.425 303.491 154.373C302.798 154.927 302.222 155.613 301.798 156.391C301.056 155.915 300.199 155.649 299.317 155.62C298.436 155.592 297.563 155.804 296.792 156.232C296.021 156.66 295.38 157.289 294.938 158.052C294.496 158.815 294.268 159.683 294.28 160.565C293.295 160.346 292.266 160.438 291.335 160.827C290.404 161.217 289.617 161.886 289.082 162.741C288.546 163.597 288.289 164.597 288.346 165.605C288.403 166.613 288.77 167.578 289.398 168.368C289.799 168.856 290.288 169.264 290.839 169.572C290.572 170.842 290.657 172.16 291.084 173.384C291.511 174.609 292.263 175.694 293.261 176.524C294.258 177.353 295.462 177.894 296.744 178.09C298.027 178.286 299.338 178.129 300.537 177.636L300.716 177.88C301.311 178.608 302.104 179.149 302.998 179.438C303.893 179.726 304.853 179.75 305.761 179.507C305.835 179.629 305.916 179.745 306.005 179.857C306.82 180.86 308.001 181.499 309.286 181.633C310.572 181.767 311.859 181.386 312.864 180.573C313.444 180.102 313.906 179.503 314.215 178.823C315.082 179.478 316.142 179.824 317.228 179.808C318.314 179.792 319.364 179.414 320.211 178.734Z" fill="#D93D00"/>
<path opacity="0.2" d="M320.211 178.734C320.897 178.173 321.417 177.437 321.716 176.603C322.015 175.769 322.081 174.87 321.908 174.001C321.735 173.133 321.329 172.327 320.733 171.672C320.138 171.016 319.375 170.535 318.527 170.28C318.982 168.624 318.798 166.857 318.013 165.33C317.229 163.802 315.899 162.625 314.288 162.03C314.798 160.617 314.831 159.076 314.382 157.643C313.933 156.21 313.027 154.964 311.802 154.095C310.576 153.226 309.1 152.783 307.599 152.833C306.098 152.884 304.655 153.425 303.491 154.373C302.798 154.927 302.222 155.613 301.798 156.391C301.056 155.915 300.199 155.649 299.317 155.62C298.436 155.592 297.563 155.804 296.792 156.232C296.021 156.66 295.38 157.289 294.938 158.052C294.496 158.815 294.268 159.683 294.28 160.565C293.295 160.346 292.266 160.438 291.335 160.827C290.404 161.217 289.617 161.886 289.082 162.741C288.546 163.597 288.289 164.597 288.346 165.605C288.403 166.613 288.77 167.578 289.398 168.368C289.799 168.856 290.288 169.264 290.839 169.572C290.572 170.842 290.657 172.16 291.084 173.384C291.511 174.609 292.263 175.694 293.261 176.524C294.258 177.353 295.462 177.894 296.744 178.09C298.027 178.286 299.338 178.129 300.537 177.636L300.716 177.88C301.311 178.608 302.104 179.149 302.998 179.438C303.893 179.726 304.853 179.75 305.761 179.507C305.835 179.629 305.916 179.745 306.005 179.857C306.82 180.86 308.001 181.499 309.286 181.633C310.572 181.767 311.859 181.386 312.864 180.573C313.444 180.102 313.906 179.503 314.215 178.823C315.082 179.478 316.142 179.824 317.228 179.808C318.314 179.792 319.364 179.414 320.211 178.734Z" fill="white"/>
<path opacity="0.1" d="M313.808 172.624C313.808 172.624 314.141 168.222 310.911 166.887C306.574 165.097 302.441 170.679 302.441 170.679C302.441 170.679 296.868 166.554 293.629 169.003C290.391 171.452 292.27 175.512 292.27 175.512C293.238 176.704 294.564 177.553 296.051 177.932C297.539 178.312 299.109 178.202 300.529 177.619L300.708 177.863C301.303 178.592 302.095 179.133 302.99 179.421C303.885 179.71 304.844 179.734 305.753 179.491C305.826 179.612 305.908 179.729 305.997 179.841C306.812 180.844 307.992 181.483 309.278 181.617C310.564 181.751 311.851 181.37 312.856 180.557C313.435 180.086 313.898 179.487 314.206 178.807C315.075 179.462 316.138 179.809 317.226 179.791C318.313 179.773 319.364 179.393 320.211 178.71C324.052 172.754 313.808 172.624 313.808 172.624Z" fill="black"/>
<path d="M293.955 171.248C293.955 171.248 300.236 181.443 289.138 198.001C289.138 198.001 290.92 209.246 303.784 205.047C303.784 205.047 306.103 186.236 323.051 183.29C323.139 182.661 323.051 182.02 322.799 181.438C322.546 180.855 322.138 180.353 321.619 179.987C321.619 179.987 313.596 185.072 311.546 183.461C309.496 181.85 318.137 177.131 318.137 177.131C318.137 177.131 316.509 173.925 314.296 174.015C314.296 174.015 310.106 179.808 307.169 178.742C304.231 177.676 307.169 171.248 307.169 171.248C306.574 170.774 305.859 170.472 305.104 170.377C304.349 170.283 303.583 170.398 302.889 170.711C302.889 170.711 302.352 177.758 300.838 177.489C299.325 177.221 298.341 170.305 298.341 170.305C298.341 170.305 296.445 169.288 293.955 171.248Z" fill="#D93D00"/>
<path opacity="0.5" d="M293.955 171.248C293.955 171.248 300.236 181.443 289.138 198.001C289.138 198.001 290.92 209.246 303.784 205.047C303.784 205.047 306.103 186.236 323.051 183.29C323.139 182.661 323.051 182.02 322.799 181.438C322.546 180.855 322.138 180.353 321.619 179.987C321.619 179.987 313.596 185.072 311.546 183.461C309.496 181.85 318.137 177.131 318.137 177.131C318.137 177.131 316.509 173.925 314.296 174.015C314.296 174.015 310.106 179.808 307.169 178.742C304.231 177.676 307.169 171.248 307.169 171.248C306.574 170.774 305.859 170.472 305.104 170.377C304.349 170.283 303.583 170.398 302.889 170.711C302.889 170.711 302.352 177.758 300.838 177.489C299.325 177.221 298.341 170.305 298.341 170.305C298.341 170.305 296.445 169.288 293.955 171.248Z" fill="white"/>
<path opacity="0.3" d="M303.759 205.039C298.503 193.542 289.113 197.993 289.113 197.993C289.113 197.993 290.92 209.246 303.759 205.039Z" fill="white"/>
<path opacity="0.1" d="M296.802 194.909C296.802 194.909 303.043 184.568 301.855 180.264C300.667 175.959 299.837 187.83 296.802 194.909Z" fill="black"/>
<path opacity="0.1" d="M302.01 193.42C302.01 193.42 307.982 183.201 309.764 184.389C311.546 185.577 307.038 187.18 302.01 193.42Z" fill="black"/>
<path opacity="0.1" d="M302.807 186.643C302.807 186.643 305.191 179.686 306.379 180.288C307.567 180.89 302.807 186.643 302.807 186.643Z" fill="black"/>
<path opacity="0.1" d="M300.432 196.398C300.969 192.118 295.672 198.538 295.379 194.909C295.208 192.794 292.938 193.648 291.14 194.73C290.546 195.788 289.887 196.878 289.138 197.985C289.138 197.985 290.92 209.229 303.784 205.031C303.784 205.031 305.135 194.128 313.263 187.619C307.307 190.979 299.895 200.678 300.432 196.398Z" fill="black"/>
<path d="M309.081 100.323C309.081 100.323 314.125 78.997 328.226 90.3149C328.226 90.3149 320.52 100.64 309.081 100.323Z" fill="#D93D00"/>
<path opacity="0.4" d="M309.081 100.323C309.081 100.323 314.125 78.997 328.226 90.3149C328.226 90.3149 320.52 100.64 309.081 100.323Z" fill="white"/>
<path opacity="0.3" d="M320.618 90.2498C325.638 89.0456 327.518 89.8348 328.047 90.1847C314.068 79.176 309.081 100.323 309.081 100.323C309.081 100.323 314.41 91.7225 320.618 90.2498Z" fill="white"/>
<path d="M307.657 103.04C307.657 103.04 309.422 93.6997 304.54 89.8267C304.54 89.8267 305.443 88.1262 308.316 89.07C309.753 93.5819 310.085 98.3732 309.284 103.04H307.657Z" fill="#263238"/>
<path opacity="0.4" d="M307.657 103.04C307.657 103.04 309.422 93.6997 304.54 89.8267C304.54 89.8267 305.443 88.1262 308.316 89.07C309.753 93.5819 310.085 98.3732 309.284 103.04H307.657Z" fill="white"/>
<path d="M318.73 98.012C315.533 97.9388 311.814 99.5254 308.861 102.08C305.338 99.5173 301.099 97.9307 297.901 98.012C287.796 98.2398 285.696 110.632 287.478 118.565C289.106 125.611 293.711 138.32 301.375 139.109C303.32 139.313 306.143 137.596 308.698 135.041C310.822 137.604 313.303 139.321 315.207 139.109C322.88 138.296 327.502 125.611 329.104 118.565C330.96 110.656 328.836 98.2398 318.73 98.012Z" fill="#D93D00"/>
<path opacity="0.1" d="M329.731 112.885C329.691 119.785 323.507 128.263 317.966 128.263C312.425 128.263 313.084 122.698 309.146 122.698C305.208 122.698 305.485 131.249 301.416 131.249C297.348 131.249 295.997 124.74 293.687 125.009C292.23 125.18 291.311 127.149 290.839 128.573C293.28 133.845 296.762 138.637 301.376 139.109C303.32 139.313 306.144 137.596 308.698 135.041C310.822 137.604 313.304 139.321 315.208 139.109C322.88 138.296 327.502 125.611 329.105 118.565C329.535 116.703 329.745 114.797 329.731 112.885Z" fill="black"/>
<path opacity="0.2" d="M289.659 114.57C289.659 114.57 290.204 101.503 295.354 101.657C300.505 101.812 292.336 106.157 289.659 114.57Z" fill="white"/>
<path d="M308.316 89.07C305.443 88.1262 304.54 89.8267 304.54 89.8267C304.54 89.8267 307.958 91.3808 308.316 89.07Z" fill="#263238"/>
<path d="M287.267 42.2284C286.222 42.2271 285.179 42.3169 284.15 42.4969C282.204 42.8305 280.214 42.8305 278.268 42.4969C277.236 42.3166 276.191 42.2267 275.143 42.2284C265.201 42.2284 257.129 50.0068 257.129 59.616C257.129 69.2252 265.201 77.0037 275.143 77.0037C275.793 77.0056 276.442 76.9703 277.088 76.8979C279.828 76.6049 282.591 76.6049 285.33 76.8979C285.973 76.97 286.62 77.0054 287.267 77.0037C297.218 77.0037 305.281 69.217 305.281 59.616C305.281 50.015 297.218 42.2284 287.267 42.2284Z" fill="#D93D00"/>
<path opacity="0.1" d="M287.267 42.2284C286.222 42.2271 285.179 42.3169 284.15 42.4969C282.204 42.8305 280.214 42.8305 278.268 42.4969C277.236 42.3166 276.191 42.2267 275.143 42.2284C265.201 42.2284 257.129 50.0068 257.129 59.616C257.129 69.2252 265.201 77.0037 275.143 77.0037C275.793 77.0056 276.442 76.9703 277.088 76.8979C279.828 76.6049 282.591 76.6049 285.33 76.8979C285.973 76.97 286.62 77.0054 287.267 77.0037C297.218 77.0037 305.281 69.217 305.281 59.616C305.281 50.015 297.218 42.2284 287.267 42.2284Z" fill="black"/>
<path opacity="0.2" d="M263.272 51.6341C264.623 49.0304 266.527 46.9475 268.252 47.6472C269.448 48.1435 267.878 50.5194 269.359 51.0971C270.839 51.6748 272.214 49.0304 273.687 48.9084C275.16 48.7863 274.794 52.163 276.73 52.2443C278.667 52.3257 278.357 49.1443 279.594 49.2582C280.969 49.3884 280.514 57.2401 278.854 57.2971C277.837 57.2971 277.934 54.8561 276.641 54.8561C274.395 54.8561 272.857 58.184 270.831 58.184C268.805 58.184 270.188 54.6283 268.708 54.2785C267.227 53.9286 264.835 59.5672 262.809 58.184C260.783 56.8008 262.337 53.4323 263.272 51.6341Z" fill="white"/>
<path opacity="0.2" d="M287.267 77.0036C297.217 77.0036 305.281 69.217 305.281 59.616C305.276 57.3008 304.8 55.0108 303.881 52.8858C302.962 50.7608 301.619 48.8455 299.935 47.2567C300.952 48.2575 308.47 56.2719 301.66 66.2228C294.386 76.8735 286.876 72.8866 277.991 74.3593C269.252 75.7913 260.709 69.8354 260.424 69.632C262.122 71.9357 264.341 73.8056 266.899 75.0894C269.456 76.3733 272.281 77.0347 275.143 77.0199C275.793 77.0219 276.442 76.9865 277.088 76.9141C279.827 76.6212 282.59 76.6212 285.33 76.9141C285.973 76.9809 286.62 77.0108 287.267 77.0036Z" fill="black"/>
<path d="M280.009 41.374C277.519 41.6588 274.858 35.41 272.548 35.9389C272.548 35.9389 275.916 38.8761 276.754 41.5042C276.754 41.5042 267.723 39.9827 265.518 42.627C265.518 42.627 277.893 40.7394 277.722 44.0265C277.657 45.1005 274.883 45.2877 274.883 47.2811C274.883 47.2811 278.251 44.9704 280.578 45.0761C282.905 45.1819 284.354 48.5423 284.354 48.5423C284.014 47.3399 284.014 46.0669 284.354 44.8646C284.996 42.9769 292.441 42.2284 294.858 44.7588C294.858 44.7588 292.628 40.5522 286.64 41.8459C286.64 41.8459 290.025 38.4612 294.125 39.1935C294.125 39.1935 289.911 36.9315 285.135 40.8208C284.646 41.2148 284.047 41.4475 283.42 41.4868C282.794 41.5262 282.17 41.3702 281.636 41.0404L280.887 40.5848C280.887 40.5848 280.562 41.3089 280.009 41.374Z" fill="#263238"/>
<path d="M280.521 41.9761C280.277 39.7793 281.62 35.7517 279.838 33.1724C279.838 33.1724 281.986 31.7079 283.247 33.6444C283.617 35.0482 283.691 36.5135 283.466 37.9476C283.24 39.3817 282.72 40.7534 281.937 41.9761C281.742 42.3097 280.652 43.1966 280.521 41.9761Z" fill="#263238"/>
<path opacity="0.2" d="M280.521 41.9761C280.277 39.7793 281.62 35.7517 279.838 33.1724C279.838 33.1724 281.986 31.7079 283.247 33.6444C283.617 35.0482 283.691 36.5135 283.466 37.9476C283.24 39.3817 282.72 40.7534 281.937 41.9761C281.742 42.3097 280.652 43.1966 280.521 41.9761Z" fill="white"/>
<path opacity="0.4" d="M283.247 33.6444C281.986 31.7079 279.838 33.1724 279.838 33.1724C279.838 33.1724 281.522 34.9869 283.247 33.6444Z" fill="white"/>
<path d="M81.2508 231.507C91.8771 224.811 106.246 220.499 123.251 220.499L124.106 258.903C124.116 259.227 124.04 259.547 123.884 259.832C123.729 260.116 123.5 260.353 123.222 260.519C122.944 260.686 122.626 260.774 122.303 260.776C121.979 260.778 121.66 260.693 121.38 260.53L82.992 238.399C82.4518 238.09 82.003 237.643 81.6915 237.104C81.3799 236.565 81.2166 235.954 81.2183 235.331L81.2508 231.507Z" fill="#D93D00"/>
<path opacity="0.2" d="M81.2508 231.507C91.8771 224.811 106.246 220.499 123.251 220.499L124.106 258.903C124.116 259.227 124.04 259.547 123.884 259.832C123.729 260.116 123.5 260.353 123.222 260.519C122.944 260.686 122.626 260.774 122.303 260.776C121.979 260.778 121.66 260.693 121.38 260.53L82.992 238.399C82.4518 238.09 82.003 237.643 81.6915 237.104C81.3799 236.565 81.2166 235.954 81.2183 235.331L81.2508 231.507Z" fill="white"/>
<path d="M123.869 219.929V256.649C123.869 256.649 119.874 254.281 118.507 253.557C115.098 251.775 108.068 248.602 104.773 246.608C101.958 244.908 96.7098 240.864 93.797 239.334C91.9825 238.383 88.1014 237.04 86.3358 235.99C85.0503 235.177 81.6085 232.321 81.6085 232.321C80.7054 231.8 81.6655 229.066 82.5768 228.554C93.4146 222.354 107.401 219.929 123.869 219.929Z" fill="#D93D00"/>
<path opacity="0.5" d="M123.869 219.929V256.649C123.869 256.649 119.874 254.281 118.507 253.557C115.098 251.775 108.068 248.602 104.773 246.608C101.958 244.908 96.7098 240.864 93.797 239.334C91.9825 238.383 88.1014 237.04 86.3358 235.99C85.0503 235.177 81.6085 232.321 81.6085 232.321C80.7054 231.8 81.6655 229.066 82.5768 228.554C93.4146 222.354 107.401 219.929 123.869 219.929Z" fill="white"/>
<path d="M82.7726 229.766C85.8726 231.19 88.1915 234.469 90.1524 236.015C92.1133 237.561 97.0603 239.229 99.1025 241.255C100.665 242.768 106.32 244.745 109.68 246.568C112.389 247.91 111.616 251.913 111.73 253.817C111.844 255.721 111.38 256.494 112.544 258.162C113.707 259.83 114.684 266.852 115.221 259.171C115.758 251.49 117.963 252.499 117.987 252.507C120.558 253.923 122.959 255.062 122.959 255.062C124.846 255.998 122.902 268.699 124.513 268.463C126.124 268.227 125.326 252.922 124.448 249.35C123.569 245.779 124.985 239.172 124.57 235.242C124.155 231.312 125.383 220.71 124.57 219.4C123.756 218.09 115.994 219.823 109.444 220.214C102.894 220.604 96.3524 223.07 93.4883 224.022C90.6243 224.974 79.6807 228.334 82.7726 229.766ZM114.017 250.424C114.017 250.424 115.066 257.52 113.756 255.827C112.023 253.59 114.017 250.424 114.017 250.424Z" fill="#D93D00"/>
<path opacity="0.7" d="M82.7726 229.766C85.8726 231.19 88.1915 234.469 90.1524 236.015C92.1133 237.561 97.0603 239.229 99.1025 241.255C100.665 242.768 106.32 244.745 109.68 246.568C112.389 247.91 111.616 251.913 111.73 253.817C111.844 255.721 111.38 256.494 112.544 258.162C113.707 259.83 114.684 266.852 115.221 259.171C115.758 251.49 117.963 252.499 117.987 252.507C120.558 253.923 122.959 255.062 122.959 255.062C124.846 255.998 122.902 268.699 124.513 268.463C126.124 268.227 125.326 252.922 124.448 249.35C123.569 245.779 124.985 239.172 124.57 235.242C124.155 231.312 125.383 220.71 124.57 219.4C123.756 218.09 115.994 219.823 109.444 220.214C102.894 220.604 96.3524 223.07 93.4883 224.022C90.6243 224.974 79.6807 228.334 82.7726 229.766ZM114.017 250.424C114.017 250.424 115.066 257.52 113.756 255.827C112.023 253.59 114.017 250.424 114.017 250.424Z" fill="white"/>
<g opacity="0.1">
<path opacity="0.1" d="M87.5647 226.08C89.9161 225.201 92.3978 224.453 93.545 224.046C94.6922 223.639 96.5148 223.021 98.671 222.37C98.1424 222.755 97.6955 223.24 97.3561 223.799C97.0167 224.358 96.7916 224.978 96.6938 225.625C96.6938 226.918 92.0723 225.804 87.5647 226.08Z" fill="black"/>
<path opacity="0.1" d="M109.501 220.238C112.56 220.043 115.88 219.563 118.638 219.246C117.222 220.059 115.709 221.068 115.627 221.963C115.514 223.192 112.495 221.19 108.76 220.295L109.501 220.238Z" fill="black"/>
</g>
<path d="M121.941 225.38C118.467 224.884 114.163 224.567 108.923 227.154C103.683 229.742 93.0649 230.767 91.2911 232.622C89.5174 234.477 94.8386 238.008 100.534 237.162C106.23 236.316 108.614 235.079 109.696 238.928C110.778 242.776 110.2 244.322 113.911 245.323C117.621 246.324 117.775 250.018 119.932 251.328C122.088 252.638 124.317 254.175 122.088 244.631C119.858 235.087 123.007 234.925 122.397 231.768C121.787 228.611 124.423 225.698 121.941 225.38Z" fill="#D93D00"/>
<path opacity="0.3" d="M121.941 225.38C118.467 224.884 114.163 224.567 108.923 227.154C103.683 229.742 93.0649 230.767 91.2911 232.622C89.5174 234.477 94.8386 238.008 100.534 237.162C106.23 236.316 108.614 235.079 109.696 238.928C110.778 242.776 110.2 244.322 113.911 245.323C117.621 246.324 117.775 250.018 119.932 251.328C122.088 252.638 124.317 254.175 122.088 244.631C119.858 235.087 123.007 234.925 122.397 231.768C121.787 228.611 124.423 225.698 121.941 225.38Z" fill="white"/>
<path d="M116.392 233.81C116.609 233.885 116.843 233.897 117.066 233.846C117.29 233.795 117.495 233.683 117.658 233.521C117.821 233.36 117.935 233.156 117.989 232.933C118.042 232.71 118.031 232.476 117.958 232.259C117.886 232.041 117.753 231.848 117.576 231.702C117.4 231.556 117.185 231.462 116.958 231.431C116.731 231.4 116.499 231.434 116.29 231.528C116.081 231.622 115.902 231.772 115.774 231.963C115.619 232.291 115.597 232.666 115.712 233.011C115.827 233.355 116.071 233.641 116.392 233.81Z" fill="#263238"/>
<path d="M106.808 231.89C107.621 231.784 108.272 231.165 108.191 230.515C108.095 230.163 107.867 229.863 107.554 229.676C107.242 229.49 106.869 229.431 106.515 229.514C105.701 229.619 105.05 230.238 105.131 230.889C105.227 231.24 105.455 231.54 105.768 231.727C106.08 231.914 106.453 231.972 106.808 231.89Z" fill="#263238"/>
<path d="M105.147 240.962C105.434 241.062 105.744 241.081 106.041 241.014C106.338 240.948 106.611 240.799 106.828 240.586C107.044 240.372 107.197 240.102 107.268 239.806C107.339 239.51 107.326 239.2 107.23 238.912C107.133 238.623 106.958 238.367 106.724 238.173C106.489 237.979 106.205 237.854 105.903 237.814C105.602 237.773 105.295 237.818 105.017 237.943C104.74 238.068 104.503 238.268 104.334 238.521C104.127 238.954 104.097 239.45 104.249 239.905C104.4 240.36 104.722 240.739 105.147 240.962Z" fill="#263238"/>
<path d="M118.329 243.72C118.649 243.893 119.023 243.935 119.374 243.838C119.724 243.741 120.023 243.512 120.209 243.199C120.461 242.589 120.03 242.76 119.24 242.435C118.451 242.109 117.613 241.417 117.361 242.028C117.272 242.38 117.324 242.753 117.504 243.069C117.685 243.384 117.98 243.618 118.329 243.72Z" fill="#263238"/>
<path d="M115.367 227.691L116.18 228.407C116.299 228.504 116.443 228.565 116.595 228.583C116.748 228.602 116.902 228.577 117.041 228.511C117.179 228.446 117.296 228.342 117.379 228.213C117.461 228.084 117.506 227.934 117.507 227.781C117.527 227.131 117.325 226.495 116.934 225.975C116.544 225.456 115.988 225.086 115.359 224.925C114.841 224.684 114.262 224.606 113.699 224.704C113.136 224.801 112.616 225.069 112.21 225.47C112.114 225.572 112.046 225.698 112.012 225.835C111.979 225.971 111.982 226.114 112.021 226.25C112.059 226.385 112.132 226.508 112.232 226.606C112.332 226.705 112.456 226.776 112.592 226.812L113.723 227.089L112.91 227.903C112.843 227.973 112.793 228.056 112.762 228.147C112.731 228.239 112.72 228.336 112.73 228.432C112.74 228.528 112.771 228.62 112.82 228.703C112.869 228.786 112.936 228.857 113.015 228.912L113.829 229.441C113.911 229.496 114.005 229.533 114.103 229.547C114.201 229.561 114.301 229.553 114.396 229.524C114.49 229.494 114.577 229.443 114.649 229.375C114.722 229.307 114.778 229.224 114.813 229.131L115.367 227.691Z" fill="#263238"/>
<path d="M114.374 240.628L115.391 241.515C115.493 241.604 115.617 241.664 115.75 241.689C115.884 241.713 116.021 241.702 116.148 241.655C116.275 241.608 116.388 241.529 116.473 241.424C116.559 241.319 116.615 241.193 116.636 241.059C116.748 240.374 116.621 239.67 116.278 239.067C115.934 238.463 115.395 237.994 114.748 237.74C114.274 237.422 113.71 237.267 113.14 237.299C112.57 237.332 112.026 237.549 111.591 237.919C111.485 238.007 111.405 238.124 111.361 238.255C111.317 238.386 111.31 238.527 111.342 238.662C111.373 238.797 111.441 238.921 111.538 239.019C111.635 239.118 111.758 239.188 111.892 239.221L113.007 239.513L111.966 240.726C111.899 240.811 111.849 240.909 111.821 241.014C111.792 241.119 111.785 241.228 111.799 241.336C111.814 241.444 111.849 241.548 111.905 241.641C111.96 241.735 112.033 241.816 112.12 241.881L112.714 242.28C112.813 242.339 112.923 242.377 113.038 242.391C113.152 242.405 113.268 242.394 113.379 242.359C113.489 242.325 113.59 242.267 113.676 242.19C113.762 242.113 113.831 242.019 113.878 241.914L114.374 240.628Z" fill="#263238"/>
<path d="M96.6449 231.971L97.8165 231.735C98.3291 231.629 98.3942 231.027 97.9304 230.661C97.4397 230.238 96.8337 229.97 96.19 229.893C95.5464 229.817 94.8945 229.934 94.3178 230.23C94.0958 230.3 93.89 230.413 93.7124 230.564C93.5348 230.715 93.3891 230.899 93.2837 231.107C93.1784 231.314 93.1156 231.541 93.099 231.773C93.0823 232.005 93.1122 232.239 93.1869 232.459C93.2192 232.586 93.2815 232.703 93.3685 232.8C93.4555 232.897 93.5647 232.972 93.6868 233.018C93.8088 233.065 93.9403 233.081 94.0699 233.066C94.1996 233.051 94.3237 233.004 94.4318 232.931L95.1315 232.321L95.7499 233.647C95.8414 233.839 95.9973 233.993 96.1905 234.082C96.3837 234.171 96.602 234.19 96.8076 234.135L97.3853 233.94C97.7921 233.802 97.8653 233.33 97.5399 232.964L96.6449 231.971Z" fill="#263238"/>
<path opacity="0.2" d="M116.392 233.81C116.609 233.885 116.843 233.897 117.066 233.846C117.29 233.795 117.495 233.683 117.658 233.521C117.821 233.36 117.935 233.156 117.989 232.933C118.042 232.71 118.031 232.476 117.958 232.259C117.886 232.041 117.753 231.848 117.576 231.702C117.4 231.556 117.185 231.462 116.958 231.431C116.731 231.4 116.499 231.434 116.29 231.528C116.081 231.622 115.902 231.772 115.774 231.963C115.619 232.291 115.597 232.666 115.712 233.011C115.827 233.355 116.071 233.641 116.392 233.81Z" fill="white"/>
<path opacity="0.2" d="M106.808 231.89C107.621 231.784 108.272 231.165 108.191 230.515C108.095 230.163 107.867 229.863 107.554 229.676C107.242 229.49 106.869 229.431 106.515 229.514C105.701 229.619 105.05 230.238 105.131 230.889C105.227 231.24 105.455 231.54 105.768 231.727C106.08 231.914 106.453 231.972 106.808 231.89Z" fill="white"/>
<path opacity="0.2" d="M105.147 240.962C105.434 241.062 105.744 241.081 106.041 241.014C106.338 240.948 106.611 240.799 106.828 240.586C107.044 240.372 107.197 240.102 107.268 239.806C107.339 239.51 107.326 239.2 107.23 238.912C107.133 238.623 106.958 238.367 106.724 238.173C106.489 237.979 106.205 237.854 105.903 237.814C105.602 237.773 105.295 237.818 105.017 237.943C104.74 238.068 104.503 238.268 104.334 238.521C104.127 238.954 104.097 239.45 104.249 239.905C104.4 240.36 104.722 240.739 105.147 240.962Z" fill="white"/>
<path opacity="0.2" d="M118.329 243.72C118.649 243.893 119.023 243.935 119.374 243.838C119.724 243.741 120.023 243.512 120.209 243.199C120.461 242.589 120.03 242.76 119.24 242.435C118.451 242.109 117.613 241.417 117.361 242.028C117.272 242.38 117.324 242.753 117.504 243.069C117.685 243.384 117.98 243.618 118.329 243.72Z" fill="white"/>
<path opacity="0.8" d="M115.367 227.691L116.18 228.407C116.299 228.504 116.443 228.565 116.595 228.583C116.748 228.602 116.902 228.577 117.041 228.511C117.179 228.446 117.296 228.342 117.379 228.213C117.461 228.084 117.506 227.934 117.507 227.781C117.527 227.131 117.325 226.495 116.934 225.975C116.544 225.456 115.988 225.086 115.359 224.925C114.841 224.684 114.262 224.606 113.699 224.704C113.136 224.801 112.616 225.069 112.21 225.47C112.114 225.572 112.046 225.698 112.012 225.835C111.979 225.971 111.982 226.114 112.021 226.25C112.059 226.385 112.132 226.508 112.232 226.606C112.332 226.705 112.456 226.776 112.592 226.812L113.723 227.089L112.91 227.903C112.843 227.973 112.793 228.056 112.762 228.147C112.731 228.239 112.72 228.336 112.73 228.432C112.74 228.528 112.771 228.62 112.82 228.703C112.869 228.786 112.936 228.857 113.015 228.912L113.829 229.441C113.911 229.496 114.005 229.533 114.103 229.547C114.201 229.561 114.301 229.553 114.396 229.524C114.49 229.494 114.577 229.443 114.649 229.375C114.722 229.307 114.778 229.224 114.813 229.131L115.367 227.691Z" fill="white"/>
<path opacity="0.8" d="M114.374 240.628L115.391 241.515C115.493 241.604 115.617 241.664 115.75 241.689C115.884 241.713 116.021 241.702 116.148 241.655C116.275 241.608 116.388 241.529 116.473 241.424C116.559 241.319 116.615 241.193 116.636 241.059C116.748 240.374 116.621 239.67 116.278 239.067C115.934 238.463 115.395 237.994 114.748 237.74C114.274 237.422 113.71 237.267 113.14 237.299C112.57 237.332 112.026 237.549 111.591 237.919C111.485 238.007 111.405 238.124 111.361 238.255C111.317 238.386 111.31 238.527 111.342 238.662C111.373 238.797 111.441 238.921 111.538 239.019C111.635 239.118 111.758 239.188 111.892 239.221L113.007 239.513L111.966 240.726C111.899 240.811 111.849 240.909 111.821 241.014C111.792 241.119 111.785 241.228 111.799 241.336C111.814 241.444 111.849 241.548 111.905 241.641C111.96 241.735 112.033 241.816 112.12 241.881L112.714 242.28C112.813 242.339 112.923 242.377 113.038 242.391C113.152 242.405 113.268 242.394 113.379 242.359C113.489 242.325 113.59 242.267 113.676 242.19C113.762 242.113 113.831 242.019 113.878 241.914L114.374 240.628Z" fill="white"/>
<path opacity="0.8" d="M96.6449 231.971L97.8165 231.735C98.3291 231.629 98.3942 231.027 97.9304 230.661C97.4397 230.238 96.8337 229.97 96.19 229.893C95.5464 229.817 94.8945 229.934 94.3178 230.23C94.0958 230.3 93.89 230.413 93.7124 230.564C93.5348 230.715 93.3891 230.899 93.2837 231.107C93.1784 231.314 93.1156 231.541 93.099 231.773C93.0823 232.005 93.1122 232.239 93.1869 232.459C93.2192 232.586 93.2815 232.703 93.3685 232.8C93.4555 232.897 93.5647 232.972 93.6868 233.018C93.8088 233.065 93.9403 233.081 94.0699 233.066C94.1996 233.051 94.3237 233.004 94.4318 232.931L95.1315 232.321L95.7499 233.647C95.8414 233.839 95.9973 233.993 96.1905 234.082C96.3837 234.171 96.602 234.19 96.8076 234.135L97.3853 233.94C97.7921 233.802 97.8653 233.33 97.5399 232.964L96.6449 231.971Z" fill="white"/>
<path d="M61.6091 196.089C60.5432 188.392 73.8138 189.181 89.8346 186.96C105.855 184.739 118.41 180.378 119.476 188.066C120.542 195.755 107.328 195.682 91.3479 197.895C75.3679 200.108 62.6506 203.778 61.6091 196.089Z" fill="#D93D00"/>
<path opacity="0.3" d="M61.6091 196.089C60.5432 188.392 73.8138 189.181 89.8346 186.96C105.855 184.739 118.41 180.378 119.476 188.066C120.542 195.755 107.328 195.682 91.3479 197.895C75.3679 200.108 62.6506 203.778 61.6091 196.089Z" fill="white"/>
<path d="M63.969 189.425L62.1545 193.648C61.6582 194.812 62.9682 195.853 64.3188 195.332L70.9256 192.688C71.7629 192.357 72.6894 192.328 73.5456 192.607L79.8269 194.73C80.083 194.813 80.3535 194.841 80.6212 194.813C80.8888 194.785 81.1477 194.702 81.381 194.567L87.7112 190.825C88.244 190.509 88.8461 190.33 89.4647 190.301C90.0832 190.273 90.6992 190.397 91.2587 190.662L96.6613 193.347C96.8387 193.429 97.0345 193.462 97.2288 193.443C97.4232 193.425 97.6092 193.355 97.7679 193.241L103.96 188.62C104.575 188.172 105.323 187.943 106.083 187.969L116.604 188.294C117.417 188.294 117.922 187.521 117.417 186.984L112.536 181.451L65.4498 187.489L63.969 189.425Z" fill="#D93D00"/>
<path opacity="0.7" d="M63.969 189.425L62.1545 193.648C61.6582 194.812 62.9682 195.853 64.3188 195.332L70.9256 192.688C71.7629 192.357 72.6894 192.328 73.5456 192.607L79.8269 194.73C80.083 194.813 80.3535 194.841 80.6212 194.813C80.8888 194.785 81.1477 194.702 81.381 194.567L87.7112 190.825C88.244 190.509 88.8461 190.33 89.4647 190.301C90.0832 190.273 90.6992 190.397 91.2587 190.662L96.6613 193.347C96.8387 193.429 97.0345 193.462 97.2288 193.443C97.4232 193.425 97.6092 193.355 97.7679 193.241L103.96 188.62C104.575 188.172 105.323 187.943 106.083 187.969L116.604 188.294C117.417 188.294 117.922 187.521 117.417 186.984L112.536 181.451L65.4498 187.489L63.969 189.425Z" fill="white"/>
<path d="M110.209 185.886C110.265 185.53 110.265 185.168 110.209 184.812L96.9462 186.358C96.7328 186.734 96.5976 187.148 96.5487 187.578C96.4998 188.007 96.5381 188.442 96.6614 188.856C96.5475 190.247 97.3937 192.11 102.87 191.687C111.486 191.069 110.355 185.87 110.355 185.87L110.209 185.886Z" fill="#263238"/>
<path opacity="0.3" d="M96.9292 186.325C96.9292 186.325 94.0977 191.207 102.706 190.597C111.315 189.987 110.192 184.779 110.192 184.779L96.9292 186.325Z" fill="white"/>
<path d="M79.6884 188.148L66.4259 189.702C66.4259 189.702 64.9776 191.728 65.6123 193.241C65.5065 194.714 66.4259 196.227 71.0962 195.902C79.7046 195.284 79.843 189.214 79.843 189.214L79.5012 189.254C79.6017 188.893 79.6644 188.522 79.6884 188.148Z" fill="#263238"/>
<path opacity="0.3" d="M66.426 189.702C66.426 189.702 62.3577 195.454 70.9336 194.836C79.5094 194.218 79.6884 188.148 79.6884 188.148L66.426 189.702Z" fill="white"/>
<path d="M95.2373 187.416C95.2887 187.059 95.2887 186.698 95.2373 186.341L81.9748 187.896C81.7627 188.272 81.6276 188.686 81.5773 189.115C81.527 189.544 81.5626 189.978 81.6819 190.393C81.5761 191.785 82.4142 193.648 87.8982 193.225C96.5066 192.607 95.3837 187.407 95.3837 187.407L95.2373 187.416Z" fill="#263238"/>
<path opacity="0.3" d="M81.9587 187.896C81.9587 187.896 79.119 192.778 87.7356 192.159C96.3521 191.541 95.1967 186.325 95.1967 186.325L81.9587 187.896Z" fill="white"/>
<path d="M64.465 190.914C64.465 190.914 59.1926 192.395 60.527 193.306C61.8613 194.218 60.4375 196.374 62.0648 196.488C63.6921 196.602 64.8474 193.689 67.1256 194.755C69.4039 195.821 70.4941 193.306 70.7789 191.598C71.0637 189.889 65.1403 190.784 65.1403 190.784L64.465 190.914Z" fill="#D93D00"/>
<path d="M77.2965 189.173C77.2965 189.173 72.0322 190.654 73.3666 191.565C74.701 192.476 73.2283 194.633 74.8556 194.747C76.4829 194.86 77.6301 191.948 79.9083 193.013C82.1865 194.079 83.285 191.565 83.5616 189.857C83.8382 188.148 77.923 189.084 77.923 189.084L77.2965 189.173Z" fill="#D93D00"/>
<path d="M99.5169 186.805C99.5169 186.805 104.895 187.79 103.65 188.823C102.405 189.856 104.025 191.866 102.414 192.135C100.803 192.403 99.3868 189.596 97.2143 190.865C95.0419 192.135 93.7238 189.734 93.2925 188.058C92.8613 186.382 98.8335 186.773 98.8335 186.773L99.5169 186.805Z" fill="#D93D00"/>
<path d="M115.082 184.185C115.082 184.185 120.932 182.778 119.834 184.039C118.735 185.3 122.673 185.788 121.355 186.659C120.037 187.529 116.473 187.391 115.009 188.693C113.544 189.995 112.665 187.953 111.388 188.343C110.111 188.734 107.832 188.132 107.377 187.041C106.921 185.951 115.082 184.185 115.082 184.185Z" fill="#D93D00"/>
<path d="M118.312 179.71C119.386 187.399 106.107 186.618 90.0947 188.831C74.0821 191.044 61.5112 195.422 60.4453 187.733C59.3795 180.044 71.6574 173.364 87.6374 171.143C103.617 168.921 117.246 172.013 118.312 179.71Z" fill="#D93D00"/>
<path opacity="0.4" d="M118.312 179.71C119.386 187.399 106.107 186.618 90.0947 188.831C74.0821 191.044 61.5112 195.422 60.4453 187.733C59.3795 180.044 71.6574 173.364 87.6374 171.143C103.617 168.921 117.246 172.013 118.312 179.71Z" fill="white"/>
<path opacity="0.5" d="M87.6379 171.143C72.5122 173.242 60.7062 179.336 60.397 186.512C60.8201 187.741 61.6581 189.01 63.3017 189.002C66.4993 189.002 73.1956 185.56 76.613 187.155C80.0303 188.75 89.1025 183.803 92.471 185.015C95.8395 186.228 107.287 182.257 110.583 182.257C113.878 182.257 118.817 183.477 118.312 179.686C117.247 172.013 103.618 168.929 87.6379 171.143Z" fill="white"/>
<g opacity="0.2">
<path opacity="0.2" d="M92.2434 170.646C91.4298 170.711 90.551 170.793 89.6967 170.89C87.3615 173.754 83.5211 178.726 84.7091 179.027C85.897 179.328 89.7455 174.121 92.2434 170.646Z" fill="black"/>
<path opacity="0.2" d="M77.9393 173.16C76.9222 173.453 75.9377 173.762 74.9776 174.088C72.7645 176.773 68.1674 182.55 69.4529 182.892C70.7385 183.233 75.6692 176.456 77.9393 173.16Z" fill="black"/>
<path opacity="0.2" d="M102.902 170.711C100.607 173.592 97.7514 177.481 98.8335 177.766C99.9157 178.05 102.772 174.283 105.18 171.004C104.437 170.912 103.677 170.814 102.902 170.711Z" fill="black"/>
</g>
<path d="M101.258 126.343C101.705 122.438 100.973 119.02 99.3215 114.496C97.6372 109.842 93.569 107.629 90.5911 104.961C88.4756 103.048 85.6197 96.1813 84.4724 93.2766C84.3309 92.9273 84.0589 92.647 83.714 92.495C83.3691 92.3431 82.9787 92.3316 82.6254 92.4629L77.5076 94.3831C77.1522 94.5121 76.8614 94.775 76.6972 95.1155C76.533 95.4561 76.5085 95.8473 76.6289 96.2057C77.6378 99.1674 79.8835 106.262 79.501 109.086C78.964 112.999 77.2716 117.328 78.9722 121.982C80.5995 126.498 82.2756 129.582 85.1396 132.283C86.0217 133.196 86.6924 134.291 87.1044 135.492C87.5163 136.693 87.6594 137.969 87.5236 139.231C87.1493 141.412 87.2063 143.527 88.5244 147.807C88.679 148.308 88.9339 148.772 89.2735 149.171C89.6132 149.571 90.0305 149.897 90.5001 150.13C90.9697 150.363 91.4818 150.497 92.0051 150.526C92.5285 150.555 93.0523 150.477 93.5446 150.297L106.465 145.57C106.958 145.39 107.408 145.111 107.79 144.752C108.171 144.392 108.475 143.958 108.684 143.477C108.893 142.996 109.001 142.478 109.003 141.953C109.005 141.429 108.9 140.91 108.695 140.427C106.937 136.31 105.619 134.659 103.919 133.227C102.996 132.346 102.279 131.272 101.819 130.082C101.359 128.892 101.167 127.616 101.258 126.343Z" fill="#D93D00"/>
<path opacity="0.5" d="M101.258 126.343C101.705 122.438 100.973 119.02 99.3215 114.496C97.6372 109.842 93.569 107.629 90.5911 104.961C88.4756 103.048 85.6197 96.1813 84.4724 93.2766C84.3309 92.9273 84.0589 92.647 83.714 92.495C83.3691 92.3431 82.9787 92.3316 82.6254 92.4629L77.5076 94.3831C77.1522 94.5121 76.8614 94.775 76.6972 95.1155C76.533 95.4561 76.5085 95.8473 76.6289 96.2057C77.6378 99.1674 79.8835 106.262 79.501 109.086C78.964 112.999 77.2716 117.328 78.9722 121.982C80.5995 126.498 82.2756 129.582 85.1396 132.283C86.0217 133.196 86.6924 134.291 87.1044 135.492C87.5163 136.693 87.6594 137.969 87.5236 139.231C87.1493 141.412 87.2063 143.527 88.5244 147.807C88.679 148.308 88.9339 148.772 89.2735 149.171C89.6132 149.571 90.0305 149.897 90.5001 150.13C90.9697 150.363 91.4818 150.497 92.0051 150.526C92.5285 150.555 93.0523 150.477 93.5446 150.297L106.465 145.57C106.958 145.39 107.408 145.111 107.79 144.752C108.171 144.392 108.475 143.958 108.684 143.477C108.893 142.996 109.001 142.478 109.003 141.953C109.005 141.429 108.9 140.91 108.695 140.427C106.937 136.31 105.619 134.659 103.919 133.227C102.996 132.346 102.279 131.272 101.819 130.082C101.359 128.892 101.167 127.616 101.258 126.343Z" fill="white"/>
<path d="M83.9842 91.7307L75.9697 94.6598L76.4661 96.6777L76.8566 95.864C76.9331 95.7003 77.0688 95.5715 77.2363 95.5036C77.4038 95.4357 77.5908 95.4337 77.7597 95.4979L77.9062 95.5549C78.0752 95.6191 78.2622 95.6171 78.4297 95.5491C78.5972 95.4812 78.7328 95.3525 78.8094 95.1887L78.8907 95.0016C78.972 94.8302 79.1172 94.6976 79.2952 94.6322C79.4732 94.5667 79.6698 94.5737 79.8427 94.6517L79.9891 94.7168C80.0733 94.7577 80.1649 94.7813 80.2583 94.7862C80.3518 94.7912 80.4453 94.7773 80.5333 94.7454C80.6213 94.7136 80.702 94.6644 80.7707 94.6007C80.8393 94.5371 80.8945 94.4604 80.933 94.3751L80.9981 94.2286C81.0793 94.0572 81.2246 93.9246 81.4026 93.8592C81.5806 93.7938 81.7771 93.8008 81.95 93.8787L82.0884 93.952C82.2612 94.0299 82.4578 94.0369 82.6358 93.9715C82.8138 93.9061 82.9591 93.7735 83.0403 93.6021L83.1054 93.4556C83.1865 93.2842 83.3323 93.152 83.5107 93.0879C83.6892 93.0239 83.8858 93.0332 84.0574 93.1139L84.871 93.4801L83.9842 91.7307Z" fill="#D93D00"/>
<path opacity="0.2" d="M83.9842 91.7307L75.9697 94.6598L76.4661 96.6777L76.8566 95.864C76.9331 95.7003 77.0688 95.5715 77.2363 95.5036C77.4038 95.4357 77.5908 95.4337 77.7597 95.4979L77.9062 95.5549C78.0752 95.6191 78.2622 95.6171 78.4297 95.5491C78.5972 95.4812 78.7328 95.3525 78.8094 95.1887L78.8907 95.0016C78.972 94.8302 79.1172 94.6976 79.2952 94.6322C79.4732 94.5667 79.6698 94.5737 79.8427 94.6517L79.9891 94.7168C80.0733 94.7577 80.1649 94.7813 80.2583 94.7862C80.3518 94.7912 80.4453 94.7773 80.5333 94.7454C80.6213 94.7136 80.702 94.6644 80.7707 94.6007C80.8393 94.5371 80.8945 94.4604 80.933 94.3751L80.9981 94.2286C81.0793 94.0572 81.2246 93.9246 81.4026 93.8592C81.5806 93.7938 81.7771 93.8008 81.95 93.8787L82.0884 93.952C82.2612 94.0299 82.4578 94.0369 82.6358 93.9715C82.8138 93.9061 82.9591 93.7735 83.0403 93.6021L83.1054 93.4556C83.1865 93.2842 83.3323 93.152 83.5107 93.0879C83.6892 93.0239 83.8858 93.0332 84.0574 93.1139L84.871 93.4801L83.9842 91.7307Z" fill="black"/>
<path d="M83.8055 92.0968L76.2955 94.8469C76.1817 94.8883 76.0609 94.9069 75.94 94.9014C75.819 94.896 75.7003 94.8668 75.5907 94.8154C75.4811 94.764 75.3827 94.6914 75.3012 94.6019C75.2197 94.5123 75.1566 94.4076 75.1157 94.2936V94.2448C75.0317 94.0161 75.0419 93.7633 75.1441 93.5421C75.2463 93.3209 75.4322 93.1493 75.6609 93.065L83.1708 90.3149C83.2846 90.2735 83.4054 90.255 83.5264 90.2604C83.6474 90.2658 83.7661 90.295 83.8757 90.3465C83.9853 90.3979 84.0837 90.4704 84.1652 90.5599C84.2467 90.6495 84.3097 90.7542 84.3506 90.8682V90.917C84.3934 91.0302 84.4131 91.1507 84.4088 91.2716C84.4044 91.3925 84.3761 91.5114 84.3253 91.6212C84.2746 91.731 84.2025 91.8296 84.1132 91.9113C84.024 91.9929 83.9194 92.056 83.8055 92.0968Z" fill="#D93D00"/>
<path d="M99.1019 126.115C99.4761 122.861 98.988 119.899 97.2874 115.261C96.1971 112.283 93.9108 110.469 91.4861 108.549C90.6725 107.93 89.8588 107.288 89.1428 106.612C88.9557 106.441 88.7767 106.246 88.5814 106.035C86.4915 107.377 84.1489 108.277 81.698 108.679C81.698 108.915 81.6979 109.143 81.6491 109.354C81.5108 110.347 81.3074 111.364 81.1121 112.34C80.4938 115.375 79.9161 118.239 81.0063 121.217C82.7069 125.855 84.2609 128.418 86.6287 130.68C87.7724 131.838 88.6396 133.239 89.1652 134.779C89.6907 136.319 89.8611 137.958 89.6636 139.573C89.3462 141.42 89.3951 143.251 90.5911 147.148C90.659 147.368 90.7713 147.572 90.921 147.747C91.0708 147.922 91.2548 148.064 91.4617 148.165C91.6689 148.268 91.8947 148.327 92.1255 148.34C92.3562 148.352 92.5871 148.318 92.8042 148.239L105.725 143.511C105.941 143.43 106.139 143.305 106.307 143.146C106.475 142.987 106.609 142.796 106.701 142.584C106.792 142.373 106.838 142.146 106.838 141.916C106.838 141.687 106.792 141.46 106.701 141.249C105.074 137.498 103.959 136.075 102.527 134.862C101.335 133.756 100.407 132.395 99.8144 130.881C99.2213 129.366 98.9777 127.737 99.1019 126.115Z" fill="#263238"/>
<path opacity="0.3" d="M91.8446 137.417C91.8446 137.417 90.738 146.457 92.9349 146.457C95.1317 146.457 91.8446 137.417 91.8446 137.417Z" fill="white"/>
<path opacity="0.3" d="M96.1157 137.295C96.1157 137.295 96.6609 144.87 98.7031 144.374C100.745 143.877 96.1157 137.295 96.1157 137.295Z" fill="white"/>
<path opacity="0.3" d="M78.5332 97.8819C79.7829 100.097 80.6624 102.502 81.1369 105.001C81.6983 108.663 80.372 114.122 82.935 114.342C85.498 114.562 83.529 102.878 78.5332 97.8819Z" fill="white"/>
<g opacity="0.7">
<path opacity="0.7" d="M88.834 109.493C88.9241 109.744 88.9377 110.016 88.8731 110.275C88.8085 110.534 88.6687 110.768 88.4713 110.948C88.2739 111.127 88.0277 111.244 87.7638 111.284C87.4999 111.324 87.2301 111.284 86.9886 111.171C86.747 111.058 86.5444 110.875 86.4065 110.647C86.2685 110.418 86.2013 110.154 86.2133 109.887C86.2253 109.621 86.316 109.364 86.474 109.149C86.632 108.934 86.8502 108.77 87.101 108.679C87.2682 108.618 87.4457 108.591 87.6234 108.599C87.8011 108.607 87.9755 108.65 88.1366 108.726C88.2976 108.801 88.4421 108.908 88.5618 109.04C88.6815 109.171 88.774 109.325 88.834 109.493Z" fill="white"/>
<path opacity="0.7" d="M91.8039 112.454C91.8826 112.674 91.8712 112.917 91.7722 113.129C91.6731 113.34 91.4945 113.505 91.275 113.585C91.0731 113.617 90.8663 113.579 90.6897 113.476C90.513 113.373 90.3773 113.212 90.3055 113.021C90.2337 112.829 90.2303 112.619 90.2957 112.425C90.3612 112.232 90.4916 112.067 90.6648 111.958C90.8818 111.875 91.1228 111.881 91.3358 111.973C91.5488 112.066 91.7169 112.239 91.8039 112.454Z" fill="white"/>
<path opacity="0.7" d="M89.6067 115.538C89.6544 115.661 89.6639 115.796 89.6341 115.925C89.6043 116.053 89.5365 116.17 89.4395 116.26C89.3425 116.349 89.2207 116.408 89.0901 116.427C88.9595 116.447 88.826 116.427 88.7069 116.37C88.5878 116.313 88.4886 116.221 88.4222 116.107C88.3559 115.993 88.3253 115.861 88.3346 115.729C88.3439 115.598 88.3926 115.472 88.4744 115.368C88.5561 115.264 88.6672 115.187 88.7931 115.147C88.9529 115.095 89.1269 115.106 89.2786 115.179C89.4303 115.252 89.5479 115.38 89.6067 115.538Z" fill="white"/>
<path opacity="0.7" d="M91.9422 131.323C92.0027 131.488 91.995 131.67 91.921 131.83C91.847 131.989 91.7127 132.113 91.5476 132.173C91.3825 132.234 91.2002 132.226 91.0408 132.152C90.8813 132.078 90.7578 131.944 90.6974 131.778C90.6674 131.697 90.6539 131.61 90.6576 131.523C90.6612 131.436 90.6819 131.351 90.7186 131.272C90.7552 131.193 90.8071 131.122 90.8711 131.063C90.9352 131.004 91.0102 130.958 91.092 130.928C91.1737 130.898 91.2606 130.885 91.3475 130.888C91.4345 130.892 91.5199 130.913 91.5988 130.949C91.6778 130.986 91.7488 131.038 91.8077 131.102C91.8666 131.166 91.9123 131.241 91.9422 131.323Z" fill="white"/>
<path opacity="0.7" d="M94.7167 131.559C94.7479 131.64 94.7625 131.727 94.7597 131.815C94.7569 131.902 94.7367 131.988 94.7004 132.068C94.664 132.147 94.6122 132.219 94.548 132.278C94.4838 132.337 94.4084 132.383 94.3262 132.413C94.1599 132.471 93.9775 132.462 93.8179 132.387C93.6583 132.313 93.5342 132.179 93.4719 132.014C93.4237 131.853 93.438 131.68 93.5119 131.53C93.5858 131.379 93.7139 131.261 93.8706 131.201C94.0303 131.136 94.209 131.138 94.3676 131.205C94.5262 131.272 94.6517 131.399 94.7167 131.559Z" fill="white"/>
<path opacity="0.7" d="M91.8039 117.605C91.8194 117.645 91.8267 117.689 91.8252 117.732C91.8238 117.775 91.8136 117.818 91.7954 117.857C91.7772 117.897 91.7513 117.932 91.7193 117.962C91.6872 117.991 91.6496 118.013 91.6086 118.028C91.567 118.045 91.5224 118.053 91.4775 118.053C91.4326 118.052 91.3882 118.042 91.3471 118.024C91.306 118.006 91.269 117.98 91.2383 117.947C91.2076 117.914 91.1839 117.875 91.1685 117.833C91.1532 117.791 91.1465 117.746 91.1489 117.701C91.1514 117.656 91.1628 117.612 91.1826 117.572C91.2025 117.532 91.2302 117.496 91.2643 117.466C91.2984 117.437 91.338 117.415 91.3808 117.401C91.4639 117.373 91.555 117.378 91.6342 117.416C91.7134 117.454 91.7744 117.522 91.8039 117.605Z" fill="white"/>
<path opacity="0.7" d="M91.869 129.142C91.8952 129.224 91.8886 129.313 91.8506 129.391C91.8126 129.468 91.7461 129.527 91.6652 129.557C91.5842 129.586 91.495 129.583 91.4163 129.549C91.3375 129.514 91.2752 129.45 91.2425 129.37C91.2164 129.288 91.223 129.199 91.261 129.122C91.299 129.044 91.3654 128.985 91.4464 128.955C91.5273 128.926 91.6166 128.929 91.6953 128.964C91.7741 128.999 91.8364 129.062 91.869 129.142Z" fill="white"/>
</g>
<path d="M145.765 67.7281C143.283 78.9401 129.712 79.8677 114.033 76.3853C98.3538 72.9028 86.3687 66.3367 88.8992 55.1246C91.4296 43.9126 105.172 41.7971 120.924 45.2795C136.677 48.7619 148.247 56.516 145.765 67.7281Z" fill="#D93D00"/>
<path opacity="0.6" d="M145.765 67.7281C143.283 78.9401 129.712 79.8677 114.033 76.3853C98.3538 72.9028 86.3687 66.3367 88.8992 55.1246C91.4296 43.9126 105.172 41.7971 120.924 45.2795C136.677 48.7619 148.247 56.516 145.765 67.7281Z" fill="white"/>
<path d="M144.943 67.305C145.936 67.3945 145.936 64.449 145.757 61.8698C143.804 53.7903 133.707 48.111 120.9 45.2795C105.18 41.7971 91.3566 43.9126 88.8668 55.1246C88.818 55.385 88.7692 55.6372 88.7285 55.8895C88.7973 56.3046 88.9647 56.6972 89.2167 57.0342C89.4687 57.3712 89.798 57.6427 90.1768 57.826C92.3167 58.6884 94.6112 55.6942 97.2555 57.1344C99.8999 58.5745 98.8828 61.6908 102.373 62.5451C105.864 63.3994 107.727 60.1042 110.168 61.0073C112.609 61.9105 114.44 66.3123 118.654 67.3212C122.869 68.3301 124.594 64.742 128.581 65.0023C132.568 65.2627 132.161 67.8175 136.018 68.6719C139.874 69.5262 140.9 64.3026 142.38 64.1724C143.861 64.0422 143.202 67.1504 144.943 67.305Z" fill="#D93D00"/>
<path opacity="0.1" d="M133.137 56.3451C132.666 58.4769 126.108 58.3548 118.37 56.6462C110.632 54.9375 104.644 52.2688 105.115 50.137C105.587 48.0053 111.56 50.731 119.297 52.4396C127.035 54.1483 133.601 54.2215 133.137 56.3451Z" fill="#263238"/>
<path opacity="0.2" d="M132.909 55.5477C133.015 55.6519 133.091 55.7818 133.131 55.9244C133.171 56.067 133.173 56.2176 133.137 56.3614C132.665 58.4931 126.107 58.3711 118.369 56.6624C110.632 54.9538 104.643 52.285 105.115 50.1532C105.14 50.008 105.204 49.8722 105.3 49.7605C105.396 49.6487 105.52 49.5651 105.66 49.5186C104.847 49.5186 104.342 49.7708 104.212 50.3322C103.716 52.5779 109.907 56.0278 118.117 57.8015C126.327 59.5753 133.373 59.144 133.869 56.8984C133.991 56.3288 133.642 55.8976 132.909 55.5477Z" fill="black"/>
<path opacity="0.1" d="M109.761 54.0344C112.551 55.1492 115.431 56.023 118.37 56.6462C121.625 57.4161 124.952 57.8469 128.296 57.9317C126.889 57.1181 123.414 56.4997 119.346 55.6047C114.847 54.6121 111.12 53.5462 109.761 54.0344Z" fill="black"/>
<path d="M103.334 55.0107L97.7519 55.9952C97.6467 56.014 97.5388 56.0118 97.4344 55.9888C97.33 55.9658 97.2311 55.9225 97.1435 55.8613C97.0558 55.8001 96.9811 55.7222 96.9235 55.6321C96.866 55.542 96.8268 55.4414 96.8081 55.3362C96.7726 55.1248 96.8219 54.908 96.9453 54.7329C97.0687 54.5577 97.2562 54.4382 97.4672 54.4005L103.057 53.4078C103.268 53.3723 103.485 53.4216 103.66 53.545C103.835 53.6684 103.955 53.8559 103.993 54.0669C104.011 54.1721 104.009 54.28 103.986 54.3844C103.963 54.4889 103.92 54.5877 103.859 54.6754C103.797 54.763 103.72 54.8378 103.629 54.8953C103.539 54.9528 103.439 54.992 103.334 55.0107Z" fill="#D93D00"/>
<path d="M94.0823 52.7244L89.656 54.7422C89.4596 54.8303 89.2363 54.8369 89.035 54.7606C88.8337 54.6844 88.6708 54.5315 88.582 54.3354C88.496 54.1409 88.4895 53.9204 88.564 53.7212C88.6385 53.5219 88.7881 53.3598 88.9807 53.2695L93.4069 51.2598C93.6024 51.1712 93.8249 51.1634 94.026 51.2381C94.2272 51.3128 94.3907 51.4638 94.481 51.6585C94.567 51.853 94.5735 52.0735 94.499 52.2727C94.4244 52.4719 94.2749 52.6341 94.0823 52.7244Z" fill="#D93D00"/>
<path d="M105.107 44.2055L99.5176 45.19C99.3075 45.2257 99.0917 45.1775 98.9168 45.0557C98.7418 44.934 98.6216 44.7485 98.5819 44.539C98.5632 44.4338 98.5654 44.3259 98.5884 44.2215C98.6113 44.1171 98.6547 44.0182 98.7159 43.9306C98.7771 43.8429 98.855 43.7682 98.9451 43.7106C99.0352 43.6531 99.1357 43.6139 99.241 43.5952L104.823 42.6107C105.034 42.5727 105.252 42.6197 105.429 42.7417C105.605 42.8636 105.727 43.0505 105.766 43.2616C105.785 43.3669 105.783 43.4748 105.76 43.5792C105.737 43.6836 105.694 43.7825 105.633 43.8701C105.571 43.9578 105.493 44.0325 105.403 44.09C105.313 44.1476 105.213 44.1868 105.107 44.2055Z" fill="#D93D00"/>
<path d="M113.911 47.7449L109.501 44.1811C109.335 44.0457 109.229 43.85 109.206 43.6366C109.183 43.4233 109.245 43.2096 109.379 43.042C109.515 42.8755 109.71 42.7693 109.924 42.7465C110.137 42.7236 110.351 42.786 110.518 42.9199L114.928 46.4837C115.095 46.6191 115.201 46.8148 115.224 47.0281C115.247 47.2415 115.184 47.4552 115.05 47.6228C114.915 47.7892 114.719 47.8954 114.506 47.9183C114.293 47.9411 114.079 47.8788 113.911 47.7449Z" fill="#D93D00"/>
<path d="M106.54 48.2168L100.844 48.6073C100.629 48.6207 100.418 48.5487 100.257 48.4069C100.095 48.2651 99.9962 48.0651 99.9816 47.8506C99.9682 47.6361 100.04 47.4249 100.182 47.2633C100.324 47.1017 100.524 47.0028 100.738 46.9882L106.434 46.5976C106.648 46.5842 106.86 46.6563 107.021 46.7981C107.183 46.9399 107.282 47.1398 107.296 47.3543C107.31 47.5689 107.238 47.78 107.096 47.9416C106.954 48.1032 106.754 48.2022 106.54 48.2168Z" fill="#D93D00"/>
<path d="M100.779 50.6496L95.1972 49.7139C94.9848 49.678 94.7953 49.5594 94.6702 49.384C94.5451 49.2086 94.4947 48.9907 94.5301 48.7782C94.5659 48.5658 94.6846 48.3762 94.86 48.2511C95.0354 48.1261 95.2532 48.0757 95.4658 48.111L101.056 49.0467C101.268 49.0825 101.457 49.2012 101.583 49.3766C101.708 49.552 101.758 49.7699 101.723 49.9824C101.705 50.0884 101.666 50.1898 101.609 50.2808C101.552 50.3719 101.478 50.4507 101.39 50.5127C101.302 50.5747 101.203 50.6188 101.098 50.6423C100.993 50.6658 100.885 50.6682 100.779 50.6496Z" fill="#D93D00"/>
<path d="M123.772 49.0873L118.077 48.6724C117.862 48.6557 117.663 48.5548 117.523 48.3916C117.382 48.2285 117.312 48.0164 117.328 47.8018C117.345 47.5872 117.446 47.388 117.609 47.2478C117.772 47.1075 117.984 47.0375 118.199 47.0532L123.854 47.4682C124.068 47.4848 124.267 47.5858 124.408 47.7489C124.548 47.9121 124.618 48.1242 124.602 48.3388C124.586 48.546 124.49 48.7389 124.336 48.8781C124.182 49.0173 123.98 49.0922 123.772 49.0873Z" fill="#D93D00"/>
<path d="M133.308 53.7984L128.5 50.7879C128.318 50.6738 128.189 50.4928 128.14 50.2841C128.091 50.0754 128.127 49.8558 128.239 49.6732C128.296 49.5822 128.37 49.5033 128.457 49.441C128.544 49.3786 128.642 49.3341 128.747 49.3099C128.851 49.2857 128.959 49.2824 129.065 49.3C129.17 49.3177 129.271 49.356 129.362 49.4128L134.171 52.4233C134.352 52.5374 134.481 52.7184 134.53 52.9271C134.579 53.1359 134.543 53.3554 134.431 53.538C134.375 53.629 134.301 53.7079 134.214 53.7702C134.127 53.8326 134.028 53.8771 133.924 53.9013C133.819 53.9255 133.711 53.9289 133.606 53.9112C133.5 53.8935 133.399 53.8552 133.308 53.7984Z" fill="#D93D00"/>
<path d="M141.428 60.5029L135.773 60.0879C135.667 60.0807 135.562 60.0524 135.466 60.0047C135.37 59.957 135.285 59.8908 135.214 59.8099C135.144 59.729 135.09 59.635 135.056 59.5333C135.022 59.4316 135.009 59.3242 135.017 59.2173C135.033 59.0028 135.134 58.8036 135.298 58.6633C135.461 58.523 135.673 58.453 135.887 58.4688L141.583 58.8837C141.797 58.9004 141.997 59.0013 142.137 59.1645C142.277 59.3276 142.347 59.5397 142.331 59.7543C142.323 59.8636 142.293 59.97 142.243 60.0674C142.193 60.1647 142.124 60.251 142.039 60.3209C141.955 60.3908 141.857 60.4429 141.752 60.4742C141.647 60.5055 141.537 60.5152 141.428 60.5029Z" fill="#D93D00"/>
<path d="M139.296 64.4979L144.886 63.5134C145.096 63.4777 145.312 63.5259 145.487 63.6476C145.662 63.7693 145.782 63.9549 145.822 64.1643C145.841 64.2696 145.838 64.3775 145.815 64.4819C145.792 64.5863 145.749 64.6851 145.688 64.7728C145.627 64.8605 145.549 64.9352 145.459 64.9927C145.369 65.0503 145.268 65.0895 145.163 65.1081L139.581 66.0926C139.37 66.1307 139.152 66.0836 138.975 65.9617C138.798 65.8397 138.677 65.6528 138.637 65.4417C138.619 65.3365 138.621 65.2286 138.644 65.1242C138.667 65.0197 138.71 64.9209 138.771 64.8332C138.833 64.7456 138.91 64.6709 139 64.6133C139.091 64.5558 139.191 64.5166 139.296 64.4979Z" fill="#D93D00"/>
<path d="M137.702 63.2936L132.332 61.4548C132.129 61.3829 131.964 61.2339 131.871 61.0404C131.778 60.8468 131.765 60.6243 131.835 60.4214C131.906 60.2195 132.053 60.0534 132.245 59.959C132.436 59.8646 132.658 59.8495 132.861 59.917L138.231 61.7558C138.435 61.8261 138.602 61.9744 138.697 62.1681C138.791 62.3619 138.805 62.5852 138.735 62.7892C138.665 62.993 138.517 63.1606 138.323 63.2552C138.129 63.3498 137.906 63.3636 137.702 63.2936Z" fill="#D93D00"/>
<path d="M125.619 61.528L119.964 61.113C119.75 61.0964 119.55 60.9954 119.41 60.8323C119.27 60.6691 119.2 60.457 119.216 60.2424C119.232 60.0294 119.332 59.8315 119.493 59.6914C119.655 59.5514 119.865 59.4804 120.078 59.4939L125.774 59.9088C125.988 59.9255 126.187 60.0264 126.328 60.1896C126.468 60.3527 126.538 60.5648 126.522 60.7794C126.514 60.8887 126.484 60.9952 126.434 61.0925C126.384 61.1899 126.314 61.2761 126.23 61.346C126.146 61.4159 126.048 61.468 125.943 61.4993C125.838 61.5306 125.728 61.5403 125.619 61.528Z" fill="#D93D00"/>
<path d="M120.014 65.1569L114.643 63.3181C114.442 63.2478 114.275 63.1008 114.181 62.9089C114.087 62.7171 114.072 62.4958 114.139 62.2929C114.209 62.091 114.356 61.9248 114.548 61.8304C114.74 61.736 114.961 61.7209 115.164 61.7884L120.534 63.6273C120.736 63.6976 120.902 63.8446 120.997 64.0364C121.091 64.2283 121.106 64.4496 121.039 64.6525C120.968 64.8544 120.821 65.0205 120.63 65.1149C120.438 65.2093 120.216 65.2244 120.014 65.1569Z" fill="#D93D00"/>
<path d="M131.9 49.0548L126.53 47.2241C126.326 47.1538 126.159 47.0055 126.064 46.8118C125.97 46.6181 125.956 46.3947 126.026 46.1908C126.096 45.9869 126.244 45.8193 126.438 45.7247C126.632 45.6301 126.855 45.6163 127.059 45.6863L132.421 47.5251C132.623 47.5955 132.789 47.7424 132.883 47.9343C132.978 48.1261 132.993 48.3474 132.925 48.5503C132.855 48.7523 132.708 48.9184 132.516 49.0128C132.324 49.1072 132.103 49.1223 131.9 49.0548Z" fill="#D93D00"/>
<path d="M113.333 59.5509L107.971 57.7202C107.768 57.6499 107.6 57.5016 107.505 57.3079C107.411 57.1141 107.397 56.8908 107.467 56.6868C107.537 56.4849 107.684 56.3188 107.876 56.2244C108.068 56.13 108.289 56.1149 108.492 56.1824L113.862 58.0212C114.064 58.0915 114.23 58.2385 114.325 58.4304C114.419 58.6222 114.434 58.8435 114.367 59.0464C114.296 59.2502 114.148 59.4179 113.954 59.5124C113.761 59.607 113.537 59.6209 113.333 59.5509Z" fill="#D93D00"/>
<path d="M143.463 56.8577L138.215 54.7016C138.017 54.6188 137.86 54.4612 137.777 54.2631C137.695 54.065 137.694 53.8425 137.775 53.6438C137.858 53.446 138.016 53.2888 138.214 53.2065C138.412 53.1242 138.634 53.1235 138.833 53.2045L144.081 55.3606C144.279 55.4434 144.436 55.601 144.518 55.7991C144.601 55.9972 144.601 56.2197 144.52 56.4184C144.438 56.6162 144.28 56.7734 144.082 56.8557C143.884 56.938 143.661 56.9387 143.463 56.8577Z" fill="#D93D00"/>
<g opacity="0.8">
<path opacity="0.8" d="M103.334 55.0107L97.7519 55.9952C97.6467 56.014 97.5388 56.0118 97.4344 55.9888C97.33 55.9658 97.2311 55.9225 97.1435 55.8613C97.0558 55.8001 96.9811 55.7222 96.9235 55.6321C96.866 55.542 96.8268 55.4414 96.8081 55.3362C96.7726 55.1248 96.8219 54.908 96.9453 54.7329C97.0687 54.5577 97.2562 54.4382 97.4672 54.4005L103.057 53.4078C103.268 53.3723 103.485 53.4216 103.66 53.545C103.835 53.6684 103.955 53.8559 103.993 54.0669C104.011 54.1721 104.009 54.28 103.986 54.3844C103.963 54.4889 103.92 54.5877 103.859 54.6754C103.797 54.763 103.72 54.8378 103.629 54.8953C103.539 54.9528 103.439 54.992 103.334 55.0107Z" fill="white"/>
<path opacity="0.5" d="M94.0823 52.7244L89.656 54.7422C89.4596 54.8303 89.2363 54.8369 89.035 54.7606C88.8337 54.6844 88.6708 54.5315 88.582 54.3354C88.496 54.1409 88.4895 53.9204 88.564 53.7212C88.6385 53.5219 88.7881 53.3598 88.9807 53.2695L93.4069 51.2598C93.6024 51.1712 93.8249 51.1634 94.026 51.2381C94.2272 51.3128 94.3907 51.4638 94.481 51.6585C94.567 51.853 94.5735 52.0735 94.499 52.2727C94.4244 52.4719 94.2749 52.6341 94.0823 52.7244Z" fill="white"/>
<path opacity="0.8" d="M105.107 44.2055L99.5176 45.19C99.3075 45.2257 99.0917 45.1775 98.9168 45.0557C98.7418 44.934 98.6216 44.7485 98.5819 44.539C98.5632 44.4338 98.5654 44.3259 98.5884 44.2215C98.6113 44.1171 98.6547 44.0182 98.7159 43.9306C98.7771 43.8429 98.855 43.7682 98.9451 43.7106C99.0352 43.6531 99.1357 43.6139 99.241 43.5952L104.823 42.6107C105.034 42.5727 105.252 42.6197 105.429 42.7417C105.605 42.8636 105.727 43.0505 105.766 43.2616C105.785 43.3669 105.783 43.4748 105.76 43.5792C105.737 43.6836 105.694 43.7825 105.633 43.8701C105.571 43.9578 105.493 44.0325 105.403 44.09C105.313 44.1476 105.213 44.1868 105.107 44.2055Z" fill="white"/>
<path opacity="0.8" d="M113.911 47.7449L109.501 44.1811C109.335 44.0457 109.229 43.85 109.206 43.6366C109.183 43.4233 109.245 43.2096 109.379 43.042C109.515 42.8755 109.71 42.7693 109.924 42.7465C110.137 42.7236 110.351 42.786 110.518 42.9199L114.928 46.4837C115.095 46.6191 115.201 46.8148 115.224 47.0281C115.247 47.2415 115.184 47.4552 115.05 47.6228C114.915 47.7892 114.719 47.8954 114.506 47.9183C114.293 47.9411 114.079 47.8788 113.911 47.7449Z" fill="white"/>
<path opacity="0.5" d="M106.54 48.2168L100.844 48.6073C100.629 48.6207 100.418 48.5487 100.257 48.4069C100.095 48.2651 99.9962 48.0651 99.9816 47.8506C99.9682 47.6361 100.04 47.4249 100.182 47.2633C100.324 47.1017 100.524 47.0028 100.738 46.9882L106.434 46.5976C106.648 46.5842 106.86 46.6563 107.021 46.7981C107.183 46.9399 107.282 47.1398 107.296 47.3543C107.31 47.5689 107.238 47.78 107.096 47.9416C106.954 48.1032 106.754 48.2022 106.54 48.2168Z" fill="white"/>
<path opacity="0.8" d="M100.779 50.6496L95.1972 49.7139C94.9848 49.678 94.7953 49.5594 94.6702 49.384C94.5451 49.2086 94.4947 48.9907 94.5301 48.7782C94.5659 48.5658 94.6846 48.3762 94.86 48.2511C95.0354 48.1261 95.2532 48.0757 95.4658 48.111L101.056 49.0467C101.268 49.0825 101.457 49.2012 101.583 49.3766C101.708 49.552 101.758 49.7699 101.723 49.9824C101.705 50.0884 101.666 50.1898 101.609 50.2808C101.552 50.3719 101.478 50.4507 101.39 50.5127C101.302 50.5747 101.203 50.6188 101.098 50.6423C100.993 50.6658 100.885 50.6682 100.779 50.6496Z" fill="white"/>
<path opacity="0.8" d="M123.772 49.0873L118.077 48.6724C117.862 48.6557 117.663 48.5548 117.523 48.3916C117.382 48.2285 117.312 48.0164 117.328 47.8018C117.345 47.5872 117.446 47.388 117.609 47.2478C117.772 47.1075 117.984 47.0375 118.199 47.0532L123.854 47.4682C124.068 47.4848 124.267 47.5858 124.408 47.7489C124.548 47.9121 124.618 48.1242 124.602 48.3388C124.586 48.546 124.49 48.7389 124.336 48.8781C124.182 49.0173 123.98 49.0922 123.772 49.0873Z" fill="white"/>
<path opacity="0.5" d="M133.308 53.7984L128.5 50.7879C128.318 50.6738 128.189 50.4928 128.14 50.2841C128.091 50.0754 128.127 49.8558 128.239 49.6732C128.296 49.5822 128.37 49.5033 128.457 49.441C128.544 49.3786 128.642 49.3341 128.747 49.3099C128.851 49.2857 128.959 49.2824 129.065 49.3C129.17 49.3177 129.271 49.356 129.362 49.4128L134.171 52.4233C134.352 52.5374 134.481 52.7184 134.53 52.9271C134.579 53.1359 134.543 53.3554 134.431 53.538C134.375 53.629 134.301 53.7079 134.214 53.7702C134.127 53.8326 134.028 53.8771 133.924 53.9013C133.819 53.9255 133.711 53.9289 133.606 53.9112C133.5 53.8935 133.399 53.8552 133.308 53.7984Z" fill="white"/>
<path opacity="0.8" d="M141.428 60.5029L135.773 60.0879C135.667 60.0807 135.562 60.0524 135.466 60.0047C135.37 59.957 135.285 59.8908 135.214 59.8099C135.144 59.729 135.09 59.635 135.056 59.5333C135.022 59.4316 135.009 59.3242 135.017 59.2173C135.033 59.0028 135.134 58.8036 135.298 58.6633C135.461 58.523 135.673 58.453 135.887 58.4688L141.583 58.8837C141.797 58.9004 141.997 59.0013 142.137 59.1645C142.277 59.3276 142.347 59.5397 142.331 59.7543C142.323 59.8636 142.293 59.97 142.243 60.0674C142.193 60.1647 142.124 60.251 142.039 60.3209C141.955 60.3908 141.857 60.4429 141.752 60.4742C141.647 60.5055 141.537 60.5152 141.428 60.5029Z" fill="white"/>
<path opacity="0.8" d="M139.296 64.4979L144.886 63.5134C145.096 63.4777 145.312 63.5259 145.487 63.6476C145.662 63.7693 145.782 63.9549 145.822 64.1643C145.841 64.2696 145.838 64.3775 145.815 64.4819C145.792 64.5863 145.749 64.6851 145.688 64.7728C145.627 64.8605 145.549 64.9352 145.459 64.9927C145.369 65.0503 145.268 65.0895 145.163 65.1081L139.581 66.0926C139.37 66.1307 139.152 66.0836 138.975 65.9617C138.798 65.8397 138.677 65.6528 138.637 65.4417C138.619 65.3365 138.621 65.2286 138.644 65.1242C138.667 65.0197 138.71 64.9209 138.771 64.8332C138.833 64.7456 138.91 64.6709 139 64.6133C139.091 64.5558 139.191 64.5166 139.296 64.4979Z" fill="white"/>
<path opacity="0.8" d="M137.702 63.2936L132.332 61.4548C132.129 61.3829 131.964 61.2339 131.871 61.0404C131.778 60.8468 131.765 60.6243 131.835 60.4214C131.906 60.2195 132.053 60.0534 132.245 59.959C132.436 59.8646 132.658 59.8495 132.861 59.917L138.231 61.7558C138.435 61.8261 138.602 61.9744 138.697 62.1681C138.791 62.3619 138.805 62.5852 138.735 62.7892C138.665 62.993 138.517 63.1606 138.323 63.2552C138.129 63.3498 137.906 63.3636 137.702 63.2936Z" fill="white"/>
<path opacity="0.8" d="M125.619 61.528L119.964 61.113C119.75 61.0964 119.55 60.9954 119.41 60.8323C119.27 60.6691 119.2 60.457 119.216 60.2424C119.232 60.0294 119.332 59.8315 119.493 59.6914C119.655 59.5514 119.865 59.4804 120.078 59.4939L125.774 59.9088C125.988 59.9255 126.187 60.0264 126.328 60.1896C126.468 60.3527 126.538 60.5648 126.522 60.7794C126.514 60.8887 126.484 60.9952 126.434 61.0925C126.384 61.1899 126.314 61.2761 126.23 61.346C126.146 61.4159 126.048 61.468 125.943 61.4993C125.838 61.5306 125.728 61.5403 125.619 61.528Z" fill="white"/>
<path opacity="0.5" d="M120.014 65.1569L114.643 63.3181C114.442 63.2478 114.275 63.1008 114.181 62.9089C114.087 62.7171 114.072 62.4958 114.139 62.2929C114.209 62.091 114.356 61.9248 114.548 61.8304C114.74 61.736 114.961 61.7209 115.164 61.7884L120.534 63.6273C120.736 63.6976 120.902 63.8446 120.997 64.0364C121.091 64.2283 121.106 64.4496 121.039 64.6525C120.968 64.8544 120.821 65.0205 120.63 65.1149C120.438 65.2093 120.216 65.2244 120.014 65.1569Z" fill="white"/>
<path opacity="0.8" d="M131.9 49.0548L126.53 47.2241C126.326 47.1538 126.159 47.0055 126.064 46.8118C125.97 46.6181 125.956 46.3947 126.026 46.1908C126.096 45.9869 126.244 45.8193 126.438 45.7247C126.632 45.6301 126.855 45.6163 127.059 45.6863L132.421 47.5251C132.623 47.5955 132.789 47.7424 132.883 47.9343C132.978 48.1261 132.993 48.3474 132.925 48.5503C132.855 48.7523 132.708 48.9184 132.516 49.0128C132.324 49.1072 132.103 49.1223 131.9 49.0548Z" fill="white"/>
<path opacity="0.8" d="M113.333 59.5509L107.971 57.7202C107.768 57.6499 107.6 57.5016 107.505 57.3079C107.411 57.1141 107.397 56.8908 107.467 56.6868C107.537 56.4849 107.684 56.3188 107.876 56.2244C108.068 56.13 108.289 56.1149 108.492 56.1824L113.862 58.0212C114.064 58.0915 114.23 58.2385 114.325 58.4304C114.419 58.6222 114.434 58.8435 114.367 59.0464C114.296 59.2502 114.148 59.4179 113.954 59.5124C113.761 59.607 113.537 59.6209 113.333 59.5509Z" fill="white"/>
<path opacity="0.8" d="M143.463 56.8577L138.215 54.7016C138.017 54.6188 137.86 54.4612 137.777 54.2631C137.695 54.065 137.694 53.8425 137.775 53.6438C137.858 53.446 138.016 53.2888 138.214 53.2065C138.412 53.1242 138.634 53.1235 138.833 53.2045L144.081 55.3606C144.279 55.4434 144.436 55.601 144.518 55.7991C144.601 55.9972 144.601 56.2197 144.52 56.4184C144.438 56.6162 144.28 56.7734 144.082 56.8557C143.884 56.938 143.661 56.9387 143.463 56.8577Z" fill="white"/>
</g>
<path d="M216.243 114.724C216.243 114.724 224.526 124.155 216.813 128.597L210.54 121.665L216.243 114.724Z" fill="#FFC3BD"/>
<path opacity="0.1" d="M215.527 115.587L210.54 121.648L216.813 128.581C221.353 125.302 217.171 118.085 215.527 115.587Z" fill="black"/>
<path d="M208.758 105.554C208.758 105.554 213.42 108.98 218.058 116.303C216.626 119.621 214.039 122.308 210.775 123.862C210.775 123.862 199.881 111.933 208.758 105.554Z" fill="#263238"/>
<path opacity="0.7" d="M208.758 105.554C208.758 105.554 213.42 108.98 218.058 116.303C216.626 119.621 214.039 122.308 210.775 123.862C210.775 123.862 199.881 111.933 208.758 105.554Z" fill="black"/>
<path d="M216.43 188.652L218.204 284.061L212.118 284.874C212.118 284.874 204.877 246.755 204.388 228.855C204.299 225.307 204.234 217.415 203.306 212.321C201.945 205.196 200.957 198.004 200.344 190.776L216.43 188.652Z" fill="#FFC3BD"/>
<path d="M218 283.271H211.597C211.463 283.273 211.333 283.32 211.228 283.404C211.124 283.488 211.05 283.605 211.019 283.735L209.701 289.756C209.672 289.882 209.668 290.013 209.69 290.14C209.712 290.268 209.758 290.39 209.827 290.5C209.896 290.609 209.985 290.704 210.091 290.779C210.196 290.854 210.315 290.907 210.442 290.936C210.512 290.944 210.583 290.944 210.653 290.936C213.314 290.887 215.69 290.733 219.001 290.733C222.915 290.733 221.93 291.196 226.527 291.245C229.302 291.245 229.782 288.129 228.627 287.991C223.24 287.323 221.686 285.688 219.603 283.76C219.146 283.408 218.576 283.235 218 283.271Z" fill="#263238"/>
<path d="M213.697 155.822C216.242 170.898 217.513 186.162 217.496 201.451L201.28 203.078L197.716 177.481C197.716 177.481 194.047 167.221 195.609 157.628L213.697 155.822Z" fill="#D93D00"/>
<path opacity="0.2" d="M197.716 177.481L201.296 203.086L203.338 202.883C205.316 195.096 199.807 171.444 199.807 171.444L196.789 174.324C197.277 176.277 197.716 177.481 197.716 177.481Z" fill="black"/>
<path d="M198.18 190.499C198.18 190.499 194.714 213.558 193.461 221.198C190.841 237.227 181.5 284.964 181.5 284.964H175.357C175.357 284.964 175.943 245.697 179.377 228.22C180.011 224.965 181.46 217.927 181.37 213.33C181.165 205.715 181.363 198.094 181.964 190.499H198.18Z" fill="#FFC3BD"/>
<path d="M181.818 283.271H175.414C175.28 283.272 175.149 283.318 175.044 283.402C174.939 283.486 174.866 283.604 174.837 283.735L173.51 289.756C173.482 289.883 173.478 290.014 173.5 290.142C173.522 290.27 173.569 290.392 173.639 290.502C173.709 290.611 173.799 290.706 173.906 290.781C174.012 290.855 174.132 290.908 174.259 290.936C174.329 290.944 174.4 290.944 174.47 290.936C177.131 290.887 179.499 290.733 182.818 290.733C186.732 290.733 185.739 291.196 190.345 291.245C193.119 291.245 193.599 288.129 192.444 287.991C187.058 287.323 185.503 285.688 183.421 283.76C182.961 283.413 182.393 283.24 181.818 283.271Z" fill="#263238"/>
<path d="M200.906 157.595C200.946 172.918 199.699 188.217 197.18 203.331L180.907 202.859L181.574 177.001C181.574 177.001 179.637 166.35 182.746 157.042L200.906 157.595Z" fill="#D93D00"/>
<path d="M175.594 107.011C177.058 111.665 181.338 127.791 181.769 158.458C181.769 158.458 201.695 160.085 214.038 156.831C214.038 156.831 213.07 150.118 212.59 139.825C211.915 125.456 211.484 107.784 208.758 105.579C204.234 101.934 190.182 100.933 176.586 105.107C176.204 105.23 175.885 105.499 175.7 105.855C175.514 106.212 175.476 106.627 175.594 107.011Z" fill="#263238"/>
<path opacity="0.4" d="M186.024 102.975C188.213 104.741 195.088 109.248 201.565 102.91C196.41 102.158 191.172 102.18 186.024 102.975Z" fill="white"/>
<path opacity="0.7" d="M178.083 107.922L176.456 109.997C177.123 112.544 177.961 116.23 178.775 121.12C180.599 117.465 180.997 113.262 179.889 109.33L178.083 107.922Z" fill="black"/>
<path opacity="0.7" d="M201.337 107.922C201.337 107.922 207.154 124.39 212.158 130.208C211.971 126.14 211.76 122.128 211.475 118.557C208.066 113.268 204.299 108.467 204.299 108.467L201.337 107.922Z" fill="black"/>
<path d="M201.581 73.3829C201.581 73.3829 204.747 74.1477 205.218 71.1372C205.218 71.1372 205.935 74.2698 204.128 74.7417C204.812 75.1884 205.337 75.8394 205.629 76.6019C205.921 77.3645 205.966 78.1998 205.756 78.9889C204.991 81.7635 205.756 83.0083 205.756 83.0083C204.905 81.7742 204.453 80.3088 204.462 78.8099C204.462 78.8099 205.341 84.717 202.127 83.4152C198.913 82.1133 199.791 73.8873 199.791 73.8873L201.581 73.3829Z" fill="#263238"/>
<path opacity="0.6" d="M201.581 73.3829C201.581 73.3829 204.747 74.1477 205.218 71.1372C205.218 71.1372 205.935 74.2698 204.128 74.7417C204.812 75.1884 205.337 75.8394 205.629 76.6019C205.921 77.3645 205.966 78.1998 205.756 78.9889C204.991 81.7635 205.756 83.0083 205.756 83.0083C204.905 81.7742 204.453 80.3088 204.462 78.8099C204.462 78.8099 205.341 84.717 202.127 83.4152C198.913 82.1133 199.791 73.8873 199.791 73.8873L201.581 73.3829Z" fill="black"/>
<path d="M188.416 90.9983C188.416 90.9983 190.296 99.7125 188.099 102.715C188.099 102.715 194.608 106.344 199.124 102.585C197.827 101.577 196.836 100.228 196.261 98.689C195.687 97.1502 195.551 95.4819 195.869 93.8705L188.416 90.9983Z" fill="#FFC3BD"/>
<path opacity="0.1" d="M197.668 101.144C196.864 100.132 196.29 98.9575 195.984 97.7019C195.678 96.4462 195.647 95.1391 195.894 93.8705L188.417 90.9983C188.413 91.0552 188.413 91.1123 188.417 91.1692C188.661 92.1537 190.947 99.5497 197.668 101.144Z" fill="black"/>
<path d="M174.674 106.14C174.674 106.14 156.538 124.325 156.66 132.673C156.766 139.695 172.689 148.287 177.717 150.826C178.166 151.056 178.664 151.177 179.169 151.177C179.674 151.177 180.172 151.056 180.622 150.826L182.9 149.662L183.543 149.947C183.701 150.025 183.877 150.063 184.053 150.057C184.23 150.051 184.402 150.001 184.555 149.913C184.708 149.824 184.837 149.699 184.93 149.549C185.023 149.399 185.077 149.228 185.089 149.052L185.447 143.357C185.459 143.08 185.376 142.808 185.212 142.586C185.047 142.364 184.811 142.205 184.544 142.136L181.419 141.322C181.177 141.256 180.92 141.27 180.686 141.362C180.453 141.455 180.256 141.621 180.125 141.835L177.684 145.83C177.684 145.83 164.772 134.496 165.39 131.347C166.009 128.198 174.56 120.949 177.546 116.588C179.295 114.114 181.557 110.656 174.674 106.14Z" fill="#FFC3BD"/>
<path d="M165.488 114.879L172.941 122.674C172.941 122.674 182.021 116.107 179.881 109.33C176.781 99.5253 169.385 110.436 165.488 114.879Z" fill="#263238"/>
<path d="M187.952 80.2989C186.813 85.9537 186.211 88.3214 188.27 91.9178C191.354 97.3366 198.546 97.4912 201.353 92.292C203.867 87.6136 205.316 79.1191 200.442 75.4902C198.781 74.229 196.687 73.6784 194.62 73.959C192.553 74.2397 190.682 75.3288 189.417 76.9873C188.676 77.9609 188.174 79.0954 187.952 80.2989Z" fill="#FFC3BD"/>
<path d="M196.463 84.1067C196.349 84.5624 196.463 84.9936 196.781 85.075C197.098 85.1563 197.415 84.8471 197.537 84.3996C197.659 83.9521 197.537 83.5128 197.22 83.4314C196.903 83.35 196.602 83.6836 196.463 84.1067Z" fill="#263238"/>
<path d="M201.573 85.4736C201.459 85.9374 201.573 86.3605 201.891 86.4419C202.208 86.5232 202.533 86.214 202.656 85.7665C202.778 85.319 202.656 84.8797 202.33 84.8064C202.005 84.7332 201.695 85.0261 201.573 85.4736Z" fill="#263238"/>
<path d="M199.783 85.8805C199.913 87.0213 200.2 88.1385 200.637 89.2002C200.361 89.302 200.067 89.3437 199.774 89.3227C199.481 89.3016 199.195 89.2183 198.937 89.0781L199.783 85.8805Z" fill="#ED893E"/>
<path d="M194.682 82.5364C194.735 82.5606 194.795 82.5666 194.853 82.5534C194.91 82.5401 194.961 82.5084 194.999 82.4632C195.337 82.1707 195.732 81.9512 196.159 81.8182C196.586 81.6852 197.036 81.6416 197.481 81.6902C197.554 81.6996 197.628 81.6803 197.687 81.6363C197.746 81.5923 197.786 81.527 197.798 81.4542C197.802 81.4189 197.8 81.3831 197.79 81.3488C197.781 81.3144 197.765 81.2823 197.743 81.2543C197.721 81.2263 197.694 81.2029 197.663 81.1856C197.632 81.1682 197.597 81.1572 197.562 81.1532C197.028 81.0929 196.488 81.1474 195.977 81.313C195.466 81.4785 194.997 81.7514 194.6 82.1133C194.575 82.1383 194.555 82.168 194.541 82.2009C194.527 82.2337 194.52 82.2689 194.52 82.3045C194.52 82.3401 194.527 82.3753 194.541 82.4081C194.555 82.4409 194.575 82.4707 194.6 82.4957C194.621 82.5192 194.65 82.5338 194.682 82.5364Z" fill="#263238"/>
<path d="M203.738 83.5209C203.782 83.5444 203.831 83.5567 203.88 83.5567C203.93 83.5567 203.979 83.5444 204.023 83.5209C204.081 83.4758 204.119 83.4099 204.13 83.3371C204.14 83.2643 204.122 83.1902 204.08 83.1304C203.834 82.762 203.501 82.4601 203.111 82.2514C202.721 82.0427 202.285 81.9338 201.842 81.9343C201.807 81.9343 201.773 81.9413 201.74 81.9549C201.708 81.9685 201.679 81.9884 201.655 82.0134C201.631 82.0385 201.612 82.0681 201.599 82.1007C201.587 82.1332 201.581 82.1679 201.582 82.2028C201.583 82.2388 201.591 82.2742 201.606 82.3069C201.621 82.3397 201.642 82.369 201.669 82.3933C201.695 82.4176 201.727 82.4363 201.761 82.4483C201.795 82.4603 201.831 82.4654 201.866 82.4632C202.213 82.4746 202.551 82.5684 202.854 82.7368C203.157 82.9052 203.415 83.1433 203.608 83.4314C203.643 83.472 203.687 83.5029 203.738 83.5209Z" fill="#263238"/>
<path d="M198.937 89.8592C197.651 87.6949 192.387 87.1823 190.849 86.7511C189.311 86.3199 190.239 82.5608 190.239 82.5608L189.629 82.0075H188.416L187.286 84.2532L187.05 88.5086C187.247 89.7143 187.672 90.8713 188.303 91.9178C191.386 97.3367 198.587 97.4913 201.386 92.292C201.65 91.7946 201.889 91.2841 202.102 90.7624C201.744 90.2885 201.242 89.9441 200.671 89.7811C200.1 89.6182 199.491 89.6456 198.937 89.8592Z" fill="#263238"/>
<path opacity="0.5" d="M198.937 89.8592C197.651 87.6949 192.387 87.1823 190.849 86.7511C189.311 86.3199 190.239 82.5608 190.239 82.5608L189.629 82.0075H188.416L187.286 84.2532L187.05 88.5086C187.247 89.7143 187.672 90.8713 188.303 91.9178C191.386 97.3367 198.587 97.4913 201.386 92.292C201.65 91.7946 201.889 91.2841 202.102 90.7624C201.744 90.2885 201.242 89.9441 200.671 89.7811C200.1 89.6182 199.491 89.6456 198.937 89.8592Z" fill="white"/>
<path d="M186.943 84.2532C186.943 84.2532 189.987 85.2621 190.637 81.1207C191.288 76.9792 192.623 78.281 193.607 76.7432C194.592 75.2054 206.382 77.0524 202.932 68.0209C202.444 69.3095 201.658 70.464 200.637 71.3894C200.637 71.3894 201.036 66.711 194.86 68.8346C188.685 70.9582 184.022 76.3527 184.022 76.3527C184.022 76.3527 185.227 76.1004 185.308 77.9312C185.389 79.7619 184.543 86.2466 186.943 84.2532Z" fill="#263238"/>
<path d="M197.635 91.1285C197.849 91.2187 198.069 91.2922 198.294 91.3482C198.311 91.3545 198.329 91.3571 198.348 91.3559C198.366 91.3547 198.383 91.3497 198.399 91.3413C198.416 91.3329 198.43 91.3212 198.441 91.3069C198.452 91.2927 198.461 91.2763 198.465 91.2587C198.471 91.2223 198.463 91.1851 198.444 91.1537C198.424 91.1224 198.394 91.099 198.359 91.0878C197.793 90.9491 197.267 90.6796 196.823 90.301C196.379 89.9223 196.03 89.445 195.804 88.9073C195.792 88.8745 195.767 88.8479 195.735 88.8328C195.703 88.8177 195.667 88.8152 195.634 88.8259C195.616 88.8304 195.6 88.8386 195.585 88.8499C195.571 88.8612 195.559 88.8754 195.551 88.8915C195.543 88.9076 195.538 88.9253 195.536 88.9434C195.535 88.9615 195.538 88.9797 195.544 88.9968C195.734 89.473 196.016 89.9068 196.375 90.2727C196.734 90.6387 197.163 90.9296 197.635 91.1285Z" fill="#263238"/>
<path d="M199.417 103.195C199.417 103.195 210.524 132.625 216.813 128.556C223.103 124.488 205.178 104.472 203.16 101.047L201.899 95.571C201.833 95.3014 201.695 95.0547 201.5 94.857C201.306 94.6593 201.061 94.5181 200.792 94.4482L195.398 93.0894C195.067 93.005 194.716 93.0475 194.415 93.2086C194.114 93.3698 193.884 93.6378 193.771 93.96L193.437 94.9445C193.317 95.307 193.347 95.702 193.518 96.0429L196.024 101.169L199.417 103.195Z" fill="#FFC3BD"/>
<path d="M204.503 102.812L203.526 100.957C203.49 100.886 203.44 100.824 203.379 100.773C203.319 100.722 203.248 100.683 203.172 100.661C203.096 100.638 203.016 100.631 202.937 100.64C202.858 100.649 202.781 100.674 202.713 100.713L200.849 101.69C200.778 101.726 200.715 101.775 200.664 101.836C200.613 101.897 200.575 101.968 200.553 102.044C200.53 102.12 200.523 102.2 200.532 102.279C200.541 102.358 200.566 102.434 200.605 102.503L199.043 103.317L200.019 105.172L201.59 104.358C201.626 104.429 201.675 104.492 201.736 104.543C201.797 104.594 201.868 104.632 201.944 104.655C202.02 104.678 202.1 104.685 202.179 104.676C202.258 104.667 202.334 104.642 202.403 104.603L204.258 103.618C204.329 103.583 204.392 103.534 204.443 103.474C204.494 103.413 204.532 103.343 204.555 103.268C204.577 103.193 204.585 103.113 204.576 103.035C204.567 102.957 204.542 102.881 204.503 102.812Z" fill="#D93D00"/>
<path opacity="0.3" d="M204.503 102.812L203.526 100.957C203.49 100.886 203.44 100.824 203.379 100.773C203.319 100.722 203.248 100.683 203.172 100.661C203.096 100.638 203.016 100.631 202.937 100.64C202.858 100.649 202.781 100.674 202.713 100.713L200.849 101.69C200.778 101.726 200.715 101.775 200.664 101.836C200.613 101.897 200.575 101.968 200.553 102.044C200.53 102.12 200.523 102.2 200.532 102.279C200.541 102.358 200.566 102.434 200.605 102.503L199.043 103.317L200.019 105.172L201.59 104.358C201.626 104.429 201.675 104.492 201.736 104.543C201.797 104.594 201.868 104.632 201.944 104.655C202.02 104.678 202.1 104.685 202.179 104.676C202.258 104.667 202.334 104.642 202.403 104.603L204.258 103.618C204.329 103.583 204.392 103.534 204.443 103.474C204.494 103.413 204.532 103.343 204.555 103.268C204.577 103.193 204.585 103.113 204.576 103.035C204.567 102.957 204.542 102.881 204.503 102.812Z" fill="black"/>
<path d="M204.134 102.806L203.329 101.28C203.254 101.137 203.077 101.082 202.934 101.158L201.408 101.962C201.265 102.037 201.21 102.214 201.285 102.358L202.089 103.884C202.165 104.027 202.342 104.082 202.485 104.006L204.011 103.202C204.154 103.126 204.209 102.949 204.134 102.806Z" fill="#263238"/>
<path d="M185.332 84.18C185.373 84.7198 185.52 85.2463 185.764 85.7294C186.008 86.2124 186.346 86.6426 186.756 86.9952C187.871 87.9227 189.026 87.0765 189.197 85.7096C189.368 84.4729 188.994 82.5039 187.643 82.0808C187.169 81.9479 186.661 82.0086 186.23 82.2496C185.8 82.4905 185.483 82.8921 185.349 83.3663C185.283 83.6329 185.277 83.9109 185.332 84.18Z" fill="#FFC3BD"/>
</svg>
