<svg width="382" height="300" viewBox="0 0 382 300" fill="none" xmlns="http://www.w3.org/2000/svg">
<path d="M381.129 265.651H0.82373V265.841H381.129V265.651Z" fill="#EBEBEB"/>
<path d="M252.753 279.958H246.143V280.148H252.753V279.958Z" fill="#EBEBEB"/>
<path d="M132.576 270.504H114.946V270.694H132.576V270.504Z" fill="#EBEBEB"/>
<path d="M349.769 274.581H306.665V274.771H349.769V274.581Z" fill="#EBEBEB"/>
<path d="M76.4208 274.581H33.317V274.771H76.4208V274.581Z" fill="#EBEBEB"/>
<path d="M181.088 231.728H34.2222C33.0717 231.726 31.9689 231.267 31.1561 230.453C30.3432 229.639 29.8867 228.535 29.8867 227.385V20.9323C29.8967 19.7883 30.3577 18.6945 31.1694 17.8885C31.9812 17.0824 33.0782 16.6292 34.2222 16.6272H181.088C182.24 16.6272 183.345 17.0848 184.159 17.8993C184.974 18.7138 185.431 19.8184 185.431 20.9703V227.385C185.431 228.536 184.974 229.641 184.159 230.456C183.345 231.27 182.24 231.728 181.088 231.728ZM34.2222 16.7793C33.1221 16.7814 32.0677 17.2198 31.2905 17.9984C30.5134 18.777 30.0769 19.8322 30.0769 20.9323V227.385C30.0769 228.485 30.5134 229.54 31.2905 230.318C32.0677 231.097 33.1221 231.535 34.2222 231.537H181.088C182.189 231.535 183.244 231.097 184.023 230.319C184.801 229.541 185.239 228.485 185.241 227.385V20.9323C185.239 19.8315 184.801 18.7763 184.023 17.9979C183.244 17.2195 182.189 16.7814 181.088 16.7793H34.2222Z" fill="#EBEBEB"/>
<path d="M345.616 231.728H198.742C197.591 231.726 196.487 231.267 195.673 230.453C194.859 229.639 194.401 228.536 194.399 227.385V20.9323C194.411 19.7876 194.874 18.6939 195.687 17.888C196.5 17.0821 197.597 16.6292 198.742 16.6272H345.616C346.758 16.6312 347.853 17.0853 348.664 17.8911C349.474 18.697 349.934 19.7896 349.944 20.9323V227.385C349.944 228.534 349.488 229.636 348.677 230.45C347.866 231.264 346.765 231.724 345.616 231.728ZM198.742 16.7793C197.641 16.7814 196.586 17.2195 195.808 17.9979C195.029 18.7763 194.591 19.8315 194.589 20.9323V227.385C194.591 228.485 195.029 229.541 195.808 230.319C196.586 231.097 197.641 231.535 198.742 231.537H345.616C346.717 231.535 347.772 231.097 348.55 230.319C349.328 229.541 349.767 228.485 349.769 227.385V20.9323C349.767 19.8315 349.328 18.7763 348.55 17.9979C347.772 17.2195 346.717 16.7814 345.616 16.7793H198.742Z" fill="#EBEBEB"/>
<path d="M138.015 138.568H282.599C283.369 138.576 284.132 138.423 284.839 138.12C285.547 137.817 286.183 137.371 286.709 136.808C287.235 136.246 287.638 135.581 287.893 134.855C288.148 134.128 288.249 133.357 288.19 132.59L280.021 5.97874C279.892 4.36796 279.168 2.86289 277.989 1.75744C276.811 0.65198 275.262 0.0255058 273.647 0.000346472H129.07C128.3 -0.00825837 127.536 0.143503 126.828 0.445978C126.119 0.748454 125.482 1.19503 124.955 1.7573C124.429 2.31958 124.025 2.98526 123.769 3.71202C123.514 4.43878 123.413 5.21071 123.472 5.97874L131.649 132.59C131.777 134.199 132.5 135.703 133.677 136.809C134.854 137.914 136.4 138.541 138.015 138.568Z" fill="#EBEBEB"/>
<path d="M285.649 131.822L277.959 12.7558C277.881 11.6068 277.371 10.5301 276.531 9.74153C275.692 8.95297 274.585 8.51091 273.434 8.504H130.378C129.83 8.49582 129.286 8.60238 128.782 8.81685C128.277 9.03131 127.823 9.34894 127.448 9.74933C127.074 10.1497 126.787 10.624 126.606 11.1418C126.426 11.6595 126.356 12.2093 126.4 12.7558L134.09 131.822C134.176 132.969 134.688 134.042 135.525 134.831C136.363 135.619 137.466 136.065 138.616 136.081H281.671C282.22 136.088 282.764 135.981 283.268 135.765C283.773 135.55 284.227 135.232 284.602 134.831C284.976 134.43 285.263 133.955 285.443 133.437C285.624 132.919 285.694 132.368 285.649 131.822Z" fill="#FAFAFA"/>
<path d="M221.165 87.7747H265.25L260.633 13.0068H216.548L221.165 87.7747Z" fill="#F5F5F5"/>
<path d="M156.247 66.8808H187.242L183.994 14.3074H152.999L156.247 66.8808Z" fill="#F5F5F5"/>
<path d="M129.07 0.0307906H273.647C275.258 0.0552541 276.802 0.677471 277.98 1.77662C279.158 2.87578 279.885 4.37342 280.021 5.97876H123.472C123.417 5.21317 123.522 4.44455 123.779 3.72143C124.037 2.99831 124.441 2.33639 124.967 1.77746C125.493 1.21854 126.129 0.774752 126.836 0.474116C127.542 0.17348 128.303 0.0225291 129.07 0.0307906Z" fill="#F5F5F5"/>
<path d="M270.118 3.01997C270.147 3.40708 270.319 3.76952 270.6 4.03766C270.881 4.30581 271.251 4.46076 271.639 4.47274C271.826 4.47545 272.012 4.43899 272.185 4.36572C272.357 4.29244 272.512 4.18396 272.641 4.04721C272.769 3.91045 272.867 3.74845 272.929 3.57156C272.991 3.39468 273.015 3.2068 273 3.01997C272.971 2.63287 272.799 2.27043 272.518 2.00228C272.237 1.73414 271.867 1.57919 271.479 1.56721C271.292 1.56566 271.107 1.60289 270.935 1.67656C270.763 1.75024 270.608 1.85874 270.48 1.99524C270.352 2.13174 270.254 2.29327 270.191 2.46964C270.129 2.64602 270.104 2.8334 270.118 3.01997Z" fill="white"/>
<path d="M263.052 3.01999C263.081 3.4071 263.253 3.76954 263.534 4.03768C263.815 4.30583 264.185 4.46078 264.573 4.47276C264.76 4.47547 264.946 4.43901 265.119 4.36574C265.291 4.29246 265.446 4.18398 265.575 4.04723C265.703 3.91047 265.801 3.74847 265.863 3.57158C265.925 3.3947 265.949 3.20683 265.934 3.01999C265.904 2.63289 265.733 2.27045 265.452 2.0023C265.171 1.73416 264.801 1.57921 264.413 1.56723C264.226 1.56452 264.04 1.60098 263.867 1.67425C263.695 1.74753 263.539 1.85601 263.411 1.99276C263.283 2.12952 263.185 2.29152 263.123 2.46841C263.061 2.64529 263.037 2.83316 263.052 3.01999Z" fill="white"/>
<path d="M255.985 3.01999C256.015 3.4071 256.187 3.76954 256.468 4.03768C256.749 4.30583 257.119 4.46078 257.507 4.47276C257.694 4.47431 257.879 4.43708 258.051 4.3634C258.223 4.28973 258.378 4.18123 258.506 4.04472C258.634 3.90822 258.732 3.7467 258.794 3.57032C258.857 3.39395 258.882 3.20657 258.868 3.01999C258.838 2.63289 258.667 2.27045 258.386 2.0023C258.105 1.73416 257.735 1.57921 257.347 1.56723C257.16 1.56452 256.974 1.60098 256.801 1.67425C256.629 1.74753 256.473 1.85601 256.345 1.99276C256.217 2.12952 256.119 2.29152 256.057 2.46841C255.995 2.64529 255.971 2.83316 255.985 3.01999Z" fill="white"/>
<path d="M64.4715 196.131H243.496C244.451 196.141 245.397 195.953 246.274 195.578C247.152 195.203 247.942 194.65 248.594 193.953C249.247 193.256 249.747 192.432 250.063 191.531C250.38 190.631 250.506 189.674 250.433 188.723L240.309 32.0144C240.154 30.0188 239.259 28.153 237.8 26.7827C236.341 25.4123 234.423 24.6361 232.422 24.6061H53.397C52.441 24.5901 51.4923 24.7745 50.6119 25.1475C49.7316 25.5206 48.9391 26.0738 48.2856 26.7718C47.6321 27.4697 47.132 28.2968 46.8176 29.1998C46.5033 30.1027 46.3815 31.0615 46.4603 32.0144L56.5764 188.746C56.7405 190.737 57.6397 192.597 59.099 193.962C60.5584 195.327 62.4734 196.1 64.4715 196.131Z" fill="#F5F5F5"/>
<path d="M247.261 187.802L237.761 40.3659C237.651 38.9476 237.016 37.6215 235.979 36.6478C234.941 35.674 233.578 35.1229 232.156 35.1025H55.0172C54.3391 35.094 53.6667 35.227 53.043 35.4931C52.4192 35.7592 51.8579 36.1525 51.3947 36.6479C50.9316 37.1432 50.5769 37.7297 50.3533 38.3699C50.1297 39.0101 50.042 39.6899 50.0961 40.3659L59.6113 187.802C59.7157 189.225 60.3492 190.557 61.3868 191.535C62.4244 192.514 63.7909 193.068 65.217 193.089H242.355C243.034 193.094 243.706 192.958 244.329 192.689C244.952 192.421 245.512 192.025 245.974 191.528C246.436 191.03 246.789 190.442 247.01 189.801C247.232 189.159 247.317 188.479 247.261 187.802Z" fill="white"/>
<path d="M138.144 136.416H192.726L187.006 43.8419H132.424L138.144 136.416Z" fill="#F5F5F5"/>
<path d="M74.58 117.294H112.96L108.944 52.1934H70.5564L74.58 117.294Z" fill="#F5F5F5"/>
<path d="M73.5304 167.585H90.4692L88.6893 138.865H71.7582L73.5304 167.585Z" fill="#F5F5F5"/>
<path d="M95.6566 167.585H112.588L110.816 138.865H93.8844L95.6566 167.585Z" fill="#F5F5F5"/>
<path d="M53.397 24.6061H232.422C234.423 24.6361 236.341 25.4123 237.8 26.7827C239.259 28.153 240.154 30.0188 240.309 32.0144H46.4603C46.3815 31.0615 46.5033 30.1027 46.8176 29.1998C47.132 28.2968 47.6321 27.4697 48.2856 26.7718C48.9391 26.0738 49.7316 25.5206 50.6119 25.1475C51.4923 24.7745 52.441 24.5901 53.397 24.6061Z" fill="#EBEBEB"/>
<path d="M231.196 29.6112C231.866 28.92 231.811 27.7818 231.075 27.0689C230.338 26.3559 229.199 26.3383 228.53 27.0295C227.861 27.7206 227.915 28.8589 228.652 29.5718C229.388 30.2847 230.527 30.3023 231.196 29.6112Z" fill="white"/>
<path d="M219.301 28.3102C219.337 28.7939 219.553 29.2466 219.907 29.5789C220.26 29.9112 220.725 30.099 221.21 30.1052C221.445 30.1136 221.678 30.0722 221.895 29.9838C222.112 29.8954 222.308 29.7619 222.469 29.5923C222.631 29.4227 222.755 29.2208 222.833 28.9998C222.911 28.7788 222.941 28.5437 222.922 28.3102C222.885 27.8212 222.665 27.3643 222.305 27.0312C221.945 26.6982 221.472 26.5138 220.982 26.5152C220.751 26.5112 220.521 26.5558 220.307 26.6461C220.094 26.7365 219.902 26.8705 219.743 27.0397C219.585 27.2088 219.464 27.4092 219.388 27.6281C219.312 27.8469 219.282 28.0793 219.301 28.3102Z" fill="white"/>
<path d="M210.547 28.3102C210.586 28.794 210.804 29.2457 211.159 29.5775C211.513 29.9093 211.978 30.0974 212.463 30.1053C212.695 30.1081 212.924 30.0627 213.137 29.9719C213.35 29.8812 213.541 29.7471 213.699 29.5782C213.858 29.4094 213.979 29.2094 214.055 28.9911C214.132 28.7728 214.162 28.5409 214.144 28.3102C214.108 27.8252 213.891 27.3715 213.536 27.039C213.181 26.7065 212.714 26.5196 212.228 26.5152C211.996 26.5124 211.767 26.5578 211.554 26.6485C211.341 26.7393 211.15 26.8733 210.991 27.0422C210.833 27.2111 210.712 27.4111 210.636 27.6294C210.559 27.8477 210.529 28.0796 210.547 28.3102Z" fill="white"/>
<path d="M320.576 254.272H184.891C184.169 254.28 183.452 254.137 182.788 253.852C182.123 253.568 181.525 253.148 181.032 252.621C180.538 252.093 180.16 251.468 179.921 250.786C179.682 250.104 179.587 249.379 179.643 248.659L187.31 129.905C187.426 128.391 188.103 126.975 189.209 125.935C190.315 124.895 191.77 124.306 193.288 124.284H328.966C329.689 124.278 330.406 124.422 331.071 124.707C331.736 124.992 332.334 125.412 332.828 125.94C333.322 126.469 333.701 127.094 333.941 127.776C334.181 128.459 334.277 129.184 334.222 129.905L326.555 248.659C326.437 250.171 325.759 251.585 324.653 252.624C323.547 253.662 322.093 254.25 320.576 254.272Z" fill="#F5F5F5"/>
<path d="M182.062 247.944L189.272 136.233C189.354 135.158 189.834 134.152 190.62 133.413C191.405 132.674 192.438 132.256 193.517 132.24H327.741C328.256 132.233 328.766 132.334 329.24 132.535C329.713 132.737 330.14 133.035 330.491 133.411C330.843 133.787 331.112 134.232 331.281 134.718C331.451 135.204 331.517 135.72 331.476 136.233L324.258 247.944C324.178 249.02 323.698 250.027 322.912 250.766C322.126 251.505 321.092 251.923 320.014 251.937H185.789C185.275 251.943 184.765 251.842 184.293 251.639C183.82 251.437 183.395 251.139 183.044 250.763C182.693 250.387 182.425 249.942 182.256 249.457C182.086 248.972 182.02 248.456 182.062 247.944Z" fill="white"/>
<path d="M264.755 209.008H223.401L227.729 138.865H269.091L264.755 209.008Z" fill="#F5F5F5"/>
<path d="M307.464 244.377H263.196L267.836 169.297H312.103L307.464 244.377Z" fill="#F5F5F5"/>
<path d="M328.966 124.284H193.319C191.801 124.306 190.346 124.895 189.239 125.935C188.133 126.975 187.456 128.391 187.34 129.905H334.222C334.276 129.184 334.181 128.459 333.941 127.776C333.701 127.094 333.322 126.469 332.828 125.94C332.334 125.412 331.736 124.992 331.071 124.707C330.406 124.422 329.689 124.278 328.966 124.284Z" fill="#EBEBEB"/>
<path d="M196.627 127.091C196.601 127.457 196.438 127.801 196.17 128.053C195.902 128.305 195.55 128.447 195.182 128.452C195.007 128.455 194.832 128.421 194.67 128.352C194.509 128.284 194.363 128.182 194.243 128.054C194.122 127.926 194.03 127.774 193.972 127.608C193.914 127.442 193.891 127.266 193.905 127.091C193.943 126.727 194.11 126.389 194.377 126.139C194.644 125.889 194.992 125.744 195.357 125.729C195.533 125.726 195.707 125.76 195.868 125.829C196.03 125.898 196.175 126 196.295 126.128C196.414 126.256 196.506 126.408 196.563 126.574C196.621 126.74 196.642 126.916 196.627 127.091Z" fill="white"/>
<path d="M203.26 127.091C203.233 127.457 203.07 127.801 202.802 128.053C202.535 128.305 202.182 128.447 201.815 128.452C201.639 128.455 201.465 128.421 201.303 128.352C201.141 128.283 200.995 128.182 200.875 128.054C200.755 127.925 200.663 127.774 200.604 127.608C200.546 127.442 200.523 127.266 200.537 127.091C200.565 126.723 200.73 126.38 200.999 126.128C201.268 125.876 201.621 125.734 201.99 125.729C202.165 125.729 202.337 125.764 202.498 125.834C202.658 125.903 202.803 126.005 202.922 126.133C203.041 126.261 203.133 126.412 203.191 126.576C203.249 126.741 203.273 126.916 203.26 127.091Z" fill="white"/>
<path d="M209.892 127.091C209.861 127.45 209.699 127.786 209.437 128.034C209.175 128.282 208.831 128.425 208.47 128.437C208.295 128.44 208.121 128.406 207.959 128.337C207.798 128.268 207.652 128.166 207.533 128.038C207.413 127.91 207.322 127.758 207.264 127.592C207.207 127.426 207.185 127.25 207.2 127.075C207.228 126.709 207.392 126.367 207.659 126.115C207.926 125.863 208.278 125.72 208.645 125.714C208.819 125.716 208.991 125.755 209.15 125.827C209.309 125.898 209.451 126.002 209.568 126.131C209.685 126.26 209.774 126.412 209.83 126.577C209.886 126.742 209.907 126.917 209.892 127.091Z" fill="white"/>
<path d="M190.976 300C272.424 300 338.451 296.145 338.451 291.39C338.451 286.635 272.424 282.78 190.976 282.78C109.528 282.78 43.5015 286.635 43.5015 291.39C43.5015 296.145 109.528 300 190.976 300Z" fill="#F5F5F5"/>
<path d="M307.879 69.6748L307.371 76.3412L308.129 76.399L308.638 69.7326L307.879 69.6748Z" fill="#D93D00"/>
<path d="M309.858 44.1187L308.442 62.6539L309.2 62.7119L310.616 44.1766L309.858 44.1187Z" fill="#D93D00"/>
<path d="M310.148 15.4939H179.324L162.674 232.884H293.499L310.148 15.4939Z" fill="#D93D00"/>
<g opacity="0.7">
<path opacity="0.7" d="M305.227 10.1697H174.402L157.753 227.56H288.578L305.227 10.1697Z" fill="#D93D00"/>
<path opacity="0.9" d="M305.227 10.1697H174.402L157.753 227.56H288.578L305.227 10.1697Z" fill="white"/>
</g>
<path d="M209.832 35.3383H184.481L184.975 28.8579H210.326L209.832 35.3383Z" fill="#D93D00"/>
<path d="M252.943 49.5845H183.385L183.887 43.1041H253.437L252.943 49.5845Z" fill="white"/>
<path d="M274.651 35.3383H217.438L217.932 28.8579H275.153L274.651 35.3383Z" fill="white"/>
<path d="M246.021 78.0845H275.944L276.438 71.6117H246.523L246.021 78.0845Z" fill="white"/>
<path d="M263.668 57.3579H182.792L182.298 63.8383H263.173L263.668 57.3579Z" fill="white"/>
<path d="M181.202 78.0845H238.415L238.917 71.6117H181.704L181.202 78.0845Z" fill="#D93D00"/>
<path d="M205.466 92.3383H180.115L180.609 85.8579H205.96L205.466 92.3383Z" fill="#D93D00"/>
<path d="M223.264 106.585H179.02L179.514 100.112H223.759L223.264 106.585Z" fill="white"/>
<path d="M263.706 106.585H230.87L231.365 100.112H264.2L263.706 106.585Z" fill="white"/>
<path d="M270.285 92.3383H213.072L213.566 85.8579H270.787L270.285 92.3383Z" fill="white"/>
<path d="M241.656 135.092H271.578L272.072 128.612H242.158L241.656 135.092Z" fill="#D93D00"/>
<path d="M259.302 114.358H178.426L177.932 120.838H258.808L259.302 114.358Z" fill="white"/>
<path d="M176.836 135.092H234.049L234.551 128.612H177.331L176.836 135.092Z" fill="white"/>
<path opacity="0.4" d="M283.847 194.42H172.296L175.81 148.525H287.368L283.847 194.42Z" fill="white"/>
<path opacity="0.4" d="M283.109 204.049H171.558L170.584 216.728H282.143L283.109 204.049Z" fill="white"/>
<path d="M108.382 129.814L106.86 127.92C106.586 127.567 106.23 127.287 105.823 127.101C105.417 126.916 104.972 126.831 104.525 126.855L100.304 127.045C99.471 127.085 98.6597 127.324 97.9374 127.74C97.2151 128.157 96.6027 128.74 96.151 129.441L95.5806 130.323C97.8624 133.632 102.707 135.549 102.707 135.549L104.031 136.248C104.3 136.4 104.596 136.498 104.903 136.534C105.209 136.571 105.52 136.547 105.817 136.463C106.114 136.378 106.392 136.236 106.633 136.044C106.875 135.852 107.076 135.614 107.225 135.343L108.648 132.727C108.889 132.267 108.992 131.748 108.945 131.231C108.898 130.714 108.702 130.222 108.382 129.814Z" fill="#CE7A63"/>
<path d="M102.563 99.0242L101.863 100.013L101.103 101.108C100.608 101.869 100.099 102.629 99.5814 103.39C98.6002 104.911 97.6874 106.478 96.8127 108.045C95.938 109.612 95.1394 111.224 94.4092 112.837C93.679 114.449 93.0629 116.085 92.4925 117.728L92.6446 116.647C92.5305 116.647 92.4925 117.286 92.8652 118.169C93.3472 119.186 93.9471 120.144 94.6526 121.021C95.4686 122.072 96.3447 123.075 97.2767 124.025C98.2123 125.014 99.2847 126.026 100.22 126.961L100.41 127.144C100.873 127.6 101.167 128.2 101.244 128.845C101.321 129.49 101.176 130.142 100.834 130.695C100.492 131.247 99.9729 131.667 99.3611 131.885C98.7493 132.104 98.0814 132.108 97.4669 131.898C95.8949 131.366 94.3686 130.707 92.9032 129.928C91.4143 129.144 89.9945 128.236 88.659 127.212C87.1661 126.069 85.8377 124.725 84.7114 123.219C84.0525 122.302 83.506 121.308 83.0837 120.26C82.5808 118.997 82.3227 117.65 82.3231 116.29C82.325 116.05 82.3505 115.81 82.3992 115.575L82.4828 115.21C82.9286 113.061 83.5181 110.944 84.2475 108.874C84.5973 107.847 85.0081 106.851 85.4036 105.832C85.7991 104.812 86.2631 103.854 86.7347 102.896C87.6482 100.972 88.6638 99.098 89.7771 97.2824C90.3475 96.3849 90.9104 95.4797 91.5341 94.605C91.846 94.1715 92.1578 93.7303 92.4849 93.2968C92.8119 92.8632 93.1314 92.4601 93.5649 91.9201C94.4727 90.7097 95.8241 89.9095 97.3218 89.6956C98.8196 89.4816 100.341 89.8714 101.551 90.7792C102.762 91.6869 103.562 93.0383 103.776 94.5361C103.99 96.0338 103.6 97.5552 102.692 98.7656L102.563 99.0242Z" fill="#CE7A63"/>
<path d="M104.099 85.4321C106.237 90.3 106.64 97.8452 100.038 107.14C95.6718 107.611 87.0541 100.477 87.0541 100.477C87.0541 100.477 92.6293 84.9225 104.099 85.4321Z" fill="#D93D00"/>
<path d="M91.709 101.557C92.016 101.57 92.3219 101.513 92.6043 101.392C92.8866 101.271 93.1381 101.088 93.3403 100.856C93.5425 100.625 93.6902 100.351 93.7725 100.055C93.8548 99.7592 93.8696 99.4484 93.8159 99.1459C93.703 98.4953 93.3673 97.9042 92.8663 97.474C92.3653 97.0438 91.7303 96.8012 91.0701 96.788C90.757 96.7852 90.4472 96.852 90.1631 96.9836C89.879 97.1151 89.6276 97.3081 89.4271 97.5486C89.2306 97.7789 89.0866 98.0493 89.0052 98.3409C88.9237 98.6325 88.9068 98.9383 88.9556 99.2372C89.0779 99.8814 89.4185 100.464 89.92 100.886C90.4215 101.309 91.0533 101.546 91.709 101.557ZM89.7086 97.754C89.8799 97.5615 90.0912 97.4087 90.3276 97.3062C90.5641 97.2038 90.82 97.1541 91.0777 97.1607C91.6518 97.1701 92.2046 97.3797 92.6406 97.7532C93.0767 98.1268 93.3686 98.6409 93.466 99.2067C93.507 99.4548 93.4942 99.7089 93.4286 99.9516C93.363 100.194 93.2461 100.42 93.0857 100.614C92.9134 100.805 92.7019 100.957 92.4657 101.06C92.2295 101.162 91.974 101.212 91.7166 101.207C91.1437 101.193 90.5932 100.982 90.158 100.61C89.7228 100.237 89.4297 99.7251 89.3283 99.1611C89.2841 98.9118 89.2952 98.6559 89.3609 98.4114C89.4266 98.1669 89.5453 97.9399 89.7086 97.7464V97.754Z" fill="white"/>
<path d="M97.3451 89.6459C97.0351 89.6395 96.7275 89.7008 96.4438 89.8256C96.16 89.9504 95.9069 90.1357 95.7021 90.3684C95.5047 90.5982 95.3601 90.8685 95.2786 91.1603C95.1972 91.4521 95.1807 91.7582 95.2306 92.057C95.3448 92.707 95.6809 93.2973 96.1816 93.7272C96.6823 94.1572 97.3166 94.4002 97.9764 94.4149C98.2854 94.4202 98.592 94.3591 98.8754 94.2358C99.1589 94.1124 99.4125 93.9297 99.6193 93.6999C99.8138 93.467 99.9559 93.195 100.036 92.9024C100.116 92.6097 100.132 92.3032 100.083 92.0038C99.9706 91.3544 99.636 90.7643 99.1366 90.3342C98.6372 89.9042 98.0039 89.6608 97.3451 89.6459ZM99.3531 93.4489C99.182 93.6418 98.9708 93.7949 98.7343 93.8974C98.4978 93.9999 98.2416 94.0493 97.984 94.0422C97.4107 94.0299 96.8594 93.8193 96.4239 93.4462C95.9885 93.0732 95.6958 92.5607 95.5956 91.9961C95.5543 91.7487 95.5675 91.4952 95.6345 91.2534C95.7016 91.0116 95.8207 90.7875 95.9836 90.5966C96.1536 90.4025 96.3646 90.2486 96.6014 90.146C96.8381 90.0434 97.0948 89.9947 97.3527 90.0034C97.9268 90.0128 98.4796 90.2223 98.9156 90.5959C99.3517 90.9694 99.6436 91.4835 99.741 92.0494C99.7813 92.2968 99.7675 92.5501 99.7006 92.7917C99.6336 93.0333 99.515 93.2575 99.3531 93.4489Z" fill="white"/>
<path d="M97.657 106.288C97.616 106.04 97.6287 105.786 97.6943 105.543C97.7599 105.3 97.8769 105.075 98.0373 104.881C98.2105 104.691 98.4221 104.54 98.6581 104.437C98.8942 104.335 99.1492 104.284 99.4064 104.288C99.7728 104.296 100.133 104.385 100.46 104.55C100.788 104.714 101.075 104.949 101.3 105.238C101.369 105.124 101.422 105.018 101.49 104.911C101.231 104.611 100.912 104.368 100.553 104.199C100.194 104.03 99.8031 103.938 99.4064 103.93C99.0973 103.925 98.7907 103.986 98.5073 104.109C98.2239 104.233 97.9702 104.415 97.7634 104.645C97.5689 104.878 97.4268 105.15 97.3468 105.443C97.2667 105.735 97.2506 106.042 97.2995 106.341C97.3244 106.482 97.3574 106.622 97.3984 106.76L97.8471 106.889C97.7532 106.7 97.6891 106.497 97.657 106.288Z" fill="white"/>
<path d="M104.267 87.2575C104.433 87.2552 104.598 87.2374 104.761 87.2043L104.647 86.8544C104.521 86.866 104.393 86.866 104.267 86.8544C103.813 86.8435 103.372 86.7097 102.988 86.4672C102.605 86.2248 102.295 85.8827 102.091 85.4777L101.726 85.5309C101.942 86.03 102.296 86.4574 102.746 86.7631C103.196 87.0688 103.723 87.2403 104.267 87.2575Z" fill="white"/>
<path d="M103.924 99.1382C103.883 98.8896 103.896 98.6349 103.963 98.3919C104.03 98.1489 104.149 97.9234 104.312 97.7311C104.451 97.5707 104.622 97.4412 104.814 97.3508C104.852 97.1987 104.883 97.0618 104.913 96.9173C104.574 97.0264 104.272 97.2263 104.039 97.4953C103.841 97.7268 103.697 97.9984 103.616 98.2914C103.534 98.5843 103.518 98.8915 103.567 99.1915C103.616 99.5222 103.73 99.8401 103.902 100.127C103.962 99.9673 104.016 99.8152 104.077 99.6631C104.003 99.4956 103.952 99.3191 103.924 99.1382Z" fill="white"/>
<path d="M106.191 67.9076C108.07 72.8516 108.769 82.6711 106.191 85.4017C106.191 85.4017 111.994 84.314 121.479 90.1783C124.225 86.2383 122.187 85.4017 122.187 85.4017C116.862 84.1467 117.121 79.7199 117.767 76.0614L106.191 67.9076Z" fill="#CE7A63"/>
<path d="M124.164 60.7427C124.263 61.3892 124.666 61.8836 125.085 61.8532C125.503 61.8228 125.754 61.2752 125.663 60.6362C125.571 59.9973 125.161 59.4877 124.75 59.5258C124.339 59.5638 124.042 60.0962 124.164 60.7427Z" fill="#263238"/>
<path d="M124.567 59.5714L126.02 59.0161C126.02 59.0161 125.419 60.2787 124.567 59.5714Z" fill="#263238"/>
<path d="M124.309 61.9596C125.084 63.3919 126.04 64.7186 127.153 65.9072C126.393 66.7591 124.963 66.5005 124.963 66.5005L124.309 61.9596Z" fill="#BA4D3C"/>
<path d="M125.244 55.6162C125.263 55.5729 125.272 55.5263 125.272 55.4793C125.272 55.4322 125.263 55.3857 125.244 55.3424C125.23 55.2954 125.207 55.2516 125.176 55.2136C125.146 55.1755 125.108 55.144 125.064 55.1207C125.021 55.0973 124.974 55.0828 124.925 55.0777C124.877 55.0727 124.827 55.0773 124.78 55.0914C124.183 55.2246 123.625 55.4945 123.15 55.8799C122.675 56.2652 122.296 56.7556 122.042 57.3123C122.025 57.3576 122.017 57.4061 122.019 57.4547C122.022 57.5032 122.035 57.5506 122.057 57.5938C122.079 57.637 122.111 57.6749 122.149 57.705C122.187 57.7352 122.231 57.7569 122.278 57.7687C122.375 57.7971 122.479 57.7888 122.57 57.7453C122.661 57.7018 122.733 57.6262 122.772 57.5329C122.98 57.0944 123.285 56.7093 123.665 56.4073C124.045 56.1054 124.489 55.8946 124.963 55.7911C125.02 55.7846 125.075 55.7655 125.123 55.7352C125.172 55.705 125.213 55.6643 125.244 55.6162Z" fill="#263238"/>
<path d="M103.004 59.9364C104.434 67.5425 104.883 70.7903 109.226 74.4412C115.759 79.9328 124.735 77.0273 125.594 69.2691C126.355 62.2791 123.898 51.0145 116.056 48.4892C114.389 47.8911 112.592 47.75 110.852 48.0807C109.111 48.4114 107.491 49.2017 106.159 50.3697C104.828 51.5377 103.833 53.0408 103.278 54.723C102.723 56.4052 102.629 58.2053 103.004 59.9364Z" fill="#CE7A63"/>
<path d="M98.5166 46.8843C93.1923 47.0517 90.7051 52.5965 94.2952 55.0761C94.0974 52.916 96.2728 53.2202 96.2728 53.2202C96.2728 53.2202 97.4213 59.3964 91.9069 58.0805C92.113 59.0129 92.6186 59.8522 93.3466 60.4702C94.0745 61.0882 94.9846 61.451 95.9381 61.5033C95.9381 61.5033 93.2988 64.2491 96.2728 69.5353C98.3416 73.209 97.2235 77.4761 95.0786 76.1222C97.1703 78.9136 101.384 78.0465 101.818 75.8712C104.457 80.5185 110.945 82.0321 113.174 80.3283C111.523 79.6286 110.481 77.7423 111.333 76.8447C112.185 75.9472 119.897 78.404 122.057 81.4464C122.27 80.0089 123.282 75.7038 121.426 74.0989C127.336 76.7154 128.857 73.3383 129.032 71.9845C127.511 73.8936 120.491 70.0905 120.749 66.0365C118.635 65.4204 119.16 63.1386 119.989 61.9596C122.582 59.3964 123.031 55.5629 121.084 54.4904C126.02 54.3383 130.158 50.984 127.595 46.8843C126.75 49.8431 123.678 49.2727 122.057 47.5993C123.678 45.1273 122.59 41.3395 118.551 42.4424C114.512 43.5453 108.663 44.3591 108.511 40.4952C108.511 40.4952 104.426 41.446 105.157 44.7242C99.5434 43.0585 97.0866 45.2795 98.5166 46.8843Z" fill="#263238"/>
<path d="M116.847 63.5265C117.115 64.2174 117.524 64.8449 118.047 65.3687C118.571 65.8926 119.199 66.3014 119.89 66.5689C121.631 67.1546 122.529 65.177 122.073 63.1158C121.669 61.2599 120.27 58.7195 118.513 59.0389C116.756 59.3584 116.079 61.6858 116.847 63.5265Z" fill="#CE7A63"/>
<path d="M84.97 295.14C79.912 295.14 77.8127 292.782 74.7931 291.291C72.2222 290.013 70.99 290.203 68.9288 289.199C67.187 288.37 68.0084 286.712 69.4308 285.024C70.1457 284.172 70.3359 283.305 71.1954 281.745L79.9272 284.164C80.49 286.758 81.5016 290.386 86.6281 292.219C89.701 293.314 87.3583 295.14 84.97 295.14Z" fill="#263238"/>
<path d="M141.605 295.163C135.725 295.163 134.6 294.775 131.299 294.661C128.469 294.562 127.998 295.163 125.13 295.163C123.229 295.163 122.97 293.018 123.662 291.413C124.202 290.165 124.286 288.667 124.681 287.047H132.782C134.25 289.61 138.228 291.512 142.67 291.831C145.872 292.067 143.955 295.163 141.605 295.163Z" fill="#263238"/>
<path d="M134.737 135.001C134.737 135.001 135.908 177.276 133.406 204.125C133.558 229.324 132.782 287.032 132.782 287.032C132.592 288.317 125.83 287.792 124.681 287.032C124.681 287.032 112.025 244.993 117.646 204.125C103.575 161.485 106.609 135.001 106.609 135.001H134.737Z" fill="#D93D00"/>
<path opacity="0.2" d="M130.949 285.822C130.849 285.82 130.753 285.78 130.682 285.709C130.611 285.638 130.57 285.542 130.568 285.442C130.568 284.894 129.914 230.267 129.755 204.969C129.748 204.393 129.771 203.817 129.823 203.243C132.196 176.698 131.093 135.427 131.078 135.009C131.077 134.959 131.086 134.909 131.104 134.862C131.122 134.816 131.149 134.773 131.184 134.737C131.219 134.701 131.26 134.673 131.306 134.652C131.352 134.632 131.401 134.622 131.451 134.621C131.55 134.624 131.644 134.664 131.716 134.733C131.788 134.802 131.831 134.894 131.839 134.993C131.839 135.404 132.957 176.72 130.584 203.311C130.531 203.862 130.508 204.416 130.515 204.969C130.675 230.267 131.321 284.887 131.329 285.434C131.331 285.485 131.323 285.535 131.305 285.582C131.287 285.629 131.26 285.672 131.225 285.708C131.191 285.744 131.149 285.773 131.103 285.792C131.056 285.812 131.007 285.822 130.956 285.822H130.949Z" fill="white"/>
<path d="M106.997 206.148C112.565 182.714 126.301 135.001 126.301 135.001H102.464C102.464 135.001 86.6433 148.943 89.8379 207.259C89.4119 212.568 104.959 214.386 106.997 206.148Z" fill="#D93D00"/>
<path d="M106.708 207.031C106.021 207.32 105.361 207.671 104.738 208.08C104.717 207.648 104.575 207.231 104.329 206.875C104.083 206.519 103.743 206.238 103.346 206.065C102 205.669 100.35 207.259 99.665 209.609C99.6117 209.769 99.5889 209.921 99.5509 210.081C97.0028 207.936 91.1842 206.985 89.412 208.004C88.02 211.975 79.9652 227.78 87.1301 231.819C94.1506 235.729 100.418 231.294 102.631 225.498C104.845 219.702 108.496 209.739 106.708 207.031Z" fill="#D93D00"/>
<path opacity="0.5" d="M106.708 207.031C106.021 207.32 105.361 207.671 104.738 208.08C104.717 207.648 104.575 207.231 104.329 206.875C104.083 206.519 103.743 206.238 103.346 206.065C102 205.669 100.35 207.259 99.665 209.609C99.6117 209.769 99.5889 209.921 99.5509 210.081C97.0028 207.936 91.1842 206.985 89.412 208.004C88.02 211.975 79.9652 227.78 87.1301 231.819C94.1506 235.729 100.418 231.294 102.631 225.498C104.845 219.702 108.496 209.739 106.708 207.031Z" fill="white"/>
<path d="M87.1681 230.541L73.6521 280.498L77.4551 281.745L93.0857 232.595C93.0857 232.595 91.4199 229.727 87.1681 230.541Z" fill="#263238"/>
<path d="M81.5168 281.061C81.2367 282.153 81.0384 283.264 80.9235 284.385C80.9169 284.477 80.8917 284.567 80.8496 284.65C80.8075 284.732 80.7493 284.806 80.6783 284.865C80.6074 284.925 80.5252 284.969 80.4367 284.997C80.3482 285.024 80.2551 285.033 80.1629 285.024C76.8162 284.651 72.3819 282.628 70.9823 281.981C70.8525 281.918 70.7459 281.816 70.6776 281.689C70.6093 281.562 70.5828 281.417 70.602 281.274L70.9595 278.117C70.9697 278.016 71.0023 277.917 71.055 277.83C71.1077 277.742 71.1792 277.667 71.2643 277.61C71.3494 277.554 71.446 277.517 71.5472 277.502C71.6484 277.487 71.7516 277.494 71.8494 277.524L81.0528 280.255C81.2155 280.309 81.3526 280.421 81.4382 280.57C81.5237 280.718 81.5517 280.893 81.5168 281.061Z" fill="#D93D00"/>
<path d="M133.71 283.495C133.71 284.369 133.786 285.929 133.87 287.077C133.872 287.26 133.809 287.437 133.691 287.576C133.574 287.716 133.411 287.809 133.231 287.838C130.252 288.082 127.258 288.049 124.286 287.739C124.143 287.726 124.009 287.668 123.903 287.571C123.798 287.475 123.726 287.347 123.7 287.207L123.099 284.065C123.086 283.963 123.093 283.859 123.121 283.759C123.148 283.66 123.196 283.567 123.261 283.487C123.326 283.406 123.406 283.34 123.497 283.292C123.588 283.243 123.689 283.214 123.791 283.206L133.018 282.841C133.107 282.835 133.196 282.849 133.28 282.879C133.363 282.91 133.44 282.957 133.505 283.018C133.57 283.08 133.621 283.153 133.657 283.235C133.692 283.317 133.71 283.406 133.71 283.495Z" fill="#D93D00"/>
<path d="M136.562 97.0085C136.742 101.93 136.671 106.858 136.349 111.772C136.098 118.184 135.665 124.489 134.737 135.001H102.464C103.111 125.912 102.053 115.552 96.2574 95.0994C95.9165 94.0291 95.8191 92.8962 95.9723 91.7834C96.1256 90.6706 96.5256 89.6061 97.1431 88.6678C97.7606 87.7295 98.58 86.9411 99.5414 86.3602C100.503 85.7793 101.582 85.4206 102.7 85.3104C103.978 85.1811 105.332 85.0746 106.723 85.0061C111.6 84.6597 116.496 84.6597 121.373 85.0061C122.97 85.1506 124.621 85.356 126.195 85.5766C128.978 85.9899 131.532 87.3548 133.422 89.4391C135.313 91.5234 136.422 94.1983 136.562 97.0085Z" fill="#D93D00"/>
<path d="M97.3451 90.0033C97.9192 90.0127 98.472 90.2223 98.9081 90.5959C99.3441 90.9694 99.636 91.4835 99.7334 92.0494C99.7748 92.2963 99.7623 92.5492 99.6966 92.7908C99.631 93.0324 99.5138 93.2569 99.3531 93.4489C99.1821 93.6418 98.9709 93.7948 98.7344 93.8973C98.4978 93.9998 98.2417 94.0493 97.984 94.0422C97.5798 94.0331 97.184 93.9251 96.8313 93.7275C96.4785 93.5299 96.1797 93.2488 95.9608 92.9088C95.9608 93.1066 95.9608 93.3044 95.9608 93.5097C96.2172 93.7856 96.5264 94.0071 96.87 94.1613C97.2136 94.3155 97.5847 94.3991 97.9612 94.4072C98.2703 94.4126 98.5769 94.3515 98.8603 94.2281C99.1437 94.1048 99.3974 93.9221 99.6041 93.6923C99.7986 93.4594 99.9408 93.1874 100.021 92.8947C100.101 92.602 100.117 92.2956 100.068 91.9961C99.9552 91.3455 99.6195 90.7544 99.1185 90.3242C98.6176 89.894 97.9825 89.6515 97.3223 89.6382C97.0622 89.6412 96.8047 89.6901 96.5617 89.7827C96.4932 89.9425 96.4324 90.1022 96.3715 90.2695C96.6659 90.094 97.0024 90.002 97.3451 90.0033Z" fill="white"/>
<path d="M100.045 108.699C100.358 108.702 100.668 108.635 100.952 108.504C101.236 108.372 101.488 108.179 101.688 107.938C101.885 107.708 102.029 107.438 102.111 107.146C102.192 106.855 102.209 106.549 102.16 106.25C102.046 105.6 101.709 105.01 101.209 104.58C100.708 104.15 100.074 103.907 99.4139 103.892C99.1551 103.894 98.8984 103.938 98.6533 104.021C98.6533 104.143 98.7142 104.257 98.737 104.371C98.9505 104.299 99.1734 104.258 99.3987 104.25C99.9727 104.264 100.524 104.476 100.959 104.85C101.395 105.224 101.687 105.738 101.787 106.303C101.828 106.551 101.815 106.804 101.748 107.046C101.681 107.288 101.562 107.512 101.399 107.703C101.229 107.897 101.018 108.051 100.781 108.153C100.545 108.256 100.288 108.305 100.03 108.296C99.9084 108.304 99.7865 108.304 99.6649 108.296C99.6649 108.418 99.7182 108.539 99.7486 108.661C99.8422 108.669 99.9364 108.669 100.03 108.661L100.045 108.699Z" fill="white"/>
<path d="M103.864 120.625C103.908 120.869 103.899 121.119 103.836 121.359C103.772 121.598 103.657 121.821 103.498 122.01C103.339 122.2 103.14 122.352 102.915 122.456C102.69 122.56 102.445 122.613 102.198 122.611C102.198 122.732 102.198 122.846 102.236 122.968C102.524 122.961 102.808 122.894 103.07 122.772C103.332 122.651 103.565 122.477 103.757 122.261C103.953 122.03 104.096 121.759 104.176 121.468C104.256 121.176 104.271 120.871 104.221 120.572C104.113 119.947 103.798 119.375 103.326 118.95C102.854 118.525 102.253 118.272 101.62 118.23C101.62 118.351 101.62 118.473 101.673 118.595C102.209 118.649 102.713 118.877 103.108 119.243C103.504 119.61 103.769 120.095 103.864 120.625Z" fill="white"/>
<path d="M106.29 134.872C106.176 134.222 105.839 133.631 105.339 133.201C104.838 132.772 104.204 132.528 103.544 132.514C103.216 132.51 102.891 132.581 102.593 132.719C102.593 132.856 102.593 133.001 102.593 133.145C102.883 132.965 103.218 132.87 103.559 132.871C104.132 132.885 104.683 133.096 105.118 133.469C105.553 133.842 105.846 134.353 105.948 134.917V135.001H106.313C106.29 134.955 106.297 134.917 106.29 134.872Z" fill="white"/>
<path d="M104.267 87.2575C104.58 87.2587 104.889 87.1912 105.173 87.0598C105.457 86.9284 105.708 86.7362 105.91 86.4969C106.263 86.0726 106.435 85.5261 106.389 84.9757H106.024C106.064 85.4264 105.925 85.875 105.636 86.2231C105.463 86.4144 105.252 86.5664 105.016 86.6687C104.78 86.7711 104.524 86.8215 104.267 86.8164C103.796 86.8052 103.338 86.6606 102.946 86.3994C102.554 86.1382 102.245 85.7711 102.053 85.3408L101.688 85.4169C101.89 85.9425 102.243 86.3972 102.701 86.7244C103.159 87.0516 103.704 87.237 104.267 87.2575Z" fill="white"/>
<path d="M105.681 96.7804C105.374 96.7679 105.068 96.8244 104.785 96.9456C104.503 97.0668 104.251 97.2497 104.048 97.4809C103.845 97.7121 103.697 97.9857 103.614 98.2817C103.53 98.5777 103.514 98.8885 103.567 99.1915C103.681 99.8415 104.017 100.432 104.518 100.862C105.019 101.292 105.653 101.535 106.313 101.549C106.626 101.552 106.935 101.485 107.22 101.354C107.504 101.222 107.755 101.029 107.956 100.789C108.152 100.558 108.296 100.288 108.378 99.9965C108.459 99.7049 108.476 99.3991 108.427 99.1002C108.313 98.4502 107.977 97.86 107.476 97.43C106.975 97.0001 106.341 96.757 105.681 96.7424V96.7804ZM108.07 99.1839C108.112 99.4325 108.099 99.6874 108.032 99.9305C107.965 100.174 107.845 100.399 107.682 100.591C107.51 100.784 107.299 100.936 107.063 101.039C106.826 101.141 106.57 101.191 106.313 101.184C105.739 101.173 105.187 100.963 104.751 100.59C104.315 100.217 104.023 99.7035 103.924 99.1383C103.883 98.8896 103.896 98.6349 103.963 98.3919C104.03 98.1489 104.149 97.9234 104.312 97.7312C104.484 97.5387 104.695 97.3859 104.931 97.2834C105.168 97.1809 105.424 97.1313 105.681 97.1379C106.255 97.1487 106.807 97.3588 107.243 97.7321C107.679 98.1054 107.971 98.6187 108.07 99.1839Z" fill="white"/>
<path d="M108.382 115.841C108.691 115.846 108.998 115.784 109.282 115.659C109.565 115.535 109.819 115.35 110.024 115.119C110.222 114.888 110.366 114.616 110.446 114.323C110.527 114.029 110.541 113.722 110.488 113.422C110.376 112.772 110.04 112.181 109.539 111.751C109.038 111.32 108.403 111.078 107.743 111.065C107.433 111.057 107.126 111.117 106.842 111.24C106.558 111.364 106.305 111.548 106.1 111.78C105.902 112.011 105.758 112.282 105.678 112.576C105.598 112.869 105.583 113.176 105.636 113.476C105.749 114.126 106.084 114.717 106.585 115.148C107.086 115.578 107.721 115.82 108.382 115.834V115.841ZM105.993 113.43C105.948 113.182 105.959 112.927 106.025 112.684C106.09 112.44 106.21 112.214 106.374 112.023C106.545 111.83 106.756 111.678 106.993 111.575C107.229 111.473 107.485 111.423 107.743 111.43C108.316 111.441 108.868 111.651 109.304 112.024C109.74 112.397 110.032 112.911 110.131 113.476C110.176 113.724 110.165 113.979 110.1 114.222C110.034 114.466 109.915 114.691 109.751 114.883C109.579 115.075 109.368 115.227 109.131 115.33C108.895 115.432 108.639 115.482 108.382 115.476C107.808 115.465 107.256 115.255 106.82 114.882C106.384 114.509 106.092 113.995 105.993 113.43Z" fill="white"/>
<path d="M110.443 130.125C110.75 130.138 111.056 130.081 111.339 129.96C111.621 129.839 111.873 129.656 112.076 129.425C112.279 129.194 112.427 128.92 112.51 128.624C112.594 128.328 112.61 128.017 112.557 127.714C112.441 127.066 112.105 126.477 111.604 126.049C111.104 125.62 110.47 125.378 109.811 125.364C109.504 125.352 109.198 125.408 108.915 125.529C108.633 125.65 108.381 125.833 108.178 126.065C107.976 126.296 107.827 126.569 107.744 126.865C107.661 127.161 107.645 127.472 107.697 127.775C107.811 128.424 108.148 129.014 108.649 129.442C109.149 129.871 109.784 130.113 110.443 130.125ZM108.442 126.322C108.614 126.13 108.825 125.977 109.061 125.875C109.298 125.772 109.554 125.723 109.811 125.729C110.385 125.741 110.936 125.952 111.371 126.325C111.807 126.698 112.1 127.211 112.2 127.775C112.242 128.024 112.229 128.279 112.162 128.522C112.095 128.765 111.975 128.99 111.812 129.182C111.641 129.375 111.429 129.528 111.193 129.63C110.956 129.733 110.7 129.782 110.443 129.776C109.869 129.765 109.317 129.555 108.881 129.181C108.446 128.808 108.153 128.295 108.054 127.73C108.011 127.48 108.024 127.223 108.091 126.979C108.158 126.734 108.278 126.508 108.442 126.315V126.322Z" fill="white"/>
<path d="M111.949 89.6459C111.642 89.6334 111.336 89.6899 111.053 89.8111C110.77 89.9323 110.518 90.1152 110.316 90.3463C110.113 90.5775 109.965 90.8511 109.881 91.1471C109.798 91.4431 109.782 91.754 109.834 92.057C109.95 92.7056 110.287 93.2941 110.788 93.7225C111.288 94.151 111.921 94.3929 112.58 94.4073C112.887 94.4197 113.194 94.3633 113.476 94.2421C113.759 94.1209 114.011 93.938 114.213 93.7068C114.416 93.4756 114.565 93.202 114.648 92.906C114.731 92.61 114.747 92.2991 114.695 91.9961C114.58 91.3469 114.244 90.7576 113.743 90.3289C113.242 89.9002 112.608 89.6588 111.949 89.6459ZM113.957 93.4489C113.784 93.6412 113.571 93.7937 113.333 93.8961C113.096 93.9985 112.839 94.0484 112.58 94.0422C112.007 94.0299 111.456 93.8193 111.02 93.4462C110.585 93.0732 110.292 92.5607 110.192 91.9961C110.15 91.7475 110.163 91.4927 110.23 91.2496C110.297 91.0065 110.416 90.781 110.58 90.589C110.751 90.3965 110.962 90.2437 111.199 90.1413C111.435 90.0388 111.691 89.9891 111.949 89.9957C112.523 90.0066 113.075 90.2167 113.51 90.59C113.946 90.9633 114.238 91.4765 114.337 92.0418C114.379 92.2899 114.366 92.544 114.301 92.7868C114.235 93.0297 114.118 93.2555 113.957 93.4489Z" fill="white"/>
<path d="M114.649 108.661C114.958 108.669 115.266 108.609 115.55 108.485C115.833 108.362 116.087 108.178 116.292 107.946C116.489 107.715 116.633 107.443 116.715 107.15C116.796 106.857 116.813 106.55 116.764 106.25C116.649 105.601 116.313 105.011 115.812 104.583C115.311 104.154 114.677 103.913 114.018 103.9C113.708 103.893 113.401 103.953 113.118 104.077C112.834 104.2 112.581 104.384 112.375 104.615C112.179 104.846 112.035 105.118 111.955 105.411C111.875 105.704 111.86 106.011 111.911 106.311C112.025 106.959 112.36 107.547 112.86 107.976C113.359 108.404 113.991 108.646 114.649 108.661ZM112.633 104.858C112.806 104.667 113.017 104.515 113.253 104.412C113.49 104.31 113.745 104.26 114.003 104.265C114.575 104.278 115.126 104.49 115.561 104.862C115.996 105.235 116.289 105.747 116.391 106.311C116.433 106.559 116.42 106.814 116.353 107.057C116.286 107.3 116.166 107.526 116.003 107.718C115.832 107.91 115.62 108.063 115.384 108.166C115.147 108.268 114.891 108.318 114.634 108.311C114.06 108.3 113.508 108.09 113.072 107.717C112.637 107.344 112.344 106.83 112.246 106.265C112.205 106.017 112.219 105.762 112.286 105.519C112.353 105.276 112.471 105.051 112.633 104.858Z" fill="white"/>
<path d="M116.71 122.976C117.018 122.988 117.324 122.932 117.606 122.811C117.889 122.689 118.141 122.506 118.343 122.275C118.546 122.044 118.695 121.77 118.778 121.474C118.861 121.178 118.877 120.868 118.825 120.565C118.711 119.915 118.374 119.324 117.874 118.894C117.373 118.464 116.739 118.221 116.079 118.207C115.769 118.199 115.461 118.26 115.177 118.385C114.893 118.51 114.64 118.696 114.436 118.929C114.24 119.16 114.096 119.43 114.014 119.722C113.933 120.013 113.916 120.319 113.964 120.618C114.079 121.268 114.415 121.858 114.915 122.288C115.416 122.718 116.05 122.961 116.71 122.976ZM114.71 119.173C114.881 118.98 115.092 118.827 115.329 118.725C115.565 118.623 115.821 118.573 116.079 118.579C116.653 118.59 117.205 118.8 117.64 119.174C118.076 119.547 118.369 120.06 118.467 120.625C118.508 120.874 118.496 121.128 118.43 121.37C118.364 121.613 118.247 121.839 118.087 122.033C117.914 122.225 117.701 122.377 117.464 122.48C117.226 122.582 116.969 122.632 116.71 122.626C116.137 122.614 115.586 122.403 115.15 122.03C114.715 121.657 114.422 121.144 114.322 120.58C114.279 120.33 114.291 120.074 114.358 119.829C114.425 119.585 114.545 119.358 114.71 119.165V119.173Z" fill="white"/>
<path d="M120.894 134.857C120.779 134.207 120.443 133.616 119.943 133.186C119.442 132.756 118.808 132.513 118.148 132.499C117.838 132.493 117.53 132.554 117.247 132.679C116.963 132.804 116.71 132.989 116.505 133.221C116.309 133.452 116.166 133.723 116.086 134.014C116.006 134.306 115.991 134.611 116.041 134.91C116.037 134.94 116.037 134.971 116.041 135.001H116.436C116.436 134.955 116.436 134.91 116.436 134.864C116.395 134.616 116.407 134.362 116.473 134.119C116.539 133.876 116.656 133.65 116.817 133.457C116.989 133.266 117.2 133.114 117.437 133.011C117.673 132.909 117.928 132.859 118.186 132.864C118.759 132.876 119.31 133.087 119.746 133.46C120.181 133.833 120.474 134.345 120.574 134.91V135.001H120.932C120.923 134.952 120.91 134.904 120.894 134.857Z" fill="white"/>
<path d="M116.102 84.8844C116.216 85.5344 116.552 86.1247 117.053 86.5546C117.554 86.9846 118.188 87.2276 118.848 87.2423C119.157 87.2491 119.464 87.1887 119.748 87.0653C120.031 86.9418 120.285 86.7583 120.491 86.5273C120.841 86.1019 121.011 85.5554 120.962 85.0061H120.605C120.635 85.2439 120.616 85.4853 120.549 85.7155C120.482 85.9457 120.369 86.1599 120.217 86.3448C120.044 86.536 119.833 86.688 119.597 86.7904C119.361 86.8928 119.105 86.9431 118.848 86.938C118.275 86.9243 117.724 86.7132 117.289 86.3404C116.854 85.9676 116.561 85.456 116.459 84.892V84.8083H116.094C116.102 84.7931 116.094 84.8388 116.102 84.8844Z" fill="white"/>
<path d="M120.277 96.7652C119.968 96.7593 119.66 96.8209 119.377 96.9456C119.093 97.0704 118.84 97.2554 118.635 97.4877C118.441 97.7195 118.299 97.9902 118.219 98.2815C118.139 98.5729 118.122 98.878 118.171 99.1763C118.283 99.8269 118.619 100.418 119.12 100.848C119.621 101.278 120.256 101.521 120.916 101.534C121.226 101.541 121.533 101.481 121.816 101.357C122.1 101.234 122.354 101.05 122.559 100.819C122.756 100.588 122.901 100.316 122.982 100.023C123.064 99.7302 123.08 99.4231 123.031 99.123C122.917 98.473 122.581 97.8828 122.08 97.4528C121.579 97.0229 120.945 96.7798 120.285 96.7652H120.277ZM122.673 99.1763C122.715 99.4249 122.702 99.6796 122.635 99.9227C122.568 100.166 122.449 100.391 122.286 100.583C122.114 100.776 121.903 100.929 121.666 101.031C121.43 101.134 121.174 101.183 120.916 101.177C120.343 101.166 119.791 100.956 119.355 100.582C118.919 100.209 118.627 99.6959 118.528 99.1307C118.487 98.8826 118.499 98.6284 118.565 98.3856C118.63 98.1428 118.748 97.9169 118.908 97.7235C119.081 97.5322 119.292 97.3802 119.528 97.2779C119.765 97.1755 120.02 97.1252 120.277 97.1302C120.852 97.1408 121.405 97.3506 121.842 97.7238C122.279 98.097 122.573 98.6104 122.673 99.1763Z" fill="white"/>
<path d="M122.346 111.057C122.036 111.05 121.728 111.111 121.444 111.235C121.161 111.36 120.908 111.546 120.703 111.78C120.506 112.01 120.362 112.28 120.281 112.572C120.199 112.863 120.183 113.169 120.232 113.468C120.346 114.118 120.682 114.708 121.183 115.138C121.684 115.568 122.318 115.811 122.978 115.826C123.287 115.831 123.593 115.77 123.877 115.647C124.16 115.524 124.414 115.341 124.621 115.111C124.815 114.878 124.957 114.606 125.037 114.314C125.117 114.021 125.133 113.714 125.085 113.415C124.972 112.766 124.637 112.175 124.138 111.745C123.639 111.315 123.005 111.072 122.346 111.057ZM124.354 114.86C124.181 115.05 123.97 115.201 123.734 115.304C123.498 115.406 123.243 115.457 122.985 115.453C122.411 115.439 121.86 115.227 121.425 114.853C120.989 114.478 120.697 113.965 120.597 113.4C120.556 113.152 120.569 112.899 120.636 112.657C120.703 112.415 120.822 112.191 120.985 112C121.155 111.806 121.366 111.652 121.603 111.55C121.839 111.447 122.096 111.398 122.354 111.407C122.928 111.416 123.481 111.626 123.917 111.999C124.353 112.373 124.645 112.887 124.742 113.453C124.785 113.704 124.772 113.961 124.705 114.207C124.638 114.452 124.518 114.68 124.354 114.875V114.86Z" fill="white"/>
<path d="M125.046 130.118C125.356 130.125 125.663 130.064 125.946 129.941C126.23 129.817 126.484 129.634 126.689 129.403C126.887 129.171 127.031 128.9 127.112 128.607C127.194 128.314 127.21 128.007 127.161 127.707C127.047 127.057 126.711 126.466 126.21 126.037C125.709 125.607 125.075 125.364 124.415 125.349C124.106 125.344 123.799 125.405 123.516 125.528C123.233 125.651 122.979 125.834 122.772 126.064C122.578 126.297 122.436 126.569 122.356 126.861C122.276 127.154 122.259 127.461 122.308 127.76C122.422 128.409 122.757 128.998 123.256 129.428C123.755 129.858 124.388 130.101 125.046 130.118ZM123.038 126.315C123.209 126.122 123.421 125.969 123.657 125.866C123.894 125.764 124.15 125.714 124.408 125.722C124.981 125.734 125.532 125.944 125.968 126.318C126.403 126.691 126.696 127.203 126.796 127.768C126.837 128.015 126.824 128.269 126.757 128.51C126.69 128.752 126.571 128.976 126.408 129.167C126.238 129.361 126.027 129.515 125.79 129.618C125.553 129.72 125.297 129.769 125.039 129.76C124.465 129.751 123.912 129.541 123.476 129.168C123.04 128.794 122.748 128.28 122.651 127.714C122.609 127.466 122.622 127.211 122.689 126.968C122.756 126.725 122.875 126.499 123.038 126.307V126.315Z" fill="white"/>
<path d="M124.438 92.0266C124.552 92.6766 124.888 93.2669 125.389 93.6968C125.89 94.1268 126.524 94.3698 127.184 94.3845C127.494 94.3919 127.802 94.331 128.086 94.2062C128.37 94.0813 128.623 93.8955 128.827 93.6619C129.024 93.4321 129.169 93.1618 129.25 92.87C129.332 92.5783 129.348 92.2722 129.298 91.9733C129.184 91.3233 128.848 90.7331 128.347 90.3031C127.847 89.8732 127.212 89.6301 126.553 89.6155C126.243 89.6086 125.936 89.669 125.653 89.7925C125.369 89.9159 125.115 90.0995 124.91 90.3304C124.712 90.5619 124.568 90.8335 124.487 91.1265C124.405 91.4194 124.389 91.7266 124.438 92.0266ZM126.553 89.9806C127.126 89.9929 127.677 90.2034 128.113 90.5765C128.548 90.9495 128.841 91.462 128.941 92.0266C128.982 92.274 128.969 92.5276 128.902 92.7693C128.835 93.0111 128.716 93.2353 128.553 93.4261C128.383 93.6202 128.172 93.7742 127.935 93.8768C127.698 93.9794 127.442 94.0281 127.184 94.0194C126.61 94.01 126.057 93.8004 125.621 93.4269C125.185 93.0533 124.893 92.5392 124.796 91.9733C124.755 91.7252 124.767 91.4712 124.833 91.2285C124.899 90.9857 125.015 90.7599 125.176 90.5662C125.349 90.3749 125.562 90.2235 125.8 90.1224C126.038 90.0213 126.294 89.9729 126.553 89.9806Z" fill="white"/>
<path d="M129.245 108.661C129.558 108.662 129.867 108.595 130.151 108.463C130.435 108.332 130.686 108.14 130.888 107.9C131.084 107.67 131.227 107.399 131.307 107.108C131.387 106.816 131.402 106.51 131.352 106.212C131.239 105.561 130.903 104.97 130.402 104.54C129.901 104.11 129.266 103.867 128.606 103.854C128.297 103.848 127.99 103.908 127.706 104.032C127.423 104.155 127.169 104.338 126.963 104.569C126.766 104.8 126.622 105.072 126.54 105.365C126.459 105.658 126.442 105.965 126.492 106.265C126.598 106.923 126.932 107.523 127.435 107.961C127.938 108.399 128.578 108.647 129.245 108.661ZM127.245 104.858C127.417 104.667 127.628 104.515 127.865 104.412C128.101 104.31 128.356 104.26 128.614 104.265C129.187 104.276 129.739 104.486 130.175 104.859C130.611 105.232 130.903 105.746 131.002 106.311C131.045 106.559 131.033 106.813 130.968 107.056C130.902 107.3 130.784 107.525 130.622 107.718C130.451 107.911 130.24 108.064 130.003 108.166C129.766 108.269 129.51 108.318 129.253 108.311C128.679 108.299 128.128 108.088 127.693 107.715C127.257 107.342 126.964 106.83 126.864 106.265C126.822 106.017 126.834 105.763 126.899 105.52C126.965 105.277 127.083 105.051 127.245 104.858Z" fill="white"/>
<path d="M131.314 122.968C131.624 122.976 131.932 122.915 132.216 122.79C132.5 122.665 132.753 122.479 132.957 122.246C133.154 122.015 133.298 121.745 133.379 121.453C133.46 121.162 133.477 120.856 133.429 120.557C133.314 119.907 132.978 119.317 132.478 118.887C131.977 118.457 131.343 118.214 130.683 118.199C130.376 118.187 130.069 118.243 129.787 118.364C129.504 118.486 129.252 118.668 129.05 118.9C128.847 119.131 128.698 119.404 128.615 119.7C128.532 119.996 128.516 120.307 128.568 120.61C128.683 121.26 129.019 121.851 129.519 122.28C130.02 122.71 130.654 122.953 131.314 122.968ZM129.306 119.165C129.479 118.973 129.692 118.82 129.93 118.718C130.167 118.615 130.424 118.566 130.683 118.572C131.256 118.584 131.807 118.795 132.243 119.168C132.678 119.541 132.971 120.053 133.071 120.618C133.113 120.866 133.1 121.121 133.033 121.364C132.966 121.608 132.847 121.833 132.683 122.025C132.512 122.217 132.301 122.37 132.064 122.473C131.828 122.575 131.572 122.625 131.314 122.618C130.74 122.609 130.187 122.399 129.751 122.026C129.315 121.652 129.023 121.138 128.926 120.572C128.883 120.322 128.894 120.065 128.96 119.819C129.025 119.574 129.144 119.345 129.306 119.15V119.165Z" fill="white"/>
<path d="M132.744 132.491C132.435 132.483 132.127 132.543 131.843 132.667C131.56 132.79 131.306 132.974 131.101 133.206C130.904 133.437 130.76 133.709 130.678 134.002C130.597 134.295 130.58 134.602 130.629 134.902V135.001H130.995C130.995 134.948 130.995 134.902 130.957 134.849C130.915 134.6 130.928 134.346 130.995 134.103C131.062 133.86 131.181 133.634 131.344 133.442C131.516 133.249 131.727 133.096 131.964 132.994C132.2 132.892 132.456 132.842 132.714 132.848C133.133 132.859 133.542 132.974 133.905 133.184C134.268 133.394 134.572 133.692 134.79 134.05L134.836 133.503C134.578 133.196 134.258 132.948 133.898 132.774C133.537 132.599 133.144 132.503 132.744 132.491Z" fill="white"/>
<path d="M134.881 97.1151C135.529 97.1343 136.144 97.4075 136.593 97.8757C136.593 97.7083 136.593 97.541 136.593 97.3813C136.11 96.997 135.513 96.7831 134.896 96.7728C134.587 96.7649 134.28 96.8249 133.996 96.9484C133.712 97.0719 133.459 97.256 133.254 97.4878C133.056 97.7188 132.912 97.9906 132.832 98.2839C132.751 98.5771 132.737 98.8845 132.79 99.1839C132.902 99.8345 133.238 100.426 133.739 100.856C134.24 101.286 134.875 101.529 135.535 101.542C135.934 101.536 136.324 101.429 136.669 101.23V100.804C136.342 101.05 135.944 101.181 135.535 101.177C134.962 101.166 134.41 100.956 133.974 100.582C133.538 100.209 133.246 99.6959 133.147 99.1307C133.102 98.8826 133.113 98.6277 133.179 98.3844C133.245 98.1411 133.364 97.9153 133.527 97.7235C133.696 97.5307 133.904 97.3764 134.138 97.2714C134.371 97.1664 134.625 97.1131 134.881 97.1151Z" fill="white"/>
<path d="M135.193 113.407C135.151 113.159 135.164 112.904 135.231 112.661C135.298 112.418 135.418 112.192 135.581 112C135.784 111.768 136.047 111.597 136.342 111.506V111.118C135.923 111.215 135.545 111.441 135.262 111.764C135.064 111.996 134.92 112.267 134.839 112.56C134.757 112.853 134.741 113.161 134.79 113.461C134.859 113.865 135.016 114.25 135.25 114.588C135.484 114.926 135.789 115.208 136.144 115.415V114.989C135.888 114.802 135.673 114.565 135.509 114.294C135.346 114.022 135.239 113.721 135.193 113.407Z" fill="white"/>
<path d="M102.631 131.008C109.081 132.658 118.916 133.13 135.049 131.411C134.661 139.968 138.418 197.508 138.418 197.508C138.418 197.508 105.712 204.696 87.229 194.937C86.012 151.453 102.631 131.008 102.631 131.008Z" fill="#263238"/>
<path opacity="0.2" d="M114.976 165.707C114.976 165.707 106.1 157.439 101.711 151.795C102.061 157.713 107.355 163.022 114.976 165.707Z" fill="black"/>
<path opacity="0.6" d="M172.592 100.386C168.528 97.9747 165.271 94.4124 163.232 90.1496C161.193 85.8867 160.465 81.1148 161.139 76.4379C161.813 71.7609 163.86 67.389 167.019 63.8754C170.179 60.3619 174.31 57.8645 178.889 56.6994C183.469 55.5343 188.291 55.7539 192.745 57.3302C197.2 58.9066 201.087 61.7689 203.914 65.5551C206.742 69.3412 208.382 73.881 208.629 78.5998C208.875 83.3187 207.716 88.0046 205.298 92.0646C202.06 97.4996 196.797 101.428 190.666 102.988C184.534 104.548 178.035 103.612 172.592 100.386Z" fill="#D93D00"/>
<path d="M168.737 70.7473L168.824 69.5124C169.914 68.8462 170.73 68.1335 171.271 67.3742L172.092 67.261L171.597 74.3746L170.242 74.5614L170.584 69.6614C170.327 69.8814 170.025 70.0919 169.677 70.2927C169.332 70.4932 169.019 70.6447 168.737 70.7473ZM173.796 71.7929C173.701 71.1023 173.721 70.3861 173.858 69.6444C174.026 68.7392 174.306 68.0446 174.698 67.5607C175.09 67.0768 175.561 66.7969 176.111 66.721C176.667 66.6443 177.151 66.7829 177.563 67.1369C177.978 67.4904 178.238 68.0516 178.344 68.8203C178.441 69.5234 178.412 70.2852 178.258 71.1058C178.107 71.9227 177.838 72.5712 177.452 73.0512C177.065 73.528 176.594 73.8047 176.038 73.8815C175.482 73.9582 174.994 73.82 174.576 73.4669C174.161 73.1133 173.901 72.5553 173.796 71.7929ZM175.155 71.8824C175.206 72.2511 175.301 72.5023 175.441 72.6359C175.58 72.7695 175.744 72.8234 175.931 72.7976C176.181 72.7631 176.387 72.6169 176.549 72.3589C176.766 72.0137 176.911 71.3727 176.986 70.4358C177.046 69.692 177.047 69.1091 176.988 68.6873C176.941 68.3435 176.846 68.1051 176.703 67.9719C176.564 67.8351 176.4 67.7797 176.212 67.8056C175.975 67.8383 175.78 67.9815 175.627 68.235C175.401 68.6037 175.247 69.2189 175.165 70.0804C175.096 70.8255 175.092 71.4262 175.155 71.8824ZM179.14 71.0558C179.044 70.3652 179.065 69.6491 179.202 68.9074C179.37 68.0021 179.65 67.3076 180.041 66.8236C180.433 66.3397 180.904 66.0598 181.454 65.984C182.01 65.9072 182.494 66.0459 182.906 66.3998C183.321 66.7534 183.582 67.3145 183.688 68.0832C183.785 68.7863 183.756 69.5482 183.602 70.3687C183.45 71.1857 183.181 71.8342 182.795 72.3141C182.409 72.7909 181.938 73.0677 181.381 73.1444C180.825 73.2211 180.338 73.0829 179.92 72.7298C179.505 72.3763 179.245 71.8183 179.14 71.0558ZM180.499 71.1454C180.55 71.5141 180.645 71.7653 180.784 71.8989C180.924 72.0325 181.087 72.0864 181.275 72.0605C181.525 72.026 181.731 71.8798 181.893 71.6218C182.109 71.2767 182.255 70.6357 182.329 69.6987C182.389 68.9549 182.39 68.3721 182.332 67.9502C182.284 67.6065 182.189 67.368 182.047 67.2348C181.907 67.0981 181.743 67.0426 181.556 67.0685C181.318 67.1013 181.123 67.2444 180.97 67.498C180.744 67.8667 180.59 68.4818 180.508 69.3433C180.439 70.0884 180.436 70.6891 180.499 71.1454ZM184.483 70.3188C184.388 69.6282 184.409 68.912 184.545 68.1704C184.713 67.2651 184.993 66.5705 185.385 66.0866C185.777 65.6027 186.248 65.3228 186.798 65.2469C187.354 65.1702 187.838 65.3088 188.25 65.6628C188.665 66.0163 188.925 66.5775 189.031 67.3462C189.128 68.0493 189.1 68.8111 188.945 69.6317C188.794 70.4487 188.525 71.0971 188.139 71.5771C187.752 72.0539 187.281 72.3307 186.725 72.4074C186.169 72.4841 185.681 72.3459 185.263 71.9928C184.848 71.6392 184.588 71.0812 184.483 70.3188ZM185.843 70.4083C185.893 70.777 185.989 71.0282 186.128 71.1618C186.267 71.2955 186.431 71.3493 186.618 71.3235C186.868 71.289 187.074 71.1428 187.236 70.8848C187.453 70.5397 187.598 69.8986 187.673 68.9617C187.733 68.2179 187.734 67.635 187.675 67.2132C187.628 66.8694 187.533 66.631 187.39 66.4978C187.251 66.361 187.087 66.3056 186.899 66.3315C186.662 66.3642 186.467 66.5074 186.314 66.7609C186.088 67.1297 185.934 67.7448 185.852 68.6063C185.783 69.3514 185.78 69.9521 185.843 70.4083ZM190.111 67.7991L190.199 66.5642C191.288 65.8981 192.104 65.1853 192.645 64.426L193.466 64.3128L192.971 71.4264L191.616 71.6133L191.958 66.7132C191.702 66.9333 191.4 67.1437 191.051 67.3446C190.707 67.545 190.393 67.6965 190.111 67.7991ZM194.742 67.1603L194.83 65.9254C195.919 65.2593 196.735 64.5466 197.277 63.7872L198.097 63.6741L197.602 70.7877L196.247 70.9745L196.589 66.0745C196.333 66.2945 196.031 66.505 195.683 66.7058C195.338 66.9062 195.024 67.0577 194.742 67.1603ZM199.373 66.5215L199.461 65.2867C200.55 64.6205 201.366 63.9078 201.908 63.1484L202.728 63.0353L202.233 70.1489L200.879 70.3357L201.22 65.4357C200.964 65.6557 200.662 65.8662 200.314 66.067C199.969 66.2675 199.655 66.419 199.373 66.5215ZM204.432 67.5671C204.337 66.8765 204.358 66.1604 204.494 65.4187C204.662 64.5135 204.942 63.8189 205.334 63.335C205.726 62.851 206.197 62.5712 206.747 62.4953C207.303 62.4186 207.787 62.5572 208.199 62.9112C208.614 63.2647 208.874 63.8258 208.98 64.5946C209.077 65.2977 209.049 66.0595 208.895 66.88C208.743 67.697 208.474 68.3455 208.088 68.8254C207.702 69.3023 207.23 69.579 206.674 69.6558C206.118 69.7325 205.631 69.5943 205.213 69.2412C204.798 68.8876 204.538 68.3296 204.432 67.5671ZM205.792 67.6567C205.843 68.0254 205.938 68.2766 206.077 68.4102C206.217 68.5438 206.38 68.5977 206.568 68.5718C206.818 68.5374 207.024 68.3911 207.185 68.1332C207.402 67.788 207.548 67.147 207.622 66.2101C207.682 65.4662 207.683 64.8834 207.625 64.4615C207.577 64.1178 207.482 63.8793 207.34 63.7462C207.2 63.6094 207.036 63.554 206.849 63.5798C206.611 63.6126 206.416 63.7558 206.263 64.0093C206.037 64.378 205.883 64.9932 205.801 65.8547C205.732 66.5998 205.729 67.2005 205.792 67.6567ZM170.24 81.6441L170.327 80.4092C171.417 79.7431 172.233 79.0303 172.774 78.271L173.595 78.1578L173.1 85.2714L171.745 85.4583L172.087 80.5582C171.83 80.7783 171.528 80.9887 171.18 81.1896C170.835 81.39 170.522 81.5415 170.24 81.6441ZM175.299 82.6897C175.204 81.9991 175.224 81.2829 175.361 80.5413C175.529 79.636 175.809 78.9414 176.201 78.4575C176.593 77.9736 177.064 77.6937 177.614 77.6178C178.17 77.5411 178.654 77.6797 179.066 78.0337C179.481 78.3873 179.741 78.9484 179.847 79.7171C179.944 80.4202 179.915 81.182 179.761 82.0026C179.61 82.8196 179.341 83.4681 178.955 83.948C178.568 84.4248 178.097 84.7016 177.541 84.7783C176.985 84.855 176.497 84.7168 176.079 84.3637C175.664 84.0102 175.404 83.4522 175.299 82.6897ZM176.658 82.7792C176.709 83.148 176.804 83.3991 176.944 83.5328C177.083 83.6664 177.247 83.7203 177.434 83.6944C177.684 83.6599 177.89 83.5137 178.052 83.2557C178.269 82.9106 178.414 82.2695 178.489 81.3326C178.549 80.5888 178.55 80.0059 178.491 79.5841C178.444 79.2403 178.349 79.0019 178.206 78.8687C178.067 78.732 177.903 78.6765 177.715 78.7024C177.478 78.7351 177.283 78.8783 177.13 79.1318C176.904 79.5006 176.75 80.1157 176.668 80.9772C176.599 81.7223 176.596 82.323 176.658 82.7792ZM180.643 81.9526C180.547 81.262 180.568 80.5459 180.705 79.8042C180.873 78.899 181.153 78.2044 181.544 77.7205C181.936 77.2365 182.407 76.9566 182.957 76.8808C183.513 76.8041 183.997 76.9427 184.409 77.2967C184.824 77.6502 185.085 78.2113 185.191 78.9801C185.288 79.6832 185.259 80.445 185.105 81.2655C184.953 82.0825 184.684 82.731 184.298 83.2109C183.912 83.6878 183.441 83.9645 182.884 84.0413C182.328 84.118 181.841 83.9798 181.423 83.6267C181.008 83.2731 180.748 82.7151 180.643 81.9526ZM182.002 82.0422C182.053 82.4109 182.148 82.6621 182.287 82.7957C182.427 82.9293 182.59 82.9832 182.778 82.9573C183.028 82.9229 183.234 82.7766 183.396 82.5187C183.612 82.1735 183.758 81.5325 183.832 80.5956C183.892 79.8517 183.893 79.2689 183.835 78.847C183.787 78.5033 183.693 78.2648 183.55 78.1317C183.41 77.9949 183.246 77.9395 183.059 77.9653C182.821 77.9981 182.626 78.1413 182.473 78.3948C182.247 78.7635 182.093 79.3787 182.011 80.2402C181.942 80.9853 181.939 81.586 182.002 82.0422ZM186.271 79.433L186.358 78.1981C187.448 77.532 188.263 76.8192 188.805 76.0599L189.625 75.9467L189.13 83.0603L187.776 83.2472L188.117 78.3471C187.861 78.5672 187.559 78.7776 187.211 78.9785C186.866 79.1789 186.553 79.3304 186.271 79.433ZM191.33 80.4786C191.235 79.788 191.255 79.0718 191.392 78.3301C191.56 77.4249 191.84 76.7303 192.232 76.2464C192.623 75.7625 193.094 75.4826 193.644 75.4067C194.2 75.33 194.684 75.4686 195.096 75.8226C195.511 76.1761 195.772 76.7373 195.878 77.506C195.975 78.2091 195.946 78.9709 195.792 79.7915C195.64 80.6085 195.371 81.2569 194.985 81.7369C194.599 82.2137 194.128 82.4904 193.571 82.5672C193.015 82.6439 192.528 82.5057 192.11 82.1526C191.695 81.799 191.435 81.241 191.33 80.4786ZM192.689 80.5681C192.74 80.9368 192.835 81.188 192.975 81.3216C193.114 81.4552 193.277 81.5091 193.465 81.4833C193.715 81.4488 193.921 81.3026 194.083 81.0446C194.299 80.6995 194.445 80.0584 194.52 79.1215C194.579 78.3777 194.58 77.7948 194.522 77.373C194.475 77.0292 194.38 76.7908 194.237 76.6576C194.097 76.5208 193.934 76.4654 193.746 76.4913C193.509 76.524 193.313 76.6672 193.16 76.9207C192.934 77.2894 192.78 77.9046 192.698 78.7661C192.629 79.5112 192.626 80.1119 192.689 80.5681ZM196.958 77.9589L197.045 76.724C198.135 76.0579 198.95 75.3451 199.492 74.5858L200.312 74.4726L199.818 81.5862L198.463 81.7731L198.804 76.873C198.548 77.0931 198.246 77.3035 197.898 77.5044C197.553 77.7048 197.24 77.8563 196.958 77.9589ZM171.743 92.5409L171.83 91.3061C172.92 90.6399 173.736 89.9272 174.277 89.1678L175.098 89.0547L174.603 96.1683L173.248 96.3551L173.59 91.4551C173.333 91.6751 173.031 91.8856 172.683 92.0864C172.338 92.2868 172.025 92.4383 171.743 92.5409ZM176.802 93.5865C176.707 92.8959 176.728 92.1798 176.864 91.4381C177.032 90.5329 177.312 89.8383 177.704 89.3543C178.096 88.8704 178.567 88.5905 179.117 88.5147C179.673 88.4379 180.157 88.5766 180.569 88.9305C180.984 89.2841 181.244 89.8452 181.35 90.6139C181.447 91.317 181.418 92.0789 181.264 92.8994C181.113 93.7164 180.844 94.3649 180.458 94.8448C180.071 95.3216 179.6 95.5984 179.044 95.6751C178.488 95.7518 178 95.6137 177.582 95.2605C177.167 94.907 176.907 94.349 176.802 93.5865ZM178.161 93.6761C178.212 94.0448 178.307 94.296 178.447 94.4296C178.586 94.5632 178.75 94.6171 178.937 94.5912C179.187 94.5567 179.393 94.4105 179.555 94.1526C179.772 93.8074 179.917 93.1664 179.992 92.2295C180.052 91.4856 180.053 90.9028 179.994 90.4809C179.947 90.1372 179.852 89.8987 179.709 89.7655C179.57 89.6288 179.406 89.5734 179.218 89.5992C178.981 89.632 178.786 89.7751 178.633 90.0287C178.407 90.3974 178.253 91.0125 178.171 91.874C178.102 92.6191 178.099 93.2198 178.161 93.6761ZM182.146 92.8495C182.05 92.1589 182.071 91.4427 182.208 90.7011C182.376 89.7958 182.656 89.1012 183.047 88.6173C183.439 88.1334 183.91 87.8535 184.46 87.7776C185.016 87.7009 185.5 87.8395 185.912 88.1935C186.327 88.547 186.588 89.1082 186.694 89.8769C186.791 90.58 186.762 91.3418 186.608 92.1624C186.456 92.9794 186.187 93.6278 185.801 94.1078C185.415 94.5846 184.944 94.8614 184.387 94.9381C183.831 95.0148 183.344 94.8766 182.926 94.5235C182.511 94.17 182.251 93.6119 182.146 92.8495ZM183.505 92.939C183.556 93.3078 183.651 93.5589 183.79 93.6925C183.93 93.8262 184.093 93.88 184.281 93.8542C184.531 93.8197 184.737 93.6735 184.899 93.4155C185.115 93.0704 185.261 92.4293 185.335 91.4924C185.395 90.7486 185.396 90.1657 185.338 89.7439C185.291 89.4001 185.196 89.1617 185.053 89.0285C184.913 88.8918 184.749 88.8363 184.562 88.8622C184.324 88.8949 184.129 89.0381 183.976 89.2916C183.75 89.6604 183.596 90.2755 183.514 91.137C183.445 91.8821 183.442 92.4828 183.505 92.939Z" fill="white"/>
<path d="M159.184 96.4863L159.271 95.2514C160.361 94.5853 161.176 93.8726 161.718 93.1132L162.538 93.0001L162.043 100.114L160.689 100.301L161.03 95.4005C160.774 95.6205 160.472 95.8309 160.124 96.0318C159.779 96.2322 159.466 96.3837 159.184 96.4863ZM164.243 97.5319C164.148 96.8413 164.168 96.1252 164.305 95.3835C164.473 94.4783 164.753 93.7837 165.145 93.2997C165.536 92.8158 166.007 92.5359 166.557 92.4601C167.113 92.3833 167.597 92.522 168.009 92.8759C168.424 93.2295 168.685 93.7906 168.791 94.5593C168.888 95.2624 168.859 96.0243 168.705 96.8448C168.553 97.6618 168.284 98.3103 167.898 98.7902C167.512 99.267 167.041 99.5438 166.484 99.6205C165.928 99.6972 165.441 99.559 165.023 99.2059C164.608 98.8524 164.348 98.2944 164.243 97.5319ZM165.602 97.6215C165.653 97.9902 165.748 98.2414 165.888 98.375C166.027 98.5086 166.19 98.5625 166.378 98.5366C166.628 98.5021 166.834 98.3559 166.996 98.0979C167.212 97.7528 167.358 97.1118 167.433 96.1748C167.492 95.431 167.493 94.8482 167.435 94.4263C167.388 94.0826 167.293 93.8441 167.15 93.7109C167.01 93.5742 166.846 93.5187 166.659 93.5446C166.422 93.5774 166.226 93.7205 166.073 93.9741C165.847 94.3428 165.693 94.9579 165.611 95.8194C165.542 96.5645 165.539 97.1652 165.602 97.6215ZM169.586 96.7949C169.491 96.1043 169.512 95.3881 169.648 94.6465C169.816 93.7412 170.096 93.0466 170.488 92.5627C170.88 92.0788 171.351 91.7989 171.901 91.723C172.457 91.6463 172.941 91.7849 173.353 92.1389C173.768 92.4924 174.028 93.0536 174.134 93.8223C174.231 94.5254 174.203 95.2872 174.048 96.1078C173.897 96.9248 173.628 97.5732 173.242 98.0532C172.856 98.53 172.384 98.8068 171.828 98.8835C171.272 98.9602 170.785 98.822 170.367 98.4689C169.952 98.1153 169.691 97.5573 169.586 96.7949ZM170.946 96.8844C170.996 97.2531 171.092 97.5043 171.231 97.6379C171.371 97.7716 171.534 97.8254 171.721 97.7996C171.971 97.7651 172.177 97.6189 172.339 97.3609C172.556 97.0158 172.702 96.3747 172.776 95.4378C172.836 94.694 172.837 94.1111 172.779 93.6893C172.731 93.3455 172.636 93.1071 172.494 92.9739C172.354 92.8371 172.19 92.7817 172.003 92.8076C171.765 92.8403 171.57 92.9835 171.417 93.237C171.191 93.6058 171.037 94.2209 170.955 95.0824C170.886 95.8275 170.883 96.4282 170.946 96.8844ZM174.93 96.0578C174.835 95.3672 174.855 94.6511 174.992 93.9094C175.16 93.0042 175.44 92.3096 175.832 91.8257C176.223 91.3417 176.694 91.0618 177.244 90.986C177.801 90.9093 178.285 91.0479 178.696 91.4019C179.111 91.7554 179.372 92.3165 179.478 93.0853C179.575 93.7884 179.546 94.5502 179.392 95.3707C179.24 96.1877 178.971 96.8362 178.586 97.3161C178.199 97.7929 177.728 98.0697 177.172 98.1464C176.615 98.2232 176.128 98.085 175.71 97.7318C175.295 97.3783 175.035 96.8203 174.93 96.0578ZM176.289 96.1474C176.34 96.5161 176.435 96.7673 176.575 96.9009C176.714 97.0345 176.878 97.0884 177.065 97.0625C177.315 97.028 177.521 96.8818 177.683 96.6239C177.899 96.2787 178.045 95.6377 178.12 94.7008C178.179 93.9569 178.18 93.3741 178.122 92.9522C178.075 92.6085 177.98 92.37 177.837 92.2368C177.697 92.1001 177.534 92.0447 177.346 92.0705C177.109 92.1033 176.913 92.2464 176.761 92.5C176.534 92.8687 176.38 93.4838 176.299 94.3453C176.229 95.0905 176.226 95.6911 176.289 96.1474ZM180.558 93.5381L180.645 92.3033C181.735 91.6371 182.55 90.9244 183.092 90.165L183.912 90.0519L183.418 97.1655L182.063 97.3523L182.405 92.4523C182.148 92.6723 181.846 92.8828 181.498 93.0836C181.153 93.2841 180.84 93.4356 180.558 93.5381ZM185.189 92.8994L185.276 91.6645C186.366 90.9984 187.182 90.2856 187.723 89.5263L188.543 89.4131L188.049 96.5267L186.694 96.7136L187.036 91.8135C186.779 92.0336 186.477 92.244 186.129 92.4449C185.784 92.6453 185.471 92.7968 185.189 92.8994ZM189.82 92.2606L189.908 91.0257C190.997 90.3596 191.813 89.6469 192.354 88.8875L193.175 88.7744L192.68 95.888L191.325 96.0748L191.667 91.1748C191.41 91.3948 191.108 91.6052 190.76 91.8061C190.415 92.0065 190.102 92.158 189.82 92.2606ZM194.879 93.3062C194.784 92.6156 194.805 91.8995 194.941 91.1578C195.109 90.2525 195.389 89.558 195.781 89.074C196.173 88.5901 196.644 88.3102 197.194 88.2344C197.75 88.1576 198.234 88.2963 198.646 88.6502C199.061 89.0038 199.321 89.5649 199.427 90.3336C199.524 91.0367 199.495 91.7986 199.341 92.6191C199.19 93.4361 198.921 94.0846 198.535 94.5645C198.148 95.0413 197.677 95.3181 197.121 95.3948C196.565 95.4715 196.077 95.3333 195.659 94.9802C195.244 94.6267 194.984 94.0687 194.879 93.3062ZM196.238 93.3957C196.289 93.7645 196.384 94.0157 196.524 94.1493C196.663 94.2829 196.827 94.3368 197.014 94.3109C197.264 94.2764 197.47 94.1302 197.632 93.8722C197.849 93.5271 197.994 92.8861 198.069 91.9491C198.129 91.2053 198.13 90.6225 198.071 90.2006C198.024 89.8569 197.929 89.6184 197.786 89.4852C197.647 89.3485 197.483 89.293 197.295 89.3189C197.058 89.3517 196.863 89.4948 196.71 89.7484C196.484 90.1171 196.33 90.7322 196.248 91.5937C196.179 92.3388 196.176 92.9395 196.238 93.3957ZM160.687 107.383L160.774 106.148C161.864 105.482 162.679 104.769 163.221 104.01L164.041 103.897L163.546 111.01L162.192 111.197L162.533 106.297C162.277 106.517 161.975 106.728 161.627 106.929C161.282 107.129 160.969 107.281 160.687 107.383ZM165.746 108.429C165.651 107.738 165.671 107.022 165.808 106.28C165.976 105.375 166.256 104.68 166.648 104.197C167.039 103.713 167.51 103.433 168.06 103.357C168.616 103.28 169.1 103.419 169.512 103.773C169.927 104.126 170.188 104.687 170.294 105.456C170.391 106.159 170.362 106.921 170.208 107.742C170.056 108.559 169.787 109.207 169.401 109.687C169.015 110.164 168.544 110.441 167.987 110.517C167.431 110.594 166.944 110.456 166.526 110.103C166.111 109.749 165.851 109.191 165.746 108.429ZM167.105 108.518C167.156 108.887 167.251 109.138 167.391 109.272C167.53 109.405 167.693 109.459 167.881 109.433C168.131 109.399 168.337 109.253 168.499 108.995C168.715 108.65 168.861 108.009 168.936 107.072C168.995 106.328 168.996 105.745 168.938 105.323C168.891 104.979 168.796 104.741 168.653 104.608C168.513 104.471 168.349 104.416 168.162 104.441C167.925 104.474 167.729 104.617 167.576 104.871C167.35 105.24 167.196 105.855 167.114 106.716C167.045 107.461 167.042 108.062 167.105 108.518ZM171.089 107.692C170.994 107.001 171.015 106.285 171.151 105.543C171.319 104.638 171.599 103.943 171.991 103.46C172.383 102.976 172.854 102.696 173.404 102.62C173.96 102.543 174.444 102.682 174.856 103.036C175.271 103.389 175.531 103.95 175.637 104.719C175.734 105.422 175.706 106.184 175.551 107.005C175.4 107.822 175.131 108.47 174.745 108.95C174.359 109.427 173.887 109.704 173.331 109.78C172.775 109.857 172.288 109.719 171.87 109.366C171.455 109.012 171.194 108.454 171.089 107.692ZM172.449 107.781C172.5 108.15 172.595 108.401 172.734 108.535C172.874 108.668 173.037 108.722 173.224 108.696C173.474 108.662 173.68 108.516 173.842 108.258C174.059 107.913 174.205 107.272 174.279 106.335C174.339 105.591 174.34 105.008 174.282 104.586C174.234 104.242 174.139 104.004 173.997 103.871C173.857 103.734 173.693 103.679 173.506 103.704C173.268 103.737 173.073 103.88 172.92 104.134C172.694 104.503 172.54 105.118 172.458 105.979C172.389 106.724 172.386 107.325 172.449 107.781ZM176.717 105.172L176.805 103.937C177.894 103.271 178.71 102.558 179.252 101.799L180.072 101.686L179.577 108.799L178.222 108.986L178.564 104.086C178.308 104.306 178.006 104.517 177.658 104.718C177.313 104.918 176.999 105.069 176.717 105.172ZM181.776 106.218C181.681 105.527 181.702 104.811 181.838 104.069C182.006 103.164 182.286 102.469 182.678 101.985C183.07 101.502 183.541 101.222 184.091 101.146C184.647 101.069 185.131 101.208 185.543 101.562C185.958 101.915 186.218 102.476 186.324 103.245C186.421 103.948 186.393 104.71 186.238 105.531C186.087 106.348 185.818 106.996 185.432 107.476C185.046 107.953 184.574 108.23 184.018 108.306C183.462 108.383 182.975 108.245 182.557 107.892C182.142 107.538 181.882 106.98 181.776 106.218ZM183.136 106.307C183.187 106.676 183.282 106.927 183.421 107.061C183.561 107.194 183.724 107.248 183.912 107.222C184.162 107.188 184.368 107.042 184.529 106.784C184.746 106.439 184.892 105.797 184.966 104.861C185.026 104.117 185.027 103.534 184.969 103.112C184.921 102.768 184.826 102.53 184.684 102.397C184.544 102.26 184.38 102.204 184.193 102.23C183.955 102.263 183.76 102.406 183.607 102.66C183.381 103.029 183.227 103.644 183.145 104.505C183.076 105.25 183.073 105.851 183.136 106.307ZM187.404 103.698L187.492 102.463C188.581 101.797 189.397 101.084 189.939 100.325L190.759 100.212L190.264 107.325L188.91 107.512L189.251 102.612C188.995 102.832 188.693 103.043 188.345 103.243C188 103.444 187.686 103.595 187.404 103.698ZM162.19 118.28L162.277 117.045C163.367 116.379 164.182 115.666 164.724 114.907L165.544 114.794L165.049 121.907L163.695 122.094L164.036 117.194C163.78 117.414 163.478 117.625 163.13 117.825C162.785 118.026 162.472 118.177 162.19 118.28ZM167.249 119.326C167.154 118.635 167.174 117.919 167.311 117.177C167.479 116.272 167.759 115.577 168.151 115.093C168.542 114.609 169.013 114.33 169.563 114.254C170.119 114.177 170.603 114.316 171.015 114.67C171.43 115.023 171.691 115.584 171.797 116.353C171.894 117.056 171.865 117.818 171.711 118.638C171.559 119.455 171.29 120.104 170.904 120.584C170.518 121.061 170.047 121.337 169.49 121.414C168.934 121.491 168.447 121.353 168.029 121C167.614 120.646 167.354 120.088 167.249 119.326ZM168.608 119.415C168.659 119.784 168.754 120.035 168.894 120.169C169.033 120.302 169.196 120.356 169.384 120.33C169.634 120.296 169.84 120.15 170.002 119.892C170.218 119.546 170.364 118.905 170.439 117.969C170.498 117.225 170.499 116.642 170.441 116.22C170.394 115.876 170.299 115.638 170.156 115.505C170.016 115.368 169.853 115.312 169.665 115.338C169.428 115.371 169.232 115.514 169.079 115.768C168.853 116.136 168.699 116.752 168.617 117.613C168.548 118.358 168.545 118.959 168.608 119.415ZM172.592 118.589C172.497 117.898 172.518 117.182 172.654 116.44C172.822 115.535 173.102 114.84 173.494 114.356C173.886 113.872 174.357 113.593 174.907 113.517C175.463 113.44 175.947 113.579 176.359 113.933C176.774 114.286 177.034 114.847 177.14 115.616C177.237 116.319 177.209 117.081 177.054 117.901C176.903 118.718 176.634 119.367 176.248 119.847C175.862 120.324 175.39 120.6 174.834 120.677C174.278 120.754 173.791 120.616 173.373 120.263C172.958 119.909 172.698 119.351 172.592 118.589ZM173.952 118.678C174.003 119.047 174.098 119.298 174.237 119.432C174.377 119.565 174.54 119.619 174.727 119.593C174.977 119.559 175.183 119.413 175.345 119.155C175.562 118.809 175.708 118.168 175.782 117.231C175.842 116.488 175.843 115.905 175.785 115.483C175.737 115.139 175.642 114.901 175.5 114.768C175.36 114.631 175.196 114.575 175.009 114.601C174.771 114.634 174.576 114.777 174.423 115.031C174.197 115.399 174.043 116.015 173.961 116.876C173.892 117.621 173.889 118.222 173.952 118.678Z" fill="white"/>
<path d="M197.997 57.7002C193.607 55.0878 188.542 53.8357 183.441 54.1025C178.34 54.3692 173.433 56.1427 169.34 59.1988C165.247 62.2548 162.152 66.456 160.448 71.271C158.743 76.086 158.504 81.2984 159.762 86.249C161.02 91.1996 163.718 95.666 167.514 99.0831C171.311 102.5 176.035 104.715 181.091 105.446C186.146 106.178 191.305 105.394 195.914 103.193C200.524 100.993 204.377 97.4746 206.987 93.0838C210.487 87.1994 211.506 80.1658 209.82 73.5301C208.134 66.8944 203.881 61.2002 197.997 57.7002ZM173.269 99.2904C169.432 97.0099 166.357 93.6427 164.434 89.6147C162.511 85.5866 161.825 81.0787 162.464 76.661C163.103 72.2433 165.037 68.1143 168.023 64.7961C171.009 61.4779 174.911 59.1197 179.237 58.0196C183.563 56.9195 188.118 57.1269 192.326 58.6157C196.534 60.1045 200.206 62.8078 202.878 66.3837C205.549 69.9595 207.1 74.2473 207.335 78.7048C207.57 83.1622 206.477 87.5892 204.196 91.4257C201.131 96.5627 196.151 100.273 190.352 101.74C184.553 103.208 178.409 102.313 173.269 99.2524V99.2904Z" fill="#263238"/>
<path d="M173.581 101.412L172.394 100.705L171.215 99.9978C171.215 99.9978 160.689 114.092 157.844 118.868C154.999 123.645 153.486 127.943 155.494 129.137C157.502 130.331 160.544 126.946 163.389 122.17C166.233 117.393 173.581 101.412 173.581 101.412Z" fill="#263238"/>
<path d="M165.07 115.567L163.313 114.7C162.789 114.44 162.21 114.31 161.625 114.319C161.041 114.328 160.466 114.477 159.951 114.754L157.015 116.328C156.158 116.787 155.423 117.446 154.872 118.248C154.322 119.05 153.971 119.972 153.851 120.937C153.826 121.114 153.857 121.293 153.939 121.451C154.02 121.609 154.149 121.738 154.307 121.82C157.563 123.425 161.982 123.204 162.423 123.174H162.499L163.959 123.234C164.267 123.255 164.575 123.215 164.867 123.115C165.159 123.016 165.428 122.86 165.659 122.657C165.89 122.453 166.079 122.206 166.214 121.929C166.349 121.652 166.428 121.351 166.447 121.044L166.599 118.07C166.614 117.549 166.478 117.036 166.206 116.591C165.935 116.147 165.54 115.791 165.07 115.567Z" fill="#CE7A63"/>
<path d="M137.642 98.583L137.695 99.7923L137.764 101.123C137.825 102.013 137.886 102.918 137.969 103.816C138.121 105.619 138.365 107.414 138.623 109.193C138.882 110.973 139.247 112.73 139.65 114.457C140.053 116.183 140.578 117.849 141.126 119.5L140.593 118.549C140.479 118.41 140.333 118.301 140.167 118.23C140.061 118.191 140.046 118.23 140.122 118.29C140.502 118.497 140.922 118.616 141.354 118.64C142.818 118.776 144.292 118.75 145.75 118.564C147.363 118.404 149.044 118.123 150.74 117.804C152.436 117.484 154.185 117.096 155.836 116.746H155.988C156.641 116.608 157.322 116.702 157.913 117.013C158.504 117.324 158.968 117.832 159.223 118.449C159.479 119.066 159.51 119.753 159.313 120.391C159.115 121.029 158.7 121.577 158.141 121.941C156.514 122.991 154.822 123.936 153.075 124.771C151.308 125.609 149.486 126.325 147.621 126.916C145.558 127.609 143.412 128.031 141.24 128.171C139.85 128.244 138.458 128.106 137.11 127.76C136.227 127.524 135.384 127.161 134.607 126.68C133.68 126.111 132.867 125.373 132.211 124.505C132.056 124.295 131.921 124.071 131.808 123.835L131.679 123.554C130.716 121.584 129.888 119.551 129.199 117.469C128.85 116.442 128.561 115.408 128.256 114.366C127.952 113.324 127.731 112.282 127.496 111.232C127.048 109.147 126.713 107.04 126.492 104.919C126.393 103.854 126.294 102.797 126.248 101.717C126.248 101.184 126.203 100.644 126.195 100.097C126.187 99.549 126.195 99.0469 126.195 98.3548C126.178 96.8418 126.762 95.3841 127.82 94.3021C128.878 93.2202 130.322 92.6027 131.835 92.5856C133.348 92.5684 134.806 93.153 135.888 94.2107C136.97 95.2684 137.587 96.7125 137.604 98.2255L137.642 98.583Z" fill="#CE7A63"/>
<path d="M129.907 86.748C134.988 89.5622 138.821 94.354 139.285 105.71C136.121 108.752 126.264 109.216 126.264 109.216C126.264 109.216 120.521 93.35 129.907 86.748Z" fill="#D93D00"/>
<path d="M126.804 90.0033C127.33 90.067 127.821 90.2979 128.206 90.6622C128.591 91.0265 128.848 91.5048 128.941 92.0266C128.982 92.274 128.969 92.5275 128.902 92.7693C128.835 93.0111 128.716 93.2352 128.553 93.4261C128.383 93.6202 128.172 93.7741 127.935 93.8767C127.698 93.9793 127.442 94.0281 127.184 94.0194C126.834 94.0131 126.49 93.9326 126.174 93.7831C125.858 93.6336 125.577 93.4185 125.351 93.1523C125.305 93.2816 125.275 93.4109 125.237 93.5402C125.75 94.0656 126.449 94.3687 127.184 94.3844C127.494 94.3919 127.802 94.331 128.086 94.2061C128.37 94.0812 128.623 93.8954 128.827 93.6619C129.024 93.4321 129.169 93.1618 129.25 92.87C129.332 92.5782 129.348 92.2721 129.298 91.9733C129.191 91.4079 128.916 90.8879 128.509 90.481C128.102 90.074 127.582 89.7989 127.017 89.6915L126.804 90.0033Z" fill="white"/>
<path d="M128.606 103.907C128.297 103.901 127.99 103.962 127.706 104.085C127.423 104.208 127.169 104.392 126.963 104.622C126.766 104.854 126.622 105.125 126.54 105.418C126.459 105.711 126.442 106.018 126.492 106.318C126.606 106.968 126.942 107.559 127.443 107.989C127.943 108.419 128.578 108.662 129.237 108.676C129.55 108.677 129.86 108.61 130.143 108.479C130.427 108.347 130.679 108.155 130.88 107.916C131.076 107.685 131.219 107.414 131.299 107.123C131.379 106.831 131.395 106.525 131.344 106.227C131.231 105.577 130.896 104.985 130.395 104.555C129.894 104.125 129.259 103.882 128.599 103.869L128.606 103.907ZM130.994 106.311C131.038 106.559 131.026 106.813 130.96 107.056C130.894 107.3 130.776 107.525 130.614 107.718C130.443 107.911 130.232 108.064 129.995 108.166C129.759 108.269 129.503 108.318 129.245 108.311C128.672 108.299 128.12 108.088 127.685 107.715C127.25 107.342 126.957 106.83 126.857 106.265C126.815 106.017 126.828 105.762 126.895 105.519C126.962 105.276 127.082 105.05 127.245 104.858C127.417 104.667 127.628 104.515 127.865 104.412C128.101 104.31 128.356 104.26 128.614 104.265C129.187 104.276 129.739 104.486 130.175 104.859C130.611 105.232 130.903 105.746 131.002 106.311H130.994Z" fill="white"/>
<path d="M134.881 96.7575C134.572 96.7497 134.264 96.8096 133.981 96.9331C133.697 97.0566 133.443 97.2407 133.238 97.4725C133.041 97.7035 132.897 97.9754 132.816 98.2686C132.736 98.5619 132.722 98.8692 132.774 99.1687C132.887 99.8193 133.223 100.41 133.724 100.841C134.225 101.271 134.86 101.513 135.52 101.527C135.833 101.527 136.142 101.459 136.425 101.327C136.709 101.196 136.961 101.004 137.163 100.766C137.361 100.535 137.505 100.263 137.585 99.9698C137.665 99.6766 137.68 99.3692 137.627 99.0698C137.505 98.4275 137.165 97.847 136.665 97.4259C136.165 97.0048 135.535 96.7687 134.881 96.7575ZM136.889 100.561C136.718 100.753 136.507 100.906 136.27 101.008C136.034 101.111 135.778 101.16 135.52 101.154C134.946 101.143 134.394 100.933 133.959 100.56C133.523 100.186 133.231 99.6731 133.132 99.1078C133.087 98.8598 133.098 98.6049 133.164 98.3615C133.23 98.1182 133.349 97.8925 133.512 97.7007C133.684 97.5086 133.895 97.3561 134.131 97.2537C134.368 97.1512 134.624 97.1013 134.881 97.1074C135.455 97.1183 136.007 97.3284 136.443 97.7017C136.878 98.075 137.171 98.5882 137.269 99.1535C137.316 99.4027 137.306 99.6592 137.24 99.904C137.174 100.149 137.054 100.376 136.889 100.568V100.561Z" fill="white"/>
<path d="M101.802 214.386H101.665C100.844 214.173 100.905 212.195 101.323 210.438C101.741 208.681 102.685 206.932 103.514 207.145C104.343 207.358 104.274 209.335 103.856 211.085C103.653 211.935 103.325 212.75 102.882 213.504C102.51 214.089 102.145 214.386 101.802 214.386ZM103.377 207.426C102.913 207.426 102.091 208.681 101.627 210.507C101.163 212.332 101.285 213.952 101.741 214.066C101.954 214.12 102.297 213.838 102.624 213.306C103.047 212.581 103.36 211.796 103.552 210.978C104.054 209.024 103.894 207.533 103.438 207.419L103.377 207.426Z" fill="white"/>
<path d="M258.792 269.34C258.706 269.34 258.621 269.311 258.554 269.257C258.486 269.203 258.439 269.128 258.419 269.043C249.756 228.077 266.535 184.889 287.65 170.27C287.733 170.215 287.834 170.194 287.932 170.212C288.031 170.231 288.118 170.287 288.175 170.369C288.232 170.453 288.254 170.555 288.237 170.654C288.22 170.753 288.165 170.842 288.083 170.902C267.167 185.353 250.562 228.191 259.18 268.876C259.191 268.924 259.193 268.975 259.184 269.024C259.175 269.073 259.157 269.119 259.13 269.161C259.103 269.203 259.068 269.239 259.027 269.267C258.986 269.295 258.94 269.315 258.891 269.325L258.792 269.34Z" fill="#263238"/>
<path d="M258.792 269.34C258.706 269.34 258.621 269.311 258.554 269.257C258.486 269.203 258.439 269.128 258.419 269.043C249.756 228.077 266.535 184.889 287.65 170.27C287.733 170.215 287.834 170.194 287.932 170.212C288.031 170.231 288.118 170.287 288.175 170.369C288.232 170.453 288.254 170.555 288.237 170.654C288.22 170.753 288.165 170.842 288.083 170.902C267.167 185.353 250.562 228.191 259.18 268.876C259.191 268.924 259.193 268.975 259.184 269.024C259.175 269.073 259.157 269.119 259.13 269.161C259.103 269.203 259.068 269.239 259.027 269.267C258.986 269.295 258.94 269.315 258.891 269.325L258.792 269.34Z" fill="#263238"/>
<path d="M285.292 172.431C292.244 164.604 304.528 157.713 311.411 160.352C308.97 167.312 295.758 172.21 285.292 172.431Z" fill="#263238"/>
<path d="M279.922 177.572C271.555 171.305 263.653 159.63 265.714 152.548C272.848 154.404 278.827 167.167 279.922 177.572Z" fill="#263238"/>
<path d="M273.442 185.893C283.869 186.745 296.769 192.427 298.793 199.516C291.757 201.744 279.907 194.123 273.442 185.893Z" fill="#263238"/>
<path d="M267.509 196.618C257.826 192.632 247.269 183.3 247.505 175.929C254.867 175.945 263.85 186.806 267.509 196.618Z" fill="#263238"/>
<path d="M262.801 208.301C273.115 206.521 287.018 208.803 290.745 215.146C284.531 219.079 271.122 214.66 262.801 208.301Z" fill="#263238"/>
<path d="M256.936 237.615C264.542 236.276 274.735 237.919 277.473 242.589C272.901 245.48 263.059 242.262 256.936 237.615Z" fill="#263238"/>
<path d="M251.194 272.375H251.133C251.083 272.366 251.036 272.348 250.993 272.322C250.951 272.295 250.914 272.26 250.885 272.219C250.856 272.178 250.835 272.132 250.824 272.083C250.813 272.034 250.812 271.983 250.821 271.934C255.271 247.221 244.47 221.688 231.593 213.367C231.509 213.309 231.451 213.222 231.431 213.122C231.411 213.023 231.431 212.919 231.486 212.834C231.542 212.751 231.629 212.693 231.727 212.673C231.825 212.653 231.927 212.673 232.011 212.728C245.094 221.201 256.069 247.077 251.574 272.055C251.558 272.145 251.511 272.225 251.442 272.284C251.372 272.342 251.284 272.374 251.194 272.375Z" fill="#263238"/>
<path d="M251.194 272.375H251.133C251.083 272.366 251.036 272.348 250.993 272.322C250.951 272.295 250.914 272.26 250.885 272.219C250.856 272.178 250.835 272.132 250.824 272.083C250.813 272.034 250.812 271.983 250.821 271.934C255.271 247.221 244.47 221.688 231.593 213.367C231.509 213.309 231.451 213.222 231.431 213.122C231.411 213.023 231.431 212.919 231.486 212.834C231.542 212.751 231.629 212.693 231.727 212.673C231.825 212.653 231.927 212.673 232.011 212.728C245.094 221.201 256.069 247.077 251.574 272.055C251.558 272.145 251.511 272.225 251.442 272.284C251.372 272.342 251.284 272.374 251.194 272.375Z" fill="#263238"/>
<path d="M233.388 214.082C229.045 209.472 221.484 205.525 217.369 207.236C218.974 211.419 227.06 214.135 233.388 214.082Z" fill="#263238"/>
<path d="M236.735 217.094C241.694 213.146 246.25 205.935 244.873 201.691C240.591 202.977 237.206 210.773 236.735 217.094Z" fill="#263238"/>
<path d="M240.811 221.992C234.513 222.699 226.816 226.373 225.721 230.701C230.018 231.933 237.046 227.103 240.811 221.992Z" fill="#263238"/>
<path d="M244.599 228.381C250.38 225.795 256.594 219.953 256.32 215.504C251.825 215.648 246.63 222.38 244.599 228.381Z" fill="#263238"/>
<path d="M247.657 235.363C241.382 234.481 233.015 236.124 230.878 240.034C234.734 242.285 242.743 239.364 247.657 235.363Z" fill="#263238"/>
<path d="M273.442 263.255H240.005V266.799H273.442V263.255Z" fill="#D93D00"/>
<path d="M271.038 259.711H235.761V263.255H271.038V259.711Z" fill="#D93D00"/>
<path d="M276.066 266.792H242.203V270.336H276.066V266.792Z" fill="#D93D00"/>
<path d="M274.788 288.051H238.773V291.595H274.788V288.051Z" fill="#D93D00"/>
<path d="M273.906 270.336H236.134V273.881H273.906V270.336Z" fill="#D93D00"/>
<path d="M282.592 270.336H278.804V273.881H282.592V270.336Z" fill="#D93D00"/>
<path d="M276.461 273.881H260.504V277.425H276.461V273.881Z" fill="#D93D00"/>
<path d="M240.576 284.506H260.678V280.962H240.576V284.506Z" fill="#D93D00"/>
<path d="M262.93 284.506H273.518V280.962H262.93V284.506Z" fill="#D93D00"/>
<path d="M247.444 284.506H236.385V288.051H247.444V284.506Z" fill="#D93D00"/>
<path d="M258.891 284.506H253.765V288.051H258.891V284.506Z" fill="#D93D00"/>
<path d="M278.347 284.506H267.668V288.051H278.347V284.506Z" fill="#D93D00"/>
<path d="M276.377 291.595H265.698V295.14H276.377V291.595Z" fill="#D93D00"/>
<path d="M258.039 273.881H241.496V277.425H258.039V273.881Z" fill="#D93D00"/>
<path d="M263.774 291.595H240.583V295.14H263.774V291.595Z" fill="#D93D00"/>
<path d="M274.948 277.425H238.286V280.97H274.948V277.425Z" fill="#D93D00"/>
</svg>
